<svg width="56" height="56" viewBox="0 0 56 56" fill="none" xmlns="http://www.w3.org/2000/svg">
<path d="M39.9301 11H26.9849C25.8459 11 24.9141 11.9319 24.9141 13.0708V42.2642C24.9141 43.4032 25.846 44.335 26.9849 44.335H39.9301C41.069 44.335 42.0009 43.4031 42.0009 42.2642V13.0708C42.0009 11.9319 41.069 11 39.9301 11Z" fill="white" stroke="#222222" stroke-width="2" stroke-linecap="round"/>
<path d="M37.0246 14.177H26.5842C25.6656 14.177 24.9141 14.9324 24.9141 15.8556V39.5189C24.9141 40.4421 25.6657 41.1974 26.5842 41.1974H37.0246C38.8937 41.1974 38.6948 41.3901 38.6948 39.5189V15.8556C38.6948 13.9842 38.8936 14.177 37.0246 14.177Z" fill="#D8D8D8" stroke="#222222" stroke-width="1.5" stroke-linecap="round" stroke-linejoin="round"/>
<path d="M28.016 11H15.0709C13.9319 11 13 11.9319 13 13.0708V42.2642C13 43.4032 13.932 44.335 15.0709 44.335H28.016C29.155 44.335 30.0869 43.4031 30.0869 42.2642V13.0708C30.0869 11.9319 29.1549 11 28.016 11Z" fill="white" stroke="#222222" stroke-width="2" stroke-linecap="round"/>
<path d="M23.0293 28.7251L23.7274 30.5289L25.5312 31.227L23.7274 31.9252L23.0293 33.7289L22.3311 31.9252L20.5273 31.227L22.3311 30.5289L23.0293 28.7251Z" fill="#222222" stroke="#222222" stroke-width="0.3382" stroke-linecap="round" stroke-linejoin="round"/>
<path d="M20.415 22.9609L21.4208 25.5596L24.0194 26.5654L21.4208 27.2225L20.415 29.8211L19.4092 27.2225L16.8105 26.5654L19.4092 25.5596L20.415 22.9609Z" fill="#222222" stroke="#222222" stroke-width="0.3382" stroke-linecap="round" stroke-linejoin="round"/>
<path d="M18.3259 13.4766H17.0836C16.3244 13.4766 15.709 14.092 15.709 14.8512V16.0935C15.709 16.8526 16.3244 17.4681 17.0836 17.4681H18.3259C19.0851 17.4681 19.7005 16.8526 19.7005 16.0935V14.8512C19.7005 14.092 19.0851 13.4766 18.3259 13.4766Z" fill="white" stroke="#222222" stroke-width="1.5" stroke-linecap="round"/>
</svg>
