<svg xmlns="http://www.w3.org/2000/svg" viewBox="0 0 164.73 153.91"><defs><style>.cls-1{fill:#7c7d7d;}.cls-2{fill:#01101e;}.cls-2,.cls-3,.cls-4,.cls-5,.cls-6,.cls-7{fill-rule:evenodd;}.cls-3{fill:#4b52a3;}.cls-4{fill:#6a2c91;}.cls-15,.cls-5{fill:#4d2b14;}.cls-11,.cls-6{fill:#f5e0cd;}.cls-12,.cls-7{fill:#e8c1a0;}.cls-8{fill:#484ea1;}.cls-9{fill:#f2fcfa;}.cls-10,.cls-17{fill:none;}.cls-10{stroke:#ba8352;stroke-linejoin:round;stroke-width:0.55px;}.cls-13{fill:#e2ad86;}.cls-14{fill:#ba8352;}.cls-16{fill:#5e5f5f;}.cls-17{stroke:#b5e8e8;stroke-miterlimit:10;stroke-width:0.74px;}.cls-18{fill:#999;}.cls-19{fill:#d6d7d6;}.cls-20{fill:#f5f5f5;}.cls-21{fill:#88c6ed;}.cls-22{fill:#3e59a8;}.cls-23{fill:#8ab2de;}.cls-24{fill:#365caa;}.cls-25{fill:#456eb5;}.cls-26{fill:#8b3995;}.cls-27{fill:#f5928f;}</style></defs><g id="Layer_2" data-name="Layer 2"><g id="Layer_1-2" data-name="Layer 1"><path class="cls-1" d="M134.52,36.14H130v4.57h4.57Z"/><path class="cls-2" d="M127.89,80.42s3.37-.63,3.55-1.8a8.46,8.46,0,0,0-3-1.09l-.55,2.89Z"/><path class="cls-3" d="M57.14,128.2s.24-10,5.36-15.89c0,0,24.25,7.74,47.39,5.62A30.09,30.09,0,0,0,111,125l.74,2.86Z"/><path class="cls-4" d="M53.26,66.33,63,45.82l20.5-.09S84.59,50.84,92,52.6c0,0,9.46-3.42,13.56-8.18l16.18,4.68a22.66,22.66,0,0,1,4.7,4.09l4.67,17.22.3,8.21s-11.09-4.55-17.8-2.72c0,0-6.45,30.78-2.14,36l-1.07,11.17S67.25,124.66,59.25,116c0,0,4-10.51,7.12-15.31,0,0,3.34-6.77,2.66-12.26l-1.9-18.67S57,69.55,53.26,66.33Z"/><path class="cls-5" d="M69.28,5.36s-3.09-1.92-6,1.83c0,0-3.73,4.39-3.55,12.64a25.48,25.48,0,0,1-1.57,9.86,16,16,0,0,1-1.25,2.56s-2.66,4.24-.29,10.21,3.39,9.1.81,11.62c0,0-7.29,4.35-3.88,9.6a5.75,5.75,0,0,0,3.76,2.49c2.14.16,3.31,4.18,1.8,4.83,0,0-2.35,3.25,2.17,5.1,0,0,.72-.17,1.49,2.39s.35,2.35,2.13,3.21c0,0,13.64,1,17.74-18.48,0,0,4.12-2,2.2-15.61L83.6,46.14l.13-2.89S60.32,17.45,72.13,9.76l-2.85-4.4Z"/><path class="cls-6" d="M79.37,38.63s3.7,4.89,4.08,6.85a8.42,8.42,0,0,0,1.34,3.05,8.33,8.33,0,0,0,2.42,2.31,11.08,11.08,0,0,0,10.62,1.27s5.94-1.64,7.52-9.36c0,0-5.43-3.45-8.64-16.26C96.71,26.49,95.59,35.12,79.37,38.63Z"/><path class="cls-7" d="M79.74,39l2.92,4.43s2.82,2.83,10.12.94a5,5,0,0,0,2.53-1.57,14.81,14.81,0,0,0,3-5.67,15,15,0,0,0,.35-6.42L96.93,26S91.11,38.29,79.74,39Z"/><path class="cls-6" d="M56.84,68.12s-7.42,20.24-8.73,25.74a13.15,13.15,0,0,0-.11,7.33s.93,4.35,4.3,3.51l1-.45a34.13,34.13,0,0,0,12.78-9.73l.17-.21s8.44-10.79,13.55-12.06A12.31,12.31,0,0,0,83,82a34.43,34.43,0,0,0,8.82-4.22,2.56,2.56,0,0,0,1-2.32,1.16,1.16,0,0,0-.08-.42,1.21,1.21,0,0,0-.24-.35,1,1,0,0,0-.35-.23,1,1,0,0,0-.42-.08,1.69,1.69,0,0,0,1.46-1.88s.07-1.15-.88-1c0,0,2.23-.41,2.51-2,0,0,.07-2.09-1.27-2.23a16.7,16.7,0,0,0-3.74.08s.09-1.16,1.91-1.86,6.56-2.92,8.44-3.41c0,0,1.35-.58,1.36-1.68a1.68,1.68,0,0,0-.8-.9,1.75,1.75,0,0,0-1.19-.18s-4,.35-10.36,3.35c0,0-2.76,1.07-4.23,1.51l-.29.07s1.67-2.53,1.65-4.05c0,0,.48-3.53-1.46-4.22,0,0-.5-.33-.59.56A5.48,5.48,0,0,1,83,60,14.43,14.43,0,0,0,80.83,63s-3,5.62-5.68,8a10.57,10.57,0,0,1-2.52,1.52,14.43,14.43,0,0,0-2.54,2,56.73,56.73,0,0,1-4.48,3.87l-2.12,1.63S67,69.84,66.94,69.84a88.38,88.38,0,0,1-10.1-1.72Z"/><path class="cls-6" d="M129.41,48.61a3.29,3.29,0,0,0,.32-2.36s-.54-1.71-1.76-1c0,0-.68,1.47-.87,1.78a3.47,3.47,0,0,0-1.06,1,3.55,3.55,0,0,0-.54,1.37,22.45,22.45,0,0,1-1.17,5.73s-1.45,5-1.46,5a32.85,32.85,0,0,1-1.08,3.36,9.69,9.69,0,0,0-1.06,4.22,74.74,74.74,0,0,1-.69,7.9s-4.77-.86-6.63.32a75.67,75.67,0,0,1-1.6,9.08s-5.54,16.42-3.39,23c0,0,2.56,5.65,6.25,5.46a11.48,11.48,0,0,0,6.4-3.6,13,13,0,0,0,1.08-1.45,26.29,26.29,0,0,0,4.41-11.17s1.51-18.61,3.27-22.5a21.49,21.49,0,0,1,2.36-4.87,10.3,10.3,0,0,1,2.88-3s7.44-6.19,8.65-8.33c0,0,2.91-2.18,3.15-4.85,0,0-.05-.89-.22-1.06a2.36,2.36,0,0,0,.69-1.43l0-1.23a4.34,4.34,0,0,0-.29-1.74c-.16-.4-.38-.77-.68-.86,0,0,.85-1.76.44-2.81a4.9,4.9,0,0,0-1.13-1.39s-1.06-1-1.58-.9a3.54,3.54,0,0,0,.54-1.45c0-.48.16-1.28-.66-1.55,0,0-.72,0-.9.2L130,50.84s-.65,1.39-.82.73a6.94,6.94,0,0,0,0-1.44,13.28,13.28,0,0,1,.33-1.52Z"/><path class="cls-8" d="M142.25,34l-12.7.5a.93.93,0,0,0-.4.09.9.9,0,0,0-.33.25,1,1,0,0,0-.22.35,1,1,0,0,0-.06.41L129.45,59a1.06,1.06,0,0,0,1.1,1l12.7-.49a1.07,1.07,0,0,0,.4-.1,1.16,1.16,0,0,0,.34-.24,1,1,0,0,0,.21-.35,1.18,1.18,0,0,0,.07-.41L143.35,35a1,1,0,0,0-.09-.4,1.15,1.15,0,0,0-.6-.55,1,1,0,0,0-.41-.06Z"/><path class="cls-9" d="M130.68,42.88l-.21.47-.5.1.38.34-.06.52.45-.26.46.22-.11-.51.35-.38-.51-.05-.25-.45Z"/><path class="cls-9" d="M134.35,42.7l-.2.48-.51.1.39.34-.07.52.45-.27.47.23-.11-.51.35-.38-.52-.05-.25-.46Z"/><path class="cls-9" d="M129.2,40.68l-.12-.51.36-.38-.52,0-.25-.46-.1.25,0,1,.12-.07.47.22Z"/><path class="cls-9" d="M132.35,39.12l-.21.47-.51.1L132,40l-.06.51.44-.26.47.22-.11-.51.35-.38-.51,0-.25-.45Z"/><path class="cls-9" d="M130.33,35.53l-.2.48-.51.09.39.35-.07.52.45-.27.47.22-.11-.5.35-.38-.51,0-.26-.46Z"/><path class="cls-9" d="M134,35.36l-.21.47-.5.1.38.35-.06.51.44-.26.47.22-.11-.51.35-.38-.51,0-.25-.45Z"/><path class="cls-9" d="M138,42.53l-.21.47-.51.1.39.35-.06.51.44-.26.47.22-.11-.51.35-.38-.51-.05-.25-.45Z"/><path class="cls-9" d="M141.7,42.36l-.2.47-.51.1.39.34-.07.52.45-.26.46.22-.11-.51.36-.38-.52,0-.25-.45Z"/><path class="cls-9" d="M136,38.94l-.2.48-.51.1.38.34-.06.52.45-.26.47.21-.12-.5.36-.38-.52-.05-.25-.46Z"/><path class="cls-9" d="M139.7,38.77l-.21.48-.51.09.39.35-.06.52.44-.27.47.22-.11-.51.35-.38-.51,0Z"/><path class="cls-9" d="M143.37,38.6l-.21.47-.51.1.39.34L143,40l.44-.26.12,0,0-1Z"/><path class="cls-9" d="M137.68,35.19l-.21.47-.5.1.38.34-.06.52.45-.26.46.22-.11-.51.35-.38-.51,0-.25-.45Z"/><path class="cls-9" d="M141.36,35l-.21.48-.51.09.39.35-.06.52.44-.27.47.22-.11-.5.35-.38-.51-.05-.25-.46Z"/><path class="cls-9" d="M129.54,48l-.11-.51.36-.38-.52,0-.25-.46-.11.25.05,1,.12-.06.46.22Z"/><path class="cls-9" d="M132.69,46.46l-.2.48L132,47l.39.34-.07.52.45-.27.47.22-.12-.5.36-.38-.52,0Z"/><path class="cls-9" d="M131.62,58l-.25-.45-.2.47-.51.1.39.34L131,59l.45-.26.47.22-.12-.51.36-.38Z"/><path class="cls-9" d="M135.29,57.85l-.25-.46-.2.48-.51.1.39.34-.06.52.44-.27.47.22-.11-.5.35-.38-.52,0Z"/><path class="cls-9" d="M129.89,55.37l-.11-.51.35-.38-.51,0-.25-.45-.11.24.05,1,.11-.07.47.22Z"/><path class="cls-9" d="M133.29,54.26l-.25-.45-.2.47-.51.1.39.35-.07.51.45-.26.47.22-.12-.51.36-.38-.52-.05Z"/><path class="cls-9" d="M131,50.22l-.21.48-.51.1.39.34-.06.51.44-.26.47.22-.11-.5.35-.38-.51,0-.25-.46Z"/><path class="cls-9" d="M134.7,50.05l-.21.47-.5.1.38.35-.06.51.44-.26.47.22-.11-.51.35-.38-.51,0-.25-.45Z"/><path class="cls-9" d="M136.37,46.29l-.21.47-.5.1.38.35-.06.51.45-.26.46.22-.11-.51.35-.38-.51,0-.25-.45Z"/><path class="cls-9" d="M140,46.11l-.2.48-.51.1.39.34-.07.52.45-.26.46.22-.11-.51.36-.38-.52,0-.25-.46Z"/><path class="cls-9" d="M143.51,46.42l-.51.1.39.34-.07.52.45-.27.12.06,0-1-.13-.23Z"/><path class="cls-9" d="M139,57.67l-.25-.45-.21.48-.5.09.38.35-.06.51.44-.26.47.22-.11-.51.35-.38-.51,0Z"/><path class="cls-9" d="M142.65,57.5l-.25-.45-.21.47-.51.1.39.34-.06.52.44-.26.47.22-.11-.51.35-.38-.51,0Z"/><path class="cls-9" d="M137,54.09l-.25-.46-.21.48-.51.1.39.34-.06.52.44-.27.47.22-.11-.5.35-.38-.51,0Z"/><path class="cls-9" d="M140.64,53.91l-.25-.45-.21.48-.5.09.38.35-.06.51.44-.26.47.22-.11-.51.35-.38-.51-.05Z"/><path class="cls-9" d="M143.86,53.76l-.51.1.39.35-.07.51.45-.26.12,0-.05-1-.13-.23Z"/><path class="cls-9" d="M138.37,49.87l-.2.48-.51.1.39.34-.07.52.45-.26.46.22-.11-.51.36-.38-.52-.05Z"/><path class="cls-9" d="M142.05,49.7l-.21.48-.51.1.39.34-.06.51.44-.26.47.22-.11-.5.35-.38-.51-.05-.25-.46Z"/><path class="cls-1" d="M134.05,39.45a.64.64,0,0,1,0,.2.5.5,0,0,1-.11.17.36.36,0,0,1-.16.12.49.49,0,0,1-.2.05l-2.52.1-.2,0a.45.45,0,0,1-.17-.11.48.48,0,0,1-.12-.16.65.65,0,0,1,0-.2l-.1-2.51a.45.45,0,0,1,0-.2.46.46,0,0,1,.27-.3.65.65,0,0,1,.2,0l2.51-.09a.34.34,0,0,1,.2,0,.59.59,0,0,1,.17.1.66.66,0,0,1,.12.17.46.46,0,0,1,0,.2l.1,2.51Z"/><path class="cls-10" d="M109.58,99.43s3.22-6.58,4.46-9c0,0,5.77-10.92,5.91-14.74"/><path class="cls-10" d="M124.91,63.72a6.29,6.29,0,0,0,2.85-.71,6.21,6.21,0,0,0,2.2-1.94"/><path class="cls-10" d="M125.45,55.5a3.29,3.29,0,0,0,2-.36,3.26,3.26,0,0,0,1.39-1.43"/><path class="cls-10" d="M52.75,86.54s8.53-4.45,10.67-6.34"/><path class="cls-5" d="M59.65,68.7s-1.08,9.84,3.72,11.36l6.38-5.39.41-6.17-10.51.2Z"/><path class="cls-11" d="M128.77,45.12a1.43,1.43,0,0,1,.51.36,1.48,1.48,0,0,1,.3.55,4.1,4.1,0,0,1,.14,1.74,4.51,4.51,0,0,1-.82,1.62l-.13-4.27Z"/><path class="cls-10" d="M127.72,65.2s-.42,5,4.47,4.72"/><path class="cls-6" d="M143.78,42.18s-1.29-.53-1.42.62a2.35,2.35,0,0,0,.79,2.35l1,.56-.38-3.53Z"/><path class="cls-11" d="M143,45.85s-1.2.49-.09,2.65l1.5,1.22-.52-3.51c-.24-.05-.68-.47-.89-.36Z"/><path class="cls-10" d="M144.27,51.24s1.58-1.35-.48-1.52"/><path class="cls-10" d="M143.71,45.94a3.11,3.11,0,0,1,.68.27l1.49.8"/><path class="cls-11" d="M144.27,51.24c-.2.07-1.19-.19-1.29,0a1.53,1.53,0,0,0-.22.82s-.08.18.35,1.32c0,0,1.37.95,1.59,1l-.43-3.17Z"/><path class="cls-10" d="M145.16,54.53a2.79,2.79,0,0,1-1.1-.45,2.7,2.7,0,0,1-.81-.87"/><path class="cls-10" d="M143.16,51.35a.82.82,0,0,1,.48-.24.78.78,0,0,1,.52.13s1.39,1.44,1.72,1.34"/><path class="cls-11" d="M92.19,40.92a7.16,7.16,0,0,1-5,1.18,18.66,18.66,0,0,1-10.87-4.35,44.56,44.56,0,0,1-7.46-9l-1-1.27c-4.07-6.38-2.31-14.18,2.27-17C76.4,6.74,86,6.94,90.09,13.32L91,14.67a44.37,44.37,0,0,1,5,10.56,19.18,19.18,0,0,1-.86,11.83c-.77,1.92-1.22,2.76-2.94,3.86Z"/><path class="cls-5" d="M70.2,10.86s6.46-3.3,11.74-1a8,8,0,0,1,2.86,2.21,36,36,0,0,0,6.35,5.79c4.29,3,5.09,10.34,5.41,11.62,0,0,2.5,7.53,5.7,10.25,0,0,2.66,5.24.5,12.93a14.88,14.88,0,0,0-.43,6.63c.75,4.08,3.37,9.75,11.71,13,0,0,7.32-5.66,5.66-7.79-4.25-5.44,2-13.91,3.49-14.28,0,0,2.18-6.43-6-11.45,0,0-9.28-5.46-9.2-15.45,0,0,.67-8.62-12.71-15.37a7.68,7.68,0,0,1-1.9-1.34l-.1-.09s-14-13.77-25.94-1.29A9.57,9.57,0,0,0,70.2,10.86Z"/><path class="cls-6" d="M71.61,31.8s-3.07-1-2.2,1.16a12.23,12.23,0,0,0,3.24,3.94s2.84,2.21,3.58,1.25a1.67,1.67,0,0,0,.29-.62,1.79,1.79,0,0,0,0-.69s-2.13-1.17-5-5Z"/><path class="cls-12" d="M77.6,27.55a.18.18,0,0,0,.18-.18.18.18,0,1,0-.36,0A.18.18,0,0,0,77.6,27.55Z"/><path class="cls-12" d="M86.13,22a.18.18,0,0,0,.18-.19.18.18,0,0,0-.18-.18.19.19,0,1,0,0,.37Z"/><path class="cls-13" d="M76.23,33a.18.18,0,1,0,0-.36.18.18,0,1,0,0,.36Z"/><path class="cls-13" d="M76.2,30.53a.12.12,0,1,0-.12-.12A.12.12,0,0,0,76.2,30.53Z"/><path class="cls-13" d="M77.5,31.8a.12.12,0,1,0-.12-.12A.12.12,0,0,0,77.5,31.8Z"/><path class="cls-13" d="M74.21,31.22a.23.23,0,0,0,.23-.24.23.23,0,0,0-.23-.23A.23.23,0,0,0,74,31,.24.24,0,0,0,74.21,31.22Z"/><path class="cls-13" d="M81.12,30.13A.12.12,0,1,0,81,30,.12.12,0,0,0,81.12,30.13Z"/><path class="cls-13" d="M79.85,31.43a.12.12,0,1,0-.12-.12A.12.12,0,0,0,79.85,31.43Z"/><path class="cls-13" d="M79.74,29.45a.23.23,0,0,0,.23-.23.23.23,0,0,0-.23-.24.24.24,0,0,0-.24.24A.23.23,0,0,0,79.74,29.45Z"/><path class="cls-13" d="M91,24.14a.18.18,0,0,0,.18-.18.19.19,0,0,0-.18-.19.2.2,0,0,0-.19.19A.19.19,0,0,0,91,24.14Z"/><path class="cls-13" d="M89.06,22.69a.12.12,0,1,0-.12-.12A.12.12,0,0,0,89.06,22.69Z"/><path class="cls-13" d="M84.11,27.76a.12.12,0,1,0,0-.24.12.12,0,1,0,0,.24Z"/><path class="cls-13" d="M89.35,24.49a.13.13,0,0,0,.12-.13.13.13,0,0,0-.12-.12.13.13,0,0,0-.13.12A.13.13,0,0,0,89.35,24.49Z"/><path class="cls-13" d="M90.68,21.51a.24.24,0,1,0-.23-.23A.23.23,0,0,0,90.68,21.51Z"/><path class="cls-13" d="M85.89,26.47a.12.12,0,1,0-.12-.12A.12.12,0,0,0,85.89,26.47Z"/><path class="cls-13" d="M87.69,26.19a.13.13,0,0,0,.12-.12.13.13,0,0,0-.12-.13.13.13,0,0,0-.13.13A.13.13,0,0,0,87.69,26.19Z"/><path class="cls-13" d="M84.6,25a.23.23,0,0,0,.23-.24.23.23,0,0,0-.23-.23.23.23,0,0,0-.24.23A.24.24,0,0,0,84.6,25Z"/><path class="cls-10" d="M87.23,36.14a5.69,5.69,0,0,0,2.71-1.67"/><path class="cls-14" d="M76.6,22.05c-1,.78-2,1.43-3,2.1S71.48,25,70.71,26c-.22-2,2-3.79,3.88-4a6.46,6.46,0,0,1,2-.09l0,.15Z"/><path class="cls-14" d="M81.42,18.66a5.49,5.49,0,0,1,4.26-3.78,2.73,2.73,0,0,1,2,.35c-1.78.47-2.79,2-4.48,2.66-.54.29-1.06.6-1.68.87l-.11-.1Z"/><path class="cls-14" d="M75.88,25.83a1.33,1.33,0,0,1,.6-.22,1.34,1.34,0,0,1,.63.09,1.43,1.43,0,0,1,.52.39,1.31,1.31,0,0,1,.27.57,1.34,1.34,0,0,1,0,.63,1.64,1.64,0,0,1-.4.57,1.3,1.3,0,0,1-.54.35,1,1,0,0,1-.51,0,1.22,1.22,0,0,1-.49-.19,1.59,1.59,0,0,1-.61-.83,1.36,1.36,0,0,1-.06-.29,1.09,1.09,0,0,1,.59-1.11Z"/><path class="cls-10" d="M79,22.86c1.86-.3,2.88,8.62,4,8.89a2.74,2.74,0,0,0,2.1-.26"/><path class="cls-14" d="M79.16,25.76a3.78,3.78,0,0,0-1.57-.09,3.88,3.88,0,0,0-3.26,3.06l-.84-.16a4.49,4.49,0,0,1,2.15-2.92,4.49,4.49,0,0,1,1.77-.57,4.42,4.42,0,0,1,1.84.19Z"/><path class="cls-14" d="M85.45,19.69a1.41,1.41,0,0,0-.45.46,1.28,1.28,0,0,0-.18.61,1.2,1.2,0,0,0,.14.62,1.15,1.15,0,0,0,.41.49,1.22,1.22,0,0,0,.56.27,1.8,1.8,0,0,0,.69-.13,1.37,1.37,0,0,0,.55-.34,1.24,1.24,0,0,0,.25-.45,1.52,1.52,0,0,0,0-.52,1.68,1.68,0,0,0-.5-.91l-.24-.18a1.22,1.22,0,0,0-.64-.16,1.16,1.16,0,0,0-.62.24Z"/><path class="cls-14" d="M83.54,22.52a4.33,4.33,0,0,1,.59-1.75,4.58,4.58,0,0,1,1.26-1.37,4.5,4.5,0,0,1,1.69-.74,4.44,4.44,0,0,1,1.85,0l-.19.82a3.83,3.83,0,0,0-1.58,0,4,4,0,0,0-1.46.59A3.91,3.91,0,0,0,84,22.65Z"/><path class="cls-10" d="M82.27,35.38s2.8,1.07,8.52-4.79"/><path class="cls-15" d="M70.2,10.5s-8.16,7.86.49,20.81l-3.6-.17s-5.9-8.91-2.59-17.21C67,7.54,70.2,10.5,70.2,10.5Z"/><path class="cls-15" d="M70.2,10.59c-5,5.56-4.67,13.66-.07,19.45a32.41,32.41,0,0,0,5.13,5.34,32.21,32.21,0,0,1-5.62-4.94c-3.45-3.78-5.55-9.07-4.53-14.26a16.9,16.9,0,0,1,3.2-7.3l1.89,1.71Z"/><path class="cls-10" d="M70.83,33.68c.43-.58,1.15.46,1.27.73s.21.54.34.8a1.28,1.28,0,0,0,.3.43,1.51,1.51,0,0,0,.73.32.89.89,0,0,1,.38.18,1,1,0,0,1,.29.31"/><path class="cls-16" d="M131.52,38.2a.72.72,0,1,0-.72-.72A.72.72,0,0,0,131.52,38.2Z"/><path class="cls-16" d="M131.57,39.85a.72.72,0,1,0-.72-.72A.72.72,0,0,0,131.57,39.85Z"/><path class="cls-16" d="M133.06,39a.72.72,0,1,0-.72-.72A.72.72,0,0,0,133.06,39Z"/><path class="cls-17" d="M0,128.41H164.73"/><path class="cls-18" d="M59.89,153.78,87,144.71a1.15,1.15,0,0,0,.78-1.08,1.13,1.13,0,0,0-.92-1.11L50.5,135.23a1.25,1.25,0,0,0-.51,0l-28.5,7.55a1.14,1.14,0,0,0,0,2.21l37.75,8.79A1.18,1.18,0,0,0,59.89,153.78Z"/><path class="cls-19" d="M4.28,109.78,46,116.17a1,1,0,0,1,.8.65L60.78,152.5a1,1,0,0,1-1.2,1.38L17.08,144a1,1,0,0,1-.72-.61L3.18,111.19a1,1,0,0,1,1.1-1.41Z"/><path class="cls-20" d="M32.32,137.24c2.07-1,2.54-4.28,1-7.26s-4.37-4.58-6.43-3.55-2.54,4.29-1.05,7.27S30.25,138.27,32.32,137.24Z"/><path class="cls-21" d="M110.74,140v3.56l24,9.17,19.72-4.91v-3.71l-19.66,4.72Z"/><path class="cls-22" d="M110.74,140l24.1,8.83,19.66-4.72-26.83-7.25Z"/><path class="cls-23" d="M110.74,140v3.56l24,9.17.06-3.9Z"/><path class="cls-19" d="M98.7,140.89a1.1,1.1,0,0,1,.87-.48l-1.71-.26a.36.36,0,0,0-.33.59L98.62,142a1.78,1.78,0,0,1,.08-1.13Z"/><path class="cls-24" d="M115.81,148.49l-15.92-8-1.17,1.58,16.12,8.12Z"/><path class="cls-25" d="M99.75,140.44l-.18,0a1.1,1.1,0,0,0-.87.48,1.78,1.78,0,0,0-.08,1.13l0,0,.07,0,1.17-1.58-.14-.07Z"/><path class="cls-26" d="M113.21,147.17a1,1,0,0,0-1,1.72h0l2.6,1.31,1-1.72-2.6-1.32Z"/><path class="cls-27" d="M115.25,150.29a1,1,0,1,0-1-1A1,1,0,0,0,115.25,150.29Z"/></g></g></svg>