<svg xmlns="http://www.w3.org/2000/svg" viewBox="0 0 171.23 146.98"><defs><style>.cls-1,.cls-5,.cls-9{fill:none;stroke-miterlimit:10;stroke-width:1.4px;}.cls-1{stroke:#4a54a4;}.cls-2{fill:#ee3f47;}.cls-3{fill:#655da9;}.cls-4{fill:#f2f2f2;}.cls-5{stroke:#4754a4;}.cls-6{fill:#222;}.cls-7{fill:#5354a4;}.cls-8{fill:#fff;}.cls-9{stroke:#fff;}</style></defs><g id="Layer_2" data-name="Layer 2"><g id="Layer_1-2" data-name="Layer 1"><path class="cls-1" d="M167.55.7H3.68a3,3,0,0,0-3,3V143.3a3,3,0,0,0,3,3H167.55a3,3,0,0,0,3-3V3.68A3,3,0,0,0,167.55.7Z"/><path class="cls-2" d="M15.7,13.62a3,3,0,1,0-3-3A3,3,0,0,0,15.7,13.62Z"/><path class="cls-3" d="M33.76,13.62a3,3,0,1,0-3-3A3,3,0,0,0,33.76,13.62Z"/><path class="cls-3" d="M24.91,13.62a3,3,0,1,0-3-3A3,3,0,0,0,24.91,13.62Z"/><path class="cls-1" d="M160.87,8.3H108.69a1.08,1.08,0,0,0-1.08,1.09v2.4a1.08,1.08,0,0,0,1.08,1.09h52.18A1.08,1.08,0,0,0,162,11.79V9.39A1.08,1.08,0,0,0,160.87,8.3Z"/><path class="cls-1" d="M.7,20.4H170.53"/><path class="cls-4" d="M14.38,48.43H37.2c.56,0,1,.91,1,2.07v8.83c0,1.13-.46,2.08-1,2.08H14.38c-.57,0-1-.92-1-2.08V50.47C13.35,49.34,13.81,48.43,14.38,48.43ZM15.5,67.84H34.69a2,2,0,0,1,.77.15,2.18,2.18,0,0,1,.66.44,2.27,2.27,0,0,1,.45.66,2.12,2.12,0,0,1,.15.78v8.84a2,2,0,0,1-2,2H15.41a2.14,2.14,0,0,1-.79-.16,2.19,2.19,0,0,1-.67-.45,2.15,2.15,0,0,1-.58-1.47l.09-8.84a2,2,0,0,1,2-2Zm26.43,0H61.1a2.12,2.12,0,0,1,.79.14,2.15,2.15,0,0,1,.68.44,2.19,2.19,0,0,1,.45.67,2.09,2.09,0,0,1,.16.78v8.84a2.1,2.1,0,0,1-.63,1.44,2.07,2.07,0,0,1-1.45.6H42a2,2,0,0,1-2-2V69.87a2,2,0,0,1,.6-1.43,2,2,0,0,1,1.44-.6Z"/><path class="cls-5" d="M63,61.36V50.44a1.78,1.78,0,0,0-.49-1.26,1.84,1.84,0,0,0-1.3-.49H39.35a1.76,1.76,0,0,0-1.23.49,1.5,1.5,0,0,0-.38.58,1.6,1.6,0,0,0-.12.68v9.14a1.72,1.72,0,0,1-.53,1.24,1.77,1.77,0,0,1-1.24.52H13.35"/><path class="cls-4" d="M15.39,109.71H61.11a2.11,2.11,0,0,0,1.44-.62,2.08,2.08,0,0,0,.59-1.46V85.72a2,2,0,0,0-.59-1.43,2.06,2.06,0,0,0-1.44-.6H15.39a2,2,0,0,0-.78.15,2,2,0,0,0-.66.44,2.06,2.06,0,0,0-.44.66,1.91,1.91,0,0,0-.16.78v22a1.91,1.91,0,0,0,.16.78,2,2,0,0,0,.44.66,1.87,1.87,0,0,0,.66.44A2.05,2.05,0,0,0,15.39,109.71Z"/><path class="cls-6" d="M49.23,54.6,46.62,55l1.88,1.83-.44,2.6,2.33-1.23,2.35,1.23-.47-2.6L54.16,55l-2.58-.39-1.19-2.35Z"/><path class="cls-7" d="M138.58,39.37H99a4.16,4.16,0,0,0-4.16,4.16v74.06A4.16,4.16,0,0,0,99,121.75h39.62a4.16,4.16,0,0,0,4.16-4.16V43.53A4.16,4.16,0,0,0,138.58,39.37Z"/><path class="cls-8" d="M111.23,48.81h-7.35c-1,0-1.81.22-1.81.49v10c0,.27.81.49,1.81.49h7.35c1,0,1.81-.22,1.81-.49v-10C113,49,112.23,48.81,111.23,48.81Z"/><path class="cls-9" d="M111.43,48.81h-7.75a1.61,1.61,0,0,0-1.61,1.61v7.75a1.61,1.61,0,0,0,1.61,1.61h7.75A1.61,1.61,0,0,0,113,58.17V50.42A1.61,1.61,0,0,0,111.43,48.81Z"/><path class="cls-8" d="M101.07,66.5,100.34,68l-1.64.25,1.18,1.16L99.6,71l1.47-.78,1.46.78-.28-1.64,1.18-1.16L101.8,68Z"/><path class="cls-8" d="M112.85,66.5,112.13,68l-1.64.25,1.18,1.16L111.39,71l1.46-.78,1.47.78L114,69.4l1.19-1.16L113.59,68Z"/><path class="cls-8" d="M96.65,59.25l-.29-1.65,1.19-1.16-1.64-.23-.73-1.5-.38.77v3.19l.38-.19Z"/><path class="cls-8" d="M107,54.71l-.74,1.5-1.64.23,1.19,1.16-.28,1.65,1.47-.77,1.46.77-.28-1.65,1.19-1.16-1.64-.23Z"/><path class="cls-8" d="M101.07,42.92l-.73,1.5-1.64.23,1.18,1.17-.28,1.64,1.47-.78,1.46.78-.28-1.64,1.18-1.17-1.63-.23Z"/><path class="cls-8" d="M112.85,42.92l-.72,1.5-1.64.23,1.18,1.17-.28,1.64,1.46-.78,1.47.78L114,45.82l1.19-1.17-1.64-.23Z"/><path class="cls-8" d="M124.65,66.5,123.92,68l-1.64.25,1.19,1.16L123.19,71l1.46-.78,1.47.78-.28-1.64L127,68.24,125.38,68Z"/><path class="cls-8" d="M136.45,66.5,135.72,68l-1.64.25,1.19,1.16L135,71l1.47-.78,1.46.78-.27-1.64,1.18-1.16L137.18,68Z"/><path class="cls-8" d="M118.77,54.71l-.73,1.5-1.64.23,1.19,1.16-.28,1.65,1.46-.77,1.47.77L120,57.6l1.19-1.16-1.64-.23Z"/><path class="cls-8" d="M130.57,54.71l-.74,1.5-1.63.23,1.18,1.16-.28,1.65,1.47-.77,1.46.77-.28-1.65,1.19-1.16-1.64-.23Z"/><path class="cls-8" d="M142.36,54.71l-.73,1.5-1.64.23,1.19,1.16-.28,1.65,1.46-.77.38.19V55.48Z"/><path class="cls-8" d="M124.65,42.92l-.73,1.5-1.64.23,1.19,1.17-.28,1.64,1.46-.78,1.47.78-.28-1.64L127,44.65l-1.64-.23Z"/><path class="cls-8" d="M136.45,42.92l-.73,1.5-1.64.23,1.19,1.17L135,47.46l1.47-.78,1.46.78-.27-1.64,1.18-1.17-1.64-.23Z"/><path class="cls-8" d="M96.65,82.83l-.29-1.64L97.55,80l-1.64-.24-.73-1.5-.38.77v3.19l.38-.2Z"/><path class="cls-8" d="M107,78.29l-.74,1.5L104.6,80l1.19,1.16-.28,1.64,1.47-.78,1.46.78-.28-1.64L109.35,80l-1.64-.24Z"/><path class="cls-8" d="M101.8,115.16l-.73-1.49-.73,1.49-1.64.24,1.18,1.16-.28,1.64,1.47-.77,1.46.77-.28-1.64,1.18-1.16Z"/><path class="cls-8" d="M113.59,115.16l-.74-1.49-.72,1.49-1.64.24,1.18,1.16-.28,1.64,1.46-.77,1.47.77-.28-1.64,1.19-1.16Z"/><path class="cls-8" d="M96.65,106.41l-.29-1.64,1.19-1.17-1.64-.23-.73-1.49-.38.76v3.2l.38-.2Z"/><path class="cls-8" d="M107.71,103.37l-.73-1.49-.74,1.49-1.64.23,1.19,1.17-.28,1.64,1.47-.77,1.46.77-.28-1.64,1.19-1.17Z"/><path class="cls-8" d="M101.07,90.08l-.73,1.5-1.64.24L99.88,93l-.28,1.64,1.47-.78,1.46.78L102.25,93l1.18-1.16-1.63-.24Z"/><path class="cls-8" d="M112.85,90.08l-.72,1.5-1.64.24L111.67,93l-.28,1.64,1.46-.78,1.47.78L114,93l1.19-1.16-1.64-.24Z"/><path class="cls-8" d="M118.77,78.29l-.73,1.5L116.4,80l1.19,1.16-.28,1.64,1.46-.78,1.47.78L120,81.19,121.15,80l-1.64-.24Z"/><path class="cls-8" d="M130.57,78.29l-.74,1.5L128.2,80l1.18,1.16-.28,1.64,1.47-.78,1.46.78-.28-1.64L132.94,80l-1.64-.24Z"/><path class="cls-8" d="M141.63,79.79,140,80l1.19,1.16-.28,1.64,1.46-.78.38.2V79.06l-.38-.77Z"/><path class="cls-8" d="M125.38,115.16l-.73-1.49-.73,1.49-1.64.24,1.19,1.16-.28,1.64,1.46-.77,1.47.77-.28-1.64L127,115.4Z"/><path class="cls-8" d="M137.18,115.16l-.73-1.49-.73,1.49-1.64.24,1.19,1.16L135,118.2l1.47-.77,1.46.77-.27-1.64,1.18-1.16Z"/><path class="cls-8" d="M119.51,103.37l-.74-1.49-.73,1.49-1.64.23,1.19,1.17-.28,1.64,1.46-.77,1.47.77-.28-1.64,1.19-1.17Z"/><path class="cls-8" d="M131.3,103.37l-.73-1.49-.74,1.49-1.63.23,1.18,1.17-.28,1.64,1.47-.77,1.46.77-.28-1.64,1.19-1.17Z"/><path class="cls-8" d="M141.63,103.37l-1.64.23,1.19,1.17-.28,1.64,1.46-.77.38.2v-3.2l-.38-.76Z"/><path class="cls-8" d="M124.65,90.08l-.73,1.5-1.64.24L123.47,93l-.28,1.64,1.46-.78,1.47.78L125.84,93,127,91.82l-1.64-.24Z"/><path class="cls-8" d="M136.45,90.08l-.73,1.5-1.64.24L135.27,93,135,94.62l1.47-.78,1.46.78L137.64,93l1.18-1.16-1.64-.24Z"/></g></g></svg>