<svg xmlns="http://www.w3.org/2000/svg" viewBox="0 0 171.24 147.05"><defs><style>.cls-1,.cls-4,.cls-5,.cls-6{fill:none;stroke-miterlimit:10;stroke-width:1.4px;}.cls-1{stroke:#37409a;}.cls-2{fill:#ee3f47;}.cls-3{fill:#685da9;}.cls-4{stroke:#3c53a4;}.cls-5{stroke:#ccd6ee;}.cls-6{stroke:#384ba0;}.cls-7{fill:#574ea0;}.cls-8{fill:#f2f2f2;}</style></defs><g id="Layer_2" data-name="Layer 2"><g id="Layer_1-2" data-name="Layer 1"><path class="cls-1" d="M167.56.7H3.68a3,3,0,0,0-3,3v139.7a3,3,0,0,0,3,3H167.56a3,3,0,0,0,3-3V3.68A3,3,0,0,0,167.56.7Z"/><path class="cls-2" d="M15.71,13.8a3,3,0,1,0-3-3A3,3,0,0,0,15.71,13.8Z"/><path class="cls-3" d="M33.75,13.8a3,3,0,1,0-3-3A3,3,0,0,0,33.75,13.8Z"/><path class="cls-3" d="M24.91,13.8a3,3,0,1,0-3-3A3,3,0,0,0,24.91,13.8Z"/><path class="cls-4" d="M157,7.73H104.81a1.08,1.08,0,0,0-1.08,1.08v2.41a1.08,1.08,0,0,0,1.08,1.08H157a1.08,1.08,0,0,0,1.08-1.08V8.81A1.08,1.08,0,0,0,157,7.73Z"/><path class="cls-5" d="M.7,20.58H170.54"/><path class="cls-6" d="M143.16,40.37h15.1"/><path class="cls-6" d="M123.54,40.37h15.11"/><path class="cls-6" d="M103.52,40.37h15.11"/><path class="cls-6" d="M64.17,55.23H35.77a2.37,2.37,0,0,0-2.37,2.36v52.24a2.37,2.37,0,0,0,2.37,2.36h28.4a2.36,2.36,0,0,0,2.36-2.36V57.59A2.36,2.36,0,0,0,64.17,55.23Z"/><path class="cls-6" d="M44.16,60.52H41.89a1,1,0,0,0-1,1v14a1,1,0,0,0,1,1h2.27a1,1,0,0,0,1-1v-14A1,1,0,0,0,44.16,60.52Z"/><path class="cls-6" d="M134.91,55.23h-28.4a2.37,2.37,0,0,0-2.37,2.36v52.24a2.37,2.37,0,0,0,2.37,2.36h28.4a2.36,2.36,0,0,0,2.36-2.36V57.59A2.36,2.36,0,0,0,134.91,55.23Z"/><path class="cls-6" d="M117.08,61.5h-5a1,1,0,0,0-1,1v5a1,1,0,0,0,1,1h5a1,1,0,0,0,1-1v-5A1,1,0,0,0,117.08,61.5Z"/><path class="cls-7" d="M60.79,119.44H38.73A1.59,1.59,0,0,0,37.14,121v1.91a1.59,1.59,0,0,0,1.59,1.59H60.79a1.59,1.59,0,0,0,1.59-1.59V121A1.59,1.59,0,0,0,60.79,119.44Z"/><path class="cls-8" d="M131.76,119.44h-22.1a1.57,1.57,0,0,0-1.57,1.57V123a1.57,1.57,0,0,0,1.57,1.57h22.1a1.57,1.57,0,0,0,1.57-1.57V121A1.57,1.57,0,0,0,131.76,119.44Z"/></g></g></svg>