<svg xmlns="http://www.w3.org/2000/svg" xmlns:xlink="http://www.w3.org/1999/xlink" viewBox="0 0 1021.83 1161.14"><defs><style>.cls-1{fill:none;}.cls-2{fill:#d1cbc2;}.cls-3{fill:#f48f8b;}.cls-4,.cls-8{fill:#fff;}.cls-5{fill:#bababa;}.cls-10,.cls-20,.cls-21,.cls-31,.cls-35,.cls-36,.cls-37,.cls-40,.cls-41,.cls-42,.cls-5,.cls-52,.cls-55,.cls-56,.cls-57,.cls-58,.cls-6,.cls-62,.cls-63,.cls-64,.cls-65,.cls-7,.cls-76,.cls-77,.cls-78,.cls-8{fill-rule:evenodd;}.cls-6{fill:#70312d;}.cls-9{fill:#d16560;}.cls-10{fill:#ad4b45;}.cls-11{fill:#703633;}.cls-12{fill:#fda314;}.cls-13{fill:#c78010;}.cls-14{fill:#fdcb14;}.cls-15{fill:#750045;}.cls-16{fill:#9e003f;}.cls-17{fill:#965000;}.cls-18{fill:#ff1a3b;}.cls-19{fill:#d91632;}.cls-20{fill:#991023;}.cls-21{fill:#bfbfbf;}.cls-22{fill:#666;}.cls-23,.cls-37{fill:#fbd391;}.cls-24{fill:#d22734;}.cls-25{fill:#009ad4;}.cls-26{fill:#a75f2e;}.cls-27{fill:#663310;}.cls-28{fill:#ffcba2;}.cls-29{fill:#cfa483;}.cls-30{fill:#b04a3b;}.cls-31{fill:#6e2e25;}.cls-32{fill:#5e2000;}.cls-33,.cls-36{fill:#2b1200;}.cls-34{fill:#822c00;}.cls-35,.cls-74{fill:#571e00;}.cls-38{fill:#9c6640;}.cls-39{fill:#fafeff;}.cls-40{fill:#ccd6d9;}.cls-41,.cls-43{fill:#638891;}.cls-42{fill:#b6bfc2;}.cls-44{fill:#5e5e5e;}.cls-45{clip-path:url(#clip-path);}.cls-46{fill:#bdb7af;}.cls-47{fill:#612100;}.cls-48{fill:#411600;}.cls-49{fill:#bc9e6d;}.cls-50{fill:#754c30;}.cls-51{fill:#878787;}.cls-52{fill:#2b2b2b;}.cls-53{fill:#ca6a2a;}.cls-54{fill:#8c4a1c;}.cls-55{fill:#f07e32;}.cls-56{fill:#bfc9c9;}.cls-57{fill:#939c9c;}.cls-58{fill:#6a7070;}.cls-59{fill:#eba04b;}.cls-60{fill:#ffdbb3;}.cls-61{fill:#ebb67f;}.cls-62{fill:#b87223;}.cls-63,.cls-80{fill:#8c3800;}.cls-64{fill:#ad3502;}.cls-65{fill:#592000;}.cls-66{fill:#a25522;}.cls-67{fill:#703b16;}.cls-68{fill:#c06528;}.cls-69{fill:#702d00;}.cls-70{fill:#ff9ec7;}.cls-71{fill:#ffc9e0;}.cls-72{fill:#e08baf;}.cls-73{fill:#db5248;}.cls-75{fill:#deb87a;}.cls-76{fill:#876f4a;}.cls-77{fill:#ba9a66;}.cls-78{fill:#729c92;}.cls-79{fill:#033b4a;}</style><clipPath id="clip-path"><path class="cls-1" d="M97.23,838.92c5.71,2,11.71,4.1,17.26,4.73a63.9,63.9,0,0,0,7.26.38c.86,0,1.73,0,2.6,0-7.94-4.46-17.55-4.57-27.12-5.07"/></clipPath></defs><g id="Layer_2" data-name="Layer 2"><g id="Layer_3" data-name="Layer 3"><path class="cls-2" d="M422,1129.16c0,17.66,98.77,32,220.61,32s220.6-14.32,220.6-32-98.77-32-220.6-32S422,1111.5,422,1129.16Z"/><path class="cls-3" d="M491.55,395.64c-7.84-.34-.72-19.72,2.17-23.67a87.15,87.15,0,0,1,20.34-19.49c7-4.88,14.74-12,23.66-11.67,9.43.29,20.83,5.91,28.26,11.41,17,12.58,32.27,21.47,30,44.7-2.87,29.76-7.89,59.51-13.28,89.22-4.7,25.89-12.3,49.6-13.85,75.72-.68,11.48-14.54,21.64-26.55,18.47C533.4,578,530.93,556.4,529.1,548c-1.06-4.84-1.69-10.21-3.37-14.55-2-5.13-6.07-7.61-8.64-12.57-4-7.71-8.52-17.3-10.68-25.93-3.24-13-3.25-27.8-4.91-41.13s-2.88-26.36-6.63-39.13c-2-6.93-1.41-16.66-6.21-22.51Z"/><path class="cls-4" d="M517,425.65c-18.07-12.31-12.61-42.11,5.64-49.78,8.61-3.62,15.65-3.7,20.74,5.37a36.82,36.82,0,0,1,4.33,25.37c-1.66,8.2-3.86,18.33-11.67,23.24-8,5-20.74.53-23.66-8.24Z"/><path class="cls-5" d="M517,380.13c-4,10.79-10.34,27.55-1,37.19,9.8,10.11,22.12-.68,27.1-9.82.4,12.58-23,29.84-32.07,17.47-3.6-4.9-4.59-11.73-4.59-17.64,0-7.45,4.58-13.88,4.44-21.09Z"/><path class="cls-6" d="M526.17,366.21c-1.61,2.05-5.95,6.35-8.08,9.81,4.75-1.76,13-6.79,20.78-4,9.19,3.25,13.9,20,12.12,33.47-1.89,14.32-12.1,27.44-23.08,29.43-1.11-1.06,2.26-3.41,4-5.19,7.14-7.14,15.71-17.89,13.85-35.2-.75-6.91-4.3-17-9.81-18.47-16.49-4.49-28.07,16.57-27.13,32.9.54,9.31,6.43,14.62,11,20.19C490.88,420.91,505.87,373.05,526.17,366.21Z"/><path class="cls-7" d="M540.83,403.58a9.69,9.69,0,1,1-9.68-10.21A10,10,0,0,1,540.83,403.58Z"/><path class="cls-8" d="M532,397.16a5.24,5.24,0,1,1-5.24-5.52A5.4,5.4,0,0,1,532,397.16Z"/><path class="cls-9" d="M492,374.58c-.42-7.1,22.32-13.55,28.86-14.86a48.89,48.89,0,0,1,27.78,2.65c14.27,6.06,28.55,17.55,32.71,32.73,5.07,18.54,3,37.12,4.41,56.46,7-11.61,6.76-29.65,8.94-42.68.8-4.81,3-11.1,2.2-16-.83-5.43-5.7-7.65-9.57-11.1a172.2,172.2,0,0,0-51.47-31.23c-5.8-2.24-9.67-3.85-15.68-1.68-5.7,2.06-17.26,6.84-19.86,12.37Z"/><path class="cls-3" d="M539.68,573.66c-3.93,22.2,5,54.42,5,79.92,0,28.42-5.6,54-8.36,81.59-1.82,18.13-15.94,60.31.13,69.93,24.09,14.43,38.23-14.79,41.56-22.56-3.9-35.75-16.77-91.17-16.68-129,0-20.29.91-40,1.67-59.94.65-17.17-6.21-51.81-26.64-25Z"/><path class="cls-9" d="M569.12,467.27s-30,199.82-8.88,330.82l-14.49,14.19-6.6.24-4.54-11.13-7.89-8.77S568,650.44,525,540.43C525,540.43,561.35,513.9,569.12,467.27Z"/><path class="cls-10" d="M585.58,472.33c6.46-31.44,15.29-62.48,12.7-98.68-.34-4.67-.47-.91.07-5.55-2.09-.67-5.35-3.56-7.4-4.44,6.17,34.22-2.35,64.5-8.83,96-7.63,37.05-15.53,75.11-19.62,113.11-8.93,82.88-4.39,173.69,24.23,233.15,9.9-3.6.92-14.34-1.15-20.2-19.4-55-24.63-127.87-17.31-202A1069.41,1069.41,0,0,1,585.58,472.33Z"/><path class="cls-10" d="M552.11,334.41c-15,9.78-40.3,20.13-53.1,34.62-6.08,6.9-11,18.27-6.92,28.28-4.36.32-4.32-3.76-6.35-5.77-1.11-18.91,12.06-30.5,24.82-39.24C522.71,344,536.44,336.15,552.11,334.41Z"/><path class="cls-10" d="M529,807.63c-7.1-2.52-3.17-10.5-2.3-15A755.77,755.77,0,0,0,540,655.27c0-44.42-2.83-82.92-15-114.84-4.06-10.65-9.89-20-13.85-29.43-.1-.49.23-.55.58-.58s.58-.58,1.16-.58H514C564.12,572.58,548.39,722.64,529,807.63Z"/><path class="cls-11" d="M528.2,785c5,7.53,21.49,2.33,28.12,0a34.8,34.8,0,0,0,13.16-8.54c3.38-3.38,4.38-9.75,7.74-12.39,5.89,3.28.13,16.57-2.82,20.21-5.95,7.37-16.19,11.47-24.53,15.5-5,2.39-13.5,7.55-18.36,3.6-5.47-4.45-2-11.1-3.71-16.77Z"/><path class="cls-4" d="M500.21,385.83c.25,8.39-3.27,15.72-5.23,23.63-1.62,6.57-5.28,19.06-11.51,8.69-3.79-6.31-4.83-14.85-1.57-21.33,2.56-5.09,9.64-12.19,15.42-11.57Z"/><path class="cls-7" d="M497.89,401.36a4.19,4.19,0,0,0,0-1.23,4.11,4.11,0,0,1,.91-3.65,4.81,4.81,0,0,0-3.71-2c-3.19,0-5.78,3.82-5.78,8.54,0,4.12,2,7.56,4.59,8.37C495.14,408,496.44,404.65,497.89,401.36Z"/><path class="cls-6" d="M498.47,375.44c8.09,15.25-.12,37.88-7.5,48.48.56,1.76,3.45,1.17,2.89,4-21.87.45-19.19-46.39,4.61-43.86C498.85,381,496.85,378,498.47,375.44Zm-9.23,46.17c3.85-10.57,8.28-20.58,9.23-34.05C483.57,386.52,479.41,413.93,489.24,421.61Z"/><path class="cls-12" d="M567.16,399.68c-7.5-6.35-20.5,12.83-27.13,20.78-1,1.18-2.83,3.15-2.3,4.62,4.66-1.3,9.49-2.43,13.27-4.62-4.91,5.56-10.24,11.18-17.89,12.12-25,3.05-41.66-17.77-66.37-17.32-17.9,5.77-42,49.2-55.4,81.37,19.3-17.48,48.26-26,77.33-34.62,28.09-8.29,57.77-19.25,71.56-41,1.52-2.39,1.25-5.7,4-7.51C567.34,426.68,560.33,438,555,447c-16.49,28-47.16,45.26-81.37,54.25,9.75,16.61,28.16,29.54,51.94,34,13.84-4.61,44.16-64,46.16-109.07C572.25,415.57,572.35,402.56,567.16,399.68Z"/><path class="cls-13" d="M473.52,499.47c9,17.8,32.56,22.92,49.74,16,8.44-3.41,15-10.86,21.56-17,7.24-6.77,14.35-13.45,18.3-22.7-7.24,14.6-12.63,30.91-21,44.78-4.56,7.54-10.31,16.31-20.15,16.11-9.53-.21-18.92-6.39-27.21-10.69-7.62-4-16.22-9.65-19.64-18.16a19.4,19.4,0,0,1-1.58-7.23Z"/><path class="cls-14" d="M464.22,414c-14,6.49-23.77,23.7-30.67,36.51-4.88,9.05-16.55,22.36-15.32,33.34,9,2.25,20.45-16.74,26.13-22,8.05-7.45,14.23-16.38,22.49-23.59,7-6.13,15.62-8.21,24.56-8.17,13.43,0,10.14-9.41.56-14.59-8.29-4.47-14.56-3.15-23.31-2.07Z"/><path class="cls-15" d="M557.35,430.85c-13,16.1-32,26.1-54.25,32.89-4.49,13.2-13.27,22.12-22.51,30.59C514.49,481.86,545.06,463,557.35,430.85Z"/><path class="cls-16" d="M525.27,472.82c-1.19-15.5,17-29.44,28.22-36.59,2.22,10-16.86,27.72-23.78,33.82Z"/><path class="cls-17" d="M544.07,407.18c-5.14,5.58-11.19,17.45-17.89,18.47-7,1.07-17-4-24.81-7.5-8.07-3.65-16.52-7.87-24.24-8.66-16.23-1.66-22.94,4.34-30,12.7-22.51,26.55-38.26,55.45-49,92.91,4.82.07,6.88-4.71,9.81-7.5,22.28-21.24,54.69-31.45,88.29-41-3.91,6.37-7.31,11.94-13.27,17.9-3.91,3.91-15.4,10.32-15.58,16.15-.09,3,6,9.91,8.66,13.28a73.75,73.75,0,0,0,51.93,27.7c34.05-27.11,56.65-110.91,45.6-142.54,2.66-1.18,7.74,0,9.23-2.31C566.75,388.85,552.57,398,544.07,407.18Zm-41,56.56c22.26-6.79,41.3-16.79,54.25-32.89-12.29,32.15-42.86,51-76.76,63.48C489.83,485.86,498.61,476.94,503.1,463.74Zm68.67-37.51c-2,45.09-32.32,104.46-46.16,109.07-23.78-4.51-42.19-17.44-51.94-34,34.21-9,64.88-26.21,81.37-54.25,5.29-9,12.3-20.32,9.23-33.47-2.79,1.81-2.52,5.12-4,7.51-13.79,21.72-43.47,32.68-71.56,41-29.07,8.58-58,17.14-77.33,34.62,13.41-32.17,37.5-75.6,55.4-81.37,24.71-.45,41.38,20.37,66.37,17.32,7.65-.94,13-6.56,17.89-12.12-3.78,2.19-8.61,3.32-13.27,4.62-.53-1.47,1.32-3.44,2.3-4.62,6.63-7.95,19.63-27.13,27.13-20.78C572.35,402.56,572.25,415.57,571.77,426.23Z"/><path class="cls-18" d="M496.74,416.42C509.61,424.6,510,451.11,510,466.05c0,18.66-8.29,38.85-14,56.72a309.67,309.67,0,0,1-13,34.47c-5.24,11.55-12.17,23.24-16.29,35.18-6.77,19.67-7.46,39.17-14.88,58.34-7.53,19.47-10.83,52.34,9.07,65.93,8.64,5.9,20.54,10.3,31.06,7.81,9.66-2.29,18.39-13.8,21.66-23,3.66-10.25.43-19.65-2.61-29.45-3.74-12-4.73-24.59-7.52-36.92a223.89,223.89,0,0,1-5.61-38.52c-.38-7.74,1.61-15.43,2.28-23.09.6-6.92,1.05-14.27,3-20.9,6.69-22.28,14-44.81,16.61-67.56,2-17.8,5.15-41.32-2.88-57.75-2-4.1-19.93-24.49-23.67-13.82Z"/><path class="cls-19" d="M510.84,467.27C512,500.63,500,538,484.32,567.18c-11.17,20.81-25.27,53-15,75.92,1.61,3.59,3,7.08,6.53,9.16,2.59,1.52,6.65.75,7.69,3.08-12.77,1.39-10.47,30.9-5.91,38.39,9.64,15.86,30.86,7.43,35.4-6.18,0,11,.52,34-13.86,36.19-10.43,1.58-22.34,2.24-32.35-1.56-27-10.23-25-38.21-20.83-61.72,4-22.54,13.09-45,22.53-66.09,5.19-11.6,8.16-24.52,13.86-36.08,4.8-9.73,10.12-18.91,14.55-28.85,3.19-7.15,6.33-14.65,7.9-22.2.75-3.63,1.38-7.24,2-11,.86-5.54-.43-12.06,1.25-17.34Z"/><path class="cls-20" d="M497.32,416.42c12.13,6.89,16.61,29.21,15.55,48.42-1,18.39-6.33,37-11.54,54.24-9.9,32.77-24.32,63.22-36.94,94.65-10.24,25.53-24.06,64.58-6.34,92.91,5.58,8.94,21.6,18.71,36.35,13.28,8.36-3.08,17.35-18.17,17.89-28.86.88-17.13-11-31.15-11.54-46.75-1.32,1-.21,4.41-.58,6.35-10.49-20.82-5.3-54.15-.57-80.79,6.42-36.16,17.52-65.22,18.46-107.34.4-17.52-2-42.14-13.85-47.9-1.89-.92-9.12-.94-6.34-2.89,1-.73,3-.6,7.5-.57,17.35,10.93,19.47,35.39,17.89,64.06-1.24,22.38-7.48,45.27-12.12,67.52-4.74,22.76-11.75,46.72-10.39,69.25,1.22,20.15,7.47,38.34,12.7,56.55,1.74,6.07,4.57,12,5.19,17.89,2.08,19.7-10.87,40.79-25.36,42.8-44.87,6.23-53.45-32.07-47.9-69.84,3.9-26.6,17.95-56.21,26.51-76.84s18.93-47.87,25.4-69.25c7-23.11,19.33-64,5.77-86.56C502.3,425.49,498.48,420.46,497.32,416.42Z"/><path class="cls-8" d="M494.06,398.09a3.42,3.42,0,1,1-3.39-3.92A3.69,3.69,0,0,1,494.06,398.09Z"/><path class="cls-4" d="M502.62,671.87c2.12,10.67-.29,20.14-2.47,20.58s-3.3-8.34-5.42-19-4.44-19.21-2.26-19.64S500.5,661.19,502.62,671.87Z"/><path class="cls-4" d="M462.36,423.62c8.07-4,16.5-3.54,17.49-1.55S474,426.78,466,430.82s-14.33,7.85-15.33,5.86S454.3,427.66,462.36,423.62Z"/><path class="cls-4" d="M493.37,638.41c1,4.06.26,7.72-1.61,8.18s-4.2-2.47-5.18-6.53-.27-7.73,1.61-8.18S492.38,634.35,493.37,638.41Z"/><path class="cls-4" d="M607.59,776c-8.68-2.12-19.28-1.94-18.42-11.83a13.81,13.81,0,0,0,9.21,4.49c5.11.35,10.29-2,14,2.18-2.67-5.84-16.43-2-20.39-6.68,7.49-.42,15.77-5,22.59-1.7-6.78-5.57-17.36,1.2-24.48-.26.33-.92-.39-.93-.72-1.27,6.78-2.25,12.29-6.4,21.24-5.65a18.44,18.44,0,0,1,13,7.6c6.72,9,6.42,24.94,3,39C626.63,787.11,620.12,779.08,607.59,776Z"/><path class="cls-21" d="M613.58,756.87a6.37,6.37,0,0,0-4.73,2c.82.65,2,2.31,2.86,2.77-7.85-3.05-4.66,5.89,1.27,7.94,4.76,1.65,9.71.67,13.41,5.26,5.94,7.38,4.64,22.83-.78,30.07.86-18.23-10.51-23-25.14-28.86-4.75-1.9-11.84-6.87-11-13.1,1.06-8.08,12.57-8.43,18.71-8.45Z"/><path class="cls-22" d="M626.06,807.76c0,.13,0,.24-.22.19-1.32-1.39-1-2.59-1.07-5-.74-14-5.58-22.2-19.13-25.09-6-1.28-13.35-2.07-16.16-6.39-2.34-3.59-.61-8-1.45-11.27.91-1.68,2.87-2.53,4.68-3.34,5.08-2.27,12.12-5,19.3-3.95,12.24,1.79,19.41,14.75,19.32,28.14-.06,9.21-1.79,18.92-5.06,26.47C626.25,807.7,626.23,807.81,626.06,807.76Zm-2.38-44.86a18.44,18.44,0,0,0-13-7.6c-8.95-.75-14.46,3.4-21.24,5.65.33.34,1.05.35.72,1.27,7.12,1.46,17.7-5.31,24.48.26-6.82-3.35-15.1,1.28-22.59,1.7,4,4.71,17.72.84,20.39,6.68-3.73-4.14-8.91-1.83-14-2.18a13.81,13.81,0,0,1-9.21-4.49c-.86,9.89,9.74,9.71,18.42,11.83,12.53,3.06,19,11.09,19.07,25.89C630.1,787.84,630.4,771.89,623.68,762.9Z"/><path class="cls-23" d="M924.23,897.77a45.67,45.67,0,0,1-7.88,3.7c6.71,2.6,13.93,5.91,22.56,4.16,4.58-.93,12.63-7.44,16.16-11,5.79-5.79,15.46-17.45,11.54-26-2.72-5.93-10.62-9.43-20.23-11.45C950,873.33,940.18,888.43,924.23,897.77Z"/><path class="cls-23" d="M687.92,743.75c8.18-9.16,19.19-16.74,30.12-17.46,1.35-9.82,2.85-19.34,4.46-28.42C701.71,700.64,685.55,720.62,687.92,743.75Z"/><path class="cls-23" d="M826.37,637.8c-26.54-5.56-47.72,5.85-63.47,16.79q-4.1,9-7.86,18.57c15-9.4,40.39-18,57.91-10.75,2.65-3.48,5.38-6.87,8.23-10.13C824.53,648.46,832.43,642.12,826.37,637.8Z"/><path class="cls-23" d="M962.93,714.11l4.84-1.81c10-3.66,19.26-5.33,23.08-13.27-.07-20.64-11-36.17-34.05-34-5.53.51-12.74,3.63-19.46,6.89a29.17,29.17,0,0,1,10.53,4.4C961,685.05,964.79,699.32,962.93,714.11Z"/><path class="cls-23" d="M958.91,843.35l6.55-.62c6.57-.66,14-.2,17.31-1.74,5.33-2.44,14.33-21.57,15-33.47.6-10.63-2-22.58-8.66-24.23-3.74-.94-11.48.3-19.13,1.91l-.19.17C982.64,800.21,975.29,831.08,958.91,843.35Z"/><path class="cls-23" d="M900.08,669.61a19.68,19.68,0,0,0,6.79,2.31c1.64-1.16,3.27-2.33,4.92-3.48,5.78-4,12.47-7.76,12.69-13.85.31-8.33-10.75-16.51-17.31-19-14.84-5.74-35.79-4.68-50.78,8.08a95.28,95.28,0,0,0-9.13,9.09,103.76,103.76,0,0,1,15.73-1C883,652,884.59,660.79,900.08,669.61Z"/><path class="cls-24" d="M971.67,729.62Q961,732.13,950.79,735c6.85,14.73,10.1,30.34,7.3,45.8l8.52-1.51c2.75-.47,5.67-.85,8.66-1.21C981.38,765,979.46,742.77,971.67,729.62Z"/><path class="cls-23" d="M1010.47,735.39c-3.07-5.91-6.63-10.16-18.75-10.16q-10.22,2.07-20.05,4.39c7.79,13.15,9.71,35.33,3.6,48.41,9.5-1.13,19.68-2,27.12-5.13,3.29-1.38,9.89-5.87,11-8.66C1016.49,756.17,1013.67,741.53,1010.47,735.39Z"/><path class="cls-23" d="M667.68,751.54A4.23,4.23,0,0,0,666,752.7c-8.37,9.15-18.86,29.58-16.74,45,.06.42.15.84.23,1.26a48,48,0,0,1,10.42-12.8c4.43-3.89,9.84-1.34,13.4-6.13a9.44,9.44,0,0,0,1.2-3.62,244.19,244.19,0,0,0-5.63-24.3C668.25,752.12,668.14,751.65,667.68,751.54Z"/><path class="cls-23" d="M856.6,946.71c6.06,2.2,12.14,4.25,18.25,6.24,5.18-2.51,11.29-7.81,16.16-14.43,5.21-7.07,12.68-19.2,5.77-26.54a187.9,187.9,0,0,0-23-5.33C874.92,920.22,867.46,936.08,856.6,946.71Z"/><path class="cls-24" d="M903,891.11a39.58,39.58,0,0,1-8.3,3.74c5.81,1.61,11.51,3.33,17.1,5,1.5.45,3,1,4.56,1.61a45.67,45.67,0,0,0,7.88-3.7c15.95-9.34,25.73-24.44,22.15-40.52a136.2,136.2,0,0,0-22.65-2.43C926.17,869.86,918.1,882.17,903,891.11Z"/><path class="cls-24" d="M687.92,743.75c.13,1.25.29,2.5.53,3.76-.15,2.22-.26,4.45-.35,6.67,6.71-8,18.35-12.55,28-12.76.61-5.11,1.24-10.17,1.92-15.13C707.11,727,696.1,734.59,687.92,743.75Z"/><path class="cls-24" d="M755,673.16q-2.87,7.2-5.51,14.68c14.07-10,30.93-15.73,46.48-14.07a74.33,74.33,0,0,1,8,1.33c2.86-4.36,5.82-8.6,8.94-12.69C795.43,655.19,770,663.76,755,673.16Z"/><path class="cls-24" d="M891.2,683.36q7.77-5.82,15.67-11.44c-2.36-.37-6.17.1-6.79-2.31C896.29,655.08,883,652,863,651.75a103.76,103.76,0,0,0-15.73,1c-3.06,3.43-6,7.11-8.93,10.82a26.58,26.58,0,0,1,6.35-1.79C863.62,658.76,886.22,663.41,891.2,683.36Z"/><path class="cls-24" d="M934.58,686.72c5.47,6.64,5.56,23.57,7.79,35.49q10.13-4.15,20.56-8.1c1.86-14.79-2-29.06-15.06-37.84a29.17,29.17,0,0,0-10.53-4.4c-3.81,1.85-7.46,3.75-10.55,5.23-1.21.58-2.4,1.17-3.6,1.77C927,679.71,930.71,682,934.58,686.72Z"/><path class="cls-24" d="M969.8,785.37l.19-.17c-6.7,1.41-13.32,3.09-17.09,3.83,14.77,17.6-.1,49.89-21.6,56.6,9.23-.69,18.46-1.43,27.61-2.28C975.29,831.08,982.64,800.21,969.8,785.37Z"/><path class="cls-24" d="M673.26,780c-3.56,4.79-9,2.24-13.4,6.13A48,48,0,0,0,649.44,799c.93,4.71,3.43,9.58,6.45,14.3,3.56-9.89,10.61-18.46,21.4-20-.88-5.66-1.8-11.29-2.83-16.81A9.44,9.44,0,0,1,673.26,780Z"/><path class="cls-24" d="M839.26,939.89c5.77,2.47,11.55,4.72,17.34,6.82,10.86-10.63,18.32-26.49,17.22-40.06-6.6-1.14-13.5-2-20.56-2.69A36.29,36.29,0,0,1,839.26,939.89Z"/><path class="cls-25" d="M934.52,785.12q11.68-2.26,23.57-4.37c2.8-15.46-.45-31.07-7.3-45.8-5.39,1.48-10.67,3-15.9,4.67C941.52,750.66,939,773,934.52,785.12Z"/><path class="cls-26" d="M755.4,861.77c.05.65-.84.9,0,1.15,30.06-27,62.88-46.35,108.49-60.59,22.8-7.12,46.38-12.5,70.63-17.21,4.49-12.15,7-34.46.37-45.5C882.14,755.93,837.81,779,799.83,811A212.8,212.8,0,0,0,755.4,861.77Z"/><path class="cls-26" d="M848.88,860.62C811.65,866,778.14,874,752.51,891.2c-4.81,3.22-8.91,7.75-14.51,9.11.52.69,1,1.4,1.53,2.14.92-.32,1.81-.59,2.59-.86,30.35-10.46,68.6-16.73,110.23-14.43a171.34,171.34,0,0,1,27.69,4c.85-.51,1.7-1.06,2.56-1.68,11.39-8.3,19.9-21.09,18.29-34.39-3.33.17-5.47.33-5.84.32C880.26,855,863.83,858.44,848.88,860.62Z"/><path class="cls-25" d="M882.6,889.49c-.86.62-1.71,1.17-2.56,1.68,5,1.1,9.85,2.35,14.65,3.68a39.58,39.58,0,0,0,8.3-3.74c15.11-8.94,23.18-21.25,20.74-36.29-9.08-.31-17.5,0-22.84.28C902.5,868.4,894,881.19,882.6,889.49Z"/><path class="cls-26" d="M687.92,766.17c.18,36,7.4,70.84,14.38,102.7a37.07,37.07,0,0,1,3.74,1.8,46.87,46.87,0,0,1,6.45,4.39c-3.1-39.41-1.73-81.37,2.18-120.22C703.86,755.29,693.87,756.94,687.92,766.17Z"/><path class="cls-25" d="M688.1,754.18c-.16,4-.2,8-.18,12,6-9.23,15.94-10.88,26.75-11.33q.68-6.78,1.45-13.42C706.45,741.63,694.81,746.21,688.1,754.18Z"/><path class="cls-25" d="M796,673.77c-15.55-1.66-32.41,4.05-46.48,14.07q-2,5.58-3.86,11.31c13.51-10.29,37.2-22.35,49.88-10.11,2.7-4.77,5.51-9.43,8.46-13.94A74.33,74.33,0,0,0,796,673.77Z"/><path class="cls-26" d="M745.67,699.15c-17.38,53.15-27.18,115.47-24.91,183.49l.15.15c26.45-63.12,42.42-137,74.64-193.75C782.87,676.8,759.18,688.86,745.67,699.15Z"/><path class="cls-25" d="M923,730.5q9.53-4.25,19.34-8.29c-2.23-11.92-2.32-28.85-7.79-35.49-3.87-4.71-7.63-7-11.39-7.85-6.36,3.15-12.5,6.48-18.48,9.94a19.17,19.17,0,0,1,6.56,4.57C919.33,701.44,922.24,719,923,730.5Z"/><path class="cls-25" d="M952.76,789.06q-9.82,1.91-19.49,3.86c17,18-7,45.18-25.86,54.47,7.94-.59,15.92-1.16,23.89-1.76,21.5-6.71,36.37-39,21.6-56.6Z"/><path class="cls-26" d="M933.27,792.92c-51.64,10.53-99.17,23-137.48,47.5-7.63,4.88-15.91,10.39-24.81,16.73-6.9,4.91-19.82,13-23.09,18.47-1.91,3.19-.9,9.58-3.46,12.12-4-7.27-.24-15.29,2.31-21.35,7.38-17.54,21.73-33.85,33.47-46.75,16.61-18.24,39.46-32.91,61.17-46.17a716.84,716.84,0,0,1,81.65-43c-.79-11.54-3.7-29.06-11.76-37.12a19.17,19.17,0,0,0-6.56-4.57c-37,21.38-67.32,48.26-96.8,77.74-32.5,32.5-58.67,74.3-71.56,125.23-3.2-2.73-1.15-7.81-.58-11,10-54.29,40.94-94,73.87-127a757.87,757.87,0,0,1,66.91-59.23c-4.92-15.79-27.39-22.14-41.87-21.22a38.68,38.68,0,0,0-4.24.51c-32.83,43.78-64.85,93.39-83.7,150.35-3.5,10.56-9,20.27-11.54,29.43-3.58,12.8-5.89,22.2-10.26,33,4.66,4.4,9.06,8.37,12.84,13.35,10-15.38,26.81-24.42,44.16-31.32,34.9-13.9,79.54-17.91,125.47-21.31C926.29,838.1,950.22,810.89,933.27,792.92Z"/><path class="cls-25" d="M876.55,694.62q7.25-5.72,14.65-11.26c-5-20-27.58-24.6-46.52-21.61a26.58,26.58,0,0,0-6.35,1.79c-.53.68-1.05,1.34-1.56,2q-3.16,4.14-6.33,8.35a38.68,38.68,0,0,1,4.24-.51C849.16,672.48,871.63,678.83,876.55,694.62Z"/><path class="cls-25" d="M655.89,813.27c1.45,2.26,3,4.48,4.59,6.64,4.08-6.73,10.89-13.64,18.61-15-.6-3.89-1.19-7.79-1.8-11.67C666.5,794.81,659.45,803.38,655.89,813.27Z"/><path class="cls-26" d="M660.48,819.91c2.3,3.15,4.62,6.18,6.62,9a258.09,258.09,0,0,0,16.16,20.77c1.81,2,4.46,5.76,5.77,4.62-4.61-15.16-7.32-32.23-9.94-49.37C671.37,806.27,664.56,813.18,660.48,819.91Z"/><path class="cls-25" d="M825,933.23q7.15,3.62,14.3,6.66a36.29,36.29,0,0,0,14-35.93c-5-.49-10.16-.85-15.35-1.12C839.72,913.08,833.55,924.24,825,933.23Z"/><path class="cls-26" d="M742.45,907.39c.83,1.58,1.6,3.19,2.33,4.81,2.32-2.09,6.12-2.69,8.88-3.11,28.53-4.32,47.23,11.57,68.1,22.51,1.07.56,2.13,1.09,3.2,1.63,8.59-9,14.76-20.15,12.95-30.39C806,901.16,771.7,903.32,742.45,907.39Z"/><path d="M742.7,917.17a5.94,5.94,0,0,0,4.62.77c-.85-1.91-1.67-3.84-2.54-5.74A6.25,6.25,0,0,0,742.7,917.17Z"/><path d="M737.5,900.43c.17,0,.34-.08.5-.12l-.22-.29Z"/><path d="M694.22,872.73c2.5,6.49,6.23,13.67,8.66,19.63.74,1.81.57,6.47,3.46,5.19,3.26-1.25.95-5.75.58-7.5-1.47-6.89-3-14-4.62-21.18a30.52,30.52,0,0,0-9.6-2.19A40,40,0,0,0,694.22,872.73Z"/><path d="M720.91,882.79l-.14.33c0-.16,0-.32,0-.48-2.7-2.63-5.36-5.23-8.27-7.58.52,6.62,1.15,13.16,1.93,19.6,3.18-.28,5.15-1.77,8.08-2.3.89-2,1.69-3.84,2.44-5.69l-1.4-1.33C722.65,884.49,721.78,883.64,720.91,882.79Z"/><path d="M739.53,902.45c-3.53,1.18-7.63,2.88-8.37,6.64q5.49-.89,11.29-1.7c-.37-.7-.74-1.4-1.14-2.09C740.74,904.31,740.14,903.36,739.53,902.45Z"/><path class="cls-27" d="M815.41,936.79c13.22,7.17,31.59,14,47.32,20.45C886.1,966.77,909,930,904.86,912c-21.2-16.12-59.39-15.24-94.64-17.32,23.31-1,44.16-1.33,65.21,2.89,19.92,4,38.49,14.17,56.55,15.54,15.3,1.16,20.45-7.48,28.28-15.54s14.55-16.28,13.86-31.16c-4.43-8.28-13.43-12-23.09-15,15.78-3,34.26,0,41.55-11,7.8-9.57,15.62-33,10.39-49.63-1.28-4.07-4.68-6.72-5.19-10.39,7.28-.91,18.74-6.73,21.35-11.54,5.56-10.24,1.5-30.33-2.89-38.09-2.83-5-8.49-9.63-13.85-10.39-22.71-3.22-50.08,9.15-66.36,11.54,10.21-3.81,19.57-8.15,30.58-12.69,9.16-3.78,24.58-7.22,28.86-15,4.44-8.07-.46-23.46-3.46-28.85-4.37-7.83-13.79-13.51-24.24-15.59-20.47-4-42.76,12.38-56.56,17.9,6.86-6.57,21.49-13.23,20.2-26-.89-8.82-14.51-21.79-26.55-24.24-30-6.12-40.94,4.25-43.86,5.19-8.66,2.81-11.62,8.5-17.31,15-25.09,28.68-49.37,63.8-66.36,97.53,13.13-33.5,28.2-65.73,49.63-91.76,5.52-6.71,10.91-10.33,8.08-20.2-13.74-4.83-30.35-2.94-43.29.58-18.27,5-33.29,12.81-39.82,28.27-13.16,31.19-26.51,76.71-31.74,116,1.7-27.34,4.8-53.3,8.08-79.06-2.86-5.19-9.14-7-16.16-5.19-10.77,2.7-24.32,17.17-28.85,31.16-5.47,16.89,1.74,39.87-1.16,60a143.93,143.93,0,0,0-4-21.93c-1.51-5.84-3.64-16.13-9.82-16.16-4.07,0-12.16,9.46-14.42,12.69-6.32,9-12.62,29.07-8.66,42.71,5.22,18,23.38,43,36.36,53.09,3,2.38,7.25,2.92,9.23,5.77a15.29,15.29,0,0,1,1.94,5.49,30.52,30.52,0,0,1,9.6,2.19c-8.18-37.34-16.72-78.74-13.85-121.36-4.64-24.7,12.14-46.72,34-49.64-9.19,51.74-14.7,117.42-10,177.19,2.91,2.35,5.57,5,8.27,7.58-3-88.08,14.34-166.62,42.14-228,15.75-10.94,36.93-22.35,63.47-16.79,6.06,4.32-1.84,10.66-5.19,14.48-51,58.23-67.62,152.59-100.27,230.51.87.85,1.74,1.7,2.63,2.55l1.4,1.33c4.37-10.78,6.68-20.18,10.26-33,2.56-9.16,8-18.87,11.54-29.43,20.06-60.62,55-112.91,90-158.7,6.13-8,12.87-16.19,19.62-21.93,15-12.76,35.94-13.82,50.78-8.08,6.56,2.53,17.62,10.71,17.31,19-.22,6.09-6.91,9.82-12.69,13.85a767.37,767.37,0,0,0-102.15,85.41c-32.93,32.94-63.9,72.67-73.87,127-.57,3.16-2.62,8.24.58,11,12.89-50.93,39.06-92.73,71.56-125.23,35.14-35.14,71.4-66.6,118.88-89.45,8.53-4.1,21.35-11.32,30-12.12,23-2.12,34,13.41,34.05,34-3.82,7.94-13.11,9.61-23.08,13.27a711,711,0,0,0-126.39,61.17c-21.71,13.26-44.56,27.93-61.17,46.17-11.74,12.9-26.09,29.21-33.47,46.75-2.55,6.06-6.29,14.08-2.31,21.35,2.56-2.54,1.55-8.93,3.46-12.12,3.27-5.46,16.19-13.56,23.09-18.47,8.9-6.34,17.18-11.85,24.81-16.73,43.08-27.55,97.83-39.89,157-51.36,8-1.55,29.31-7.53,36.36-5.77,6.66,1.65,9.26,13.6,8.66,24.23-.68,11.9-9.68,31-15,33.47-3.35,1.54-10.74,1.08-17.31,1.74-64.67,6.44-133.94,6.23-183.52,26-17.35,6.9-34.19,15.94-44.16,31.32l.22.29c5.6-1.36,9.7-5.89,14.51-9.11C778.14,874,811.65,866,848.88,860.62c15-2.18,31.38-5.65,46.17-5.2,2.13.07,62.91-5.53,71.56,13.28,3.92,8.51-5.75,20.17-11.54,26-3.53,3.53-11.58,10-16.16,11-10.62,2.15-19.09-3.36-27.12-5.77-18.5-5.57-38.13-11.52-59.44-12.7-41.63-2.3-79.88,4-110.23,14.43-.78.27-1.67.54-2.59.86.61.91,1.21,1.86,1.78,2.85.4.69.77,1.39,1.14,2.09,48.88-6.8,111.91-8.36,154.33,4.59,6.91,7.34-.56,19.47-5.77,26.54-4.87,6.62-11,11.92-16.16,14.43-17.89-5.82-35.47-12.11-53.09-21.35-20.87-10.94-39.57-26.83-68.1-22.51-2.76.42-6.56,1-8.88,3.11.87,1.9,1.69,3.83,2.54,5.74,2.13-.54,3.9-2.13,6.34-2.5C778.93,911.65,796.85,926.73,815.41,936.79ZM689,854.27c-1.31,1.14-4-2.58-5.77-4.62a258.09,258.09,0,0,1-16.16-20.77c-6.49-9.07-16.44-20.56-17.89-31.17-2.12-15.43,8.37-35.86,16.74-45a4.23,4.23,0,0,1,1.73-1.16c.46.11.57.58,1.15.58C678.12,783.62,679.52,823,689,854.27Zm277.58-75c-35.63,6.23-70,12.86-102.72,23.09-45.61,14.24-78.43,33.54-108.49,60.59-.84-.25.05-.5,0-1.15A212.8,212.8,0,0,1,799.83,811c50.9-42.82,113.13-69.83,191.89-85.76,12.12,0,15.68,4.25,18.75,10.16,3.2,6.14,6,20.78,2.89,28.85-1.08,2.79-7.68,7.28-11,8.66C992.61,777,978.1,777.24,966.61,779.24Z"/><path class="cls-28" d="M612.91,1029.05q-.64,13.2-1.24,26.4c.26-1.8-.07,3.69.06,4.75a35,35,0,0,0,1.85,7c1.15,3.22,2.34,6.8,4.23,9.63,1.15,1.74,3.38,5.4,5.48,5.76,2.48.42,6.87-2.83,9.24-3.56,4.85-1.48,15.57-4.65,20.1-1.94,6,3.59,6,11.62-1.63,12.42-8,.83-9.47.85-17.31,2.69-8.15,1.91-22.52,5.91-29.61,10.47-9.1,5.84-19.72,16.45-29.26,21.85-3.87,2.19-12.35,5.49-16.85.66-3.87-4.15,3.74-10.59,7.12-12.31,5.34-2.72,10.29-4.91,13.92-9.82-4.76-.81-10.52,2.56-15,3.69-3.59.89-7.12,1.82-10.68,2.76-8.28,2.21-16.66,4.19-25,5.8-4,.77-17.47,4-20.31-.48-3.91-6.14,12.56-12.44,15.3-15.69,2.38-2.83-.8-5.95.88-9.63,1.53-3.36,5.21-5.93,8.36-7.28,8.59-3.71,17.29,1.21,25.86,3,11.18,2.26,32.45,5.84,41.09-3.45,8-8.65.75-26.83-5.09-35-3.57-5-14.85-11.87-9.16-18.37,7.62-8.73,22.74-7.61,26.95,3.08Z"/><path class="cls-29" d="M519.08,1103.2c-6.8,5.17,8.57,5.59,11.1,5.18,6.08-1,12.19-3.25,18.13-4.45,11.11-2.25,24.51-7.51,36.27-5.54a12.4,12.4,0,0,0,2.11,0c-14.25,5.8-29.89,12.38-45.13,15.48-6.85,1.39-14.16,3.69-21,4.44-1.72.19-6.94.93-8.52.1-4.35-2.28-.53-7.57,1.85-10Z"/><path class="cls-30" d="M592.31,1110.68c-.68-2-1.09-4.71-2.87-6-1.57-1.16-4.09-.76-5.89-.67-.89,0-2.3-.3-3.08.15-1.33.76-2.54,1.65-3.83,2.47-2.88,1.81-5.84,3.6-8.13,6.17a.68.68,0,0,0,.61,1.08c1.63-.2,2.72-.91,4.44-.35,2.51.84,4.34,1.71,5.7,4.15s-2.74,3.65-4.35,4.42-3.16,1.77-4.72,2.72-1.61-2.14-2.06-3a8.76,8.76,0,0,0-3-3.07c-1.86-1.27-4.12-1.61-6-.24-.34.25,0,.85.37.65,3.17-1.63,6.52,1.1,7.87,3.85.44.9-.15,3,1.07,3.56,1.06.46,2.33-.7,3.12-1.18a82.26,82.26,0,0,1,7.92-4.09c2.6-1.19.75-4.94-.61-6.3s-2.94-1.92-4.86-2.6a4.89,4.89,0,0,0-3-.19,30.83,30.83,0,0,1,4.19-3c1.66-1,4.42-3.76,6.44-3.75a51,51,0,0,1,5.53,0c2.4.27,3,3.9,3.68,5.89C591.21,1112.19,592.63,1111.61,592.31,1110.68Z"/><path class="cls-30" d="M655.11,1076.36c-2-3.12-5.58-2.81-8.82-2.57a20,20,0,0,0-5.41,1.41c-1.84.67-4,.69-5.66,1.7-.6.36-1.33.81-2.15,1.29a11.73,11.73,0,0,0-3.17,1.66c-3.6,1.64-7.58,2.45-9.19-1.32a.65.65,0,0,0-1.12-.15c-1.7,2.74-3.34,4.69-6.7,5.25-2.39.4-5.43.88-7.69-.16a18.54,18.54,0,0,1-3.52-1.94c-.42-.32.51-1.54.64-2,.56-2.28,0-4.57.26-6.81a18.72,18.72,0,0,0,3,.92,14.49,14.49,0,0,0,4.64-.36c1.47-.3,4.4-1.35,4.67-3.15.38-2.49-.26-5.13-.66-7.58-.2-1.19.34-2.49.18-3.74a5.72,5.72,0,0,0-1.55-2.94.65.65,0,0,0-.9-.12c-1.2,1-1.78,2.21-3.22,3-2.05,1-7.16,1.22-8.78-.42-1.19-1.21-1.78-3.26-2.71-4.7-.32-.49-1.77-2-2.39-3,2.62.57,5,1.63,7.78,1.64a19,19,0,0,0,9.42-2.86c.72-.42.1-1.08-.54-1.08h-.37c-.37,0-.56,0-.61.25a17.58,17.58,0,0,1-8.81,2.31c-2.7-.07-5.12-1.49-7.77-1.88a.73.73,0,0,0-.85.6c-.31,1.37,1.36,2.76,2.07,3.76,1.57,2.21,2.59,5.35,4.88,6.91,1.77,1.2,4.67.5,6.64.39a7.26,7.26,0,0,0,3.23-1,11.67,11.67,0,0,0,2.32-2.34c1.19,1.86.43,3.39.56,5.51.1,1.77.6,3.57.67,5.33.1,2.92-2.75,3.72-5.22,4-2.27.28-4-.66-6.16-1a.75.75,0,0,0-.84.63,12.47,12.47,0,0,0,0,3.66,14.33,14.33,0,0,1-.13,3.07c-.18,1.44-1,1.65-1.22,2.7-.36,2,3.54,3,4.77,3.71,2.59,1.39,6.24.6,9,.12,3.22-.56,4.88-2.39,6.45-4.85,1.67,2.44,4.29,2.67,7,2a5.24,5.24,0,0,1-1.42.8,7.29,7.29,0,0,0-2.29,1.29.73.73,0,0,0,.15,1.23c1.33.77,2.08.89,2.91,2.45,1,1.78,1.65,4.55-.22,6.07-2.32,1.9-6.07,2.64-8.82,3.76a68.93,68.93,0,0,0-6.93,3.47,22,22,0,0,1-4.76,2.42c-.37.1,0-.78,0-1.16a13.46,13.46,0,0,0-.79-3.1,8.07,8.07,0,0,0-2.53-4.42,6.57,6.57,0,0,0-5.83-1.41,6,6,0,0,0-3.59,2.38,5.39,5.39,0,0,0-1.46-3.1c-1.42-1.3-2.77-1-4.24-.57a6.67,6.67,0,0,0-.8-5c-1.12-2.3-3.78-2.84-5.79-4-2.19-1.2-5-1.12-7.4-1.21-1.36,0-3,0-3.72,1.34a.71.71,0,0,0,.36.92c2.69,1.58,4.83,2.73,3.68,6.42a2.37,2.37,0,0,1-2.26,1.57c-.9-.07-1.8-.1-2.71-.1-1.13-.14-2.22-.33-3-.33a21.57,21.57,0,0,0-4.25.32,3.27,3.27,0,0,1-.92.08h-.05c-1-.14-.59-1.19-.68-2.38a6.64,6.64,0,0,0-2.38-4.69c-3.72-3.48-8-5.25-13.09-4.75a49,49,0,0,0-7.93,1.13c-1.47.41-3.62,1-4.45,2.42a.69.69,0,0,0,.43,1.09c1.67.45,3.27-.16,5,.42,2.66.89,3.73,3.84,4.06,6.39.17,1.3-1.61,5.74,1.54,4.89,2.14-.58,4.56-.35,6.77-.75,1.26-.23,2.52-.48,3.77-.73a15.36,15.36,0,0,1,1.27,1.29c1.76,1.9,4,6.32,2.31,8.66-1.21,1.72-4,2.9-5.91,3.55-1.37.46-3.72,1.61-5.36,1.64a12.71,12.71,0,0,0-.84-6.57c-1.08-2.69-3.84-4.54-6.24-5.94-3.13-1.82-5.82-1.4-9,.19a65,65,0,0,0-8.78,5,.67.67,0,0,0,.48,1.19c4.68-.54,10.35,4.29,8.38,9.13-1,2.47-4,3.16-6.31,3.65-1.45.31-2.39,1-2.8-.7a10.46,10.46,0,0,0-3.48-5.67c-1.83-1.54-2.84-1.09-5-1a.52.52,0,0,0-.44.33l-.2.42c-.31.65.7,1.07,1,.44-.09.17,1.48-.29,1.37-.26,1.42-.46,3.21,1.54,3.93,2.44,1.27,1.57,1,3.86,2.21,5.38.54.7,1.88.2,2.51,0a23.83,23.83,0,0,0,6.37-2c2.67-1.47,3.16-5.44,2-7.94a10.41,10.41,0,0,0-7.67-5.47,23.86,23.86,0,0,1,4.51-2.47c3-1.2,5.26-3.41,8.74-2.24a15.57,15.57,0,0,1,6.25,4.67c1.83,2.16,1.83,5.37,1.49,7.94a.68.68,0,0,0,.57.76,4.83,4.83,0,0,0,2.65-.34l4.73-1.55c2.16-.72,5.22-2.39,6.31-4.49,1.47-2.85-.63-5.58-1.8-8.15a7.7,7.7,0,0,0-1.71-2.19c1-.19,1.91-.38,2.87-.54q1.8-.3,3.63-.48c1.25.47,2.8,2.27,3.72,3.19,2.43,2.43,2.46,4.64,3,7.82.13.81.61,1.86,1.66,1.65a15.15,15.15,0,0,0,8.54-5.14c1.75-1.88,2.48-7.23-.81-8.14a31.52,31.52,0,0,0-3.67-.77,4.47,4.47,0,0,0,.44-.5c1.15-1.51,1-3.93.41-5.6s-2.07-2.26-3.49-3c1.79-.71,6.94.35,7.87.66,3.81,1.28,8.44,4.21,6.18,8.82a.73.73,0,0,0,.76,1,10.48,10.48,0,0,1,2.76-.72c2.4,0,2.64,2.89,2.69,4.53,0,.72.94.81,1.34.38.69-.75,1.52-1.53,2.11-2.32,1.67-2.26,6.1-.87,7.31,1.24a18.8,18.8,0,0,1,1.52,4.22c.23.82-.06,1.74.21,2.49,1.1,3.12,5.61-.59,7.27-1.5a75.13,75.13,0,0,1,8.39-4c2.31-.92,6.34-1.66,8-3.77a5.93,5.93,0,0,0,.69-5.68,7.26,7.26,0,0,0-3.28-4.1,11.91,11.91,0,0,1,1.91-.8,10.14,10.14,0,0,0,2.38-1.94,15.06,15.06,0,0,1,3.88-2.25c1.42-.6,2.29.64,3.41,1.16,2.73,1.27,4.3,3.3,3.49,6.37-.31,1.17-.4,2,.49,2.85.7.67,2.76.24,3.56.37a32.25,32.25,0,0,0,6.35.56,7.18,7.18,0,0,0,6.66-5C658.15,1082.84,656.82,1079.05,655.11,1076.36Zm-108.73,18.77c-1,.16-2.13-.08-3.2.11-1.37.23-.7-1.37-.56-2,.41-1.85-.36-3.93-1.07-5.6a6.47,6.47,0,0,0-3.73-3.49,13.27,13.27,0,0,0-4-.33c2-1.48,5.88-1.39,7.87-1.72,3.91-.66,7.73-.91,11.24,1.29,3,1.85,5.65,4,5.39,7.77a3.59,3.59,0,0,0,0,.87c-1.1,0-2.21.1-3.26.06a11.85,11.85,0,0,0-4.78.46.69.69,0,0,0-.16,1.16c.51.47.57.55,1.12.57C549.61,1094.61,548,1094.89,546.38,1095.13Zm9.51-1.66-2.08.37a6.71,6.71,0,0,0-.69-.43C554,1093.37,555,1093.43,555.89,1093.47Zm22.22,2.2c1.47,2.9-1.08,5.71-3.2,7.35-.17.13-5.35,2.88-5.24,1.26a12.79,12.79,0,0,0-1.35-5.6,11.29,11.29,0,0,0-3.65-4l-1.2-1,1.53-.14c1-.06,2.11-.17,3.29-.23.58.06,1.17.12,1.76.16a8.24,8.24,0,0,0,2.07,0,7.46,7.46,0,0,1,1.41.36C575.06,1094.42,577.21,1093.9,578.11,1095.67Zm77.83-10.59c-.86,5.93-8.5,4.3-12.41,3.66a6,6,0,0,0-1.34.08c-1.15.1-.3-2.11-.24-2.53.17-1.27.3-2.89-.7-3.85a14.23,14.23,0,0,0-4-2.94c-.77-.36-1.4-.9-2.13-1.22a37.47,37.47,0,0,1,5.34-1.6,29.09,29.09,0,0,1,6.88-1.63c2.66-.16,4.9-.1,6.58,2.19A12,12,0,0,1,655.94,1085.08Z"/><path class="cls-31" d="M595,1095.49c-7.51,12.1-40.06,23.22-36.35,29.43,4.95,5.91,16.6-3.36,22.5-7.5,19.41-13.63,39.9-26.81,70.41-29.44,3.52-.44,3.47-2.86,3.46-5.19,0-12.47-22.3-1.47-28.22,1.58-3.76-.16,1,2.46-1.73,2.31-10.5-3.13-15.4-18.91-16.22-33.32-.39-6.85-.77-16.71,4.62-19.62-1.37,15.35,1.31,38,9.29,47.74,11.6-5.93,28.46-13.41,36.65-3.46,4.29,5.2.87,12.69-6.12,13.43-4.61.48-9.85,1.37-14.43,2.3-20.21,4.15-42.92,21.43-60,31.88-6.07,3.72-25.87,13.43-26.55-2-.4-8.85,13.12-10.3,17.84-16-9,2.49-20.08,5.29-32.9,9.24-7.36,2.27-28.82,10.24-32.31,1.15-3.75-9.74,11.41-15,17.89-18.47-13.07-25,31.17-20.18,50.78-17.31,13.9,2,29.52,6.48,27.7-11-1.56-15-16.24-31.91-26.55-38.67a27.71,27.71,0,0,1,13.28,5.2c7.59,5.92,16.78,21.92,17.89,30.58,1.05,8.16-3.22,16.67-7.5,19.05-3.65,2-13,1.52-18.47,1.15-12.71-.85-30.33-5.37-42.71-4-6.26.67-15,4.17-10.34,12.83,16.51-9.86,43.85-5.92,63.44-4.17-7.74,2.73-24.94,1.84-38.67,2.88-8.58.65-17.41,3.82-24.81,6.93-7.18,3-13.37,5.6-15.83,12,.33,4.18,10.9,1.77,17,.15s12.13-4,17.89-5.77C562.86,1104.09,581.24,1102.75,595,1095.49Z"/><path class="cls-32" d="M545.5,1025c3.6,6,12.71,11.91,19.18,16,6.62,4.14,13.59,6.23,20.83,9.08,11,4.34,28.15,5.06,36.77-4.88,8.09-9.33,14.66-21.39,16.78-33.54a36.2,36.2,0,0,0,.18-12.75c-1.12-6.63-6.35-8.7-12.75-10.19-23.69-5.49-46.62,3.18-65.07,18-6.89,5.54-10.84,11.87-15.28,19.19Z"/><path class="cls-33" d="M557.85,1038.89c7.08,5.78,27.3,16.95,34.91,18.38,9.09,1.72,21.09.88,27.89-4.92,8.61-7.35,12.47-17,16-27.77,2.22-6.86,6.67-19.23,4.28-26.31-.13-.36.05-.71,0-1.09-5.6,14.17-6.47,30.67-17.2,42.79-3.87,4.39-8.41,10-14.4,11a50.32,50.32,0,0,1-18.53-1c-8.19-2-17.25-6.08-24.8-10.07a77.5,77.5,0,0,1-11.73-7.35c-3.07-2.39-5.58-5.49-9.07-7.35,1.1,2.22,9.69,13.81,12.54,12.2Z"/><path class="cls-34" d="M497.4,966.77c3.64,14.78,7.48,36.62,20.15,46.53,10.44,8.16,27.93,18.49,40.45,22.72,13.39,4.52,27.71,3.81,41.55,5.19a107.47,107.47,0,0,0,40.69-3.5c26.48-7.36,57.23-11.52,78.76-32,23.25-22.11,70.81-73.12,64.06-104.21-6.67-30.77-60.27-45.07-89.91-51.61-45.92-2.84-94.74-51.66-112.82-67.93-36.44,3.71-26.67,84.75-56.1,107.75Z"/><path class="cls-35" d="M716.65,858.73c8.83-5.06,21.31,8.6,23.65,16.27,2.58,8.49,1.73,20.73-1.47,28.94-8.2,21-19.49,34.52-37.25,48.36-19.92,15.51-43,22.17-67.51,24.56-5,.49-10.24-.19-11.46,5.56-2,9.28,6.78,15.59-1.16,25-6.64,7.88-32.51,30-8.47,33.3,11.27,1.53,26.39-2.12,36.9-5.58,14.78-4.86,28.65-13.89,42.08-21.69,10.62-6.16,22.16-10.9,32.51-17.47,12.18-7.73,22.95-18.72,33.29-28.76,16.92-16.43,25.09-41.76,24-64.52-.51-10.46-4.89-18.38-11.89-26-11.25-12.29-26.68-14.21-42.35-17.36Z"/><path class="cls-35" d="M637.69,861.74c6,17.35,11.62,32.48,13.26,50.77.82,9.16,1.55,19.5.6,28.79-.76,7.47-4.15,15.21-8,21.7-4.13,7-11,10.67-15.59,16.88,4,5.15,7,11.52,10.77,16.87,3,4.3,5.46,7.13,5,12.66-.76,8.4-8.25,15.28-14.62,20.49-15,12.25-36.9,15.13-55.14,9.66-25.27-7.59-35.53-43-41.92-65.61-5-17.79-5.61-31.51.16-49.05a104.07,104.07,0,0,1,26-42.54c13.09-13.09,28.78-20.64,46.48-24.83,5.3-1.26,13.24-5.18,17.89-4.22Z"/><path class="cls-36" d="M498.59,957.55c2.19,1.35-.26,5.15.58,10.38,2.95,18.34,16.08,34.76,27.7,45,24.69,21.8,70.42,35.68,115.43,25.49,15.44-3.49,27.67-10.3,40.38-16.84,3.77-1.93,6.94-5.06,11-6.92,2.56-1.18,5.27-1.19,7.5-2.31,7.83-3.93,18.33-12,25.39-17.89,9.57-8,22.4-23.07,30.59-34.05,10-13.43,19-29.09,21.35-43.28,6-36-24.22-52.34-55.4-54.82-5.47-.44-106.58-20.69-140.94-85.78,36.16,47,102.76,70.33,138.63,78.85,31.77-2.28,57.69,15.51,64.64,36.94,3.14,9.69,2.8,23.74,0,33.46-7.61,26.44-29.2,50.69-48.48,69.26-13.06,12.58-21,18.37-37.51,27.12-10.88,5.79-21.91,10.19-35.2,15-6.5,2.35-12-1.63-17.48-.23-37.26,9.57-79.72,9.61-106-5-18.91-10.48-35.75-26.71-43.28-50.21C495.34,975.23,491.41,964.16,498.59,957.55Z"/><path class="cls-28" d="M676.74,1051.74c-2.21,5.2.37,16,.38,22.32,0,7-2.82,12.88-3.55,19.62s-1.8,12.19-4.62,18.47c-1.25,2.79-2.42,7.16-5.68,8.1-2.55.74-7.15-.78-10-.78-6,0-12.18.36-16.62,4.52-3.52,3.29-9.36,10.07-3,14,5.72,3.59,18.59-2.81,24.65-3.55,7.11-.86,12.36.37,18.86,3,5.44,2.19,9.63,5.23,14.7,8.07,5.53,3.11,12,3.43,17.91,5.19,6.51,1.94,12.8,4,19.71,3.76,5.14-.18,10-3.85,6.58-9.56,3.64.1,7.18-1.44,10.74-1.61,2.89-.13,6.19.44,8.87-.35,8.27-2.46,5.91-10.23,0-13.59a41.83,41.83,0,0,0-17.7-5.29c-4.63-.44-20.55,1.86-22.28-3,4.11-1.13,18.6-2.51,16.62-9-1.74-5.73-12.14-6.43-16.57-5.22-6.16,1.68-11.64,7.57-18.18,8-7.52.49-9.93-8-11.14-13.85-2-9.69-1.39-23.56,1.44-32.8,1.39-4.53,6.64-8.08,5.38-13-2.46-9.56-10.62-7-16.84-3.86Z"/><path class="cls-29" d="M638.6,1122.07c-9,7.71,2.36,8.46,8.51,7.76,5.9-.66,11.64-2.33,17.76-.74,11.25,2.92,22.71,6.65,34.06,9.63,7.38,1.94,15.2,6.82,22.93,7.49,3.88.33,8.91-1.29,6-6.1-2-3.25-6.74-4.5-9.59-6.81,3.62,3.71,14.83,4.06,19.86,4.31,3.75.19,17.13.23,12.63-6.67,2.45-1.14,8.8.4,9.59,3.34.89,3.32-2.76,5.23-4.91,6.28-6.63,3.24-13.38.83-20.23,1.57,1.55,1.92,4,6.18,3.3,8.8-1.14,4.07-5.45,3.28-8.8,3a157.11,157.11,0,0,1-26-4.89c-9-2.4-13.47-11.33-22.57-13.6-6.9-1.73-13.18-2.78-20.26-1.5-6.15,1.1-12.1,3-18.15,4.17-7,1.34-11.06.45-9.33-7.86Z"/><path class="cls-30" d="M751.5,1127.84c-3.86-2.69-10.07-3.31-14.14-.74a15.41,15.41,0,0,0-5.3,6.07,7.81,7.81,0,0,0-.95,3.95,13.62,13.62,0,0,1-1.83-1.48,10.11,10.11,0,0,0-2.64-1.15c-1.44-.65-1.93-3.24-1.93-4.72s.07-2.68,1.41-3.42a2,2,0,0,0,.61-.67.6.6,0,0,0,.09-.63c-.82-1.72-2.07-.89-3.76-1.11a17.53,17.53,0,0,0-4.92-.22,3.44,3.44,0,0,0,.42-.91c1.13-.09,2.26-.2,3.38-.35,2.38-.31,5-.16,7-1.71a.67.67,0,0,0-.48-1.18c1,0,.52-3.29.32-4-.46-1.71-3.13-3.32-4.43-4.27-3.41-2.53-8.08-2.45-12-1.27-.69.21-.41,1.12.15,1.26,1.63.4,3,2,3.84,3.31,1.71,2.47,1.35,4.41,1.11,7.11a18.28,18.28,0,0,1-2,.12,33.3,33.3,0,0,0-5.78.94,14.62,14.62,0,0,0,.59-1.67,8,8,0,0,0-.19-2.62,6,6,0,0,0-3-3.72,11.26,11.26,0,0,0-6.49-1.44,9.57,9.57,0,0,0-3,1,34.55,34.55,0,0,0-3.35,1.28,3.34,3.34,0,0,1-1.73-2.07.66.66,0,0,0-.89-.52c-1,.33-1.36.94-2.13,1.69-1,1-2.74,1.16-4.1,1.52-3.33.89-7.06,1.81-10.52,1.38-.84-.11-4.77-1-4.23-2.62.38-1.16.86-2.31,1.16-3.49a17.74,17.74,0,0,0,.59-4.21c1.82.88,4.78.72,6.3.67a8.22,8.22,0,0,0,6.66-3.93c1.34-2.07.37-5.21.78-7.53.24-1.41-.65-4-2.41-3.73-1.21.15-2.39,1.54-3.52,2-1.78.7-6.39,1.15-5.11-2,1.37-3.32,1.34-7.07,1.78-10.6,0-.31.06-.62.08-.94a6,6,0,0,0,4.35.89,4.66,4.66,0,0,0,2.63-1.25c1.28-1.32.53-2.24,1.19-4s1.71-3,1.9-5a31.45,31.45,0,0,0,.37-6.11.71.71,0,0,0-1-.56c-1.55.51-2.82.81-4.4,0s-3.57-2-3.89-3.88c-.15-.88-1.53-.72-1.39.17a6.38,6.38,0,0,0,3.38,4.26,11.18,11.18,0,0,0,3.91,1.63,3.83,3.83,0,0,0,2-.48c-.06.73-.26,1.43-.36,2.17-.15,1.13,0,2.34-.09,3.48-.18,1.93-1.83,3.44-2.11,5.41-.08.52.14,1.15-.17,1.64-.74,1.16-2.56,1.32-3.77,1.22a2.91,2.91,0,0,1-2.47-2c0-.49,0-1,0-1.47,0-1.17.43-2.54,0-3.66a.69.69,0,0,0-1.17-.16c-1.15,1.2-.72,4-.14,5.66a24.65,24.65,0,0,1-.13,2.72,59.8,59.8,0,0,1-1.24,9c-.37,1.45-1.79,2.69-.73,4.08s2.84,1.6,4.51,1.55c1,0,6.12-2.43,6.53-1.6s-.11,2.13-.1,3.09c0,1.44.27,2.85.15,4.29-.34,4.25-11.07,5.55-12.34,3.33-.05-.29-.1-.57-.17-.83a.67.67,0,0,0-1.27.16,2.47,2.47,0,0,0,.13.79,21.27,21.27,0,0,1-.29,4.66c-.18,1.38-1.84,3.69-1.56,5.07.4,2,3,2.79,4.73,3.22,3.23.82,7,0,10.12-.81a35.09,35.09,0,0,0,4.43-1.14c1.18-.47,2-1.66,3.09-2.3a6.35,6.35,0,0,0,2.62,2.62l.19.15a9.43,9.43,0,0,0,1.49,1.47,16.7,16.7,0,0,1,3.19,7.16.65.65,0,0,0,1.28-.16,8.43,8.43,0,0,0-1.12-4.93,18.51,18.51,0,0,0-1.56-2.23,14.47,14.47,0,0,0-1.37-1.19c-.26-.3-.52-.61-.8-.9l0,0c.87-.34,1.84-.58,2.68-1a8.77,8.77,0,0,1,7.18-.26,5.58,5.58,0,0,1,3.72,5.33,8.34,8.34,0,0,1-.67,2.43,14.6,14.6,0,0,0-4.21,1c-2.41,1.1-2.17,3.8-1.34,5.85-2.25-.36-4.52-.21-6.84-.39-2.16-.17-4.8-1.1-6.91-.52-3.47,1-9.89,1.83-10.74,6a12.57,12.57,0,0,1-4.58-2.09c-1.13-.82-1.78-.57-1.84-2.1-.12-2.61-.39-6.92-2.47-8.86-5.07-4.75-13.32-2.14-19.41-1.6-.79.07-.83,1.39,0,1.4,2.76.07,5.64.69,6.75,3.57,1,2.49,1.48,5.57-.64,7.63s-6.31,1.33-9.41,2c.39-3.15-2.21-6.75-4.29-8.67-1.41-1.29-3.27-2.58-5.24-2.53-1.64,0-2.7,2.25-2.86,3.61a.26.26,0,0,0,.51.07c1.06-5.73,6.7-.9,8.44,1.24,1.29,1.59,2.72,4.54,2.1,6.7a.64.64,0,0,0-.31.61v.37c0,.67.93.66,1.18.17l.09-.22c.48-.53,7.08-.75,8-1a5.76,5.76,0,0,0,4.39-4.07,10.21,10.21,0,0,0-1.47-7.92,5.73,5.73,0,0,0-2.69-2.13,30.18,30.18,0,0,1,5.79-.48,25,25,0,0,1,5.61.63c2.69.78,3.53,3.74,4.12,6.11.43,1.77-.54,4.87,1.28,5.92,2.32,1.35,4.73,2.94,7.49,3.24a.76.76,0,0,0,.85-.83c0-2.05,2.53-3.12,4.2-3.77s4.84-2.19,6.71-1.47a6,6,0,0,0,2,.15c1.29,0,2.54.24,3.83.34,1.95.16,3.86,0,5.76.26a9.59,9.59,0,0,0-1.35.57c-1.24.68-2.26,1.61-3.42,2.4a6.67,6.67,0,0,0-3.29,6c0,.6-.31,2,.26,2.46a1.86,1.86,0,0,0,.89.46,4.73,4.73,0,0,1,3,2c1.88,2,3.63,4.37,6.23,5.48a.74.74,0,0,0,1-.57c.06-2,.3-4,.41-5.94.15-2.56,2.21-4.2,4.09-5.58a19.42,19.42,0,0,1,5.73-2.45c1-.3,3.13-1,4.48-.71-1.15,1-2.53,1.82-2.45,3.56,0,.78,1.06.75,1.37.2,1.29-2.3,5.18-1.11,6.76-.08q.42.28.81.6h-.07a13.28,13.28,0,0,0-5.09.78c-2.82,1.45-4.25,3.8-5.18,6.76-.32,1-1.36,5.09.36,5.62,1,.33,2.12.67,3.17.93,2,.5,3.71,1.49,5.64,1.9,4.93,1,11.81,1.55,12.74-4.85a5.83,5.83,0,0,0-.87-3.77,18.29,18.29,0,0,1-.74-1.85c-.27-.72,1.45-.86,2-.86a46.23,46.23,0,0,0,6-.6c1.79-.25,3.57.23,5.34-.12a.67.67,0,0,0,.33-1.19c-3.14-2.44-2.33-5.34-2.33-8.81,0-1.94.57-2.58,2.23-3.36a3.21,3.21,0,0,0,1.42-1.47A.65.65,0,0,0,751.5,1127.84Zm-32.38-10.29a12.37,12.37,0,0,0-4.54-6.75,12,12,0,0,1,9.57,2c2,1.46,4.1,3.08,3.35,5.88a3,3,0,0,0-.16,1.53,11.69,11.69,0,0,1-4.63.91,35.59,35.59,0,0,0-3.89.42v-.07A22.89,22.89,0,0,0,719.12,1117.55Zm-15.07,11.94c-2.09-3.68,1.13-4.76,4.27-5.3a.65.65,0,0,0,.67.39,23.22,23.22,0,0,1,3.33-.36c1,0,2.32.36,3.41.45-2.27,1.62-2.77,4.72-3.25,7.31-2.26-.55-5.47-.12-7.38-1.39a.6.6,0,0,0-.34-.32l-.09,0A3.27,3.27,0,0,1,704.05,1129.49Zm44.19.07a2.81,2.81,0,0,0-1.51,2,21.16,21.16,0,0,0-.37,3.88c.15,2.74.43,4.89,2,6.74-.73,0-1.45-.12-2.21-.08-1.36.06-2.7.31-4.07.37-2,.1-4.62.14-6.46,1.16-1.09.6,0,2.29.25,3,.61,1.86,1.53,2.91.49,5.06-.15.53-.33,1-.53,1.57a5.85,5.85,0,0,1-2.16,1c-2.51.85-5.37.35-7.93-.22s-4.77-2.21-7.39-2.46-.22-5.6.36-6.8c1.66-3.45,7.22-5.11,10.6-3.29.69.38,1.35-.75.7-1.18-2.39-1.59-3.94-3.46-6.89-4a7,7,0,0,0-2.18,0,7.51,7.51,0,0,0,1.07-.94.73.73,0,0,0-.13-1c-2.37-2.22-8.78.77-11.08,1.83a11.8,11.8,0,0,0-5.29,4.51c-1.25,2.3-1.35,5.2-1.41,7.85-1.85-1.11-3.22-2.94-4.7-4.49a17.38,17.38,0,0,0-1.7-1.62c-.33-.27-2.2-.81-2.2-1.27,0-2,0-3.49,1.52-5,.74-.73,1.7-1.21,2.49-1.9,1.46-1.29,3.35-1.6,4.94-2.56,2.31,1.33,6,.68,8.23,1.58a.65.65,0,0,0,.89-.49c.78-4,1.37-7.64,6.17-8a10,10,0,0,1,3.09.25,12.58,12.58,0,0,1,2.07.36,3.12,3.12,0,0,0-1.43,2c-.22,2.25-.34,5.38,1.23,7.13a8.54,8.54,0,0,0,3.31,1.76c1.48.59,2.8,2.1,4.28,2.85a.63.63,0,0,0,.64-1.07c-2.14-1.46.91-5.83,1.78-7.06a10.8,10.8,0,0,1,5.39-3.94c2.28-.81,4.37-.27,6.65,0a11.62,11.62,0,0,1,3.06,1.21C750.24,1128.59,748.31,1129.52,748.24,1129.56Z"/><path class="cls-31" d="M675.14,1052.37h1.73c3.62,12.83,1.6,35.67-1.73,49.05-2.63,10.54-4.6,18.63-11,21.93-13.1-1.64-33.13-2.47-30,12.12,5.83,4.77,22-4.88,34.63-4,23.82,1.58,38.07,23.9,66.94,20.78,1.8-9.37-17.82-20.34-45-21.93,18.28-2,35.51,1.71,44.44,11,6.73-.39,21.84,3.4,23.66-2.31,3.2-10.09-27.12-11.54-39.82-12.11-7.39-.34-16.2.31-20.78-1.16,6.81-2,12.29-3.88,20-5.33,3.71-.7,10-1.12,12.92-3.9a7.52,7.52,0,0,0-7.51-7.5c-10.56,1-15.65,7.43-26,8.65-2.35-.17-.3,1.21-.57,2.31-17.46-7-21.63-52.18-2.89-61.17-6.93,10-9.88,27.24-5.19,43.28,1.21,4.14,4.37,11.55,6.92,12.12,7.21,1.61,13.67-8.15,22.51-9.23,16-2,26.27,16.42,6.41,18,18.19-.87,44.16,1.15,37.45,20.62-4.49,4-15.6,3.12-23.08,2.31,3.53,3.33,3.4,5.79,1.73,8.08-3.11,5.64-17.83,2.68-23.66,1.73-8.54-1.39-16.31-5-23.67-9.23-7.18-4.1-15.22-9.83-22.5-10.39-13.46-1-34.57,12.27-42.71,1.15-2-27.84,33-16.29,36.36-19C673.47,1100.42,678.08,1073.58,675.14,1052.37Z"/><path class="cls-34" d="M625.28,1039.93c4.36,5.47,14.15,10.15,21.09,13.32,7.11,3.24,14.29,4.4,21.84,6.29,11.46,2.87,28.56,1.35,35.82-9.62,6.81-10.31,11.76-23.12,12.28-35.44a36.26,36.26,0,0,0-1.48-12.67c-2-6.42-7.43-7.8-14-8.43-24.2-2.37-45.81,9.21-62.17,26.28-6.12,6.38-9.21,13.18-12.67,21Z"/><path class="cls-35" d="M662.4,1001c8-4.57,18.37,2.47,22.76,9a30.76,30.76,0,0,1,3.89,24.24c-3.69,14.61-19.83,27.83-35.49,20.92,6.37,2.88,10.27,7.49,17.41,7.89a55,55,0,0,0,16.75-1.35c11.09-2.8,16.43-8.3,20.34-19.29,6.56-18.46,20-51.88-9.63-56.67-13.7-2.21-30.54.25-37.84,13.41Z"/><path class="cls-33" d="M639.34,1052.14c7.77,4.81,29.27,13.25,37,13.69,9.23.52,21-1.87,27-8.51,7.58-8.41,10.15-18.5,12.21-29.61,1.31-7.09,4.12-19.93.82-26.64-.17-.35,0-.71-.16-1.08-3.71,14.77-2.43,31.25-11.48,44.66-3.28,4.85-7,11-12.86,12.76a50.47,50.47,0,0,1-18.51,1.41c-8.37-.91-17.88-3.79-25.89-6.77a78.24,78.24,0,0,1-12.59-5.75c-3.35-2-16.22-10.79-19.91-12.18,1.37,2.06,21.37,18.49,24,16.54Z"/><path class="cls-4" d="M791.06,828.26s65.12-62.16,208.7-65.86C999.76,762.4,882.83,770.54,791.06,828.26Z"/><path class="cls-4" d="M786,861.68s63.63-43.21,185.13-26.11C971.08,835.57,871.4,826,786,861.68Z"/><path class="cls-4" d="M771.21,793.59s25-72.74,132.46-131.94C903.67,661.65,818.16,713.75,771.21,793.59Z"/><path class="cls-4" d="M604,716.56c-12.66,10.54-30.37,18.87-20.94,34.5,1.59-4.7,4.35-10.7,11.61-14.9,8.19-4.73,18.64-5.12,21.47-15,.3,11.8-25.64,16.6-28.38,27.6,12.74-5.41,30.2-4.48,38.79-15.55-6.72,14.7-29.72,12.12-40.34,20.32,1.3,1.25.11,1.84-.17,2.68,13-1.79,25.54.58,39.76-7.93,9.1-5.44,13.83-14.64,15.45-23.14,3.87-20.3-9.53-46.4-26.59-66.84C626.62,682.78,622.32,701.33,604,716.56Z"/><path class="cls-21" d="M596.1,718.9c-3.07,3.71-14,12.54-7.7,16.74,4,2.68,16.21-1.47,19.53-3.53-10.94,3.68-5,16.11,5.42,10.85-2.38.57-4.76,1.77-5.1,4.15,12.09,5,22.93-8.05,26.43-17.93,4.29-12.13,5.78-28.48,1.31-40.83,2.77,12,7.25,20.87,5.33,33.58-1.33,8.86-3.57,19.29-11.58,25.15-11,8.07-50.73,20.46-51.72-3.47-.35-8.56,6.76-13.74,10.85-20.49Z"/><path class="cls-22" d="M609,649.14c-.14-.18-.27-.35-.51-.14-1.07,3.37.51,5.06,2.21,9,10.14,23.79,8.72,41.19-11.4,57-8.94,7-20.43,14.27-21.6,23.69-1,7.82,5.46,13.69,6.71,19.79,2.86,2,6.79,1.84,10.46,1.7,10.24-.37,24.12-1.57,35.17-9.14,18.82-12.91,20.23-40.14,9.25-62.17-7.55-15.15-18.27-29.78-29.79-39.6C609.34,649.09,609.21,648.92,609,649.14Zm32.32,76c-1.62,8.5-6.35,17.7-15.45,23.14-14.22,8.51-26.71,6.14-39.76,7.93.28-.84,1.47-1.43.17-2.68,10.62-8.2,33.62-5.62,40.34-20.32-8.59,11.07-26.05,10.14-38.79,15.55,2.74-11,28.68-15.8,28.38-27.6-2.83,9.87-13.28,10.26-21.47,15-7.26,4.2-10,10.2-11.61,14.9-9.43-15.63,8.28-24,20.94-34.5,18.28-15.23,22.58-33.78,10.66-58.25C631.76,678.75,645.16,704.85,641.29,725.15Z"/><path class="cls-34" d="M151.52,826.48c-21,3-49.65,1.69-69.84-4.53-15.49-4.79-36.59-7.43-50.31-15.89,10.57,12.68,28.84,20.79,43.34,28.25,15.64,8,36.2,1.24,50.72,10.32-33,8-72.11,3.11-106.23,2.3,38.07,16.43,71.56,27.68,114.39,24.68C118.72,866,92,884.75,76.49,887c22.83,0,47.24-1.05,69.6-4.3,18.56-2.7,36.59-7.37,54.21.79,31.82,14.75,60,38.51,94.67,46.73,34.39,8.14,74.33,15.34,110.61,10.83,27.64-3.45,91.21-41.24,65.43-74.58-10-13-36.53,0-52,.06s-36.82-3.22-49.35-13.26c-6.32-5.06-11.48-13.35-17.4-19C334.72,817.71,306,818.61,282.62,817c-38.75-2.72-85.46-4-122.82,7.33a65.72,65.72,0,0,0-8.28,3.26v-1.08"/><path class="cls-35" d="M187.89,862.16c12.47-3.4,23.32-1.79,35.72,1.59,20.19,5.5,41.51,7.15,61.66,12.68,25.71,7.05,52.39,14.16,79.1,17.51,19.36,2.42,39.51,3,58.74-.75,14.45-2.81,63.46-25.63,62.72,1.4-.57,21-33.63,35.77-50.42,43.59-10.88,5.07-19.73,7.62-31.18,7.2-7.1-.25-14.21-.22-21.32-.19-13.76.07-27.48.13-41-1.9a236.41,236.41,0,0,1-100.14-39.52c-11.38-7.79-24.14-14-36.13-21-10.86-6.32-23.94-17.06-4.29-24.17l-13.47,3.52"/><path class="cls-37" d="M28,805.11c9.62,4.86,60.27,42.43,69,22.94-9.24-8.57-17.83-7.75-29-10.46-8.35-2-23.2-10.45-29.94-9.61l-10-2.87"/><path class="cls-37" d="M187.64,879.19c-.43-17-11.27-16.06-25.77-12.79,3.31-23.3-50.88-16.58-65.05-19.32C85,844.78,72,845.31,58.94,845.84c-15,.6-30.06,1.21-43.66-2.46a432.82,432.82,0,0,0,56.59,18.9c9.25,2.34,19.54,3.66,28.92,5a84.2,84.2,0,0,0,13.89.27c7.09-.23,14.3-.46,19.76,1.59-7.48,5.66-21.48,8-30.61,10.53-8.92,2.43-22,1.44-28.86,7.43,16,5.69,38.69-.85,54.79-2.41,17.78-1.73,35.85-5.5,52.89-5.5h5"/><path class="cls-37" d="M403.29,845.92c-8.83-26.73-.33-61.8,22.17-83.24-16.89-.68-36.35,15.14-44.44,28.18-7.58,12.19-10.83,31.6-22.85,38.86-8.29,5-16,2.09-18.05,14-1,6,.06,4.41,7.2,6.28,8.76,2.28,13.08,5.09,19.88,1.53,7.2-3.78,18.13-1.46,25.94-4.81a37.68,37.68,0,0,0,6.77-4.08l3.38,3.24"/><path class="cls-33" d="M385.54,856.33,379.87,860c13.5,7.59,33.27,10.47,53.26,9.6,14.77-.65,29.89-3.17,38.91-9.19C444.66,863.47,407,867.08,385.54,856.33Z"/><path class="cls-38" d="M399.19,847.56c2.55-1.2,4.48-2.94,5.18-5.53.85-3.15-.88-6.71-1.13-9.72-2.5-30,7.68-51.11,22-64.82,4.23-4,11.17-6.75,12.41-13.5-10.23.59-19.13,6.47-27.07,11.34-24.13,14.8-43.44,37-46.81,69.14,4-2,4.53-7,5.64-10.26,9.56-28.31,27.36-46.72,52.45-59.42-19.32,14.17-28.66,42.77-23.69,76.7-13,6-55.76.78-41.17,22.15.24-6.85,4.32-10,10.63-11.06,6.92-5.46,22.91-2,32-5.3l-.43.28"/><path class="cls-33" d="M377.86,851.21c5.58-1,15.26-.81,21.33-3.65l.43-.28c-9.09,3.31-25.08-.16-32,5.3.75-.12,1.53-.22,2.34-.29a39.27,39.27,0,0,0,9.91,7.69l5.67-3.65A34.85,34.85,0,0,1,377.86,851.21Z"/><path class="cls-38" d="M161.86,878.22c-24.31,2.93-49.48,7.36-73.88,7.56,34.63-7.34,62.8-20.87,104.9-21.06-14.88-8.36-34.52.73-50.2,2.16-10.87,1-23.68-.34-35-1.62-32.63-3.72-64.31-11.16-89.11-20.53,19.86,4.71,43.74,4.39,67.11,4.07,20.17-.27,40-.55,56.4,2.41-.82-4.07-8.67-1.42-10.72-4.32,18.66-.16,39-1.82,54.71-2.7-11.48-2.17-23.55-1.62-35.53-1.62-12.35,0-25,2.35-36.09,1.08-6.74-.76-14.14-3.77-20.87-5.94C73,831.08,53.86,822.32,39.48,811.24c31.76,13.91,71.78,24.33,116.74,22.15-2.32-2.69-6.6-1.8-9.59-2.16-48-5.7-92.48-13.54-123.51-34-4.6-3-8.89-7.57-14.66-8.64-.5,4.3,3.91,7.53,6.77,10.26,21.89,21,51.29,36.12,84,45.91-35,1-70.9.39-99.26-6.48,29.51,22.51,82.92,31.44,124.07,33.49-17.95,4.24-36.49,9.94-54.7,13.5-6.14,1.21-13.73,0-18.61,4.33,35.72,3.78,73-.54,105.48-4.75,9.68-1.26,19.91-3.34,28.77-2.7a7,7,0,0,1,1.41.3l3.48-6.26c-8.84-.79-18.05.86-28,2.06"/><path class="cls-33" d="M457.38,902c-15.56,50-99.87,41.32-150.58,27-44.36-12.52-74.41-35.87-110-49.7.34-.93,2.67,0,2.81-1.08a37.92,37.92,0,0,0-6.43-1.64q-2.1,3.43-4.36,6.72c15.89,6.33,69.1,36.32,90.92,45.28,35.23,14.47,76.61,20.25,120.08,16.62,19.47-1.63,38.75-9.49,49.07-21.07C453.69,918.78,458.56,911.19,457.38,902Z"/><path class="cls-33" d="M189.9,876.16l-3.48,6.26c.66.2,1.49.5,2.43.88q2.27-3.28,4.36-6.72C192.11,876.4,191,876.26,189.9,876.16Z"/><path class="cls-39" d="M505.08,355.71q2.42-21,4.4-41.93c3-1.69,1.46-25.68.74-32.52A186,186,0,0,0,503,245.87c-4.69-15-16.36-42.27-29.82-51.44-11.55,22.09-72.46,41-81.26,10.64-4.57-15.77-7.73-36.29,2.1-50.81a108.72,108.72,0,0,1,15.15-18.33c3-2.8,6.65-3.89,9.54-6.26,5.83-4.79,4.26-.09,5.14-7.88,1.81-16.16-.59-35.32,14.65-47.49,12.23-9.77,39.94-12,55-8,10-34,39.77-60.54,77.35-65.78,14.75-2.06,30.35,3.22,44.22,8.61,17.7,6.89,27.06,13.8,29.79,29.62s9.14,32.39,1.86,48.46c-8.32,18.37-19.07,26-35.69,36.63-18.48,11.77-21.61,18.86-22.64,38-1,18.23,1.64,36.27,2.6,54.81,2.71,52,3.93,131.58,5.47,183.36-9.64-13.66-23.3-24.1-38.57-31.34-10.55,0-33-10.56-43.59-10.15-20.14.79-9.43-7.94-14.4-20.05Z"/><path class="cls-40" d="M540.65,186.7c25.32-25.31,53,83.52,22.1,183.63,14.89-.75,23.94,22.29,36.17,28.13,5.18-16.87-.41-71.89-.41-90a377.06,377.06,0,0,0-4.78-60.27c-3-18.5-6.23-34.53-7.21-54.24-.44-8.87.6-20.48-6.09-26.25-5.87-5.08-20.23-5.32-27.72-3.95a29.55,29.55,0,0,0-19.29,12.12Z"/><path class="cls-41" d="M508.91,356.66c29.24-1.27,53.6,7.6,72.38,23.56,17.72,15,16.24,20.29,20,27.24-32.36-37.78-66.26-43.8-91.85-48.64A3,3,0,0,1,508.91,356.66Z"/><path class="cls-40" d="M423.73,93.89c5.13-21.68,35.8-22.23,52.1-17.15,16.56,5.15,26.21,13.47,39.48,24.52,8.82-7.84-14-29.35-22-33.62-13.28-7.09-42.11-7.06-51.54,8.16Z"/><path class="cls-40" d="M396,159c-17.86,14.45,14.39,36.15,28.93,36.16,18.12,0,31.84-10.54,39.81-26.55,3.18-6.39,4.19-14.43,12.3-17.78,8.36-3.45,19.88.33,28.72-2.68,16.74-5.7,18.61-23.44,33.42-31.67,13.9-7.71,33.13-2.44,48.49-5.63,15.87-3.29,27.31-14.4,34-29,12.62-27.49,12.17-73.52-29.11-76.21C632.15-7.21,654.41,45.08,650.08,77c-2.39,17.6-10.89,31.65-25.35,43.1-7.18,5.68-15.38,11.67-23.78,15.06-12.24,4.93-13.33,4.26-13.28,19,0,11.76.15,22.77,3.4,32.45-6.86-25.2-51.91-18.83-50.63,8.38-25.73-14-43.53-6-56.11,18.14-2.52-6.59-9.35-16.94-15.76-19-6.35,21.84-29.4,30.74-49.66,28.78C386,219.69,395.73,193.2,386.36,171Z"/><path class="cls-41" d="M593.43,141.13c-9.23,77.49,25.58,186.61,5.49,259.74,3.21-66.7-2.07-100.79-5.16-134.21-3.68-39.71-11.84-81.87-8.6-122.33-7.07,1.72-22.72,2-28.26-3.2,44.84-3.18,82.66-31.83,86.85-71.68,2.42-23-3.27-40.44-17.23-50.57-31.75-23-90.32-8.1-111,15.37-4.37,5-18.43,22.58-15.16,34.56,1.06,3.9,7.18,6,10.34,10.24,4.72,6.25,7.29,11.57,6.89,23-9-18.53-27.13-37.52-55.83-32-25.22,4.84-46.4,29.6-33.78,57.6,18.66-.48,29.83,6,35.15,17.92-2.87.41-4.36-3.05-6.2-4.48-8.44-6.56-24.09-10.82-37.22-6.4-18.15,6.11-26.89,29.45-26.89,49.92,0,19.44,8.11,35.09,33.78,32.65,27.77-2.64,48.61-21.77,48.25-48.65,22.49,12.66,56.31,1.66,68.25-10.24-4,21.76-44.48,28.35-65.49,16.64,0,5.74.46,11.95-1.38,16,23.12,37.51,42.87,89.72,32.4,152.33-.52,3.1-1.08,7.88-2.07,11.52-.79,3-1,8.34-6.89,6.4-.93-8.79,2.8-21.46,3.45-32,3.29-53.72-11.23-96-31-129.28a63.64,63.64,0,0,1-46.88,25.6c-8.47.65-18.42.87-24.13-2.56-13.48-8.13-17.4-30.73-15.16-48.65,3.08-24.64,14.4-41.49,37.22-46.08-21.58-40.53,29.37-81.62,72.38-60.8C497.27,28.85,534.66,3.22,574.82.32c51.7-3.73,80.79,25.22,77.2,69.13C649.05,105.77,623.73,127.64,593.43,141.13Z"/><path class="cls-7" d="M556.46,992.36h2.27C558.56,993.58,556.32,994.49,556.46,992.36Z"/><path class="cls-4" d="M581.57,772.38c-4.12,18.42-31.83,32.48-53.59,34.51-5.86.54-10.51-.44-15.44-.46,4.57-1.93,11-2,15.89-3.63,0-3.41-3.89-4.15-5.44-8.17-2.87-7.42.26-17.44,2.26-24.07.09-.37.46-.45.46-.91-15.15,13.67-29.62,27.36-40.42,45.41-31.8,53.15-45.47,125.43-80.38,176.2-3.91.63-4.75,4.33-8.62,5A12.79,12.79,0,0,1,399,989c-5.64-2.64-13.64-1-15.44,4.08-.9,14.11,13.93,21.35,24.52,27.25,32.54,18.14,73.92,32.29,124,29.52,28.33-1.57,53.67-13.51,73.56-26.79,5.63-3.76,17.12-10.42,16.81-16.35-.22-4-10.64-14.63-13.17-18.17a176.54,176.54,0,0,1-28.61-64.48c-7.61-35.48-4.56-77,2.27-112.62-6.91,16.25-14.46,31.86-26.8,42.69,7.47-16,19.75-31.12,25-50.87-8.24,9.17-18.36,20.39-29.06,28.61,5.67-10.67,17.05-19.57,24.52-30-3.58,2.18-7.72,5.34-12.26,8.17s-9,5.93-13.17,7.27c.92-3.09,4.72-5,7.72-7.27,7.17-5.53,22.1-13.24,25.43-21.79,2.25-5.8,2.66-26-.91-30a8.72,8.72,0,0,0-3.74-2.16l-.15,3.05C582.84,761.62,582.47,768.34,581.57,772.38Z"/><path class="cls-42" d="M580.43,764.71c-1.25,13.24-6.83,19.62-14.4,29.41,9.76,1.46-13.6,19.07-16.12,20.67a12,12,0,0,1,7.53-1.77c.56,7.14-3,11.33-6.46,17.14,11.65-10.59,12.72,3.12,9.55,12.28-2.7,7.79-8.71,15-16.79,18.23,9.54,8.21,13.32,24.91,15.6,36.78A200.63,200.63,0,0,1,563,942.34c-.82,21.62-10,41.59-23.51,57.89-27.86,33.48-68.61,35.73-109.7,31.34a12.89,12.89,0,0,1-3.38-1.11c10,4.85,20.8,9,31,13.44,11.87,5.15,24.08,4,36.93,5.26,11.23,1.13,23.43,3.51,34.77,1.87a314.83,314.83,0,0,0,33.77-6.8c11.75-3.08,22.74-9.16,33.9-14.19,7.63-3.45,17.89-7,23.34-14.12,6.59-8.66-.57-18.2-6.92-24.74-10.1-10.42-16.64-22.37-21.71-36.13-6.82-18.53-11-35.42-11.6-55.21-.51-16.18-2-32.07-1.81-48.19.24-21.12,9-40.24,10.23-61,.71-11.51,4.67-35.83-13.15-36.67-1,5.12,9.19,13.63,4.13,18Z"/><path class="cls-43" d="M581.57,891.81c-1-21.42.83-41.82,3.63-61.31,2.77-19.32,7.77-39.54,6.36-59-.67-9.12-4.07-18-11.73-19.15l-.19,3.82a8.72,8.72,0,0,1,3.74,2.16c3.57,4,3.16,24.17.91,30-3.33,8.55-18.26,16.26-25.43,21.79-3,2.32-6.8,4.18-7.72,7.27,4.2-1.34,8.75-4.51,13.17-7.27s8.68-6,12.26-8.17c-7.47,10.4-18.85,19.3-24.52,30,10.7-8.22,20.82-19.44,29.06-28.61-5.23,19.75-17.51,34.87-25,50.87,12.34-10.83,19.89-26.44,26.8-42.69-6.83,35.62-9.88,77.14-2.27,112.62a176.54,176.54,0,0,0,28.61,64.48c2.53,3.54,13,14.17,13.17,18.17.31,5.93-11.18,12.59-16.81,16.35-19.89,13.28-45.23,25.22-73.56,26.79-50.06,2.77-91.44-11.38-124-29.52-10.59-5.9-25.42-13.14-24.52-27.25,1.8-5.07,9.8-6.72,15.44-4.08a12.79,12.79,0,0,0-2.72,7.26c3.87-.66,4.71-4.36,8.62-5,34.91-50.77,48.58-123,80.38-176.2,10.8-18,25.27-31.74,40.42-45.41,0,.46-.37.54-.46.91-2,6.63-5.13,16.65-2.26,24.07,1.55,4,2.8,6,5.44,8.17-4.88,1.62-11.32,1.7-15.89,3.63,4.93,0,9.58,1,15.44.46,21.76-2,49.47-16.09,53.59-34.51.9-4,1.27-10.76-2.08-13.19l-.28,5.71a8.27,8.27,0,0,1-.27,5.23l.27-5.23a28.35,28.35,0,0,0-1.36-4c3.91,14.42-7.3,24.11-17.18,30.14-8.8,5.38-16.58,7.86-26,9.68-7.68-7.14-9.49-18.56-5.74-28.75a49.49,49.49,0,0,0,2.92-13.44c-2,3.62-2.24,5.94-5.19,8.44-10.77,4.62-19.58,12.55-27.7,21.35-47.38,51.33-58,140.74-98.09,197.54-12.05-6-25.07.2-22.71,14.08,1.93,11.28,16.69,20.53,26.79,25.88,34.51,18.27,77.1,33.17,128.52,30,29.76-1.85,56.19-14.33,75.84-28.15,5.5-3.87,17.14-11.85,18.16-16.81,1.73-8.34-5.54-12.84-9.08-17.71C599.46,967.11,583.38,933.06,581.57,891.81Z"/><path d="M575.66,752.39a5,5,0,0,0,.28.74,4.07,4.07,0,0,1,.22-.81Z"/><path class="cls-4" d="M579.83,752.32l0-.36c-.77-.63-.52-1.55-1.81-1.9a4.71,4.71,0,0,0-1.88,2.26A12.52,12.52,0,0,1,579.83,752.32Z"/><path class="cls-4" d="M579.49,759.19l.15-3.05a5.73,5.73,0,0,1-3.7-3c-.39,2.24.8,4.92,1.91,7.72a24.37,24.37,0,0,0-.83-2.55A4.82,4.82,0,0,1,579.49,759.19Z"/><path class="cls-44" d="M579.64,756.14l.19-3.82a12.52,12.52,0,0,0-3.67,0,4.07,4.07,0,0,0-.22.81A5.73,5.73,0,0,0,579.64,756.14Z"/><path d="M579.21,764.9l-.27,5.23A8.27,8.27,0,0,0,579.21,764.9Z"/><path class="cls-44" d="M579.49,759.19a4.82,4.82,0,0,0-2.47-.89,24.37,24.37,0,0,1,.83,2.55,28.35,28.35,0,0,1,1.36,4Z"/><g class="cls-45"><rect class="cls-46" x="97.23" y="838.92" width="27.12" height="5.11"/></g><path class="cls-47" d="M192.09,864.72q-6.21.06-12.05.48a9.41,9.41,0,0,1,5.75,4.95c2.14.21,4.19.39,6.13.56a6.12,6.12,0,0,1,.17-6m-91.89-35c-.81.2-1.6.43-2.4.67l-2.74.4c-1.93,1.95-4.66,2.79-7.94,2.79a28.14,28.14,0,0,1-6.16-.78l-.87.12q6.61,2.53,13.53,4.75c1.19.38,2.39.79,3.61,1.21,9.57.5,19.18.61,27.12,5.07,8.45-.22,17.42-1.42,26.23-1.42,4,0,8.08-.06,12.11-.06a126.21,126.21,0,0,1,23.42,1.68c-15.74.88-36.05,2.54-54.71,2.7,1.73,2.44,7.56,1,9.85,2.84,11.1,1.79,19.95,5.51,20.71,13.54a81.11,81.11,0,0,1,16.09-2,30,30,0,0,1,14.25,3.17,13,13,0,0,1,4.81-3.91,52.88,52.88,0,0,0-8.09,1.38l-1.13.29,1.13-.29,12.34-3.23h0a32.26,32.26,0,0,0-4.25,1.85c1.6-.14,3.18-.21,4.76-.21,7.15,0,14.16,1.4,21.74,3.47,12.18,3.32,24.78,5.23,37.28,7.45,8.64-.83,17.3-2,26.08-3.7,19.16-3.62,37.75-4.27,56.34-8.19A79.38,79.38,0,0,0,354,856.24a6.16,6.16,0,0,1,1.19-3.91c-2.28-.63-4.8-1.49-7.87-2.29-7.14-1.87-8.2-.28-7.2-6.28a14.94,14.94,0,0,1,2.29-6.25c-1.55-.1-3-.24-4.41-.44-26.55-3.88-54.25-4.48-81.13-4.5h-.59c-11.61,0-23.24.29-34.88.58s-23.27.59-34.89.59c-10.3,0-20.58-.23-30.84-.89a4.66,4.66,0,0,1,.55.54q-6,.3-11.95.29a250.86,250.86,0,0,1-44.07-3.92"/><path class="cls-48" d="M189,861.87l-1.13.29,1.13-.29m12.85-1.59c-1.58,0-3.16.07-4.76.21a13,13,0,0,0-4.81,3.91l.58.32h-.79a6.12,6.12,0,0,0-.17,6c8.88.78,15.48,1.21,18.22,1.35,6.88.35,13.65.54,20.36.54,10.21,0,20.29-.44,30.39-1.4-12.5-2.22-25.1-4.13-37.28-7.45-7.58-2.07-14.59-3.47-21.74-3.47m-.51-1.64L189,861.87a52.88,52.88,0,0,1,8.09-1.38,32.26,32.26,0,0,1,4.25-1.85"/><path class="cls-49" d="M95.06,830.83l-14.1,2a28.14,28.14,0,0,0,6.16.78c3.28,0,6-.84,7.94-2.79"/><path class="cls-49" d="M180,865.2c-6.53.46-12.75,1.23-18.73,2.22,8.81,1.13,17.18,2,24.48,2.73A9.41,9.41,0,0,0,180,865.2M103.2,848.64c-5.75,0-11.6.08-17.48.16l-1.07,0c13.81,7.86,40.06,13.35,65.11,17,4-.74,8.06-1.71,12.2-2.57-.76-8-9.61-11.75-20.71-13.54a2.47,2.47,0,0,1,.87,1.48c-11.65-2.09-25-2.57-38.92-2.57"/><path class="cls-49" d="M342.41,837.51a14.94,14.94,0,0,0-2.29,6.25c-1,6,.06,4.41,7.2,6.28,3.07.8,5.59,1.66,7.87,2.29,2.5-3.42,8.66-5.08,15.7-6.19a15.28,15.28,0,0,0,1.37-1.8c-6.29-6.88-19.66-6.16-29.85-6.83"/><path class="cls-50" d="M370.89,846.14c-7,1.11-13.2,2.77-15.7,6.19a6.16,6.16,0,0,0-1.19,3.91c6.45-2.35,13.09-5.73,16.89-10.1"/><path class="cls-46" d="M74.81,836.14c-.27,3.25,1.37,6.23,4.49,9,6.65,0,13.32-.18,20-.38-8.39-2.51-16.57-5.37-24.45-8.59"/><path class="cls-50" d="M178.05,861.23a81.11,81.11,0,0,0-16.09,2c-4.14.86-8.24,1.83-12.2,2.57,3.9.57,7.76,1.1,11.55,1.58,6-1,12.2-1.76,18.73-2.22q5.85-.42,12.05-.48h.79l-.58-.32a30,30,0,0,0-14.25-3.17M80.09,833l-4.71.68a9.68,9.68,0,0,0-.57,2.5c7.88,3.22,16.06,6.08,24.45,8.59-6.64.2-13.31.34-20,.38a32.26,32.26,0,0,0,5.35,3.71l1.07,0c5.88-.08,11.73-.16,17.48-.16,14,0,27.27.48,38.92,2.57a2.47,2.47,0,0,0-.87-1.48c-2.29-1.89-8.12-.4-9.85-2.84,18.66-.16,39-1.82,54.71-2.7a126.21,126.21,0,0,0-23.42-1.68c-4,0-8.07.06-12.11.06-8.81,0-17.78,1.2-26.23,1.42-.87,0-1.74,0-2.6,0a63.9,63.9,0,0,1-7.26-.38c-5.55-.63-11.55-2.78-17.26-4.73-1.22-.42-2.42-.83-3.61-1.21q-6.9-2.21-13.53-4.75m33.37-4.69a54.32,54.32,0,0,0-13.26,1.49,250.86,250.86,0,0,0,44.07,3.92q5.91,0,11.95-.29a4.66,4.66,0,0,0-.55-.54l-3.22-.22c-12.41-.92-26-4.36-39-4.36"/><path class="cls-4" d="M111.79,812.62c-11.18-1.2-49.73,7-36.45,23.25,9.7,11.86,43,12.28,56.94,13,23.82,1.19,47.23.21,71.21,1.18,20.32.83,39.59,4.76,60.6,3.62,20.14-1.09,44.88-2.17,63.94-7,20.72-5.22,43.24-1.78,62.32-11.37-3.87-17.38-54.34-28.59-68.56-32-57.9-14-115.77-17.45-172.59,3.32Z"/><path class="cls-51" d="M194.7,837.64c5.33,4.08,18.05,3.7,24.86,4.67,10.52,1.48,21.28,3.82,31.78,4.38,15,.79,30.08,1.91,45.07,1.19,14.48-.69,28.8-.29,43.09-1.79,10.81-1.14,26.32-2.56,36-7.7,21.77-11.54-19.32-19.65-26-20.81a266.15,266.15,0,0,0-75.24-2.24c-21.26,2.57-45.15,4.24-65.7,10.24Z"/><path class="cls-52" d="M97.91,816.16c-.07,5.49-20.89,3.56-21.72,12.06-.72,7.42,21.72,11.71,30.16,13.27,60.24,11.11,138.08,10.2,203.88,4.83,18.41-1.51,38.3-3.29,56.1-9.05,5.65-1.83,12.72-4.58,12.66-8.45-.11-7.4-16.27-6.78-16.28-10.85,1.42-4.48,7.12-1.19,9.65-.61,6.05,1.4,22.36,6,22.44,15,.08,9.16-21.3,13-28.47,14.51-65,13.42-156.16,13.19-229.21,6a396,396,0,0,1-42.83-6c-9.24-1.91-32.67-7.17-33.18-15.08C60.5,822.39,91.24,815.61,97.91,816.16Z"/><path class="cls-53" d="M92.52,741.43c13-30.89,75.64-40.75,103.75-43.5,38-3.71,79.25-2.26,114.91,11.83,13.25,5.24,32.05,8.4,42.86,18.67,28,26.58-57,41.79-70.92,45.32-43.42,11-90.65,17.79-134.14,6-13-3.53-59.46-12.46-56.46-32.25v-6"/><path class="cls-54" d="M197.11,753.66c11.07,4.9,36.88-7.57,44.82-16.1,9.71-10.41,12-30-4.4-36.14,10.77-3.73,28.19-.56,39.94,0,10.27.49,21.22,3.5,31.34,6.39,10.29,2.93,20.67,7.28,30.54,11.29,7.47,3,19.62,7.9,22.4,15.94-8.95,1.17-11.3,7.76-17.76,13.62-15.6,14.12-40.8,17-60.89,19.28-18.56,2.08-42.89,5.92-61.14.8-4-1.12-29.17-11.24-15.21-17.49l-9.64,2.41"/><path class="cls-55" d="M191.48,699.19c-9.65,2-40.53,18-40.06,30.32,20.06-1.06,39.73-20.81,58.42-26.32-2.51,9.75-11.45,24-5.48,34.39,9.27,16.16,15.47-13.2,16.87-20.06,1.56-7.58.16-13.07,9.65-9.48,4.57,1.72,9.82,6.25,13,10,3.69,4.35,6.36,12.2,11.69,14.9,8.88,4.51,5.23-4.33,2.35-9.64-2.67-4.93-6-10.24-10.77-13.72,8.43-2.13,26,8.64,33.49,12.52,3.55,1.84,11.58,9.82,15.23,9.86,8.86.08-.49-9.67-3.37-12.79-21.75-23.57-65.4-23-95.43-20h-5.63"/><path class="cls-56" d="M75.6,781.25c-3.31,1,4,9.9,7.2,14.54,2.73,4,5.67,10.31,9.36,13.54,7.22,6.3,16.1,10.41,24.59,13.44,17.44,6.21,36.81,8.2,55.37,9.16,39.54,2,76.42,5.3,118.24,0,10.45-1.33,20.2-1.16,30.16-2.15,9.17-.91,20.17,1.92,28,0,10.61-2.6,11.92-9,14.47-18.1,1.87-6.65,8.92-18,9.48-24.4C374.81,760.71,293,771,277.12,771.6c-26.83,1-53.47,5.79-80.6,4.56-19.31-.89-38.5-2.13-57.91-2.15-11.3,0-47.93-4.1-54.57,2.41Z"/><path class="cls-57" d="M83.8,796.25c4.59,3.6,15.75,7,19.08-1.53,4.54,11.94,11.79,20.27,24.31,23.23,11.87,2.8,27.52,1.14,31.91-12.58,14.81,13.28,31.49,13.38,45.24-2,14.47,12.39,25.54,12.06,39.18.17,6.69,11.41,31,16.74,36.54,1,8.42,11.07,31.4,11.29,39-.2,6.3,11.55,25.53,8.73,31-.77,7.88,10,19.86-6.22,17.52-14.58-2.51-9-21.22-7.24-28.83-7.23-27.86,0-57.11,0-84.49,4.81-41.37,7.3-82.55.21-123.76-4.79-13.09-1.59-26.32-1.18-39.2-3-6.16-.89-15.53-2.93-18.66,4.64Z"/><path class="cls-58" d="M98.52,781.13l16.62,38.42-9.65-33.75,24.11,16.88,28.93-.81S165,836.43,165,834s-.8-34.56-.8-34.56l26.06,2.3,14.92-3.9s4,42.59,4,40.18,3.22-42.6,3.22-42.6l32.14,3.22.8,37,7.24-39.38,29.36,3.37-4.45,36.81,10.45-37.77,40.18-2.41-8.29,32.61,13.91-31,22.5-8L345,831.61l16.37-45.38L99.71,778.16Z"/><path class="cls-59" d="M107,755.91c-9.53-36.06-77.66-35.33-72.42,4.86,2.1,16.13,24.43,27,38.61,27.75,8.94.45,18.23-8.31,25.36-7.39,5.94.77,14.73,12,20.21,14.9,7.09,3.79,16.1,7.48,24.44,8.17,10.87.91,15.91-5.71,25-7.57,6.76-1.38,3.45-.12,9,1.21,4.93,1.19,7.31,3.91,13,3.92,8.77,0,17.7-5.14,24.13-11,11.94,10.75,26.35,14.62,38.88,1.8,7,8.34,18.4,8.87,28.69,7,3.9-.7,9.7-4.53,12.39-4.83,6.68-.75,3.61,1,10.5,2.44,21.29,4.47,39.13-1,56.53-11,4.07,7.55,27.94,3.07,34-1.66,8.78-6.9,10.23-19.94,9.68-31.07-.58-11.85-1.66-25.21-14.54-30.16-9.09-3.49-25,.74-29.1,10.64-7.27,0-12.21,2.69-18.22,5.95-2.49,1.36-2.61,4.86-4.74,6.09-2.56,1.47-7,0-9.74,1.12-2.51,1.07-2.72,6.28-5.64,6.45-4.25.24-4.95-3.93-8.48-4.61-9.25-1.78-12-.78-20.3,3.61-13.76,7.32-17-.55-32.82-.29-14.26.22-25.1,7.14-37.39,13.39-16.16-15.58-45.94-14.24-64-1.82-12.65-20.85-37.26-20.6-57.89-10.37Z"/><path class="cls-60" d="M72.35,734.19c-6.9-8-36.15,7.49-12.06,10.74,5.45.73,14.32,1.29,18.68-3,8.66-8.44-9.21-7.78-13.86-7.78Z"/><path class="cls-60" d="M137.44,749.19c-6.9-7-36.15,7.82-12.06,11.07,5.45.74,14.32,1.13,18.69-3.12,8.66-8.44-9.22-7.95-13.86-7.95Z"/><path class="cls-60" d="M196.5,755.19c-6.9-7-36.14,7.83-12.05,11.09,5.45.73,14.32,1.11,18.68-3.14,8.66-8.44-9.21-7.95-13.86-7.95Z"/><path class="cls-61" d="M256.28,755.19c-6.35-6-33.28,6.28-11.1,8.95,5,.6,13.19,1,17.2-2.5,8-6.92-8.48-6.45-12.76-6.45Z"/><path class="cls-61" d="M299.4,753.19c-4.71-5-24.67,5.22-8.23,7.45,3.72.5,9.77.84,12.75-2.08,5.91-5.78-6.29-5.37-9.46-5.37Z"/><path class="cls-61" d="M368.24,737.19c-7.86-5-41.17,5.38-13.73,7.61,6.2.5,16.31.76,21.28-2.15,9.86-5.79-10.5-5.46-15.79-5.46Z"/><path class="cls-62" d="M56.47,734.37c-21.36,11.27-9.56,35.21,10.45,36.18a25.49,25.49,0,0,0,20.85-9c8-9.6,2.24-15.17-.21-25.45,5.79,5.49,15.47,16.27,24.12,16.79-10.3-.82-8.17,14.81-4.78,20.31,4.31,7,12.61,11.86,21.1,11.08s15.41-7.13,18.66-14.49c4.22-9.56.37-15.88-4.1-23.83,9.77,3.64,9.56,12.08,16,18.26,3.47-2,6.66-5.86,10.18-7.17-6.18,4-13.92,10-12.6,18.35,1.38,8.7,10.67,10,16.7,4.11,10.6,23.73,67.68-6.87,28.37-24.87,7.32,1.48,36.05,12.73,21.77,21.49a15.77,15.77,0,0,1,2.31-8.49c-6.8,15.95,25.3,23.25,22.45,7.2,2.41,9.87,21.49,10.18,28,5.17,8.34-6.45,4.14-21.08-5.39-24.35,9.8.68,15.94,10.61,25,13.12,10.6,2.94,26.85-8.35,13.54-16.53,11.91-.49,13.29,11.92,23.87,14.48,12.93,3.13,19.55-16.39,7.67-17.09,10,6,16.5,15.34,29.47,15.33,7.75,0,33.38-13.35,17.56-21.36,9.34,4.25,18,6.31,13.73-8.11,9.32,5.76,8.3,29.28,3.45,37.68s-15.46,14.79-24.47,18.11c-6.43,2.37-11-.47-16.7,0s-10.5,5-16.69,7.63c-12.58,5.26-23.08,8-34.15-.82-5.5-4.4-6.1-6.67-13.24-4-6.05,2.24-9.52,5.9-16.28,7-7.75,1.25-10.35-.9-17.07-3.78-7.42-3.18-7.52-.72-14.27,2.21-4.68,2-14.1,3.06-19.32,1.65-4.75-1.29-8.85-9-12.6-9.92s-12,5.36-16.32,6.64c-5.63,1.66-12,3.66-18.28,2.26-5.4-1.22-9.63-6.86-14.84-5.47-5.82,1.56-10.18,8.91-16.66,10.49-12.1,2.95-28.61,2.85-38.64-5.47-4.07-3.37-7.38-11.63-11.81-14-5-2.73-11.6,1.24-17.07,2.62-13.37,3.38-24.71,1.42-36.21-5.44-8.73-5.22-16.39-12.74-16.83-23.49-.38-9.41,10.07-22.79,20.09-22.5Z"/><path class="cls-63" d="M366,735.68c-7,1.73-9.68-3.91-14.48-6.63-15.92-9-38.44-15-60.92-21.12-64.13-17.45-143.61-5.24-184,24.73-3.5,2.61-6.7,6.93-11.46,7.24,1.6-6.26,7.12-11.34,12.07-15.08,28.35-21.43,75.49-31.88,121.84-32,26.76-.05,53.59,6.59,77.21,13.27,20.47,5.8,41,11.9,55.49,24.13,1.44,1.21,6.07,2.36,4.23,5.43"/><path class="cls-64" d="M212.55,695.59c-23.17,7.19-45.22,15.73-59.71,31.37,12.58-17.42,33.24-29.84,59.71-31.37"/><path class="cls-63" d="M225.82,701c-4.76.87-8.27,3-13.27,3.62-4.32,9-9.63,32-1.81,38-12-4.09-5.27-27.85-1.81-36.19-16.77,4.23-28.44,13.12-44,20-4.19,1.84-11.25,8.1-16.31,4.17.43-2.16,1.15-1.69,2.17-1.23a2.55,2.55,0,0,0,2.66,0c24.34-10.45,43.38-29.41,75.4-30.16-.8,3.44-2.54,2.75-4.22,5.43-2.49,3.94-4.29,12-5.43,19.3-1.27,8-1.33,18.5-8.45,19.3,5.46-4.77,4.46-33.74,15.08-42.22"/><path class="cls-63" d="M301.82,733c-4.18,3.67-10.34-2.48-14.47-4.83-15.59-8.85-32.61-19.24-57.31-19.3,2.92-2.88,8.94-2.64,13.27-2.41,22.3,1.16,53.73,27.2,56.7,25.33-6-17.44-28.47-27-55.49-27.74a2.84,2.84,0,0,1-.6-1.81c.49-.12.6-.61,1.2-.61,23.19.31,42.73,7,53.09,20.51,2.18,2.86,6.07,7.29,3.61,10.86"/><path class="cls-52" d="M375.3,788.44c.46,6.55-4.26,11.87-7.24,18.7-2.84,6.53-4.43,19-10.86,22.32s-23.14,3.79-32.57,4.83c-54.53,6-123.58,9-175.53,0-21.81-3.8-39.89-11.57-57.3-16.89-5.91-11-14.27-19.51-19.9-30.77-.12-.51.23-.57.6-.6,10.63.24,16.55,20,24.13,26.54,4.91,4.22,17.28,6.87,25.93,9.65,54.3,17.46,133.75,11.9,197.25,6.64,10.61-.88,25.37-.71,32-3.62C363.83,819.92,361.29,791.62,375.3,788.44Z"/><path class="cls-65" d="M392.87,749.21c-9.33-12.36-39.39-16.89-51.28-3.62.49,2.93,3.25,3.58,3,7.24-4.56-4.69-16.24-5.72-20.51,0-.45,3,4.9,5,4.22,10.25-5.3-2.51-9.46-8.45-16.89-9.65-10.1-1.63-19,3-25.93,6.63.68,1.53,2.9,1.52,2.41,4.23-15.22-11.27-48-9.73-60.32,3,.16,2.66,1,4.67.6,7.84-3.13-2.83-4-6.34-6.63-9-16.15-16.76-53.22-9.25-65.15,6-.32-2.53,1.06-3.37,1.21-5.43-4-4.72-5.58-9.64-9.65-13.27-15.28-13.6-39.22,4.07-50.07,9.65,9.82-19.94,57-32,62.13,0,11.57-12.94,53.69-19.25,65.15,0,10.56-12.38,43.64-19.17,57.9-5.43,6.43-8.29,26.68-13.58,38-6,2.39-5,9.26-8.82,16.88-6.64C345.9,726.86,389.57,727,392.87,749.21Z"/><path class="cls-65" d="M178.73,788.41c1,.82-2.07,2.73-2.41,4.23,14.46,9.48,37.18.72,44.63-7.24.2,2.21-.66,3.35-1.2,4.82,5.88,9.16,27.72,9.37,35.59,1.81,1.75-.84-1.07-2.07-.61-3.62,9.85,7,28.74,13.26,41.62,5.43,5.42-3.28,8.2-10.2,9-17.49,4.08,1.56,2.4,10.57.61,13.27,5,4.36,10.1,7.64,17.49,8.44,25.57,2.78,43.8-14.44,54.28-28.34-1.57,10.88-8.52,16.4-15.07,22.31,22.43-.8,44.52-11.49,44-35.59-.44-21.33-18.63-37.62-42.83-27.14-.61-3.1,7-6.49,12.67-7.24,23.67-3.14,36,17.78,35.59,37.4s-18.85,36.72-41,35.59c-2.89-.15-5.4-2.1-9-1.81-4.83.38-10.56,5.69-16.89,7.84-15.38,5.23-32.69,5.52-42.79-4.14-9.71,9-36,10.18-44-1.21-7.33,11.17-33.64,10.84-40.41-.6-9.15,9.16-34.59,12.92-45.24,3-17.16,18.52-62.18,9.27-70-12.74-25.44,13.21-67.69,4.28-70-22.92-3-36.3,65.32-46.24,71.78-11.46-2,.76-3.74-1.46-4.83-2.42-4.4-3.88-8.43-10.21-15.68-12.66-19.92-6.75-50.14,6.06-45.84,27.14C41.46,779.14,62.6,787.45,82.82,786c5.31-.38,16-1.35,16.89-7.84,11.47,11.25,25.93,25.33,49.46,22.92C161.11,799.86,169.34,793.36,178.73,788.41Z"/><path class="cls-66" d="M226.12,706.91c-3.1,0-3.63,2.47-4.16,6.1,4,.74,8,1.15,10,1.57,3.56.76,7.12,1.47,10.69,2.08a39.39,39.39,0,0,0-9.82-7.75c-.91,0-1.84,0-2.78,0a6.56,6.56,0,0,1,1-.77l-.13-.05a14.11,14.11,0,0,0-4.76-1.13"/><path class="cls-67" d="M248.94,711a35.87,35.87,0,0,1,6.08,7.31c5.24.54,11.17,1.27,17.09,1.41A102.73,102.73,0,0,0,248.94,711m13.92-8.73a82.38,82.38,0,0,1,8.9,3,55.7,55.7,0,0,1,20.66,10.71c2.94-1.94,3.17-4.57,2-7.09l-3.78-1a221.67,221.67,0,0,0-27.75-5.62"/><path class="cls-68" d="M232.82,708.91a39.39,39.39,0,0,1,9.82,7.75c4,.68,7.93,1.25,11.92,1.65l.46,0a35.87,35.87,0,0,0-6.08-7.31,83.07,83.07,0,0,0-16.12-2.13m-7-7.89c-4.76.87-8.27,3-13.27,3.62-.41.86-.84,1.85-1.26,2.94l.69,1.07c.83,1.76,3.72,2.93,7.12,3.76,1.56-4.79,3.66-8.94,6.72-11.39m-6.7-1q-6.13.19-12.23.65l1.14,1.78A82.37,82.37,0,0,1,219.12,700m9.53-.12c-.87,2.67-2.47,2.26-4,4.74a31.66,31.66,0,0,0-3.19,8.27l.53.1c.53-3.63,1.06-6.1,4.16-6.1a14.11,14.11,0,0,1,4.76,1.13l.13.05c2.19-1.43,5.41-1.77,8.48-1.77,1.33,0,2.64.07,3.82.13,10.82.56,23.79,7,34.62,13.23a39.55,39.55,0,0,0,11.6-2.24c-10.43-8.34-26.67-12.91-45-13.4a2.84,2.84,0,0,1-.6-1.81c.49-.12.6-.61,1.2-.61h0a99.18,99.18,0,0,1,26.64,3.72,82.38,82.38,0,0,0-8.9-3,258.39,258.39,0,0,0-34.21-2.41"/><path class="cls-69" d="M231.11,695.59c-3.19,0-6.37,0-9.53.19-3.8.16-13.18-.09-15.23,4l.54.86q6.09-.46,12.23-.65a81.12,81.12,0,0,1,9.72-.81h0c-.06.25-.13.48-.19.69a258.39,258.39,0,0,1,34.21,2.41,221.67,221.67,0,0,1,27.75,5.62l3.78,1c-1.48-3.13-5.16-6.11-8.56-7.43-4.2-1.63-8.71-1.93-13.15-2.41-8.1-.86-16-2.57-24.14-3-5.75-.32-11.6-.51-17.43-.51"/><path class="cls-69" d="M228.84,699.21a81.12,81.12,0,0,0-9.72.81A82.37,82.37,0,0,0,208,702.45l3.26,5.13c.42-1.09.85-2.08,1.26-2.94,5-.64,8.51-2.75,13.27-3.62h0c-3.06,2.45-5.16,6.6-6.72,11.39.76.18,1.54.35,2.33.5a31.66,31.66,0,0,1,3.19-8.27c1.56-2.48,3.16-2.07,4-4.74.06-.21.13-.44.19-.69"/><path class="cls-69" d="M239.49,706.32c-3.07,0-6.29.34-8.48,1.77a6.56,6.56,0,0,0-1,.77c.94,0,1.87,0,2.78,0A83.07,83.07,0,0,1,248.94,711a102.73,102.73,0,0,1,23.17,8.72l1.95,0c1.29,0,2.59,0,3.87-.11-10.83-6.25-23.8-12.67-34.62-13.23-1.18-.06-2.49-.13-3.82-.13m5.63-4.7c-.6,0-.71.49-1.2.61a2.84,2.84,0,0,0,.6,1.81c18.34.49,34.58,5.06,45,13.4l1.13-.46a11.5,11.5,0,0,0,1.76-.93,55.7,55.7,0,0,0-20.66-10.71,99.18,99.18,0,0,0-26.64-3.72h0"/><path class="cls-70" d="M225.18,690.72c16.32,4.87,41.79-6.09,44.07-21.68,1.69-11.53-9.55-12.86-21.14-12.7-3.77,4.17-12.65,7.88-19.31,6,10.89,0,20.7-10.32,19.31-22.32-1.52-13.07-22.19-22.53-35.59-23.52-6.57-.49-9.49,1.57-9.65,6.63,3.38,4.7,11.08.45,18.09.61,6.7.15,15,3.9,13.88,10.25-.66,3.59-8.69,5.55-13.88,7.24-5.71,1.86-12.15,4-15.08,6.64-11,10-1.64,22.91,9.05,25.93A24.64,24.64,0,0,1,198,666c-18.62,8.91-16,42.31,12.07,38,1.67-2.3-5.15-1.27-4.23-4.82,17.41,7.23,75.21,15.11,63.34-16.29C263.22,690,239.69,698,225.18,690.72Z"/><path class="cls-4" d="M207.35,615.84c-2.16,1-6.4,4.23-4.86,7.24,1.64,3.2,7.29.37,9.69-.76,12.28-5.8,1.52-8.24-6.63-5.28Z"/><path class="cls-71" d="M212.18,640.55c-4.26,2.32-14.85,7.22-9.2,12.84,3.6,3.57,12.17,1,16.29-.2,3.76-1.09,13.12-3.82,12.79-9-.63-9.88-21.72-.6-25.31,1.2Z"/><path class="cls-4" d="M215.19,642.36c-3.86,1-12.06,3.61-10.19,7.71,2.35,3.13,23.45-4.7,22.3-7.71-4.18-4.54-13.61.24-18.14,2.41Z"/><path class="cls-71" d="M195.9,665.26c-8.63,5-15.26,23.5-.6,26,11,1.83,17.78-15.25,9.13-21,5.77,8.37,30.51,9.71,20.55-1.44-3.27-3.67-9-6.15-13.41-7.09s-14.71,1.75-8.24,7.16c-1.58-3.16-6.31-6.61-8-1.73Z"/><path class="cls-4" d="M194.7,667.67c-4,3.82-8.4,7.85-7.75,13.77,2.93,1.9,13.77-11.36,11.28-13.67-3.2-.54-5,1.9-7.15,4.12Z"/><path class="cls-72" d="M236.28,621.86c3.39,8.48,7,20.76.14,28.33s-16.25,6.87-24.8,9.18c6.22,2.38,12.5,4.19,19.84,3.49,7.09-.67,18.81-1.67,17.46,7.84-1.79,12.64-18.68,18.67-28.12,18.67,4.68-.25,16.33,2.44,13.54,9.5-2.07,5.23-14.94,5.14-19,2.66,6.87,2.18,13.16,2.16,20.31,2.9,6.49.68,12,3,18.69,3,6.48,0,14.49-2.38,17.35-9,2.11-4.91,2.08-15.23-1.74-18.69,5.36-6.05,4.25-18.2-2.93-22.29-4.63-2.65-17.27-3.56-22.21-1.87-.3-7.6,7.47-7.3,4.1-15.62-2-5-7.13-13.37-11.45-16.27Z"/><path class="cls-70" d="M248.94,656.22c8.14-1.06,14.55,5.7,15.81,13.12,1.67,10-5,12.53-9.69,19.34,4.9-2.84,9.11.52,9.55,5.51.4,4.6-3,8.91-5.36,12.54,10.09,1.65,16.69-18.94,8.32-24,4-4.76,4.86-14.85,2.47-20.48-4-9.33-12.77-7.24-21.7-7.24Z"/><path class="cls-73" d="M249.31,652.72c2.38-3.65,1.78-10.29,1.81-16.29-8-15.13-25.91-30.13-47.05-22.92-6,2.45-6.24,4.6-6,9,.77,16.53,30.58-3.35,33.78,10.25-15.5,5.82-35.44,7.19-35,29-20.76,5.66-21.51,38.52-2.41,45.24,7.6,2.67,16.33-.73,22.32-.6,3.89.07,8.7,2.24,12.67,3,23.91,4.65,56.57-3.92,41-29.56C282.09,666.94,269.42,648.54,249.31,652.72Zm-43.43,46.45c-.92,3.55,5.9,2.52,4.23,4.82C182,708.3,179.42,674.9,198,666a24.64,24.64,0,0,0,16.89,7.84c-10.69-3-20.08-15.92-9.05-25.93,2.93-2.66,9.37-4.78,15.08-6.64,5.19-1.69,13.22-3.65,13.88-7.24,1.15-6.35-7.18-10.1-13.88-10.25-7-.16-14.71,4.09-18.09-.61.16-5.06,3.08-7.12,9.65-6.63,13.4,1,34.07,10.45,35.59,23.52,1.39,12-8.42,22.36-19.31,22.32,6.66,1.85,15.54-1.86,19.31-6,11.59-.16,22.83,1.17,21.14,12.7-2.28,15.59-27.75,26.55-44.07,21.68,14.51,7.28,38-.71,44-7.84C281.09,714.28,223.29,706.4,205.88,699.17Z"/><path class="cls-34" d="M636.38,857.91c5.29,14.08,7.43,30.52,8.24,45.5.87,15.82-2.18,31.05-10.21,44.53-7.51,12.59-19.25,20.1-30.86,28.79-6.37,4.76-10.27,12.24-16.88,16.65-5.61,3.74-11.8,4.91-18.12,7.45-12.49,5-22.81,4.54-33.15-5.66-5.53-5.44-7.77-8.49-14.34-11.81a112.74,112.74,0,0,1-18.18-11.65c-11.55-8.88-25.07-9.72-31.52-24-3.37-7.45-5.48-12.4-10-18.89-3.67-5.27-4.2-11.5-8.17-15.64-6.66-6.95-18-8.34-2.06-16.81,9.19-4.9,20.27-6.52,29.83-10.38.84-12,4-13.51,15.6-13.47,9.27,0,17.85-1.68,26.55-2.52a188.77,188.77,0,0,0,28-4.72c12.13-2.93,12.83,1.92,12.63,14.19,28.22-9.67,29.15-28,35.49-52.36,17.26-9.09,30,8.17,40,40.87,7.53,7.2-4.59-22.38-4.59-11.88Z"/><path class="cls-34" d="M454.26,966.19c7.95-4,32.55,11.42,40,14.87,10.65,5,22.26,9.74,33,14.56,6.18,2.77,15,7.36,21.1.69,10.12-11-5.76-27.16-16.09-29.54-15.48-3.58-32.6-3.43-48.25-4.38-7.67-.47-19-2.2-24.89,3.8Z"/><path class="cls-74" d="M630.46,851.19c.12,25-3.1,52.36-20.33,74.12-14.86,18.77-33.33,36.29-57.42,41.38-9.66,2-19.23,2.37-29.53,2.37-6.3,0-10.06-1.29-8,6,1.49,5.3,5.82,10.72,9.82,14.31,6.58,5.92,17.11,9.14,25.29,11.75,11.33,3.6,23.42-3.29,32.56-9.35,10.51-6.95,20.07-16.22,30.14-23.82a88.52,88.52,0,0,0,22.74-24.25c12.72-20.05,11.39-40.55,6-61.93-2.49-10-4.35-22.59-10.68-30.59Z"/><path class="cls-75" d="M493.64,907.19c-4.87,2-9.33,8-7.86,13.47,1.53,5.72,8.2,6.42,12.46,8-3.95,5.17-.57,13.07,2.18,18,3.68,6.6,7.56,7.57,13.64,10.41-4.94,8.52-.69,13.66,7.83,15.64-6.13,16,22.45,24.36,30.62,31.74-16.94-2.82-33.9-8.17-48.5-18.12-7.05-4.8-14.3-7.83-21.82-11.73-6.35-3.31-18.47-6.49-22.84-11.47,4.34-2.4,14.42-1.1,19.77-1.48-2.81-4.43-6.69-6.11-8.36-11.31-1.53-4.75.27-9.22-1.37-13.16s-6.36-7-8.29-11c-2.34-4.74-3.36-6.61-7.71-10.37-8.6-7.47-13.25-14.36,0-19.61,8.86-3.51,18.12-5.16,27-7.38a75.29,75.29,0,0,0,8.83-2.46c-2.92,1.31-6.38.92-9.31,1.79.53-5.06,3.69-12.45,5.27-17.34,7.9,1,15,2.94,23.55,2.94a110.53,110.53,0,0,0,24.12-2.4c7-1.56,13.95-6.69,21.08-7.28,9.25-.76,9.48,9.57,9.55,16.82-7.26.34-13.33-2.55-19.81,1.44-4.67,2.89-7.36,7.35-11.55,11-9.85,8.47-23.63,13.85-36.65,13.85Z"/><path class="cls-76" d="M486.41,905.74c-2.84-3.85,36.75-20.55,44-18.68,10.16,2.62-5.51,11.13-9.66,13.11-6.2,2.94-17.9,10.68-24.7,8Z"/><path class="cls-77" d="M463.46,963.6c7.46,6.06,18,3.16,42.5,15.67,8.26,4.22,17.95,8.68,14.7.82,3.11,3,8.91,16.06,26.52,20.14-2.23,5.34-23.95-4.42-27.64-5.87-9.69-3.82-19.29-7.43-28.34-12.81-8.2-4.87-14.88-10.09-23.74-13a59.21,59.21,0,0,0-6.36-2Z"/><path class="cls-36" d="M598.22,826.56c.53-.07.81.1.91.45,3.53,25-14.08,48.44-34.51,55.41-2.87,1-5.13.71-7.72.9-1.44-1.54,5-2.85,5.9-5-1-5.19-.72-11.69-5-13.62-15.62,10.34-45.94,15.24-70.39,9.53a36,36,0,0,1-4.09,11.35c8.11-.3,17.86-3.51,23.62-3.17-2.54,4.58-9.39,4.85-15,5.9-11.44,2.14-23,4.27-33.15,8.63-4.11,1.76-12.41,4.4-12.71,8.17-.45,5.45,22.31,17.36,39,25.89-9.94-1.56-17.39-5.62-25.43-9.08,9.55,14.18,29.58,26.44,55.86,34.51-2.59,2.59-8.39,0-12.27-.91-12.37-2.89-23.39-8.88-32.69-14.53,4.62,22.32,29.12,26.45,49,31.79-2.61,2.52-6.79.79-9.54.45a78.2,78.2,0,0,1-19.07-4.54c-2.64-1-5.24-3-7.72-3.63-7.09-2-14.1-.59-21.79-.91,28.1,9.86,49.12,26.49,80.37,35,4.31,1.17,9.54,3.4,13.17,3.18s10.36-4.08,15-6.35c14.24-7,27.68-15,39-24.07,18.79-15,34.14-32.2,32.7-64.94-.64-14.5-3.06-27.5-5.45-40.87-.64-3.58-3.06-8.5,0-12.26,2.93,3.1,3.49,8.09,4.54,12.26a232.56,232.56,0,0,1,6.36,43.59c1.41,31.06-13.32,48.46-30.43,63.13a197,197,0,0,1-42.23,27.7c-5.35,2.58-12.25,6.43-16.35,6.81s-10.52-1.71-15.44-2.73c-24.26-5-43-17.58-63.12-27.7-11.9-6-25.4-13.48-41.32-8.17,6.59-8.6,24.11-9.9,38.6-7.72-3.1-4.58-13.74-13.31-8.63-21.8-6.25-6-13.33-11.19-15.9-20.89-7.93-3.37-17.15-12.52-7.26-20.43,7.33-5.88,23.4-9.31,32.69-11.36,3.56-4,4-11.15,5.91-16.8,27.07,4.82,56.12,0,74.93-9.08,5.85,1.58,9,8.27,7.26,15.89C585,868.12,595,850.74,598.22,826.56Z"/><path class="cls-4" d="M507.46,855.82c4.21-4.49,5.33-12.28,4.52-20.16-2.06-19.95-26.69-50.3-33.1-65.2,4.06,11.39,16.93,35.5,18.29,49.57.51,5.29.62,12.39-3.7,12.34-1.85,0-5.78-4.15-7.81-6.58-14.92-17.76-20.07-43.46-32.91-61.69-.67-1-1.12-3.51-2.88-2.88,5.47,12.95,13.19,25,18.92,38.66a202.55,202.55,0,0,1,7.82,21c2.12,7.21,6.79,19.12,3.29,23.44-17.06.61-29.15-33.25-39.9-52.64-.51-.93-.75-2.68-2.05-2.47,15.22,24.87,7.55,74.62,47.29,73.62,12.63,9.59,21.26,23.16,24.68,42,5.09-.8,8.9-2.89,13.16-4.52-8.25-11.91-20.41-19.9-21-39.49C503.61,857.23,505.53,857.86,507.46,855.82Z"/><path class="cls-78" d="M508,899.71c4.88-5.72,5.49-12.43,1.6-20,2.83,3.82,4.7,8.25,7.81,11.8,2.65,3,7.27,5.72,6.88,10.28-6.69,2.71-18.56,8.12-17.38-3.18Z"/><path class="cls-78" d="M443,803.09c7.52,15.44,9.5,32.41,22.49,44.61,5.61,5.28,10.58,8.8,18.45,8.88,9.22.1,9.22-6.9,6.53-14.56,2.11,9.05,8,12,13.78,4.22,6.3-8.5,4.92-14.59,5.44-23.88,6,7.22,5.47,25.34-.64,32.58-3.2,3.8-5.65,3-6,8.74-.3,4.92,2,9.38,5.25,13.06-1.33-2.73-5.6-8.92-9.06-8.71-4.68.3-4,6.18-1.59,9.08-4.49-5.37-8.23-9.76-14.77-12.88-5.83-2.79-12.09-2.21-17.62-4.78-11.38-5.31-14.52-23.56-19.53-34Z"/><path class="cls-79" d="M485.24,862.81c-39.74,1-32.07-48.75-47.29-73.62,1.3-.21,1.54,1.54,2.05,2.47,10.75,19.39,22.84,53.25,39.9,52.64,3.5-4.32-1.17-16.23-3.29-23.44a202.55,202.55,0,0,0-7.82-21c-5.73-13.68-13.45-25.71-18.92-38.66,1.76-.63,2.21,1.93,2.88,2.88,12.84,18.23,18,43.93,32.91,61.69,2,2.43,6,6.56,7.81,6.58,4.32,0,4.21-7,3.7-12.34-1.36-14.07-14.23-38.18-18.29-49.57,6.41,14.9,31,45.25,33.1,65.2.81,7.88-.31,15.67-4.52,20.16-1.93,2-3.85,1.41-5.35,4.93.47,16.39,9.06,24.66,16.68,33.9l3.89-2.14c-7.51-8.56-15-17.1-17.28-30.93,2.26-1.83,4.29-2.59,5.76-4.53,10.15-13.41,2.31-34-3.7-44.83-3.61-6.47-7.26-13.05-11.11-19.26-8.57-13.82-15.27-26.77-22.62-37.77h-.82c-.09,0-.46-.32-.83-.07-.25,0-.48,0-.41.38-1.44,5,2.33,13.68,4.53,18.9,7.3,17.38,16.08,32.68,17.68,53.87-14.36-14.36-20.76-37.34-31.26-55.53-3.25-5.65-8-15.81-15.41-17.09-2.95,7.59,3.94,16.87,7.19,22.85,10.41,19.18,18.06,40.74,23.85,62.92-17.37-10.74-24.05-32.61-34.13-51-3-5.39-7.37-13.44-15.22-12.75.05,3.32,2.76,5.48,4.11,8.23,4.45,9,6.89,19.35,9.87,29.61,5.74,19.75,8.58,47.53,31.26,49.77,2.33.23,4.74-.63,7.4,0,6.43,1.5,12.81,11.22,16,16.86a86.35,86.35,0,0,1,8,19.78l3.33-1.84C505,883.7,496.79,871.58,485.24,862.81Z"/><path class="cls-33" d="M527.2,897.77c-.59-.72-1.19-1.42-1.79-2.12-1,1.34-1.95,2.66-2.9,3.78q.3.41.57.81c-.71.27-1.41.56-2.1.85a9.3,9.3,0,0,1-.8.69l-.31-.23a41.33,41.33,0,0,1-9.95,3.21c0-.13-.05-.25-.08-.38a10.5,10.5,0,0,1-3.5.45c.1.39.2.78.29,1.16-7.73,1.64-17.61-.42-23.44.42,2.83,5.27,13,5.1,20.56,4.52,14.59-1.12,29.32-8.73,32.08-18.51C532.4,893.65,530.74,896.65,527.2,897.77Z"/><path class="cls-79" d="M509.84,904.38c-.27-1.47-.58-2.89-.92-4.3l-3.33,1.84q.41,1.47.75,2.91A10.5,10.5,0,0,0,509.84,904.38Z"/><path class="cls-79" d="M522.51,899.43c1-1.12,1.94-2.44,2.9-3.78l-2.73-3.14-3.89,2.14C520.08,896.2,521.33,897.78,522.51,899.43Z"/><path d="M520.18,901.78a9.3,9.3,0,0,0,.8-.69l-1.11.46Z"/><path class="cls-80" d="M191.48,699.81c-8.57,5.79-19.74,13-28.93,17.69Z"/><path class="cls-4" d="M255,662.25s-13.26,15.67-39.78,7.23C215.19,669.48,240.5,685.75,255,662.25Z"/><path class="cls-71" d="M124.88,607.43S89.29,582,117.4,557.73c17-14.69,32.27-39.14-3.12-70.31-46.73-41.15,11.33-64.33,11.33-64.33s-61.2,19.27-30.29,56.37c19.36,23.24,45.16,45.48,15.9,71.35C70.77,586.57,124.88,607.43,124.88,607.43Z"/><path class="cls-71" d="M160.49,624.93s-36.59-29.16-9.19-59.61c16.54-18.4,30.77-47.3-4.64-90.35,0,12.14,33.38,44.15-1.8,82.25C104.5,600.94,160.49,624.93,160.49,624.93Z"/><path class="cls-71" d="M313.17,654.65s-36.58-29.15-9.19-59.6c16.55-18.4,30.77-47.31-4.64-90.36,0,12.15,33.39,44.16-1.8,82.26C257.18,630.67,313.17,654.65,313.17,654.65Z"/><path class="cls-71" d="M181.49,569.4s33.19-29.15,8.34-59.6c-15-18.4-27.91-47.3,4.21-90.35,0,12.14-30.28,44.15,1.63,82.26C232.29,545.43,181.49,569.4,181.49,569.4Z"/></g></g></svg>