<svg xmlns="http://www.w3.org/2000/svg" viewBox="0 0 964.46 1018.98"><defs><style>.cls-1{fill:#f7f7f7;}.cls-2{fill:#e8e8e8;}.cls-3{fill:#ccc;}.cls-4{fill:#9c9c9c;}.cls-13,.cls-5{fill:#fed8ad;}.cls-20,.cls-22,.cls-24,.cls-25,.cls-28,.cls-5,.cls-7,.cls-8{fill-rule:evenodd;}.cls-6,.cls-8{fill:#f5c187;}.cls-12,.cls-7{fill:#a87436;}.cls-9{fill:#c9327b;}.cls-10{fill:#fe75b1;}.cls-11{fill:#e0679c;}.cls-14{fill:#deaf7a;}.cls-15{fill:#eb2c88;}.cls-16{fill:#d12779;}.cls-17{fill:#b32268;}.cls-18,.cls-24{fill:#bd9400;}.cls-19,.cls-22{fill:#fff;}.cls-20{fill:#05b8d6;}.cls-21{fill:#035a8c;}.cls-23{fill:#fde426;}.cls-25,.cls-29{fill:#5c3f1f;}.cls-26{fill:#ffe600;}.cls-27{fill:#decb21;}.cls-30{fill:#fff700;}.cls-31{fill:#dbac00;}.cls-32{fill:#d1d1d1;}.cls-33{fill:#6e4c24;}.cls-34{fill:#593e1d;}.cls-35{fill:#700b36;}.cls-36{fill:#ff4f98;}.cls-37{fill:#e83a82;}.cls-38{fill:#ba1359;}</style></defs><g id="Layer_2" data-name="Layer 2"><g id="Layer_2-2" data-name="Layer 2"><path class="cls-1" d="M693,535.17c47.54-67.12,78-132.81,129-197.33,18.94,9.71,17.43,79.07,4.4,114.53C813.7,487,792.52,516.44,754.51,539.9c39.89-16.45,61.94-45.45,76.56-74.46C857,519.69,847,567,813.43,601.54c-35,36-99.45,61.75-156.27,81.41C699.81,672,742.33,658.41,773.55,641c8.13,30.5-24.6,48.59-65.24,57.55-28,6.18-59.38,3.23-84.1,1-6.74-.61-12.9-2.07-18.9-2.59q-1.8-4.63-3.88-9.16c-7.33-.39-16.55-10-24.12-12.65-6.36-2.26-13-4.34-19.66-6-5-1.3-10.2-2.49-15.07-4.1C612.49,631,658.37,584.07,693,535.17Z"/><path class="cls-2" d="M756.76,649.61c1.64-.15,3.08-1,4.79-1.15C772,672.16,678.2,692.73,693,667.73c-16.81,10.37-49.47,3.75-40.08,27,8.32,20.64,31.5,14.21,53,9.68,44.57-9.38,84.15-24.62,72.49-66.79Z"/><path class="cls-2" d="M785.67,524.68c27.34-18.68,30.15,4,17.77,22.68-11.14,16.83-28,34.95-43.72,49.94-13.32,12.74-32.66,27.51-51.55,33.12-22.27,6.61-38.49-6.88-24-25-14.5,18.19-59,27.3-62.24,49.67-1.67,11.5,11.13,17.6,22.45,22.3,14.88,6.19,22.45,3,36.71-3.33,47.69-21.34,99.61-33.39,138.42-68.69,19.36-17.6,27.17-48.45,31.53-70.62,4.6-23.3-1-53.7-13.74-73.59-13.09,2.25-17.68,18.6-23.86,27.09-9.4,12.94-20.85,24.64-31.06,37.37Z"/><path class="cls-2" d="M804.83,359.33c2.34-5.25,6.9-9.25,12.64-12.12,20.63,9.23,12.16,48.74,8.45,65.46-5.07,22.85-17.33,44-31.73,65-26.84,39.12-39.43,64.49-112.64,109.91-12.7,7.89-50,24.93-42.93,9.22-10.51,8.66-24.07,15.85-33.26,24.41C592,633.73,601.21,642.93,608,656c38.69-23.19,75.92-47.45,116.44-81.73,34.93-29.53,79.14-57.94,98.35-97.22,10.5-21.48,13.84-42.4,20.18-64.11,4-13.7,4-25.6.23-38.63-4-13.58-9.49-22.67-12.53-36.53-10.83,1.68-18.43,6.7-26.5,13.13Z"/><path class="cls-3" d="M695.28,704.64c-12.66,1.25-24.55-7-19.75-18.83,3.67-9.06,19.08-14,29-17.27-25.43-1.91-58.25-16.21-36.44-44.06-12.09,3.62-23.48,9-34.45,4.52-10.31-4.27-13.58-14.75-4.5-23-35.57,20.51-61.17,46.27-36.47,77.51C610.34,705.81,649,724,682.38,709.77Z"/><path class="cls-4" d="M708.31,698.57c40.64-9,73.37-27.05,65.24-57.55-31.22,17.39-73.74,31-116.39,41.93,56.82-19.66,121.22-45.39,156.27-81.41C847,567,857,519.69,831.07,465.44c-14.62,29-49.37,70.46-88.59,90.32,38-23.47,71.22-68.74,83.95-103.39,13-35.46,14.54-104.82-4.4-114.53C771,402.36,740.54,468.05,693,535.17,658.37,584.07,612.49,631,542.58,665a56,56,0,0,1-7.88-3.2C602,625.8,647.45,582.31,686.76,529c42.51-57.61,72.79-122.69,115.14-181.27,6.63-9.16,16.34-24.31,27.54-23,7.12,5.67,11.9,23.91,14.62,35.42,9,38.12-.9,72.55-10.17,99.39,32.43,36.26,25.08,89.52,6.18,122.08-13.54,23.33-36.6,41.56-62.55,57.5,21.85,42.58-42.13,67.61-90.8,70.08-25.66,1.31-49.51-2.43-69-7.11-3.61-.86-7.58-1.13-11.16-1.77-.42-1.13-.85-2.26-1.29-3.38,6,.52,12.16,2,18.9,2.59C648.93,701.8,680.26,704.75,708.31,698.57Z"/><path class="cls-1" d="M251.66,626.41C173.48,592.91,113,553,32.47,523.17c-14.34,16.3,19.13,72.07,48.42,95.13,28.63,22.54,63.24,37.07,111.84,39.28-47.23,4.34-82.52-9.47-110.42-26.58-.76,55.66,31,89.75,80.26,102.9C214,747.64,289.87,740,355.4,730.73c-47.41,10.06-95.95,17.87-135,17.58,6,28.43,46.84,28.61,91.36,17.84,30.72-7.43,60.5-23.74,84-36.53,6.43-3.49,11.87-7.41,17.59-10.5-.22-3-.35-6.1-.36-9.18,7.1-3.57,11.85-15.46,18.13-21,5.28-4.66,11-9.31,16.76-13.65,4.4-3.29,9-6.55,13.09-10C375.86,668.64,308.62,650.81,251.66,626.41Z"/><path class="cls-2" d="M241.05,747.84c-1.69.61-3.53.53-5.28,1.19.55,23.93,103.24-1,77-14.75,21.49,1,50.89-18.93,52.29,4.18,1.24,20.49-24.76,25.55-48.26,31.43-48.61,12.17-95,17.35-102.82-22.14Z"/><path class="cls-2" d="M154.73,659c-35.78-3-28.13,16.61-7.2,26.35,18.83,8.75,44,16,66.48,21.22,19.1,4.44,45.13,7.87,66.49,4,25.17-4.51,35.07-22.69,12.35-31,22.79,8.36,71.23-4,84.76,12.76,6.95,8.62-3,19.27-12,28.12-11.94,11.65-20.92,12.46-38,13.6-57.23,3.82-114.38,17.08-169.23,5.6C131,734,109,712.36,94.44,696.26c-15.3-16.92-23.8-44.12-20.27-66,14-4,26.16,7.28,36.21,11.45,15.31,6.35,32.08,10.78,48.08,16.6Z"/><path class="cls-2" d="M59.47,533c-4.74-3.23-11.11-4.45-18.14-4.24-16.25,16.68,10.39,45.06,21.77,57,15.57,16.34,37.51,28.11,61.5,38.79,44.71,19.92,68.91,35,162.6,39.41,16.26.77,61.19-1.93,46.92-11.57,14.43,2.37,31.22,2.2,44.3,5.09,19.09,4.22,14.14,15.82,13.36,29.46-49.13-1.69-97.31-4.9-153.39-14.78-48.32-8.52-105.35-12-142.55-35.43-20.33-12.8-33.3-28.34-49.61-43.19-10.29-9.37-15.82-19-18-31.33-2.3-12.82-1-22.66-4.41-35.29,11.55-3.44,21.42-2.74,32.4-1.09Z"/><path class="cls-3" d="M327.52,765.31c13.16-4.6,21.17-16.6,10.94-24.09-7.82-5.74-25.4-2.9-36.81-1.16,24.39-12.84,50.4-39.06,15.9-52,13.68-2.43,27.5-3.07,36.32-11.63,8.28-8,6.69-18-6.12-20.7,44.8.89,82.11,10.49,72,46.87-7.24,26-37.26,57.94-77,61.18Z"/><path class="cls-4" d="M311.77,766.15c-44.52,10.77-85.39,10.59-91.36-17.84,39,.29,87.58-7.52,135-17.58C289.87,740,214,747.64,162.57,733.9c-49.26-13.15-81-47.24-80.26-102.9,27.9,17.11,81.55,35.4,129.67,34.14-48.6-2.21-102.46-24.3-131.09-46.84-29.29-23.06-62.76-78.83-48.42-95.13,80.5,29.8,141,69.74,219.19,103.24,57,24.4,124.2,42.23,209.36,38.84a61.36,61.36,0,0,0,6.34-6.1c-83.45.56-148.7-14.62-212.32-40.51-68.81-28-128.89-67.49-198-96.34-10.81-4.51-27.46-12.52-38-6.48-4.46,7.78-.81,24.75,1.79,35.32,8.63,35,34.35,58.63,55.93,76.35-15.52,43.91,16.33,84,50.13,102.09,24.21,12.95,55.54,17.55,88.68,19-2.1,44.36,73,36.3,122.53,16.7,26.11-10.34,48.08-24,65.25-36.42,3.19-2.3,7-4.28,10.28-6.4-.1-1.1-.2-2.21-.28-3.32-5.72,3.09-11.16,7-17.59,10.5C372.27,742.41,342.49,758.72,311.77,766.15Z"/><path class="cls-5" d="M693.85,921.06c13.73-5,25.31-13.46,37.42-20.75,11.81-7.1,21.64-14.2,29.6-25.57,8.59-12.27,13.15-21.43,28.66-23.75,16.31-2.43,32.61,3.32,48.4,6.91,15.94,3.62,31-.54,46.31-5.39,6.72-2.12,10.82-3.42,17.42-.64,5.28,2.22,8.58,5.94,14.44,6,12.71,0,24.67-14.31,30-24.36,4.78-9,5.59-21.24,4.25-31.08,4.5-1.14,15.93-11.42,6.79-14.17,9.22-3.49.3-9.33-2.66-12.36,7.1-10.12-8-14.24-14.38-8.1-1.76-4.65-2.78-11.17-8.28-12.69-7.09-2-9.75,5.33-10.66,11.07-1,6.21.55,10-4.82,13.39s-10.56,2.52-15.13.78c-28.8-10.89-50.58-34.1-79.8-45.47C810,730.4,797.52,722.61,785,721.39c-12.87-1.26-28.28-.89-41.18.1-13.63,1-31.44,6.07-43.28,13.18-19.16,11.5-36,34.89-42.82,56.23-6.44,20.21-5.8,41.79.54,61.82Z"/><path class="cls-6" d="M710.54,754.91c-6.74,8.1,34.32,25.57,41.81,26.12,16.11,1.19,27.55-3.57,36.36-16.45,19.67,16.09,43.39,32.12,69.74,33.8a97.73,97.73,0,0,0,19.16-.83c4.77-.66,12.85-4.14,17.49-3.12,10,2.19,4,21.65,11.38,29,14.74,14.79,31.46-18.65,31.84-30.12,8.7,3.34,17.82-9.69,11.86-16.76-.35-.12-.36-.11,0,0,3.32.15,9.34,1.43,11,5,2.88,6.1-3.17,7.13-6.84,10.19,7.44-2.37,6.66,5.74,2.65,9.05-5.36,4.42-8,2.95-10.32,10.53-4.27,13.7-6.46,31.79-17.9,41.79-4.81,4.21-9.88,6.76-16.12,5.5s-9.68-7.18-16.47-7.16c-5.78,0-12.19,3.53-17.88,4.76-6.23,1.35-13,.18-19.4,0-13.4-.43-26.41-2.24-39.75-3.09-13-.82-23.63-3.35-35.72,3.11-28.33,15.14-44.75,58-81.82,57.34-22.68-.41-27.37-16.37-32.84-36.06-5.63-20.27-2-46.94,4.46-66.59,5.22-15.9,15.24-47.18,32.59-54.52Z"/><path class="cls-7" d="M827.75,752.19c-4.34-3.94-13.3-11.37-20-5.17a27.38,27.38,0,0,0,34.62,15.82c4.28-15.54-29.58-39.94-50-29.81-11.22,5.58-5.56,22.18,4.07,30.07-13.37-1.79-22.24-19.93-11.63-31.27,19.06-17.09,64.43,3.31,64.16,32-10.89,14.42-49.5-1.62-47.1-17.16C803.79,734.22,827.39,741.88,827.75,752.19Z"/><path class="cls-7" d="M908.28,781.21c4-2.31,7.41-2.76,10.45-5.57,2.09-7.25-1.78-20.56,5.6-24.81,6.9-4,14.67,1.13,17.43,10.1,12.51-3.58,18.35,7.56,16.76,13.09,5,3,7.08,10.19,2.92,13.6,4.77,4.08,3,10.21.53,12.73-2.22,1.63-5.64,3.74-8.55,2.77-5.43,27.45-16.9,74-56.75,54.2-29.36,5.76-61.23,3.09-89.66-.37-6.74-.81-15.54-3.47-19.11-2.32-4.86,1.56-13.4,15.32-18.28,20.21C751.47,893,727.44,912,699.94,921.19c-5.9,2-21.41,4.18-26.36-1.83,46.84-6.86,77.78-36.55,102-63.88-2.84,0-5.61,2.28-8,.55,25.09-15,63.49-2.48,97.44-3.08,11.87-.21,25.22-3.76,34.82-2.4,8.47,1.2,12.21,8.43,22.11,3.57,8.9-4.37,14.51-16.64,17.74-25.42,3.47-9.45,4.25-23,10.62-28.28,1.77-2.33,4.58-.65,6.42-1.9,3.71-1.34,4.14-5.58.6-7.86-3.19-1.26-5.21.08-7.57,1.78.84-3.81,2.69-6.74,7.53-7.07,3.1-1.61.7-6.43-2.68-7.11-5.21,0-8.42,1.44-10.63,4.38-.73-6.55,3.91-8.42,8.78-10.08a6.83,6.83,0,0,0-6.46-6.86c-5.21,0-8.55,5-10.17,8.74-3.75-7,1.9-15-6.34-17.79-5.15,1.24-1.66,15.24-5.07,21.49-2.67,4.9-9.69,5.12-11.49,8.83-24.8-5.6-44.26-21.28-64.64-34.91-20.81-13.92-43-26.77-73.29-27-35.54-.28-74.39,7.43-92.84,27.54-2.73,3-2.57,7-8.92,7.91-1.68-6.47,4.81-12.55,9-16.66,18-17.41,55.43-26.75,92.9-26.82C834.87,716.9,869.25,759.25,908.28,781.21Z"/><path class="cls-5" d="M404.38,726.33c-2.88,50,4.94,100,13.44,148.35,6.15,35,19.9,73.87,43.47,100.44,27.18,30.66,66.53,25.28,101.84,14.13,21.6-6.82,46.23-8,67-15.93,18.26-7,32.67-22.88,46.74-37,27.82-27.88,46.74-67.86,47.47-108,.4-21.58-.23-45-9.95-64.63-4.35-8.78-9.56-20.47-16.53-27.55-6.2-6.3-14.87-6.92-23.21-9.65-16.54-5.42-30.17-14.19-43.48-25.77-12.17-10.59-26-19.31-38.2-29.84-15.15-13.06-27.2-29.56-42.45-42.34-27.85-23.35-72.14-16.43-98.52,6.22a131.19,131.19,0,0,0-44.16,75.79Z"/><path class="cls-8" d="M444.71,657c4,1.84,19.38-4.68,26.5-4.11a42.29,42.29,0,0,1,23.08,9.32c9.68,8.2,15.64,19.49,19.33,31.17,7.91,25,5.32,47.86-2.27,73.08C507,781.07,500.3,795,498.69,810.68c-1.5,14.73,5.87,20.43,20.56,21.65,40.72,3.4,79.55-13.82,114.49-32.84,22.13-12,49-30.76,41.55-59.37-3.93-15-16.92-19.48-29.07-26-17.32-9.29-30.09-20.86-42.51-36-14.5-17.65-26.93-39.72-49.1-48.63-13.64-5.48-25.16-6-39.8-3.82-9.3,1.4-37.71,4.58-41.06,14.65Z"/><path class="cls-9" d="M443,944.5s-10.72-73.31,71.74-169.83c78.77-76.34,164.34-46.95,164.34-46.95L675.86,736l-38.1,21L510.4,856.56,478,941.73Z"/><path class="cls-10" d="M443,944.5s27.61-230.71,223.14-215l40.51,10.29s70.26,134.8-55.49,220.62c0,0-107.12,65.27-170.37,30.81C480.76,991.2,450.89,962.94,443,944.5Z"/><path class="cls-11" d="M461,968c10.64,10.07,24.05-6.17,27.22-15.3,4.82-13.9.81-26.1-1.22-39.62,10,1.41,24.18-5.25,33.32-9.15,23.1-9.86,42.52-22.75,57.22-43.77C597.88,831,562.1,802.89,565,772.68c12.71,2.27,26.21,2.38,39.26,4.44,12.87,2,25.11,5,38.22,3,13.4-2,20.21-6.93,21.54-21,1-10.52,1.37-21.45-7.65-28.17,22.56-17,48.63,11,57.63,29.5,10.14,20.85,10.86,43.31,10.4,65.91-.48,23.54-4.29,45.19-16,65.61-8.11,14.18-11.8,32.39-23.28,44.11-12.38,12.62-26.11,24.46-41.58,33.06C624.14,980,603.26,983,581.85,989.45c-23.68,7.15-47,5.76-70.92,6.94-19.38,1-41.62-6.64-52.26-23.93Z"/><path class="cls-12" d="M556.27,620.42c-.21-.86-.84-.39-1.45.1.13.71,0,1.47.15,2.18,4.28,21.24,22.46,35.49,35.47,49.29,19.93,21.15,39.92,36.29,65.72,51.27,6.28.36,16.48,4.6,22.89,4.46C628.74,702.73,589,665.6,556.27,620.42Z"/><path class="cls-12" d="M415.57,862.61c-7.28-40.82-6.28-83.94.75-115.92,2.52-11.49,6.49-21.75,9.45-32-10.75,2.56-13.58,16.43-16.38,26.64a216.21,216.21,0,0,0-6.2,36.86C396.94,849.6,414.74,913.74,444,958a137.5,137.5,0,0,0,1.23-15.11A241.32,241.32,0,0,1,415.57,862.61Z"/><path class="cls-9" d="M466.45,987.36c22,16.38,74.55,17.36,109.85,7.73,36.39-9.94,70.43-22.37,94.21-39.3,13.26-9.44,18.49-20.3,28.27-34,6.41-9,13.11-17.86,17.78-27.46,22.16-45.63,17.26-110.61-9.94-154.54-9.53-3.62-18.71-7.66-27.57-12-6.41.14-12.76.11-19-.25a245.83,245.83,0,0,0,42.76,19.85c13.18,28.94,24.94,69.9,18.29,106.6-6,33.17-25,59.77-41,82.26-20.72,19.46-54.6,35.62-92.31,45.73s-88.54,16.61-116-1.47a271.42,271.42,0,0,1-26.63-37.51A137.5,137.5,0,0,1,444,958c.83,1.26,1.66,2.51,2.52,3.74C452.65,970.72,459.84,982.44,466.45,987.36Z"/><path class="cls-13" d="M521.11,973.56c-28.19-21.59-45.32-61.16-45.88-96-.34-21.37,1.14-39,9-58.62,7.21-18.06,10.64-36.56,22.83-51.95,9.88-12.46,15.06-21,31.07-20.42,15.26.52,30.61,2.57,44.1,9.8,13,6.94,23.07,18.58,35.79,25,7.21,3.65,15.25,5.57,22.26,10.09,7.36,4.75,12.38,11.44,18.17,17.79,11.76,12.86,15.72,18.34,31.91,8.95,8.71-5.06,31.78-18.78,40.75-10.73,3.56,3.2,5.07,12.32,6.58,15.81,2.77,6.45,3.43,9.13,2,16.86-.78,4.25-1.19,3.41-.62,8,.4,3.24,2.77,5.67,1.08,9-1.21,2.35-5.1,2.12-6.27,3.86-2.23,3.29.42,4.48-.79,7.94-2.78,7.91-8.83,4.78-13.91,8.29-4.68,3.22-7.27,9.42-12.47,12.62-5.87,3.6-8.86,6.61-13.46,12.11-4.46,5.32-6.41,12.59-11,17.46-9.43,10.06-22.6,11.27-34.76,6.24-12.74-5.27-25.26-8.46-38.53-12-9.69-2.61-17.35-5.48-25.87-10.74,7.37,5.23,15,7.46,23.58,9.72,3.3.88,15.18,2.24,17.44,4.12,5.68,4.69-5.89,24.66-10,30.06-9.5,12.55-19.68,15.5-33.47,21.4-12.62,5.39-25,6.89-38.46,7.09-13.12.18-24.05,1.81-28-13.61Z"/><path class="cls-6" d="M687.12,824c5.49-4.94,15.42-11.9,23.19-12.76,5.88-.66,19.12,4.83,10.12,11.61,4.78-1.33,10.63,1.16,12.43,6.14,2.35,6.54-3,9.22-8.6,11.43,7.88,3.12,6.12,11-.66,15,.61,4.68,6.18,8.6,10.52,6.66,5.56-2.46,4-9.91,2.52-14.73,6.17.23,8.27-8.7,6.38-13.75-1.14-3.07-3.75-3.94-5.41-6.67-2.7-4.48-.56-3.68-1.1-9.16-1.73-17.27-29.14-11.69-36.58-2.44Z"/><path class="cls-6" d="M493.25,938.94c6.74,14.07,24.21,10.17,32.55-.36s9.61-25.65,9.4-38.55c-.39-23.79-4.31-47.67-12.57-69.92a87.31,87.31,0,0,1-4.69-17.29c6.38,7.53,11.29,18.33,21.18,25.31,10.86,7.66,24.29,15.6,36.62,20.31,11.54,4.4,23.25,2.43,35,2.12,13.15-.34,22.91-2,29.4-15.3,4.75-9.76,5.24-27.72,1.94-38.13-2.71-8.55-12.38-18-17.52-23.35,7.36,9.21,18.42,13.77,26.63,22,7.5,7.54,13.4,16.47,20.16,24.59,7.68-1,10.85-7.88,16.5-11.72-12.31,9.71-9.28,35.13-.13,46.18,8.55,10.32,39.16,3.8,30.82-11.2,5.25-.29,8.88,5.41,9.19,10.39.5,7.84-6.06,7.19-10.29,12.4-4,4.91-5,11-10.33,15.29s-9.19,5.48-12.63,11.64c-7.12,12.71-14.18,22.3-29.22,26.29-15.3,4.06-24.41-9.17-38.06-12.29-12.1-2.76-25.06-1.8-36.44-7.74,7,.16,26.77,5.57,32.08,10.7,7.78,7.5-7.79,22.38-14.51,27.91-11,9.07-22.63,13.06-35.63,18.42-11.63,4.79-22.16,9.47-35,9.6-9.37.09-16.53-2.23-23.21-8.87-4.64-4.6-14.41-12.95-16.7-19Z"/><path class="cls-6" d="M531,834.47c-6.36-4.07-11.15-24-12.6-32.57-2.12-12.52-1.83-26.54,1.5-38.79,9.34-34.4,55.1-7.93,76.15,1,19.29,8.22,41,23.19,51.14,42.28s12.89,55.17-7.65,69.24c-9.36,6.41-22.76,4.25-33.25,2.77-18.9-2.68-42.3-8.53-56.15-22.79Z"/><path class="cls-9" d="M635.85,918.87c-.86-.44-1.73-.88-2.61-1.29l-3-1.39c-37.33,71.61-128.74,52.52-125.83,53.5,29.08,9.89,52.24,8.65,70.76,2.76,41.15-13.09,56.33-41,61.18-53.27Z"/><path class="cls-7" d="M527.06,782.5c-4.44,7-5.13,10.1-3.14,14.86,7.19,17.17,61,18.27,57.6-4.92-1-6.71-8.71-12-17.75-13.16-14.32-1.76-23,2-23.39,8.38-.5,8.66,21.81,10.92,24.66,2.21-1.31-5.3-8.92-3.12-12-2.89,5-5.18,15.55-4.3,16.84,1,4.13,17-40.47,19.36-36.13-2.54,4.86-24.55,70.85-12.45,53.14,17.36-10.89,18.32-53.37,17.4-64.52,3.6C517.18,800,517.92,784,527.06,782.5Z"/><path class="cls-7" d="M730.9,801.56c-20.18-1.1-42,10-55.25,23-30-46.41-75.37-80.25-147.75-79.77-29,26.38-57.33,73.67-58.35,127.76-.8,41.8,14.09,69.82,34.1,88.58,2.88,2.7,5.91,5.94,9.28,8.66l.72.13a56.5,56.5,0,0,1,8.15,1.31c-2.72-5.3-8.65-8.64-12.53-12.8-15.54-16.62-27.4-39.76-30-69.92-4-45.35,13.27-84.09,31.2-111.86,5.48-8.48,13.12-22.33,20.22-24.61,3.31-1.06,9.59-.86,13.89-.6,15.42.92,30.07,8,44,13.66,42.17,17.16,65.32,46.23,93.55,72.37-1.7-2.43-1.27-4.84-2.91-7.33,14.24-9.43,33.27-20.52,49.23-19.39,4.75,1.38,8,5.72,4.17,10.36-5.67-2.14-17,.19-18.58,5.71,10.92-8.49,31.25,4.64,25.39,14.92-5.26-4.52-15.88-9.07-22.38-2,10-.91,19.4,5,17.83,14.78-5.62,2-15.42-9-20.46.07,13.47-1.89,20.43,18.29.73,17.16-.71,2.6.1,4.91-1.28,8.24-6,6.34-12.68,8-17.44,14.77-2.47,3.52-5.11,8.35-7.67,12.12-8.07,11.95-15.74,15.35-23,16.69-12.53,2.31-25.75-6-39.66-9.51-40.61-10.36-76-32.92-92-64.8-2.41-4.79-2.17-9.88-6.26-12-2.74,3.51-1.1,6.73-.38,9.84,8.54,37.3,53.92,65,91.65,75.46,14.62,4,29.19,11.85,43.05,11,12.74-.79,26.6-9.06,33.93-23.09a77.58,77.58,0,0,1,7.1-11.08c6-7.89,18.17-9.86,17.94-22.16,9.44-.5,14.36-5.13,14.11-14.52,9.54-.45,9.1-11.08,6.68-15.85,10.24-6.83,5.47-20-3.08-23.82C744.08,816.46,741,804.13,730.9,801.56Z"/><path class="cls-13" d="M206.17,793c12.66-2.95,25-12.9,35.83-19.71,10-6.32,20.46-11.86,30.64-17.35,15.14-8.16,29.74-20.33,44.56-29.6,30.85-19.28,61.16-40.4,92.19-59,7.13-4.26,14.09-7.66,20.15-13.5,5.59-5.39,14.35-10.7,16.43-18.26,9.6,20-2.35,49.26-6.59,69.21-3.68,17.32-11.28,37.25-21.25,51.94-13.3,19.58-33.19,36.17-50.53,52.25a162.43,162.43,0,0,1-62.34,36.46c-14.71,4.62-30,6.59-45.34,7.17-15.08.57-40.75-2.91-44.45-21.38Z"/><path class="cls-6" d="M226.66,811.65c24.72,3.74,53.39-8,77.14-15.43,24.19-7.61,46.4-21.1,67.06-35.55C395.5,743.44,419.22,726,437,701.43c-1.83,12.4-4.34,24.73-7,37-4.62,21.14-24.18,35.4-39.34,49.66-16.48,15.5-31,31.2-51.91,40.89-18.4,8.53-38.84,17.22-58.75,21.71-17.76,4-65.76-7.22-42.65-33.49Z"/><path class="cls-7" d="M446.58,630.66c1.16-.28,1.3.6,2.23.58.38,14.17-11.79,23.51-21.16,31.34-28.36,23.69-65.55,42-99.29,60.78a1302.85,1302.85,0,0,0-130.53,83.35c-2.59-1-6.65-.19-10.2,0,55.25-47.87,129.56-87.09,199-126.69,10.29-5.88,22.27-12.07,33.57-20.54C429.78,652.23,444.29,640.76,446.58,630.66Z"/><path class="cls-7" d="M430.78,739.61c3.05,7.29-13.58,31.73-20.59,40.42-34.86,43.19-90.11,71-164.31,78.74a26.07,26.07,0,0,1,2.25-9.62c90-10.92,145.73-51.71,181.93-109.49Z"/><path class="cls-14" d="M438.53,620.92s37,8.44,68.65-18.72C507.18,602.2,481.85,640,438.53,620.92Z"/><path class="cls-15" d="M154,738c-3.6-31.37,4.13-64.36,12.11-95,8.08-31,18.56-60.39,17.34-90.25-.43-10.73-2.1-21.11-5.22-28.91-3.41-8.49-10.81-21-17.59-25.93-18.76-13.61-48-4.25-45.67,21.86.75,8.45,5.58,16.22,12.72,18.21,15.68,4.37,33.88-4.24,35.85-13.94,1.58-7.68-1.5-10.67-4.59-17.26,12.56,7.53,18.27,22.73,18.79,42.67.46,17.59-7.16,35.15-13.82,49.83-18.91,41.72-45.58,89.21-34.77,155.66,5.45,33.52,22.38,57.48,39.73,78.59,5.76-8.54,12.14-22.11,14-25.74a86.76,86.76,0,0,1,4.41-7.57c-2.71-2.32-5-5.31-7.17-7.56C167.88,780,156.88,763.05,154,738Z"/><path class="cls-16" d="M115.91,529.58c2,6.87,10.56,15.65,16.41,10.37,4.86-4.4,4.38-15.5,3-21.47A33.08,33.08,0,0,0,125,501.34c-7.26-6.22-8.57-.62-10.57,7.27,4.81-23.89,32.42-33.54,45.81-8.94,5.23,9.6,11.57,21.92,3.82,31.11-5.21,6.18-19,13.87-27,12.9Z"/><path class="cls-16" d="M150,786.28C124.41,737.44,143.58,683.21,160.5,638c5.7-15.23,10.24-30.11,14.62-46,2.33-8.46,5.18-17.35,5.76-26,.54-8.15-1.34-18.22-1.06-24.8,6.68,19.73,7.36,36.73,4.31,56.8C181,618.85,175,641,169,660.93c-8.55,28.67-13.86,61.24-5.14,91.84,1.68,5.91,6.23,15.74,1.32,20.05-2.14,1.88-6.47,1.23-9.14,3.25s-4.25,6.62-7.25,6.81Z"/><path d="M193.38,803.46a29.9,29.9,0,0,0-3.44-7.2q-1.35,1.92-2.63,3.9A14.13,14.13,0,0,0,193.38,803.46Z"/><path class="cls-17" d="M183.24,604.59c4.46-19.63,9.54-42.55,5.33-66.11-2.78-15.57-8.52-24.07-16.49-34-9.76-12.21-19.63-24.88-39.83-21.62-31.68,5.13-35.78,64.72,1.82,64.2,16.05-.22,31.63-7.33,34.31-21.88,9.86,37.35-9.33,65.23-20.74,89.72-10.88,23.37-21.6,50.5-26.17,76.92-5.55,32.1-2.55,69.52,10.18,97.29a143,143,0,0,0,22.54,34.39A166.32,166.32,0,0,0,167,836.17c.64-.82,1.29-1.73,1.94-2.7-17.35-21.11-34.28-45.07-39.73-78.59C118.36,688.43,145,640.94,163.94,599.22c6.66-14.68,14.28-32.24,13.82-49.83-.52-19.94-6.23-35.14-18.79-42.67,3.09,6.59,6.17,9.58,4.59,17.26-2,9.7-20.17,18.31-35.85,13.94-7.14-2-12-9.76-12.72-18.21-2.33-26.11,26.91-35.47,45.67-21.86,6.78,4.92,14.18,17.44,17.59,25.93,3.12,7.8,4.79,18.18,5.22,28.91,1.22,29.86-9.26,59.22-17.34,90.25-8,30.67-15.71,63.66-12.11,95,2.86,25.08,13.86,42,26.12,54.63,2.18,2.25,4.46,5.24,7.17,7.56q1.27-2,2.63-3.9c-2.74-4.1-5.83-6.09-8.45-9.59C140.92,732.56,171.84,654.82,183.24,604.59Z"/><path class="cls-13" d="M148.32,813.61C143,821.54,128,829.29,129.7,841c2,13.36,20.81,10.14,30.12,11.21-.42,3.86.54,7.24,4.1,9.18-10.33,7.68-7.63,19.57,3.46,25.22,4.87,2.49,11.39,4.57,16.83,2.92,5.89-1.79,9.1-8.52,14.28-10.5,4.88-1.86,12-1.76,17.38-3.59,5.71-1.95,8.94-5.55,14.62-8.41,15.71-7.9,17.6-25.71,14.34-35.1-9.05-37.37-41.37-47.3-48.86-54.45-18.33-17.5-30.74,26-43.54,34.92Z"/><path class="cls-6" d="M159.78,883c15.2,15.45,31.84-13.88,13.1-15.85,15.17,6,19.39-21.17,2-20.31-13.75.67-22.73,9.75-37.22,3.42,24.7,3.87,25.74-26.16,2.79-29.89,9.5-6.1,13.6-2,20.78,4.57,2.71,2.49,6.59,6.12,10.26,7,4.38,1,8.14-2.09,12.35-.76-2,3.5-2.13,8.39-4.87,11.38,5.65-6.76,21.88-8.86,28.88-3,10.17,8.51.43,23.43-7.36,29.18,13.25,15.45-28.62,34-36.15,18.84Z"/><path class="cls-6" d="M225.77,797.84c-3.73-3.51-7.82-5.17-11.49-7.68s-7.19-6.78-10.53-9.88c-8-7.45-19.31-13-30.39-7.8,12.28,8.56,10.37,27.27.94,37.21-10.06,10.61-28.54,7.68-25.1-10-1.2,6-1,12,2.62,17.05,3.09,4.35,8.78,6.28,10.72,11.51.15.39.2.74.31,1.11a7.77,7.77,0,0,1,2.31.46c5.63,2.09,11.09,5,16.75,7a6.75,6.75,0,0,1,3.23-2.23l6.8-2.29c3.41-1.15,7.68.71,8.7,4.31a4.29,4.29,0,0,0,1,1.74,16.55,16.55,0,0,1,1.78,1.17,7.77,7.77,0,0,1,1.27,1c2.68,1.39,5.91,2.58,7.34,5.16.64,1.16,1.23,2.33,1.75,3.52a5.76,5.76,0,0,1,5.12,1.87q1.11,1.14,2.16,2.28c7.05,4.53,14.47,18.53,22,6.31C256.78,837.17,241.85,812.91,225.77,797.84Z"/><path class="cls-7" d="M148.09,816.36c0,3.39-3.66,2.29-5.3,3.66-3.62,5.74-9.83,8.33-10.14,16.49-.43,11.57,15.71,16.89,27.47,12.69,5.31-1.89,16.74-6.46,26.27-16.05-4.2,14.88-19.1,20.87-22.83,23.43,8.58,11.42,46.54,7.66,47.55-4.87.6-7.53-5.24-13.69-14.82-12.78,6.66-10.13,22.52,0,23.58,9.47,1.15,10.16-6.9,16.32-15.29,18.77.36,2.68,1.53,4.7,1.29,7.86,17.7,1.6,43.54-18.77,38.55-38,17.33,16.47-16.79,50.87-40,45.62-3.45,1.29-4.09,4.24-7,6.29C181.71,900,150.53,896.7,152,873.63c.47-7.62,6-9.39,6.53-15.47C141.54,860.5,121.93,850.88,126,833,127.91,824.63,137.1,812.67,148.09,816.36Zm13.21,48.41c-13.84,28.85,40.07,31.15,36.74,4.53C187.14,871.26,170.13,870.87,161.3,864.77Z"/><path class="cls-15" d="M302.8,904.66c-35.56-8.91-67.84-21.37-87.21-43.93a19.26,19.26,0,0,1-13.47,8.42c1.44,5.47,2.46,11.5-.63,15.58,13.6,13.68,30.54,24.53,52.1,31.54,19.63,6.4,38.38,8.2,57,9.06,37.16,1.7,87.64.3,96.37,45.12-2.88,1.91-3-4.09-4.46-5.61-12.93-13.62-33.8,9.59-32.42,27,1.16,14.66,18.42,20.31,28.88,17s16.91-20.49,14.18-36.11C404.89,925.93,351,916.75,302.8,904.66Z"/><path class="cls-16" d="M373.5,972.27c-11.56,17.27,6.92,37.6,20.27,17.41,6.69-10.12,11.26-26.71-3.59-31.24,9.91-2.39,14.66,11.82,18.09,19.3-1.82-3.76-7.09-10.41-1.55-12.71,5.81-2.41,6.95,6.6,7.74,10.86,2,10.63,1.31,27.33-6.95,34.19-16.56,13.76-41.13,1.94-42.2-21.41Z"/><path class="cls-16" d="M356.47,913.62,285.8,897.29l-43.51-17.15-22.88-21.07-1.8-2.15a19.68,19.68,0,0,1-14,12c.9,3.22,2.68,11.7-2.12,15.81l9.61,12.75.19-19.76,9.47-2.44s24.78,34.83,141.93,44.57Z"/><path class="cls-15" d="M193.55,836.13a35.71,35.71,0,0,1,7.45-1.19c-1.21-3.63-2.29-7.45-3.36-11.37a26.21,26.21,0,0,1-8.15,8.84c-.91.63-2,1.25-3.15,1.89-.92.82-1.82,1.65-2.67,2.51A42.75,42.75,0,0,1,193.55,836.13Z"/><path class="cls-17" d="M200,817a22.17,22.17,0,0,1-2.34,6.55c1.07,3.92,2.15,7.74,3.36,11.37a29.57,29.57,0,0,1,5.39.24c-1.3-2.56-2.55-5.2-3.68-8S201.08,820.48,200,817Z"/><path class="cls-17" d="M414.46,961.86c-9.21-24.15-25.66-39.1-52.63-49.13-54-20.09-110.95-21.75-143.23-59.19a18.88,18.88,0,0,1-3,7.19c19.37,22.56,51.65,35,87.21,43.93,48.2,12.09,102.09,21.27,110.31,68.09,2.73,15.62-3.6,32.73-14.18,36.11s-27.72-2.31-28.88-17c-1.38-17.46,19.49-40.67,32.42-27,1.43,1.52,1.58,7.52,4.46,5.61-8.73-44.82-59.21-43.42-96.37-45.12-18.59-.86-37.34-2.66-57-9.06-21.56-7-38.5-17.86-52.1-31.54a8.88,8.88,0,0,1-2.16,2.06,8.76,8.76,0,0,1-3.79,1.48c24.2,25,58.5,40.7,100.52,44.65,31.79,3,78.43-5.35,99.18,22.62-14.64-5.11-32.89,17.3-32.79,35.19.07,12.84,11.49,24.17,21.17,27,20,5.9,38.54-9.91,36.28-37.31C419.44,974.87,416.45,967.07,414.46,961.86Z"/><path class="cls-13" d="M205.66,480.67c14.93,20,9.61,54.68,10.52,77.33a266.38,266.38,0,0,0,10.93,66.13c14.71,49.16,68.91,61.61,108,62.19,22,.33,46.14,5.46,67.53-.66,10.82-3.1,20.9-10.48,31.12-13.82,9.11-3,18.72-5.49,27.92-10.24,39.13-20.21,75.74-51.75,103.61-88.61,23.82-31.5,52.62-74.08,39.5-119.47-9.54-33-30.61-55.41-52.83-78.63-27.86-29.12-55.23-57.32-91.66-71.49-93.42-36.35-232-25.31-251.1,104.24-2.51,17-10.16,44.54-3.65,61Z"/><path class="cls-6" d="M366.68,407.77c-42.3-12.13-63.14,57-57.9,89.82,6.9,43.18,38.85,73.5,80.1,69.74,18.25-1.66,39.67-6,52.46-20.25,16.29-18.14,16.75-49.61,11.06-72.67-11-44.57-41.39-64.33-81.48-71.23Z"/><path class="cls-6" d="M209.45,485.82c-1,.85-1.85-1.39-2.35.64,18.67,5.57,33-24.67,38.35-39.67,6.72-18.87,6.29-41.9,11.42-62,10.44-40.8,41.27-57.57,78.16-40,38.23,18.21,56.4,63.31,81.61,98.15,23.32,32.24,56.17,80.95,96.17,72.38,27.94-6,77-29.14,80.83-65.88,2.75-26.05-11.07-49.68-27.16-67.47-40.45-44.71-95-65.42-148.84-77.52-42.54-9.56-104.3-23.1-144.21-.53-21.83,12.34-46.64,28.13-57.81,53.91-5.31,12.27-23.09,94.49-10.06,96.69Z"/><path class="cls-8" d="M463.28,487c2.84,14.86,6.48,30.75,6.22,47.2a274.49,274.49,0,0,1-3,36.71c-3.34,21.66-25.44,50.36-36.45,67.38,12.43-3.66,21.25,3.65,20.18,12.34-1.4,11.45-21.1,19.43-55.91,33,55.12-10,114.21-46.4,140-75.21,9.28-10.37,21.37-19.42,14.86-35.65-5.58-13.93-9.73-20.83-7.5-36.75,1.87-13.3,8.7-21.59,16-31.64,5.93-8.12,20.2-19.5,19.81-31.27-9.38.12-19.38,6.19-28.67,8.3a74.7,74.7,0,0,1-35.55-.79c-10.37-2.82-19.81-10.14-30.48-11.49-11.48-1.46-20.52,6.78-28.72,14.57Z"/><path class="cls-18" d="M249.2,413.29c3.24,4.07.47,12.73-6.18,19.34s-14.69,8.68-17.93,4.61-.48-12.73,6.18-19.35S246,409.22,249.2,413.29Z"/><path class="cls-19" d="M333.63,507.19c-7.84-14,5.38-40.55,13.9-50.46,13.73-16,34-19.06,52.84-17.88,20.06,1.26,32.44,5.89,46.81,22.33,15.08,17.26,20.26,43.05,8.92,63.09-18.88,33.37-38,46-73.76,41.86-15.84-1.82-32.22-7.25-41.7-23.14-6.78-11.35-7.83-25.55-7.91-38.61Z"/><path class="cls-20" d="M437.88,464.71C406.49,442.14,373.53,484,379,518c6.67,41.76,58.82,40,77.79,13.48,15.12-21.13,6.51-67.29-22.29-67.31Z"/><path class="cls-21" d="M420.48,463.19c4.73.58,11.35,2.36,15.28,2.32-1.75-2.79-5.18-4.66-8.45-5.55-16.62-4.52-29.65.54-34.95,12.4,1-.29,2-.61,3.08-1A29.84,29.84,0,0,1,420.48,463.19Z"/><path class="cls-21" d="M444.06,540.33c-9.88,4.48-19.84,9.5-33.76,7.11-22.31-3.84-33.23-21.38-27.87-47.7a25.88,25.88,0,0,0-.81-3c-7.54,13-4.37,31.44,2,40.8,12.18,17.74,44.57,20.32,58.72,8.21C445.29,544.08,443.42,542,444.06,540.33Z"/><path class="cls-22" d="M413.74,493.7c-.94,9-8.26,15.21-16.34,13.82s-13.89-9.84-12.95-18.85,8.26-15.22,16.35-13.82S414.68,484.68,413.74,493.7Z"/><path class="cls-7" d="M197.56,453.08c2.75.38,5.73,7.06,7.3,10.64,5.15,11.75,8.29,27,10,40.89,2.45,20.2,1.79,42.62,3.63,62.76,1.8,19.93,5.11,38.78,13.16,54.71,5.61,11.12,20.52,30.75,43.19,42.06,23,11.47,54.09,16.72,81.34,18.53,31.42,2.09,58.91-2,81.82-11.17,23.56-9.43,43.47-23.52,62.92-38.7a213.48,213.48,0,0,0,50.58-56.68c2.25,1.29,3.72,3.24,6.22,4.31-21.66,41.31-54.19,68.19-90,89.39-18.17,10.77-38.26,18-60.59,21.94-23.21,4.08-47.88,3.43-76.73-1.54C302,685.33,276.62,677.33,258,664.16c-18.48-13-31.88-31.64-39-54.3-10.69-33.93-7-81.4-13-120.06-1.36-8.66-3.07-19.13-6.12-27.59-.89-2.43-3.41-6-3.2-8.32A1.4,1.4,0,0,1,197.56,453.08Z"/><path class="cls-23" d="M637.64,489c15.81,6.18,33.61,11.49,47.42-2.67,11.09-11.38,26.75-41.91,33.61-8.12,8,39.49-37,80.12-68.95,80.22-5.27,0-21.35-7.38-25.18-5.68-8.92,3.94,3,17,6.57,20.9,12.42,13.44,26.59,29.15-.8,23.81-41.51-8.1-50-47.57-23.59-84.65,9.2-12.89,16.93-16.06,30.18-21.45Z"/><path class="cls-24" d="M601.4,547c2.6-2.47,5,.65,7.59,1.54,9.8,3.44,21.81,3.5,31.1,2.15,18.39-2.67,36.62-9.05,51-21.76,8.95-7.91,17.92-17.84,22.15-35a42.66,42.66,0,0,0,.81-14.53c-.44-4-1.26-9.76-4.47-11.45a5,5,0,0,0-5.35.2c-1.63,1.33-3.73,5-6,6.27-3-4.57,6.79-14.43,10-15.49,4.41-1.46,11.62,1.65,13.56,5.24,2.87,5.33,9.89,39.19-21.41,70.32-13.31,13.24-36.94,21.53-55,24-9.62,1.34-21.35,1.32-31.68-3.52-1.81-.85-4.23-2.38-6.64-3.73C605,550.07,602.05,549.38,601.4,547Z"/><path class="cls-24" d="M696.72,478.33c-1.75,7.17-7.63,11.59-12.56,14.22-8.17,4.36-19,4.86-30.36,2.7-5.08-1-11.08-2.22-14.15-5.52-.13-1,0-2.12-.93-2.65,5.58-2.46,12.23.71,18.14,1.66,14.76,2.38,27.5-1,37.08-11.21C694.51,476.43,696.37,477.53,696.72,478.33Z"/><path class="cls-24" d="M656,598.46c-11.35,9.42-32.19,10.42-51.89-8.13-2.13-2-5.16-4.48-6.89-7-1.54-2.25-3.77-5.94-1.8-8.7,1.75.56,1.89,2.52,3.1,3.78,5.59,5.82,14.67,11.37,23.26,14.22,8.82,2.92,17.54,2.33,24.48,1.57-8.33-5.65-15.89-14.39-20.91-23.3-1.43-2.55-4.06-6.95-1.69-9.79,2.08-1,2.46,2.68,3.46,4.21,1.45,2.21,3.63,4.17,5.53,6.44,3.45,4.09,7,8.92,11.38,12.72,3.18,2.73,7.23,4.75,10,7.6C654.22,593.54,655.7,597.09,656,598.46Z"/><path class="cls-25" d="M352.53,556.75c39.86,18.38,70.74,5,89.32-14.69,7.51-8,14.42-17.47,15.13-34a59.84,59.84,0,0,0-13-39.77c-8-10.29-18.59-19.62-30.78-24.72-23.28-9.74-43.71-2.71-58.22,7.33-6,4.16-18.92,17.79-23.55,45.06-1.47-33.33,17.34-53.8,28.2-59,11.81-5.67,24.24-9.18,37.66-7.76,25.18,2.66,43.27,16.1,54.62,31.38,11.66,15.7,18.82,42.22,11.48,66.63-6.18,20.58-22.41,34.59-38.91,42a70.82,70.82,0,0,1-30.74,5.69C379.34,574.13,359.31,566.28,352.53,556.75Z"/><path d="M382.6,498.89c2.28,5.31,5.61,9.74,11.45,12a8.54,8.54,0,0,0-.6,3.05c3.25,10,10.11,19.68,21.69,21.49,28.15,4.42,36.65-24.42,26.95-44.62-5.25-12.61-23.32-19.62-31.61-13-9.87-7.4-16.66-5.61-16.87-5.05-8.8,1.79-13.49,12.75-11.55,23.16-.15.24-.29.49-.44.74a25.88,25.88,0,0,1,.81,3C382.49,499.46,382.54,499.18,382.6,498.89ZM397.79,475c10,0,18.77,11.57,15.5,21.88-3,9.43-9.83,10.66-15.43,9.95C381.5,504.79,382.54,475,397.79,475Z"/><path class="cls-26" d="M297.9,332.63c-9.56-18.53-40.3-20.32-52.24-3-11.67,16.88-9,51.11-10.2,72-1.38,23.78.13,50.93-14,69.69-13.87,18.46-33.87,28.92-52.87,12.41-6.38-5.54-16.62-15.95-15.68-25.44,6.49,4,19.89,4,24.73-3.37,6-9.16-1.84-18.91-5.12-28.36-6.89-19.86-13.9-38.9-17-59.73-7.11-48,6.6-93.27,53.44-103.63-39.68-19.91,23.57-46.59,42-49.92,31.77-5.76,67.07-20.93,88.2,16.27-6.75-13.64-34.65-58.37-3.1-43.32,17.68,8.43,41.45,17.23,61.1,17.69-19.69-4.76-11.56-19.93,2.75-22.45,12.66-2.23,26.75-.29,40.15,2.73,19.13,4.31,54.92,26.26,63.09,48.67-6.2-15.06-1.32-28.59,14.22-27.51S539,222.75,544,236.49c22.71-11.94,37.12-36.66,65.4-35.22,44.3,2.26.72,37.81-8,52.45,14.52,5,31.48-3.93,47.26-2.09,16.59,2,31.51,9.22,45.19,18.31,9.68,6.42,32,22,19.52,36.47-9.75,11.35-36,.86-46.47-5.13,30.71,32.85,24.19,91.94,14.33,132.23-1.87,7.66-2.52,25.06-9.08,29.68S651.09,459.68,642,458c-23.57-4.35-39.51,3.78-61.62,9.32-42,10.55-90.25,9.4-123.55-29.48-30.56-35.67-55-81.48-91.16-109-18.75-14.23-56.47-15-73.08,2.84Z"/><path class="cls-27" d="M206.43,228.53c-17.19,11.84,5.53,21.11,15.4,23.94,13.85,4,25.44,3.38,39.28.43,12.72-2.7,27.91-3.79,39.58-10.48,8.89-5.11,20.52-22.76,5.6-30,15.2,6.19,33.79,9.59,45.93,22.93-21.35,21.55-60.21,28.55-87.32,27.22-14.56-.72-25-3.57-39.24-1.39-5.85.89-14,1.77-20.12-1.14s-15.37-12.09-5.43-16.6Z"/><path class="cls-27" d="M511.62,206.54c19.58-4.34,7,48.78,6.08,57.78,7.55-3.62,14.33-8.19,22.24-10.64-2-7.65-1.46-15.31,3.4-21.4C537.64,227,530.46,223.79,526,217Z"/><path class="cls-27" d="M629.94,284.1c12.64-2.31,67.37,13.55,68.84-6.59,8.19-1.15,20.83,8.63,23.68,14.22,7.55,14.81-2.55,17.67-13,19.31-12.64,2-34.88-8.62-57.76-17.88Z"/><path class="cls-27" d="M578.31,207.36c18.66-7.55,16.76,20.47,8.15,33.37-9.06,13.6-23.75,20-33.77,31.21,20.94-2.54,42.46-12.15,57.38-28.84,5.85-6.55,18.24-17.09,18.62-27.07.73-19.59-28.49-13.94-39.29-12.08Z"/><path class="cls-27" d="M170.7,411.31c15.63,15.71,18.92-41.48,18.4-51,.84,5.95,4.92,30.28,12.26,31.08,6.74.74,8.06-23.31,10.23-28.9,5.91-15.2,26.8-37.69,40.33-43.19-3.75,21.7-8.9,41.94-9.22,64.48s-.06,45.7-8.37,66.4c-7.59,18.89-19.83,32.62-38,35.71-16.37,2.78-38.68-9.91-42-30.58,7.06.69,37.15,4.09,29.62-13.59-7.32,4.88-17.55-14.3-17.69-21.88Z"/><path class="cls-27" d="M394.62,356.7c12.89,7.47,40.35,21.6,52.72,6.41,9.64-11.83-3.74-31.6-14.52-37.16,24.14,4.81,47.8,24.54,72,25.8,31.18,1.62,31.83-40.75,5.77-52,21.46,8.29,37.49,28.76,60.52,34.09,25.6,5.92,24.35-32.22,8.82-46.55,17.34,20.54,80,45.05,61.39-5.32,26.55,9.39,40.77,50.22,44.9,77,5.1,33.12,1.4,60-4.71,92.09-9.84-.69-17.51-7.17-27.65-7.51-9.68-.34-17.39,1.72-26.53,5.37-18.48,7.37-35.27,15.85-53.87,22.33-35.7,12.45-81.4.87-107.71-30.43-9.7-11.55-18.94-22.93-27.63-35.43-7-10-21.76-24.12-25.87-35.05Z"/><path class="cls-27" d="M295.09,327.6c-9.59-8.44-26.64-14.51-38.91-11.92,17.85-3.91,50-16.94,22.65-37.14,11.11,1,21,3.48,32,.92,5.51-1.28,26.89-9.79,11.66-16.39,16.87,9.84,36.17,19,55.57,12,22.57-8.13,19.16-26,2.13-39.35,17.3,2.62,30.3,15.66,49.44,13.6,12.72-1.37,31-12.61,14.94-27.53,4.39,7.86,18.13,23.62,27.25,15.2,8.86-8.19-.55-29.4-8.24-34.81,21.55,14.82,45.77,34.11,56.28,61.36-9.09-.85-20.18-4.42-28.38,1.05-10.38,6.93-7.58,12.81-21.74,11.89-12.24-.8-21.19-1.27-32.55,3.34-10.1,4.11-16.73,8.66-27.17,9-9.38.3-17.6-2.46-26.42,2.41-10.95,6-10,11.34-23.65,8.93-19.16-3.38-40.4-1.62-53.22,15.79-3.57,4.85-4.84,11.19-9.58,14.65Z"/><path class="cls-24" d="M417,200.82c-1.45,2.62-5.48,1.58-7.75,1.9-3.61.52-7,2-10.11,2.47-10.06,1.39-20.63-.41-30.45-3-11.91-3.11-22.73-8.45-35.73-10.68-2.49-.43-5.14-.65-7.61.63,2.35,12.14,9.44,18.57,16.3,27.4,2.19,2.83,8.75,9.65,2.1,10.4-.45.05-1-.44-1.7-.29-2.83.56-6.41-3.44-9.62-5.22C311,212.55,280.76,211.41,258.89,215c-18,3-36.86,8.59-50.69,18.79-3.36,2.48-11.39,7.92-11.1,14.6.36,8,21.87,11.62,31.19,12.49,2.5.23,3.81-.42,7,.22-10.85.53-28.47,5.46-39.45-2.9A13.58,13.58,0,0,1,191.68,242c4.5-10.28,13-20.39,22.36-24.83a149.47,149.47,0,0,1,70.52-14.08c14.89.79,32.89,8,44.4,13.33-10.23-12.31-17.86-24.94-16.27-30.7s8.38-7.77,14.1-7.29c12.88,1.09,29,9.81,41.22,14,12.76,4.34,25.84,7.6,39.21,8C410.8,200.54,413.75,198.45,417,200.82Z"/><path class="cls-24" d="M283.53,341.46c-.15-2.73,2.54-4.29,4.08-5.77,10.62-10.19,28.9-19.61,47.11-17.78,22.41,2.23,37,13.27,49.65,24.72a341,341,0,0,1,26.72,27.58c16.87,19.21,32.09,40.94,49.59,58.71,17.76,18,38,35.39,70.4,39.94,16.46,2.32,27.64,0,41.75-2.53,9.16-1.63,18.09-5,26.72-8.67,1.42-.6,7.23-3.75,8,1.06.76,4.6-5.86,6.08-8.58,7.26-24.1,10.4-50.2,21-84.8,11.95-17.38-4.54-32.47-14.28-44.7-24.85-36.73-31.68-57.47-76.31-95-107.62-12.5-10.43-29-20.53-48.15-19.61-12.87.62-22.8,6.38-32.82,11.51-1.64.84-3.19,1.67-4.92,2.71C287.3,340.86,285.33,342.61,283.53,341.46Z"/><path class="cls-24" d="M181.68,441c3.07-7.28,2.79-18.31,1.16-25.05,6.1,3.68,6.82,18.45,5.85,27.42-1.65,15.21-15.82,28.3-31.53,18.66,3.9,7.69,9.61,13.76,18.84,16.84,9.63,3.2,20.11,2.52,27.36-.8,13.82-6.34,23.84-21.31,26.44-45,3.6-32.86-1.61-73.6,12.32-98.87,4.2-7.61,10.23-14.07,16.88-17.17,9.5-4.43,24.64-3.65,33.19,4.42,2.36,2.23,6.44,6.34,4.42,10.47-2.74-.22-4.45-3.08-6.48-4.67-10.9-8.62-25.82-5.95-33.6,2.3-10.71,11.37-14.36,36.87-14.72,60.59-.33,21.57.7,45.66-5.9,65-6.34,18.58-18.09,32.53-33.5,37.66-16.18,5.36-38.06-1.47-47-16.56a49.24,49.24,0,0,1-4.54-12.11c-1.22-4.9-1.37-10.69-1.13-17,5.5,2.43,9,8.66,15.9,8.89,5.5.19,8.74-4.27,12.39-7.58a198.7,198.7,0,0,1-22.51-54c-5-19.5-11.9-44.79-6.4-71.13,4.91-23.54,14.68-35.74,28.38-48.24,13.94-12.74,35.22-19,71.92-13.37-33,2-50.86,7.34-64.21,20.35-13.66,13.31-23.55,31.18-26.51,59.53-2.18,21,1.65,38.77,5.94,54.43A263.77,263.77,0,0,0,181.68,441Z"/><path class="cls-24" d="M674.83,305.88c13.27,17.91,20,38.84,22.09,62.35,2.1,24.26-1.69,53.09-8.77,75.85-6.52,21-20,39-30.1,56.36-8.73,15-19.55,27.77-30.82,39.69-1.35,1.43-3.4,4.34-5.82,2.88-1.21-3.11,2-4.6,3.23-5.92,10.66-11.17,19.14-27.55,27.39-42.87,9.5-17.67,18.56-37.14,24.66-58.55,14.43-50.59,11.14-116.84-20.69-144-2.67-2.29,6.11-.15,8.24,1.74,2.66,2.38,4.09,4.92,6.24,6.9,5.22-.33,44,12,48-.33,2.11-11.67-33.35-34.86-59.47-39.52-27.71-4.94-50-3.38-70.25,3.13-2.74.88-5.48,2.18-8.35,2.12.27-5.38,6.09-7.09,9.65-9,2-1.07,4.23-1.88,6.38-2.78s4.72-1.41,6.35-2.48c2.37-1.54,5-6,7.3-8.77,7.08-8.5,17.65-20.44,18.51-30.16-2.91-13.69-42.22-4.38-55.29,4.41-10.12,6.8-18.49,17.79-26.14,28.19-2.49,3.39-4.43,7.66-8,9.64-3.11-4.1,2.92-11.33,3-14.7.05-2.26-3.89-7.14-5.41-9.35a91.74,91.74,0,0,0-13.68-16.27c-5.64-5.19-12.89-8-16.07,1.12-1,2.74-2.3,7.94-2,11,.24,2.47,11.43,20.65,15.31,36.94.3.42,0,.83,0,.32-17.72-26.55-38.48-52.81-70.05-68.38-7.32-3.6-29.12-7.73-52.74-13.8,25.64-4.62,56.59,4.23,66.47,10,14.06,8.23,24.81,18,35.35,28.41.88-11.66,5-22.14,15-21.34,15.59,1.24,25.14,17.36,33.15,32.54,11.11-16.65,29.54-34.64,53.52-36.67,13-1.1,32.4-.45,38.8,15.69-2.72,17-11.9,28-25.36,38.33-.09.25-.33.26-.36.58,17.77-2.54,37.41-.69,57.28,4.36A118.17,118.17,0,0,1,723,281.68a29,29,0,0,1,8.45,20.67c-1.12.23-1.36,2.79-2.14,3.84-3.94,5.35-17.7,8.86-26.77,8.06C692,313.31,683.3,306.55,674.83,305.88Z"/><path class="cls-13" d="M552,485.42c1.8-38,47.19-61.09,73-47.63,36.79,19.17,46.09,69.88,26.21,108.47-9.24,18-23.65,35.35-41.43,37.9-15.55,2.23-32.24-3.09-46.6-7.74-12.37-4-24.8-8.29-30.38-25.67-7.48-23.32,2.33-37.15,11.61-51.06a79.82,79.82,0,0,0,5.79-11.46Z"/><path class="cls-6" d="M530.69,543c29.16,11.89,54.09,33.25,84.59,20,26.13-11.35,43.17-49.76,39.87-85.48,11.83,7.74,1.44,51.23-2.78,61.47-7.27,17.68-16.71,31.28-31.92,39.14-13.34,6.89-31.77,11.73-46.69,9.4-12.53-2-34.65-10.19-38.67-28.46Z"/><path class="cls-6" d="M575.5,506.33c3.79-8.3,16.43-4,18.77,4.32s-3.65,19.14-8.46,23.31c3.94,6.3,16.56,5.52,19.74-1,3.39-7-.26-23.38,1.72-31.62,4.53-18.91,16.1-29.48,30.19-33.29-11.63-15.26-31.21-9.49-44.25-3.39-15.44,7.22-19.45,27.44-20.66,47.35a29.79,29.79,0,0,0,4.88-4.67Z"/><path class="cls-7" d="M530.79,541.57c.66-.35,1.36,1.74,2.09,3,11,18.58,27.37,32.49,48.68,35.37,26.68,3.61,47.22-10.93,59.25-26.65,11.62-15.2,23.38-42.14,14-72.32-4.17-13.37-10.62-21.74-19.28-29.26-8-7-17.83-12.4-30-12.36-31.86.12-42.66,25.48-54,47.08,1-6.41,1.65-13.15,3.63-18.88,3-8.57,10-17.88,16.08-23.62a47.61,47.61,0,0,1,26.75-13.09c14.33-2.08,25.13,2.06,35.18,8.21a65.6,65.6,0,0,1,24.06,25.72c6.49,12.47,10,28.92,9.3,44.95a89.63,89.63,0,0,1-10.14,38c-10.95,20.6-27.56,37.53-51.81,42.61a67.15,67.15,0,0,1-59.67-16.47,37.9,37.9,0,0,1-6-6.36C534.55,561,533.41,551.68,530.79,541.57Z"/><path class="cls-7" d="M624.84,460.87c-13.33-.47-27.22,4.41-34.16,12.56S579.73,493,576.49,504.62c1.7-.93,2.52-2.3,3.91-3.19,15.23-9.74,30.88,5,30.39,23.52-.29,10.64-7.81,15.22-13.56,16.52-7,1.59-11.64-3-14.89-8.19,8.48,3,17.46,0,19.25-7.89,2.12-9.34-6.26-18.94-12.62-18.67-4.86.21-8.67,3.15-11.13,6.64s-2.82,6.16-2,12.75c-3-2-3.94-9.4-4.19-14.8-.59-12.63,1.7-24.83,6.65-34.1,5.1-9.57,12.67-15,21.16-18.51.29-.13.38-.28.63-.34C608.86,456.16,618.5,457.34,624.84,460.87Z"/><path class="cls-19" d="M277.81,517.18c-3-1.27-9.3-18.82-12.83-24.1-6.61-9.9-14.63-13.41-24.25-6.55-20.13,14.35-12.38,48.87-2.27,68.68,7,13.79,29.68,33.15,37.74,12,2.79-7.33,3.33-17.06,3.82-25.36.47-7.83,1.38-19.43-2.54-26.46Z"/><path class="cls-20" d="M263.42,500.38c-14.48-10.43-19.71,22.08-12.65,43.79,8.71,26.71,26.8,18,29.45-2.29,2.1-16.2-7.94-45.54-18.09-41.4Z"/><path class="cls-28" d="M278.7,530.2c1.06,11.22-2.61,20.33-8.21,20.34s-11-9-12.06-20.27,2.62-20.32,8.22-20.34S277.64,519,278.7,530.2Z"/><path class="cls-22" d="M262.39,521.92c.75,7.92-2.81,14.34-8,14.36s-9.91-6.38-10.66-14.29,2.81-14.34,7.95-14.36S261.64,514,262.39,521.92Z"/><path class="cls-22" d="M414.31,488.48c1.56,11.64-5,22.07-14.59,23.3s-18.68-7.21-20.25-18.84,5-22.07,14.59-23.3S412.74,476.85,414.31,488.48Z"/><path class="cls-29" d="M233,530.73c-3.68-23.37,13-74.89,46.94-7.86-22.08-80.53-60.86-34.42-56.36,6.27,5.05,45.5,30.19,61.11,58.34,41.66C259.12,580.48,239.21,570.29,233,530.73Z"/><path class="cls-13" d="M262.86,475s20.43,53.19,12.25,96.13L272.72,589S316.38,536.24,262.86,475Z"/><path class="cls-12" d="M288.63,609.24c13.5,3.26,21.63-6.64,22.91-19.36-3.19.67-4.8,3.54-7.22,5.23a19.77,19.77,0,0,1-8.47,3.4c-10,1.62-16.66-7.14-19.09-14.61a23.33,23.33,0,0,1-.45-4c-.15-.85-.68-.61-.76-1.11-.72-4.86.69-8.3,3.85-9,6.66-1.57,14.6,4.22,19.43,5.6.6-3.28-2.86-6.83-6.33-8.85-12.71-7.41-26.39-3.84-25.85,11.41l-.56-.21c.15,2.63.48,5.69,1.05,9.29C270.54,597.77,277.1,606.46,288.63,609.24Z"/><path class="cls-25" d="M456,484.39s22.58,5.16,33.37-18.26c0,0,2.26,26.82-24.09,38.66Z"/><path class="cls-25" d="M447.33,469.18s16.11-6.17,18.29-27.09a40,40,0,0,1-6,37.26Z"/><path class="cls-25" d="M229.22,532.35s-16.09,13.72-35-2.25c0,0,18.64,24.68,38.44,21.43Z"/><path class="cls-25" d="M227.05,511.47s-12.67,7.14-24.7-11.83c0,0,7.2,23.38,22.71,30.65Z"/><path class="cls-18" d="M378.54,402.07c-.87,5.23-8.81,7.66-17.71,5.43S345.4,399.21,346.28,394s8.81-7.65,17.72-5.42S379.42,396.84,378.54,402.07Z"/><path class="cls-30" d="M543.9,19.46C463.9.15,395.71,1,391.59,21.43S449,74,529,93.35s148.2,18.44,152.31-2S623.91,38.78,543.9,19.46ZM529.28,81.23C458.06,64,402.9,37.32,406.07,21.56S469.56,7,540.79,24.18,667.17,68.09,664,83.84,600.5,98.42,529.28,81.23Z"/><path class="cls-19" d="M430.66,45.55s124.86,72.89,215.8,43.93C646.46,89.48,556.75,101.43,430.66,45.55Z"/><path class="cls-31" d="M543.81,14.28C457.18-6.64,383.07-4.3,378.27,19.51s61.53,60.05,148.15,81S687.16,119.05,692,95.25,630.43,35.19,543.81,14.28ZM529,93.35C449,74,387.47,41.83,391.59,21.43S463.9.15,543.9,19.46,685.43,71,681.31,91.39,609,112.67,529,93.35Z"/><path class="cls-31" d="M540.79,24.18C469.56,7,409.25,5.81,406.07,21.56s52,42.47,123.21,59.67S660.81,99.59,664,83.84,612,41.38,540.79,24.18Zm-9.63,52.37C465.38,60.67,414.26,36.85,417,23.34s58.26-11.57,124,4.32,116.9,39.7,114.18,53.2S596.94,92.44,531.16,76.55Z"/><path class="cls-19" d="M322.35,648.67c1.41-.73.85-2,2.44-2.71,16.67,7.35,59.38-6.83,78.35-15.51,3.75,1.93,8.33-.08,12.37,1.61,6.51-3.24,9.69-3.11,12.74-6.75,3.08.87,6.59,2,8.47,4.18-7.94,10.65-20.69,22.33-42,30.53-7.27,2.79-25.12,7.28-32.33,8.13-3.54.42-9.08-.63-12.83-1.06-4.76-.55-8.28-1.05-12-1.78-5.55-1.09-18.15-3.64-20.18-7.11s1-7,1.29-10.37C319.81,646.94,320.53,649.08,322.35,648.67Z"/><path class="cls-19" d="M354.05,624.93c32.15-8.18,56.63-25.3,84.61-33.23.06.26.12.52.17.78-1,14.14-7.31,27.64-18.95,38.46a27.89,27.89,0,0,1-5.21,3.85c-3.76-1.43-6.92-3.66-10.62-6.25-20.11,6.76-53.61,21.53-73.19,17.48-15.44-3.2-27.62-12.37-31.35-23.8C314.57,626.7,330.61,630.89,354.05,624.93Z"/><path class="cls-32" d="M420.83,603.46c-21.37,4.65-38.18,15.15-58.64,21.34-20.24,6.12-37.37,5.51-55.16,2.7-2.48-.38-11.64-.65-6.85-4.17,3.22-2.36,10.72.68,13.77,1.24a120.26,120.26,0,0,0,29.79,1.67c19.1-1.38,38.4-11.52,54.4-18.89,6.11-2.81,10.77-5.11,18.09-6.54Z"/><path class="cls-32" d="M409.73,601.85c9,1.86,10.17,11.27,10.36,17a13,13,0,0,1-2.67,9.3c-1.63,2.27-4.31,0,.72.82,6.78-3.6,8.32,10.17,6.94,13,2.83.89,5.07-2.31,7.88-4.25,3.79-2.6,4.83-7,6.57-10,4.32-7.45,2.11-15.56,2.53-22.74.25-4.31,4-16-7.08-13.12-3.36.85-8,3.59-11.53,4.78-4.43,1.47-9.31,2.51-12.43,4.84Z"/><path class="cls-33" d="M293.33,626.28c2.74,3.13,4.6,7.42,7,11.32s4.9,7.79,6.07,11.78c1.51,5.18,3.58,10,9.36,13.19,7.79,4.23,35.14,11.89,57.23,6.84,35.23-8,45.6-16.92,56.31-25.18,17-13.12,24.59-33.85,19.76-51.22,2-.16,3.78,2.53,5.35,3.76.72-5.62-3.27-9-11.35-8.2-7.88.82-19.83,2.81-83.71,30.31-36.06,13.5-55.2-4.1-67.09,0C286.09,620.66,291.65,624.37,293.33,626.28ZM324.79,646c16.67,7.35,59.38-6.83,78.35-15.51,3.75,1.93,22.06-1.5,25.11-5.14,3.08.87,6.59,2,8.47,4.18-7.94,10.65-26.47,28.6-68.3,36.64-23.45,4.51-50.67-3.92-51.07-7.93C316.61,651,323.2,646.63,324.79,646Zm-25.28-23.74c15.06,4.48,23.59,12.42,54.54,2.71,38.2-12,56.63-25.3,84.61-33.23.06.26.12.52.17.78-1,14.14-4.28,21.84-15.91,32.66-1.64,1.52-15.17,6-18.87,3.4-20.11,6.76-53.61,21.53-73.19,17.48C315.73,642.89,303.24,633.65,299.51,622.22Z"/><path class="cls-34" d="M176.27,524.85l367.19,84,21.9,38.83S407.49,952.09,409.63,958.87c.43,1.36,145.84-310,145.84-310L537,615.92S187.84,533.12,176.27,524.85Z"/><path class="cls-35" d="M543.74,650.17l-3.32-8.29c.06-.45-466.55,177.06-466.55,177.06l4,6.49,466-175.13Z"/><path class="cls-36" d="M74.9,820.62s24-1.48,26.44,22.12S79.5,881.87,56.2,861.6c-8.86-7.71-20.15-11.63-32-12.22-14.4-.71-17.71,2-19-2.07s2.5-2.37,14-13.79c6.89-6.85,12.1-18.73,15.17-28.87,9-29.79,35.49-34,45.6-20.67C96,805,74.9,820.62,74.9,820.62Z"/><path class="cls-37" d="M68.1,866.13c12.2,9.38,19.58-11.29,16.59-20.39S71.51,830.3,62.5,829.49c2.6-7.34,6-17.94-1.18-23.8-7.79-6.33-16.28-3.53-23.4,2,.29-9.81-1.51-18.75,5.73-26,5.3-5.3,12.21-5.25,20.17-5.07,13.91.3,19.64,12.49,19.62,23.64,0,4.41-4.35,13.11-3.51,16.45,1.53,6,13,4.34,18.17,7.65,15,9.64,8.83,41.32-8.87,44.63-3,.56-6.42.54-8.78-1.39Z"/><path class="cls-38" d="M106.94,846.44c-.17,12.33-6.73,22.88-17.12,27.52-11.45,5.12-25.35,2-37.18-8.25-7.56-6.57-17.48-10.34-28.72-10.89C18.77,854.57,2.1,855.53,0,849c-.36-1.11,10.37-14.38,15.32-19.29,5.22-5.2,10.24-14.88,13.79-26.6,5.17-17.08,16.55-28.76,30.44-31.26,9.74-1.76,19.21,1.64,24.71,8.87,4.82,6.34,7.21,12.93,7.12,19.62A29.51,29.51,0,0,1,86,816.56c9.3,2.74,19.18,9.92,20.78,25.63A35.74,35.74,0,0,1,106.94,846.44Zm-91.22-2.56c2.36-.08,5.26-.1,8.74.07,13.69.68,25.91,5.37,35.32,13.56,8.67,7.54,18,9.93,25.61,6.53,6.48-2.9,10.55-9.7,10.67-17.75,0-1,0-2-.13-3C94.08,825.09,76,826,75.24,826.05l-18.35,1.13,14.78-10.94c.06,0,8.72-6.68,8.85-16.09,0-4.2-1.6-8.53-4.9-12.88-3.07-4-8.35-5.8-14.14-4.76-9.78,1.76-18,10.63-21.95,23.71-2.38,7.86-7.7,22.37-16.53,31.16A85.64,85.64,0,0,1,15.72,843.88Z"/><path class="cls-13" d="M185.27,791.47c8.92,5,17.41,23.49,12.39,33.45-4.87,9.65-16.57,7.85-25.83,5.85-29.11-6.27-36.33-49.57-8.29-56.14,14.48-3.39,31.71-1.15,38.14,17.2-3,1.83-6.53,4.84-9.55,5.6Z"/><path class="cls-6" d="M150.66,806.49c-.76,5.94,6.65,7.8,11.5,7.65,6.46-.19,9.62-2.62,12.12-8.94,3.41-8.6,1.56-28.12-9.74-30.11,10.09-6.46,21.08-4.7,29.73,2.88,3.8,3.33,9.07,8,8.85,13.86-.25,6.9-6,6.54-7,12.23-1.9,10.23.64,22-11.25,27.87-10.13,5-23.82-2.44-29.86-11-1.21-1.71-2.26-2.94-2.68-5.17Z"/><path class="cls-7" d="M219.83,793.5c-15.35-14-33.27-19.2-47.14-18.66-12.66.49-22.06,14.49-20.37,30.32,2.55,23.89,41.32,32.62,42.89,7.68.64-10-7.17-14.79-10.48-20.07,15.65.59,20.33,24.74,11.07,36.16-17.31,21.36-56.42-2.47-51.52-35.45C148.84,762.74,191.23,757,219.83,793.5Z"/><path class="cls-13" d="M524.88,633.8c-13.46,2.62-7.86,24.42,2.94,27,5.3,1.27,12.56.18,17.71-1.4,7.34-2.26,6.78-.14,13.47.64,5.28.62,11.06-3.7,15.66-5.66,6.42-2.74-11.21,3.1-6.33,7.58,9.73,9,14.4,19.25,29,15.41,46.5-12.25,157.19-53.14,136.12-119.24-17.88-56-100.93-23.58-131.28,2.2-10.94,9.3-20.06,23.24-34.2,26.36-12.2,2.7-28.4-2.72-39.49,2.82-.46,6.93,9.55,16,15,19.4-3,2-31.94,22.61-22.79,24.84Z"/><path class="cls-6" d="M611.37,611c8.61,4.17,24.49.2,33.76-1.72A90.28,90.28,0,0,0,678,595.39c18-12.47,40.53-39.78,24.18-62.11a7.6,7.6,0,0,0-5-2.8c11.19,4.88,21.57,5.44,29.57,15.73S735.47,569.09,734,582c-4.07,34.69-36.13,55.7-65.47,68.24-21.71,9.28-42.36,18.51-65.85,23.38-12.49,2.59-20.89,8.08-30.48-3.19-4.24-5-10.33-16.07-6.81-22.68,3.06-5.74,10.19-4.2,15.82-4.83,6.76-.77,19.71.61,25-3.93,5.81-4.94,3.67-18,6.23-24.55Z"/><path class="cls-6" d="M518.25,642c-.75,9.25,9,10.43,15.85,7.67,7.49-3,9.91-9.29,9.62-17-2.86,18.61,21.22,20.06,15.64,6.86,11.91,1,22.53,1.72,33.42-5.27,8.25-5.3,17.38-14.49,18.11-25.2,12.68,6.64,9.18,27.38-.1,35.56-11.2,9.89-23.49,12.7-36.64,6.62-2,4.83-8.7,9.55-14.13,9.65s-9.86-5.26-15-5c-5.45.27-9.9,4.58-16,3.77-5.55-.75-14.42-4.38-11.81-11.39Z"/><path class="cls-7" d="M722.87,540.45c3.86,4.91,4.77,7.23,4.22,11.23-2,14.39-35.86,22.43-37.18,3.8-.39-5.38,3.71-10.59,9.26-12.67,8.79-3.28,14.86-1.48,16.05,3.45,1.62,6.72-12.16,11.46-15.27,5,0-4.33,5.17-3.63,7.16-3.86-3.91-3.4-10.48-1.3-10.5,3.06-.05,13.89,28.51,9.78,22.48-6.79-6.75-18.59-46.69-.33-31,20.66,9.63,12.9,36.37,6.53,41.35-5.77C731.76,552.86,728.88,540.36,722.87,540.45Z"/><path class="cls-7" d="M582.26,679.54c24.11-7.69,47.9-14.09,85.14-32.54,20.94-10.37,40.05-23.44,51.94-39.29,10.58-14.09,23.24-43.12,5.85-63.08-11.09-12.72-31.85-12.6-56.75-9.2-29.88,4.09-52,20.44-71.11,36.25-6,4.93-12.81,13.42-18.57,15.85-14.66,6.2-42-.06-46,2.61-2.2,6.28,7.54,10.81,14.4,14.15,5,.24,12.62-2.48,14.66,1.18-7.27,5-16.72,6.47-24.78,10.45-7.49,3.7-15.62,8-16.31,17.16,5.73-3.25,11.94-11.23,22-8.8-9.94,5.65-22.73,12.92-21,23.31,1.25,7.38,13,8.26,20.87,6.58-3.39-9.44-3.37-29,9.55-30.54-6.15,8.4-7.72,15.08-4.21,23.61,2.78,6.74,12.15,7.93,21.54,5.8-.56-6.25-9.86-6.29-8.15-12.56,8.76,1.9,16.07,9.16,28.26,8.25,13-1,19.94-9.25,27.28-16.46,3-1.32.38,3.75,2.43,3.48,36.11-6,65-17.7,84.06-38.59,3.46-3.81,4.65-9.58,10.13-11.64-.36,7.85-5.69,15.19-11,20.44-17.19,17.06-46.05,31.94-76.23,35.87-3.51.46-7.2-.33-10.16.7-4.28,1.5-8.26,7.56-13.39,10-6.41,3-17.31,4.32-25.17,1.45-3.52,1.5-3.12,5.31-6.81,7-7.1,3.3-17.86,1.69-22.06-2.85-16.94,10.53-42.25-.84-30.41-18.31-13.62-14.73,6.86-27.46,19.66-32-6.33-4.22-13.08-8-13-19.51,11.89-11.72,36-.45,52.7-7.28,5.56-2.29,13.46-12.13,18.53-16.59,24.15-21.24,51.16-37.82,98.67-38.15,26-.17,47.33,16.57,46.3,47.82-.86,25.79-22.08,48.44-42.27,63.41C671.3,657.94,624.53,680.76,582.26,679.54Z"/></g></g></svg>