<svg xmlns="http://www.w3.org/2000/svg" viewBox="0 0 1037.63 964.02"><defs><style>.cls-1{fill:#d4e9f1;}.cls-2{fill:#d5eaf2;}.cls-3{fill:#d6eaf3;}.cls-4{fill:#d7eaf3;}.cls-5{fill:#d8ebf3;}.cls-6{fill:#d9ebf3;}.cls-7{fill:#daecf4;}.cls-8{fill:#dbecf4;}.cls-9{fill:#dcecf5;}.cls-10,.cls-24{fill:#c95bbe;}.cls-10,.cls-11,.cls-19,.cls-28,.cls-32,.cls-38,.cls-39,.cls-40{fill-rule:evenodd;}.cls-11,.cls-21{fill:#ff9ef5;}.cls-12{fill:#e1e3e2;}.cls-13{fill:#dee2e2;}.cls-14{fill:#dde1e1;}.cls-15{fill:#dce1e1;}.cls-16{fill:#c3d3da;}.cls-17{fill:#b453aa;}.cls-18{fill:#e38eda;}.cls-19,.cls-35{fill:#73236b;}.cls-20{fill:#a1adff;}.cls-22{fill:#9c4792;}.cls-23{fill:#939de8;}.cls-25,.cls-28{fill:#962e8c;}.cls-26{fill:#851d2a;}.cls-27{fill:#d93ead;}.cls-29{fill:#d14388;}.cls-30,.cls-40{fill:#fff;}.cls-31{fill:#6b2245;}.cls-32{fill:#422400;}.cls-33{fill:#994591;}.cls-34{fill:#ed5192;}.cls-36{fill:#baff73;}.cls-37{fill:#a7e567;}.cls-38{fill:#471642;}.cls-39{fill:#451540;}.cls-41{fill:#8c4083;}.cls-42{fill:#b552ab;}</style></defs><g id="Layer_2" data-name="Layer 2"><g id="Layer_2-2" data-name="Layer 2"><path class="cls-1" d="M22.28,902.25c-7.72,3.85-11.82,7.88-11.82,12,0,10.87,28.17,20.92,76,29.1q-33.21-19.11-64.15-41.12"/><path class="cls-2" d="M46.89,893.55c-10.28,2.77-18.55,5.68-24.61,8.7q30.92,22,64.15,41.12c17.66,3,38,5.79,60.57,8.25A775.92,775.92,0,0,1,46.89,893.55"/><path class="cls-3" d="M75.46,887.14c-10.73,2-20.3,4.18-28.57,6.41A775.92,775.92,0,0,0,147,951.62c20.19,2.19,42.18,4.15,65.65,5.81A758.2,758.2,0,0,1,75.46,887.14"/><path class="cls-4" d="M107,881.94q-17.08,2.47-31.49,5.2a758.2,758.2,0,0,0,137.19,70.29c24.59,1.75,50.82,3.19,78.32,4.27a742.35,742.35,0,0,1-184-79.76"/><path class="cls-5" d="M806.25,903.78a727.85,727.85,0,0,1-155.92,50.65c100-9,164.88-23.67,164.88-40.16,0-3.6-3.09-7.11-9-10.49M141.33,877.55c-12.17,1.37-23.66,2.84-34.38,4.39A742.35,742.35,0,0,0,291,961.7c36.94,1.45,76.19,2.25,116.9,2.31a727.86,727.86,0,0,1-266.54-86.46"/><path class="cls-6" d="M179.12,873.76c-13.21,1.17-25.84,2.44-37.79,3.79A727.86,727.86,0,0,0,407.87,964h5c88.83,0,170.93-3.56,237.49-9.59a727.85,727.85,0,0,0,155.92-50.65c-4.79-2.76-11.41-5.43-19.72-8A137,137,0,0,1,769,897c-82.48,33.39-173.56,51.91-269.29,51.91h-.19c-116,0-225.12-27.24-320.42-75.14"/><path class="cls-7" d="M221.45,870.49c-14.68,1-28.82,2.08-42.33,3.27,95.3,47.9,204.44,75.11,320.42,75.14h.19c95.73,0,186.81-18.52,269.29-51.91h-.12a112.71,112.71,0,0,1-11.74-.6c-2.36-.25-4.93-.56-7.63-.89-10.83.35-21.54.39-31.57.39h-7.42a696.72,696.72,0,0,1-210.81,32.34h-.19c-99.47,0-193.74-20.73-278.09-57.73"/><path class="cls-7" d="M270.77,867.7q-25.54,1.2-49.32,2.79c84.35,37,178.62,57.71,278.09,57.73h.19a696.72,696.72,0,0,0,210.81-32.34h-.95c-.46.16-.91.33-1.34.51a13.23,13.23,0,0,1-5,1.1,18.07,18.07,0,0,1-6.3-1.52l-.57-.2a485.41,485.41,0,0,1-52.75-3.55,678.39,678.39,0,0,1-143.85,15.32h-.18A671.12,671.12,0,0,1,270.77,867.7"/><path class="cls-8" d="M333.48,865.48c-21.57.53-42.54,1.28-62.71,2.22a671.12,671.12,0,0,0,228.78,39.84h.18a678.39,678.39,0,0,0,143.85-15.32c-11.18-1.43-22.33-3.34-33.59-5.88-3.77-.85-8.06-1.53-12.45-2.41a32,32,0,0,1-11.47-2.73,658.44,658.44,0,0,1-86.34,5.66h-.18a652.12,652.12,0,0,1-166.07-21.38"/><path class="cls-9" d="M412.84,864.51c-27.17,0-53.7.34-79.36,1a652.12,652.12,0,0,0,166.07,21.38h.18a658.44,658.44,0,0,0,86.34-5.66c-4.79-1.93-9.59-4.48-15-6.15-3.28-1-18.51-5-20.15-6.43a5.49,5.49,0,0,1-.94-1.14c-12.24-.55-24.78-1-37.53-1.43-4.22.08-8.44.12-12.69.12h-.16q-20.87,0-41.38-1.34-22.32-.32-45.34-.32"/><path class="cls-9" d="M458.18,864.83q20.51,1.33,41.38,1.34h.16c4.25,0,8.47,0,12.69-.12q-26.47-.84-54.23-1.22"/><path class="cls-10" d="M947.7,765c-2,17.08-9.27,34-15.19,49.9-7,18.72-21.17,27.34-37.31,37.63-16.63,10.61-32.29,21.22-51,27.8-28.08,9.87-57.55,19.17-87.05,16.09-14.08-1.47-35.71-5.38-48.91,0-5.07,2.06-7.89.82-11.35-.42a21.12,21.12,0,0,0-8.79-1.5c-15.3.72-30.28-2.27-45.19-5.26-14.68-3-29.29-5.89-44-5.29-9.79.4-17.69-5.74-27.86-8.87-3.28-1-18.51-5-20.15-6.43-4.39-3.91-1.66-16.68-1.12-22.26,2.4-24.92,12.9-50.22,27.13-70.88,15.17-22,45.87-16.63,74.63-11.21,15.2,2.86,29.85,5.72,41.39,4.53,15.34-1.59,30.33-6.84,44.34-11.24s31.14-10.39,43-19.46c7.26-5.57,11.51-7.81,12.48-16.33.94-8.27,2.88-15.07,5.06-23,4.37-15.94,4.85-30-3.15-45.06-2-3.84-13.51-16.43-12.51-20.17,2.23-8.3,24.38.53,30,1.7,17.49,3.62,36,8.56,47,23,5.7,7.49,12.37,14.71,17.1,23,.23-13.35-11.4-24.51-16.25-36,8.7-.76,17.2,8.53,23.88,13.28,8.17,5.81,17.45,10.5,24.73,17.27,11.47,10.68,17.07,22.68,20.36,37.46,5.47,24.61,3.36,50.45-.82,74.63,8.85-2,18.1-16.91,22.66-24.53a27.14,27.14,0,0,0-3-1.22V765"/><path class="cls-11" d="M941.84,795.93c-2.26,27.23-33.83,56.72-55.73,67.61a102.11,102.11,0,0,0,5.45-21.37c-27.68,11.73-41.68,15.73-93.5,3.29,9.13-5.84,15.86-18.32,19.63-29.22-22.39,3.67-47.47-.69-64-10.26,23.15-2.48,43.37-30.72,54.41-49.28-11.31,7.74-23.4,5.69-35.47,9C790,741.6,802.33,731.55,803.9,700c1.35-27-3.42-52.2-23.78-69.57,28.83-5,86.38,18.8,95.3,47.42,1.88-10.41.58-21.47-6.9-29.57,22.53,6.91,41.64,25.79,51.33,47.72,10.2,23.07,21.87,79.16,5.8,101.15,7.26-9.34,21.44-19.45,24.22-27.43-3.53,13.9-7.93,28.35-12,42.22l4-16"/><path class="cls-12" d="M912.26,678.51l-.47.47a63.6,63.6,0,0,1,7.63,9.83,41.83,41.83,0,0,0-7.16-10.3"/><path class="cls-12" d="M906.2,673.7c.8.66,1.58,1.35,2.34,2,1.14,1.07,2.22,2.14,3.25,3.23l.47-.47a29,29,0,0,0-6.06-4.81"/><path class="cls-13" d="M941.84,771.94c-5.42,6.7-7.52,10.69-10.37,14.55,3.71-2.07,7.37-5.94,10.61-10.15-.06-1.45-.14-2.92-.24-4.4"/><path class="cls-14" d="M940.6,800.88l-2.24,9c.13-.33.26-.65.38-1,.15-.49.3-1,.44-1.49.55-2.12,1-4.3,1.42-6.51"/><path class="cls-15" d="M925.34,834.88q-4.67,3.36-9.4,6.63a139.58,139.58,0,0,1-11.57,10.21,71.14,71.14,0,0,0,21-16.84"/><path class="cls-14" d="M888.33,856.9c-2.74,1.76-5.46,3.49-8.19,5.19l7.52-3c.23-.71.45-1.43.67-2.15m50.56-48.42-.15.4-.9,3,.52-2.06c-4.55,11.24-12.92,22.28-22.42,31.65q4.74-3.27,9.4-6.63a68.57,68.57,0,0,0,13.55-26.4"/><path class="cls-16" d="M650.42,890.7c-2.28.52-4.55,1-6.84,1.52a485.41,485.41,0,0,0,52.75,3.55,20.73,20.73,0,0,0-7.19-1.32c-.34,0-.68,0-1,0-1.57.08-3.13.11-4.69.11-11.12,0-22.09-1.78-33-3.88"/><path class="cls-16" d="M602.81,883.84c-1.31,0-2.61,0-3.92.08l-.9,0h-.45c4.39.88,8.68,1.56,12.45,2.41,11.26,2.54,22.41,4.45,33.59,5.88,2.29-.5,4.56-1,6.84-1.52l-7.5-1.49c-13.38-2.68-26.7-5.37-40.11-5.37"/><path class="cls-16" d="M726.14,893.64a63.81,63.81,0,0,0-11.48.92c-1.37.45-2.74.89-4.12,1.32H718c10,0,20.74,0,31.57-.39a199.94,199.94,0,0,0-23.39-1.86"/><path class="cls-16" d="M714.66,894.56a36.47,36.47,0,0,0-5.07,1.32h.95c1.38-.43,2.75-.87,4.12-1.32"/><path class="cls-17" d="M596.59,826.23A42.1,42.1,0,0,0,584,827.92c-13.82,4.35-22.65,24.83-14.55,40.08,5.48,10.32,17.07,13.74,28.07,15.93H598l.9,0c1.31,0,2.61-.08,3.92-.08,13.41,0,26.73,2.69,40.11,5.37l7.5,1.49c10.91,2.1,21.88,3.88,33,3.88,1.56,0,3.12,0,4.69-.11.35,0,.69,0,1,0a20.73,20.73,0,0,1,7.19,1.32q6.57.12,13.26.11a36.47,36.47,0,0,1,5.07-1.32,63.81,63.81,0,0,1,11.48-.92,199.94,199.94,0,0,1,23.39,1.86c21-.68,42.51-2.54,60.37-7.61,23.88-6.79,47.53-16.57,70.24-25.8,2.73-1.7,5.45-3.43,8.19-5.19a99.17,99.17,0,0,0,3.23-14.73c-15.88,6.73-27.25,10.91-43.84,10.91-12.34,0-27.56-2.31-49.66-7.62a32.24,32.24,0,0,0,6.4-5.51c-18.26,4.57-37.43,6.25-56.62,6.25-12.7,0-25.42-.74-37.89-1.85-20.63-1.83-40.06-5.3-60.37-8.49-14.57-2.3-35.64-9.63-53-9.63m345.49-49.89c-3.24,4.21-6.9,8.08-10.61,10.15-.41.56-.84,1.11-1.29,1.67a34,34,0,0,1-4.53,9c4.34-5.59,11.16-11.45,16.54-17,0-1.26-.06-2.53-.11-3.82m-36.6-103.05A92.2,92.2,0,0,1,919.85,696a153.74,153.74,0,0,1,7.87,24c-1.31-11.66-3.93-22.56-8.3-31.21a63.6,63.6,0,0,0-7.63-9.83c-1-1.09-2.11-2.16-3.25-3.23-.76-.7-1.54-1.39-2.34-2l-.72-.41"/><path class="cls-18" d="M938.74,808.88c-.12.33-.25.65-.38,1l-.52,2.06.9-3m.44-1.49c-.14.5-.29,1-.44,1.49l.15-.4c.1-.36.2-.72.29-1.09M891.86,662c3.21,25.07,16,46.77,16,74.41,0,20.86-5.29,34.76-17.49,51.54-17.83,24.52-49.76,41.38-78.46,50q-3.69,1.11-7.44,2a32.24,32.24,0,0,1-6.4,5.51c22.1,5.31,37.32,7.62,49.66,7.62,16.59,0,28-4.18,43.84-10.91a99.17,99.17,0,0,1-3.23,14.73c-.22.72-.44,1.44-.67,2.15q3.33-1.35,6.65-2.65a94.46,94.46,0,0,0,10.06-4.68,139.58,139.58,0,0,0,11.57-10.21c9.5-9.37,17.87-20.41,22.42-31.65l2.24-9a110.22,110.22,0,0,0,1.59-20.72c-5.38,5.52-12.2,11.38-16.54,17a34,34,0,0,0,4.53-9,57.86,57.86,0,0,1-9.64,9.11c5.75-15,10.44-48.41,7.18-77.25a153.74,153.74,0,0,0-7.87-24,92.2,92.2,0,0,0-14.37-22.69,27.25,27.25,0,0,0-11.62-3.3l-2-8"/><path class="cls-19" d="M768.27,629.56c.8,3.42,4.4,2.5,6.56,3.75,6.19,3.61,11.48,12.44,15,19.22a68.91,68.91,0,0,1,7,27.2c1.41,22.65-7.5,39.37-19.22,51.1-29.29,29.28-91.62,33.91-147.21,31.41-1,3.36-3.07,5.68-3.75,9.37,41.42,2.93,84.6,2.35,118.61-9.37,31-10.67,59.75-32.23,62.35-68,2.18-29.91-8-47.72-22.5-61.89C819,639.92,844.45,656,866.25,676c3,2.79,6.13,6.33,10.31,7.51-5.71-16.92-19-30.34-35-40.35-15-9.37-35.6-16.65-55.52-17.32C779.17,625.58,772.23,625.42,768.27,629.56Z"/><path class="cls-19" d="M913.13,812.4c1.49.64,3.5-1.69,5.16-3.28,9.86-9.47,17.48-27.62,18.75-45,3.24-44.55-15.67-82.52-41.26-106-12.45-11.41-29.32-19.6-51.1-21.1-1,2,2.14,2.34,2.81,2.81,20.1,14,42.66,31.13,46,62.36,2,19.16-3.7,38.93-8.44,55.32,4.91-5.28,9.26-12.84,12.66-20.63,10-23,6.35-51.73-7-70.32-.09-.38-.47-.47-.47-.94,19,20.24,36.56,49.49,36.56,89.08A126.49,126.49,0,0,1,913.13,812.4Z"/><path class="cls-19" d="M950,752.49c-8.63,39.33-23.73,83.91-71.1,107.73-85.26,42.89-211.11,28.61-308.95,13.6-8.08-1.25-20.71-7-22,2.81,62.52,14.63,159.21,31.1,239,22.64,56-5.94,92.77-23.32,127.59-51.81C956.72,812.93,950,752.65,950,752.49Z"/><path class="cls-20" d="M346.6,883c9.71,2.62,32.3,11.33,26.91,27.87-2.67,8.18-12.62,6.35-18,7.84-9.51,2.63-11.25,3.94-21.37,1.7-6.81-1.5-11.85-.38-20.15,0-8.05.38-15,.14-22.07-2.61a43.94,43.94,0,0,1-20.86-17.53c-10.59-17,1.54-25.45,18.74-28.1,7.2-1.11,18.69-2.78,25.15,1.24Z"/><path class="cls-21" d="M372.7,916.05c5-12-3.88-21.07-10.54-23.16,4.51-14.54-76.8-14.9-81.49,10.44-3.45,18.66,28.74,17.42,42.18,16.74,7-.35,15.18,1.09,23,0,3.9-.56,6-1.94,9.22-2.78,4.79-1.25,6.2-.7,10.77-1.17,2.64-.27,3.81.63,6,1.07,1.8-.41-.07-1.07.93-2.12Z"/><path class="cls-10" d="M13.72,755.61c1.45-23.43,8.17-46,17.46-67.62,7-16.23,20-29.18,26.64-44.83,6.61-15.45,13.24-29.88,24.73-42.49,21.72-23.84,43.79-48.07,66.19-71.93,10.58-11.26,21.62-21.8,31.66-33.58,13.94-16.35,99-155.42,121.93-161.6,17.61-4.75-7.11,48.07,11.1,51.33,24.27,4.35-10.27,83.09,4.62,101.18l.12.14c82.94-15.85,173.92-3.42,247.15,30.28,32.34,14.88,63.5,30.29,96.64,43.19,11,4.27,27,6.68,36.7,12.47l12.47,24a8.43,8.43,0,0,1,1.92-3.5c14.94,28.93-8.37,60.49-24.22,83.12-3.31,4.73-13.64,13.46-14.2,18.18-.59,5,6.36,14.85,7.75,20.15,3.44,13.12,6.54,34-3.15,44.9-5.43,6.12-10.18,6-13.16,13.66-3.39,8.75-3.22,19.07-6.74,28.09-7.47,19.15-21.88,23.21-36.45,35.44-12.8,10.73-20.48,25.59-34.54,34.32-38.74,24.07-92.63,24.14-136.22,18-24.64-3.45-49.79-5.39-74.13-11.06-20.87-4.87-42.56-5.78-63.1-10.79-30.52-7.44-61.86-14.49-88.27-29.38a101.09,101.09,0,0,1-16,2.28c-8.87.43-23.27,5.74-30,4l-5.76-2.88c5.13,9,2.61,28.79-3.5,36.5,12.44-3.08,31,4.65,40.94,12.67,4.52,3.63,11.59,12.65,6.5,18.75-4,4.77-15.85,1.88-20.65.34-9.91,14.35-29.41.52-42.47-.15-20.38-1-36.5-5.22-55.64-11.51-32.72-10.76-66.87-35.51-79.84-68.86C12,807.27,12.3,778.5,13.72,755.61Z"/><path class="cls-22" d="M127.22,786.94c48.71,15.28,54.45,114.66-8,74.5-16.36-10.53-34.41-30.26-36.08-50.52C81.68,792.56,98.41,774.8,116.52,783c-38.41-.64-51.78,8.19-58.82,44.32-6.83,35-2.76,59.64,33.64,67.42,13.6,2.91,27.77,6.44,41.88,8.54,4.43.65,19.95,4.81,24.08,1.66,8.1-6.19-.77-12,3.31-18.69,2.78-4.54,11.89-3.81,15.13-8.86,4.29-6.7,3.54-16.45,3.45-24.53-.17-16.41-5.27-30.27-18-42Z"/><path class="cls-23" d="M173.45,828.11A21,21,0,0,0,160.77,824a45.52,45.52,0,0,0-8.91-9.11c1.73-1.72,3.47-3.45,5.15-5.19A118.64,118.64,0,0,1,173.45,828.11Z"/><path class="cls-10" d="M624.92,721a162.28,162.28,0,0,0,16-17.62,97.09,97.09,0,0,0,9.71-15.52c26.64-24.12,42-59.88,58-91.93a8,8,0,0,0-1.53-9.74c4.27-3.73,12.18-25.57,17-27.9l19.43-9.71c0,30.45-1.65,92.07-8.45,121.38-5.53,23.83-13.17,47.83-17.27,72.16a720.48,720.48,0,0,0-10.52,119.7c0,8.88-.3,17.89.14,26.72,11.89-3.4,18.29.67,18.08,14.54-.18,12-6,16.16-16.57,9.95-4.51,8.42-21.41,7.33-25.8-.2-7.74-1.41-14.62,2.13-22.11-.86s-9.63-8.24-13.92-13.93c-8.27-11-17.88-21.69-26.88-32.38-14.87-17.67-11.29-51-9.83-72.86A292.13,292.13,0,0,1,624.92,721Z"/><path class="cls-22" d="M18.27,724c10.81-34.13,31-71.58,50-102,25.17-40.22,64.24-66.35,91.95-104,10.25-13.89,109.86-156.49,121.32-167.86,31.37-31.12,95.73,108.23,95.73,108.23-31.9,1.5-155.39,79.08-149.84,199.79-24.82,19.9-73.06-19.92-83.3,11.77-9.3,28.8,1.11,56.77,15.64,82.41,7.82,13.78,15.8,26.37,9,41.59-2.5,5.59-11.2,6.84-16,11.84-37.13-34.23-95-45-90.45,62.07C10.27,865.9,9.71,751,18.27,724Z"/><path class="cls-22" d="M672,698c3,14.52,5.74,47.35-10.26,50.85-8,22.5-23.5,29.5-41.41,23.41C627.71,826.63,554,845.91,518,824.42c-18,23.49-83.86,22-104.3-18.14-41.63,9.64-64.76-20.62-69.62-53.73.8,18.78-2,38.2-2,57.37,0,14.57-6.56,36.39-2.1,50,8.84,27,85,27.79,110.05,30,37.12,3.25,46.58,5.17,82,0,21-3.07,51.41-13.22,70-24.44,14.58-8.78,22.09-22.55,34.48-33.14a106.59,106.59,0,0,0,7.65-7.68c-2.13,4.14-2.55,9-3.93,12.72,19.85-15.16,16.93-46.65,30.18-62.91,13.78-16.92,23.28-43.11,4.28-70.11Z"/><path class="cls-22" d="M621.59,831.33a8.28,8.28,0,0,0,7.9-1.91,92.68,92.68,0,0,0,12.36-12.3,65.18,65.18,0,0,0,22-52,7.52,7.52,0,0,0,8.88-3.27c.72-1.12,1.36-2.25,2-3.39a17.07,17.07,0,0,0,2.45-3.22,22.44,22.44,0,0,0,2.77-7.63c-1,21.5-5.45,45.06-5.91,54.29-.8,16.25-.85,34.38,2.45,50,3.23,15.32,13.63,29.28,15.54,44l-6,12c-7.77,11.66-27.47,2.19-35.76-6.55-18.89-19.89-28.1-42.22-30-67.94C620.65,832.71,621.13,832,621.59,831.33Z"/><path class="cls-23" d="M679.82,737.13a77.2,77.2,0,0,0-3.12-21.39c2.4,6,3.31,14.17,3.36,23.17C680,738.31,679.92,737.72,679.82,737.13Z"/><path class="cls-21" d="M218.91,902.06c-11.83-16-25.65-23.1-43.92-27-12-2.58-35.59-1.19-43.33,9.82-14.41,20.51,15.4,23.2,28.28,23.21,8.64,0,15.21,1.94,22.94,3.05,9.13,1.31,14.06-3.58,21.81-4.82,3-.49,5.11,3,9.22.77Z"/><path class="cls-11" d="M723.67,892.72c-8-6.72-18.4-7.07-24.26,1.88-9-11.39-26.28-8-32.33,4.92-7.47-5.28-18.09-4.22-12.88,6.93,2.83,6.06,18.74,9.42,23.6,10.58a160.05,160.05,0,0,0,23.58,3.73c8.49.41,14.74-4.75,24.16-4.43.27-2-.43-3.75-.25-5.7Z"/><path class="cls-19" d="M739.56,569.31c.47,0,.56-.38.94-.47,0-.29.07-.56.47-.47,0,.62.82.43.94.94,2.25,5.47,3,14.26,3.28,19.69,1.35,27.24-2.14,53.23-5.16,77.82-2.95,24.08-8,47.47-12.19,70.79-8.54,48.13-19.58,94.45-14.47,149,17.06-3,21.36,20.53,12.79,31.12-3.83,4.26-11.51,4.26-16.63.43-2.13,4.26-14.07,6-20.89,2.11-7.67,1.3-12.2-.16-18-.78-7.87-.86-18.71-3.89-23.92-8.44a52.9,52.9,0,0,1-5.42-5.68c-9.32-11.65-17.15-26.94-22.7-43.08-1.6-4.64-4.11-11.75-3.75-15,.4-3.71,4.61-5.85,5.62-9.85,3.51,18,12.63,36.5,21.57,50.16,3.11,4.77,6.3,11.32,9.84,14.54,6.88,6.24,27.37,12.18,30.94,7,2.4-1.25,2.4-3.8-.46-7-2.32-2-7.52-4.13-11.26-1.88,5.53-11.28,23-4.52,20.63,9.38,2.45,3.4,9.69,2.55,11.25,0,1.85-8.11-4.58-17.92-15.94-17.82,5.43-5.22,14-3.51,16.88-.46C698.07,771.62,732.89,681.15,739.56,569.31Zm-31.41,326.3c2.73,3.84,4,9.16,4.69,15,2.66,1.61,6.08,2.46,7.5.47C726,902.16,718.46,888.44,708.15,895.61Z"/><path class="cls-19" d="M642.84,823.56c.24-4,4.3-14-.47-17.81-3.57,1.89-3.72,6.75-5.16,9.84-5.86,12.65-16,24.1-26.25,33.29a134.7,134.7,0,0,1-36.1,23c-57.58,24.93-146.43,12.42-208.15,0-33.85-6.81-66.7-13.61-98-20.16-.63,1.41,2.82,4.06,4.69,6.1s4.14,5.53,6.1,6.56c2.39,1.26,7.4,1.77,11.72,2.81,55.7,13.43,114.7,29.38,180,31,38.05.91,71.14-2,99.39-12.19,27.82-10,47.87-27.73,63.76-48.76-1.32,3.68-2,8-3.75,11.25,14-7.67,25.42-25.07,31.88-43.6,5.77-16.52,11.93-48.56-3.28-60.48,11.06,29.32-7.7,66.84-16.41,78.77Z"/><path class="cls-19" d="M52.59,631.45c9.8-15.62,25.33-32.65,37-47.25,34.31-42.81,143.35-160.46,175-240.7,3.58-9.07,11.12,11,10,13.64C233,454.26,117.93,568.18,81.67,617.75c-23.28,31.82-47.33,68.3-55.79,113.93C20.91,758.45,17,788,23.32,811c8,28.82,15.78,37.09,30.22,52.4,12.11,12.85,29.75,22.26,48.29,29.07a147.1,147.1,0,0,0,67,8.44c.86-3.87,3.43-8.74-5.16-16.88,13.28,4.3,12.51,13.86,14.06,15.94,3.77,5.07,12.19,3.79,17.35.94.76-3.53-.22-8.31-12.66-15,6,1.29,11.89,2.88,16.41,7.5,2.46,2.51,3.15,7.37,6.57,8,1.87.32,4.45-.15,5.62-2.35,1.32-5.16-11.09-11.59-20-15a158.43,158.43,0,0,0-33.44-7.54c-.28-3.15,6.07-1.31,8.44-2.81,3.62-4,7-9.13,7.5-16.41.24-3.69-1.37-8.61,1.4-11.25,5.66.47,8.46,11,7,18.75-.84,4.59-4.77,7.13-4.68,9.84,13.75.89,32.86,7,41.25,15.94,2.49,2.65,4.88,7.87,3.75,12.66-2.6,11-12.92,11.94-22.3,9.39-5.11,6-22.17,3.41-29.42-.43-10.23,2.13-30.46,3.31-39,2.78-15.19-.94-29.47-5.16-41.72-10.31-26-10.92-46.33-22.55-66.47-48.45C15.46,846,2.3,821.88.42,790-4.37,708.5,32.78,663,52.59,631.45Z"/><path class="cls-19" d="M61,858.26c2.13-1.62-1.83-5.32-2.16-8.29-4.3-38.89,13-69,52.32-65.32,13.38,1.25,19.84,8.41,31.88,12.66C135,767,84.87,768.42,65.26,788.4,55,798.9,48.1,820.59,52.6,842.32,53.81,848.17,55.77,855.5,61,858.26Z"/><path class="cls-19" d="M663.91,772.64a10,10,0,0,0-.57-3.33c3.82-2.54,8.2-4,10.93-8.09,1.78-2.66,4.14-10,4.56-13.16,2.38-18-2.55-40.93-12.06-57.16h.47c18,11.64,32.93,72.48,5.63,83.45a21.55,21.55,0,0,1-9,1.4Z"/><path class="cls-24" d="M359.07,682.47c-.17,13.93-8.2,28.23-9.38,42.49-.59,7.16-.22,14.52-.22,21.73,0,15.78-1.91,30.36-1.91,46,0,16.94,2.47,32.64,3.88,49,1.29,14.85,4.54,28.06,6.55,42.07-16.11,2.37-30.74-5-47.1-.07-6.46,2-13,3.78-18.76,8.12-5.37,4-7.33,13-12.45,16.33-11.85,7.66-36.87-15.5-47.24-22.08-18.19-11.56-34.68-27.65-49.88-42.69-22.94-22.69-43.94-56.07-51.8-87.78-5.76-23.22-8.08-43.5-5.76-67.39,1.7-17.42,3.14-35.46,5.73-52.78,7.51-50.07,62-60.73,106.72-49.17a203.38,203.38,0,0,1,86.39,47.51c14.85,14,38,35.88,40.07,57.5.09,1.21-.59-.87-1-1.14Z"/><path class="cls-22" d="M145.66,591.48c10.72-9.6,61.4-42.47,90.93-49.63a146.64,146.64,0,0,0,15.1,12.34C220.07,628.88,219,704,230.62,749.51c12,47.43,37.46,118.59,93.51,134.38l-5.43-.06c-30.5-2.5-32.35,30.88-43.5,28-25.76-6.63-59.07-34.56-78-52-53.32-49.09-71-111.1-71-182.34C126.22,650.13,124.55,610.38,145.66,591.48Z"/><path class="cls-19" d="M358.2,888.33c8.7,3.64,18.76,25.17,2.9,24.8-.34-11.57-10.15-23.51-29.07-23,12.53,4.15,23.19,10.55,18.49,22.91-1.7,4.26-9.38,5.54-13.8,2.41,8.32-12.25-7.15-26.78-21.57-20.63,7.17,2.32,16.93,3.28,17.35,11.25.66,12.78-23,8.6-33.29,6.1-10.57-2.58-20.77-7.64-30.94-11.72-29.37-11.79-54.78-30.5-76.89-50.64-14.28-13-26.57-29.74-37-48.28a182.5,182.5,0,0,1-21.57-63.29c-4.93-34-1.7-73.36,3.75-104.08,1.85-10.44,4.51-20.83,4.69-31.41-5.6-4.85-6.56,2.52-8.44,8.9a308.8,308.8,0,0,0-8.44,36.57c-3.08,18-3.26,36.15-4.22,56.26-1.84,38.69,7.7,74.28,21.1,98.92,27.91,51.33,76.83,90.23,130.8,110.64,13.15,5,45.67,12.22,58.47,8.81,8.1,5.54,23.27,1.92,27.71-1.71,8.53.86,18.85-2,18.37-14.13C376.2,897.83,369.59,889.73,358.2,888.33Z"/><path class="cls-19" d="M360.16,678.26c-.4-.09-.44.18-.47.47-.38.08-.47.46-.94.46-23.63,50.87-20.57,140.3-8,201.13-19.56-4.23-49.58-5-64.58,21,22-20.5,58.37-16.57,76.3-11.17,2.66-4.91.6-6-.47-9.84-4-14.46-5.57-31-7.5-47.82-4.7-40.94-4.32-89.28,2.35-128.46,1.4-8.24,3.63-17.36,3.28-24.38Z"/><path class="cls-24" d="M695.23,113.85c.09,1.93,0,3.89,0,5.85-.84-20.39-13.31-45.26-21.56-63.72-4.53-10.15-8.76-20.82-14.48-30-18.74-30.13-44.64,1.4-57,23.23-5.46,9.64-16.61,14.92-22.84,24.59-4.74,7.31-6.59,22-6.44,31,.27,15.57,31.67,17.28,43.72,19.09,17.8,2.66,66.81,16.4,61.84-16.53Z"/><path class="cls-19" d="M568.27,97.81c7.94,1.52,6.76-6.11,9-10.33,21.23-25.18,41-51.89,66.94-72.37,10.33,14.75,18.68,31.47,25.71,50.41,6.77,18.21,9.91,38.87,18,56.86,9.77-8,3.65-23.86,1.28-33.62-7.93-32.51-24.1-64.13-41.18-86.57C647,2,646.77.88,645.5.91c-1.17-.79-2.31-1.58-2.59,0C625.79,5.38,606,25.4,592.72,41,578.73,57.35,565.34,77.13,568.27,97.81Z"/><path class="cls-24" d="M626.74,646.76s168-69.93,226.41-206.37c56.2-131.2-36.9-265.81-36.9-265.81s-69.54-106-202.12-113.74S319.32,128.05,282,252.13s21.57,218.14,26.73,220.7S397.84,581.7,535.6,564.9c0,0,58.32,23.3,91.14,81.86"/><path class="cls-21" d="M467.43,556.94s88.8,68,93,154c0,0,129.36-88.54,179.31-137.11C739.7,573.83,640.87,626.31,467.43,556.94Z"/><path class="cls-22" d="M356.24,161.54S326.37,525.59,615.89,590.23c0,0-158.5-.1-269.19-76.4C188.7,381.83,319,163.93,356.24,161.54Z"/><path class="cls-25" d="M663.45,139.73c1.88,3.38,6.42-68.48-68.22-85.29l-94,16.81S617.1,57,663.45,139.73Z"/><path class="cls-25" d="M854,429.25s11.58-59.47-46.34-89.19c0,0,50.2,1.3,63.07,43.95C870.71,384,865.56,422.78,854,429.25Z"/><path class="cls-25" d="M869.42,323.26s-20.59-37.47-66.94-29.73c0,0,41.19-25.84,65.68-3.88C868.16,289.65,883.59,318.1,869.42,323.26Z"/><path class="cls-25" d="M847.55,254.76s-10.31-16.8-36.06-10.35c0,0,12.89-19.36,37.34-10.32Z"/><path class="cls-25" d="M431.74,552s-56.65-84,18-156.39c0,0-87.55,37.48-58,146C391.81,541.68,422.71,557.2,431.74,552Z"/><path class="cls-25" d="M348.05,514.54s-38.62-100.8,50.21-157.69c0,0-94.79,11.55-95.67,120.15C302.59,477,330,506.79,348.05,514.54Z"/><path class="cls-25" d="M283.67,417.61s-19.31-77.55,101.72-98.23c0,0-82.4-18.09-121,42.64C264.36,362,268.23,402.09,283.67,417.61Z"/><path class="cls-19" d="M348.72,167.32c14.38-2.14,16.7-15.71,25.75-23.28,34.64-29,88.19-57.11,139-69.78C571.88,59.71,643.86,64.19,695,85.91c25.92,11,50,32.17,70.8,50.37,42.67,37.48,76.64,84.94,90.1,152.51,5.94,29.68,11.45,75.67,1.29,111.13C850.56,423,825.7,524.83,696.7,607.83,842.38,549.56,877.24,404.3,880.62,372.61c2.43-23.08-1-50.24-3.89-72.35-8.42-63.94-36.23-112.65-71.05-151-48-53-119.88-94.75-208.52-99.49-99-5.29-186.59,38.66-233,90.46-6.44,7.18-17.67,15.95-15.44,27.14"/><path class="cls-19" d="M523.7,580.83c-152-21-242.18-116.85-248.36-227.43-3.35-60,11-113.9,39.91-157.66.36-2.06-1.22-2.23-1.29-3.86h-2.57c-34.52,28.36-50.27,76.51-52.77,130.5C252.38,457,348.7,569.83,523.7,580.83Z"/><path class="cls-26" d="M695.66,268.48s-57.5,55.15-30.91,131.85c0,0,18,37.05-35.18,19s-25.8-133.42-.89-168C628.68,251.35,672.48,235.75,695.66,268.48Z"/><path class="cls-27" d="M657.9,423.6c6.94-8.52,1.59-27.73-4-35.4-7.9-10.66-22.47-16.67-34.57-20.78-8.34-2.83-11.18-4.59-12.87,4.5-1.34,7.19,2,15.27,5.31,21.48,7.48,14.13,21.61,25.25,37.61,27.62Z"/><path class="cls-28" d="M676.73,411.16c4.33,31.39-36,40.87-65.63,31,20.73,27.92,99,9.14,69.51-31Z"/><path class="cls-19" d="M627.41,246.17c-43.33,59.39-51.75,151.45,1.31,177.43,10.16,5,31.84,10.59,41.15,2.22-33.6-1.09-59.49-33.93-63.09-68.5-3.7-36.26,15.29-70.82,21.9-106C629.19,248.65,627.84,247.93,627.41,246.17Z"/><path class="cls-21" d="M719.69,272c9.12,14.3,28.86,2.68,32.61-9.48,4.69-15.26-2.83-27.22-17.17-33.81C708.19,216.28,671.35,219,645,231.2c-16.14,7.51-22.08,22.6-8.74,37.35,17.53,19.32,48.6,14,71.41,9.43Z"/><path class="cls-19" d="M625.46,250.07c-2.18-.49-2.43,1-2.56,2.57,8.37,36.54,64.87,53.1,94,27.14,15.94,12.66,41.13,0,38.62-22-4.91,13.27-15.44,15.52-30.9,15.5-3.17-1.11.37-9-2.59-10.34C706,289.18,633,277.11,625.46,250.07Z"/><path class="cls-29" d="M698.41,236.28c-1.77,1.89-2.58,8.38-.83,11.17.57,3.22,12.44-1.63,22.15,9.4,5.3-2.49,12.68-6.84,15.15-11,1.74-2.93,1.13-6.71,1.17-9.23C727.2,229.32,707,230.56,698.41,236.28Z"/><path class="cls-30" d="M724.07,233.26c.28,2.66-5.05,5.41-11.91,6.14s-12.66-.85-12.94-3.51,5-5.42,11.91-6.15S723.79,230.59,724.07,233.26Z"/><path class="cls-31" d="M742.89,231.84c.76,1.62,1.39,13.55-2,17.56-5.91,7-17.61,18.2-22.27,18-11.75-15.84-22.16-8.28-26.41-12.74-5.12-4-7.29-12.5-3.35-21.24s18.86-12,28.62-11.73C725.74,222,739.89,225.62,742.89,231.84Zm-6.84,4.74c-8.85-7.26-29.07-6-37.64-.3-1.77,1.89-2.58,8.38-.83,11.17.57,3.22,12.44-1.63,22.15,9.4,5.3-2.49,12.68-6.84,15.15-11C736.62,242.88,736,239.1,736.05,236.58Z"/><path class="cls-22" d="M743.51,225.2c-34.76-11.64-92.58-126.4-35.38-129,41.32-1.9,94.52,65.63,83.48,103.76l-48.1,25.26"/><path class="cls-30" d="M770.49,155.17c6.22,12.7,10.3,20.87,11.55,33.77.76,7.89,1.55,17.09-.21,22.62-2.83,8.87-11.49,10.89-18,12.89-6,1.86-11.76,1.22-19.23-2.66-4.67-2.43-8.19-8-12.22-14.94-4.93-8.43-8.88-20.33-11.45-29.21-6.89-23.55-3.93-45.57,6.73-51.46,4.26-2.36,9.15-3,14.87-1.28,3.29,1,7.62,1.64,11.18,4.31,5.5,4.13,12.52,14.62,17.54,21.22l-.75,4.74"/><path d="M716.86,177c3.28,11.89,12.55,19.7,20.77,17.4s12.17-13.74,8.91-25.62S734,149.06,725.79,151.33,713.58,165.09,716.86,177Z"/><path class="cls-30" d="M733.42,170.12c1.75,6.32,6.71,10.5,11.09,9.28s6.49-7.33,4.76-13.66-6.71-10.51-11.09-9.3S731.71,163.79,733.42,170.12Z"/><path class="cls-32" d="M742.46,217.31c14.8,7.49,46.39-12.72,36.46-44.06-8.22-25.87-31.65-46.47-41.64-46.29-22.38.4-23.84,45.06.59,87.15-6.52-3.08-12.42-14.79-15.64-22-16-35.91-12.05-69.59,3.39-77,13.59-6.56,42.45,9.47,58.1,42.89,29.51,63-21.57,82.27-41.26,59.34"/><path class="cls-24" d="M421.88,138.39c-8.82-14.49-34.95-20.77-49.79-26.51-11.74-4.56-23.07-10.26-35.14-14-19.22-5.88-39.43-14.39-59.3-16.17-11.08-1-30.2-.54-35.84,10.16-5.82,11.17-2.13,35.29-1,47.56a184.76,184.76,0,0,0,13,52.18c7.59,18.9,12.18,39.59,17.63,58.8,2.82,9.87,3.59,31.39,11.34,38.79,12.44,11.86,25.76-17.79,32.82-25.05,18.93-19.52,46.08-29.3,65.68-48.45,9.89-9.61,18.85-23,26.12-34.24,9.19-14.21,18.48-45.27,9.28-61.17Z"/><path class="cls-33" d="M376.66,219.85c3.47-10.75-19.35-38.22-28.07-44.93-9.86-7.59-21.08-12.66-32.34-14.35-.7,6.19,1.08,11.62.77,17.75-17.74-1.21-36.9-3.62-41,16.49-4.51,21.66,1.15,53.24,6.43,74.18,1.24,4.95,3.55,22.93,8.1,25.55,6.09,3.48,15.17-9,20.8-12.93,72.89-50.73,72.4-60.41,69.4-65.78Z"/><path class="cls-34" d="M374.53,186.34c-12.74-29.41-46.81-48.52-71.94-65.44-16-10.72-35-26.71-53.24-31.24-3.94,67.43,9.87,139.55,38.37,200.68C269,225.33,273,197.78,276,193.42c4.65-6.75,25.76-3.92,30.52-8.32,12.31-11.34-5.32-10.35-5.05-27.55,16.92-1.53,35.51,5.7,48,17.16Z"/><path class="cls-19" d="M229.65,88.51v1.31c3.54,5.1.88,20.27,1.29,29.69,2.83,62.66,18.57,131.25,46.33,169.32,3.6,4.89,6,15.67,14.16,14.22C264.37,244.93,255,169,243.81,95c28.83,16.75,63.18,36.3,86.25,58.15,2.53,2.37,8.28,6.8,6.43,10.32-9.5-4.95-30.55-15.55-44.23-12.16,6.88,6.91,10.54,15.76,9.48,25.08-17.05-.76-24.91,5.94-30.88,18.09,11.05-3.95,27.43-8.7,42-6.1,2.55-5.18,3.41-11.59,1.73-22.32,16.26,2.49,34.35,12.57,46.31,25.85,9.15,10.11,14.59,23.18,23.19,33.58-1.21-24.52-12.37-46.69-24.45-63.31-23.07-31.69-60.25-52.64-95.26-71.08,49,2.31,89.62,16.77,123.58,32.31,11.93,5.47,23.21,11.66,34.74,15.51C416.17,119,389,106.45,363.53,96.28S306.9,78.53,279.86,76.89C266.45,76.07,228.28,74,229.65,88.51Z"/><path class="cls-22" d="M600.18,248.42c57.08-20.33,37.9-86.32,28-106.64-14.68-30.37-45.92-53-77.15-57.77-66.58-10.09-126.94,45.46-94.66,116.87,14.13,31.24,58.64,78.32,95.13,54.33l48.65-6.79"/><path class="cls-35" d="M268.76,326.66S164.43,263.17,67.43,296.1c0,0,92.7-32.8,201.87,46.09C269.3,342.19,275.44,342.14,268.76,326.66Z"/><path class="cls-35" d="M264.92,345.44s-92.56-5.48-171.3,50c0,0,75.18-54,171.69-33.46A13.5,13.5,0,0,0,264.92,345.44Z"/><path class="cls-35" d="M259.49,370.29s-55.51,25.42-101,96.15c0,0,42.36-62.23,108.13-83.89C266.63,382.55,265,373.6,259.49,370.29Z"/><path class="cls-35" d="M836.14,188.92s96.47-88.6,201.49-86.2c0,0-100.6-3.53-199.43,100.65C838.2,203.37,831.87,205.09,836.14,188.92Z"/><path class="cls-35" d="M843.23,205.13s94-31.74,184.12-3.31c0,0-86.18-28.08-181.75,18.68C845.6,220.5,837.92,215.18,843.23,205.13Z"/><path class="cls-35" d="M853,226.43s61.18,7.45,119.66,59.49c0,0-53.82-45.12-125-46.1C847.64,239.82,847.91,231.07,853,226.43Z"/><path class="cls-36" d="M702.39,171.06s-15.7-90.54,54.77-48.12,74.46,158.53-5.85,113.7c0,0-38.76-26.19-48.92-65.58"/><path class="cls-37" d="M806.27,195.59s-1.47,28.62-28,28.62c-11.29,0-27.11-5.17-49.28-19.9,0,0,2.35,18.28,32.17,35.38a38.76,38.76,0,0,0,18.16,5.07c15.59,0,29.14-12.76,27-49.17"/><path class="cls-38" d="M749.69,136.52c-30.05-23.51-54.37-11.94-50.08,24.29,2.74,23.27,19.67,53.36,43.63,66.91,29.29,16.57,50.1-6.34,37.75-45.38C776.86,169.3,765.09,148.56,749.69,136.52Z"/><path class="cls-39" d="M701,178.55c-5.89-48.43,14.17-87.16,72.61-41.57,27.39,21.37,43,79,23.27,98.21-8.43,8.21-30.32,16.51-78-26.82,31.27,36.7,63.35,46.49,78.45,41.63,22-7.07,23.78-48.47,6.2-87.16-6.7-14.74-20.47-32.74-35.51-42.06C710,84.88,688.18,120.25,701,178.55Z"/><path class="cls-40" d="M748.44,127.36C735,116.84,724.09,122,726,138.13c1.23,10.38,8.81,23.82,19.55,29.9,13.12,7.42,22.44-2.77,16.91-20.19C760.62,142,755.34,132.75,748.44,127.36Z"/><path class="cls-36" d="M647,200.54s.78-98.42-98.28-100.12S444.17,234.47,511.25,255.68,633.71,271.8,647,200.54"/><path class="cls-41" d="M467.54,170.35a63.8,63.8,0,0,0,.76,31.4,97.45,97.45,0,0,1-.76-31.4"/><path class="cls-42" d="M608.75,259.92l-2.14.1c-10.26,4.59-22,6.64-34.91,6.64a172.25,172.25,0,0,1-38.77-5c-1,.08-1.95.11-2.93.11a43.93,43.93,0,0,1-10.46-1.3A100,100,0,0,0,561,269a132.75,132.75,0,0,0,47.74-9.07"/><path class="cls-41" d="M509.37,255.05a88.6,88.6,0,0,0,10.17,5.43,43.93,43.93,0,0,0,10.46,1.3c1,0,2,0,2.93-.11q-10.59-2.46-21.68-6c-.63-.2-1.26-.41-1.88-.63"/><path class="cls-37" d="M501.11,119.93c-4.29,3.64-27.27,22.52-33.57,50.42a97.45,97.45,0,0,0,.76,31.4c2.7,9.8,7.87,20.19,16.43,31a95.83,95.83,0,0,0,24.64,22.27c.62.22,1.25.43,1.88.63q11.07,3.51,21.68,6a172.25,172.25,0,0,0,38.77,5c12.88,0,24.65-2.05,34.91-6.64q-4.68.19-9.1.19c-140.1,0-96.4-140.28-96.4-140.28"/><path class="cls-38" d="M558.28,117.53c-44.54-6.12-79.21,32.29-71.39,79.74,5,30.47,30.85,57.8,66.13,55.32,43.13-3,72.22-54.32,52.61-98.45C599.07,139.39,581.1,120.67,558.28,117.53Z"/><path class="cls-39" d="M612.91,257.93c-55.22,19.84-112.38,6.62-135.26-53.39C461.2,161.42,497.93,106.9,543,103.23c65.36-5.3,118.37,59.81,95.83,126.94,26.81-70.71-24.4-119-57.19-130.87-16.91-6.1-37-6.74-55.55-3.39-47.35,8.55-100.33,89.1-32.07,152.62C517.22,270.09,566.71,282.09,612.91,257.93Z"/><path class="cls-40" d="M580.05,115.08c-22.2-3-39.47,16.09-35.58,39.73,2.5,15.19,15.38,28.8,32.95,27.57,21.49-1.51,36-27.07,26.22-49.06C600.37,126,591.42,116.64,580.05,115.08Z"/></g></g></svg>