<svg xmlns="http://www.w3.org/2000/svg" viewBox="0 0 292.31 280.39"><defs><style>.cls-1{isolation:isolate;}.cls-2{fill:#006837;}.cls-3,.cls-5,.cls-7{fill:#97c93e;}.cls-4{fill:#4e910f;}.cls-10,.cls-13,.cls-18,.cls-19,.cls-22,.cls-24,.cls-25,.cls-26,.cls-27,.cls-32,.cls-5,.cls-6{mix-blend-mode:multiply;}.cls-14,.cls-28,.cls-29,.cls-35,.cls-7{mix-blend-mode:screen;}.cls-10,.cls-8{fill:#b953db;}.cls-9{fill:#821dab;}.cls-10{opacity:0.59;}.cls-11,.cls-13,.cls-14{fill:#ea95fe;}.cls-12{fill:#b03bd6;}.cls-15{fill:#2a7027;}.cls-16,.cls-23,.cls-26,.cls-29{fill:#e84247;}.cls-17{fill:#b80a16;}.cls-18{opacity:0.56;}.cls-19{opacity:0.69;}.cls-20,.cls-22,.cls-28{fill:#ff9492;}.cls-21{fill:#e5272c;}.cls-23{opacity:0.58;}.cls-24{opacity:0.6;}.cls-25,.cls-35{opacity:0.49;}.cls-26{opacity:0.53;}.cls-27{opacity:0.54;}.cls-30,.cls-32{fill:#ffe946;}.cls-31{fill:#e89812;}.cls-33{fill:#d0ff29;}.cls-34{fill:#ffc029;}.cls-35{fill:#fff;}.cls-36{fill:#ffd822;}</style></defs><g class="cls-1"><g id="Layer_2" data-name="Layer 2"><g id="Layer_1-2" data-name="Layer 1"><path class="cls-2" d="M103,263.18C97.84,273.72,87,282.33,76.29,280a22.39,22.39,0,0,1-16.45-14.24c-3.07-7.87-2.31-17.17,1.89-23.15a16.06,16.06,0,0,1,13.69-6.9,22,22,0,0,1,17.69,9.81c3.44,5.11,3.21,12.25-.59,18.61-3.61,6.05-9.5,9.61-15,9.07-5.16-.5-9-2.94-11-6.86-2.21-4.55-1.41-10.6,2.15-16.2,2.15-3.37,4.67-5.21,7.49-5.46,4.34-.39,7.67,3.16,7.81,3.32a.86.86,0,0,1,0,1.24.89.89,0,0,1-1.25,0s-2.9-3.08-6.36-2.76c-2.24.2-4.31,1.77-6.15,4.66-3.22,5.06-4,10.47-2,14.47,1.63,3.34,5,5.43,9.54,5.87,4.82.47,10-2.75,13.3-8.22,2.71-4.52,4.29-11.3.65-16.71a20.21,20.21,0,0,0-16.24-9,14.31,14.31,0,0,0-12.23,6.15c-3.87,5.51-4.55,14.14-1.69,21.49a20.69,20.69,0,0,0,15.18,13.16c11,2.4,22.74-8.61,26.43-20,3.46-10.7-.32-19.64-10.13-23.91a.88.88,0,0,1-.45-1.16v0a.89.89,0,0,1,1.15-.42c10.72,4.67,14.87,14.41,11.1,26.08A33.51,33.51,0,0,1,103,263.18Z"/><path class="cls-2" d="M47.52,232.29a13.24,13.24,0,0,1-2.47,3.5c-2.69,2.74-6.06,3.76-9.24,2.79-4.29-1.31-6.15-3.78-7-5.62a10,10,0,0,1,.43-8.35,6.87,6.87,0,0,1,8.57-3.47c2.48.89,3.81,3,3.3,5.12-1,4.1-3.81,4.83-5.19,4.64a.88.88,0,0,1-.75-1,.86.86,0,0,1,1-.75c.25,0,2.43.15,3.23-3.29.37-1.55-.94-2.61-2.16-3.05a5.06,5.06,0,0,0-6.39,2.58,8.23,8.23,0,0,0-.4,6.86c.94,2.16,3,3.76,5.85,4.64,2.53.77,5.25-.09,7.46-2.34a11,11,0,0,0,2.9-10.69.88.88,0,0,1,1.68-.54A12.11,12.11,0,0,1,47.52,232.29Z"/><path class="cls-2" d="M50.75,242.79a.8.8,0,0,1-.28.33c-9.5,6.68-18.69,4-24.12-.79-6.25-5.49-8.31-13.81-4.88-20.27,7.17-13.68,20.2-9.53,20.33-9.49a.89.89,0,0,1,.57,1.12.91.91,0,0,1-1.12.56c-.48-.16-11.75-3.69-18.21,8.63-3,5.75-1.16,13.17,4.48,18.12,4.92,4.32,13.27,6.77,21.93.67a.88.88,0,0,1,1.23.22A.86.86,0,0,1,50.75,242.79Z"/><path class="cls-2" d="M63.25,243.51a.25.25,0,0,1,0,.07c-.15.25-3.76,6-9.76,4.55a6.66,6.66,0,0,1-5-6.08A6.92,6.92,0,0,1,52.63,235a5.17,5.17,0,0,1,4.74-.08,5.65,5.65,0,0,1,2.37,3.89A.89.89,0,0,1,58,239a3.83,3.83,0,0,0-1.5-2.58,3.57,3.57,0,0,0-3.16.18,5.19,5.19,0,0,0-3.11,5.28,4.87,4.87,0,0,0,3.68,4.5c4.74,1.19,7.78-3.7,7.81-3.75a.88.88,0,0,1,1.55.85Z"/><path class="cls-2" d="M85.66,258.19A5.89,5.89,0,1,1,83,250.31,5.89,5.89,0,0,1,85.66,258.19Zm-9-4.41a4.12,4.12,0,1,0,5.52-1.88A4.13,4.13,0,0,0,76.67,253.78Z"/><path class="cls-2" d="M39.37,203.85a.89.89,0,0,1-.88.49c-19.41-1.91-25.36,18.24-25.42,18.45a.88.88,0,1,1-1.7-.49c.07-.22,6.43-21.77,27.29-19.72a.88.88,0,0,1,.8,1A.85.85,0,0,1,39.37,203.85Z"/><path class="cls-2" d="M39.33,198a.88.88,0,0,1-1.18.41c-.08,0-7.47-3.54-9.14-.14a3.67,3.67,0,0,0-.34,2.89,4.13,4.13,0,0,0,2,2,.89.89,0,0,1,.45,1.17.85.85,0,0,1-1.16.45,5.79,5.79,0,0,1-2.94-3,5.33,5.33,0,0,1,.41-4.28c2.47-5,11.14-.85,11.51-.67a.87.87,0,0,1,.4,1.18Z"/><path class="cls-2" d="M40.28,195.07a.88.88,0,0,1-.8.5c-.2,0-4.95-.11-7.55-2.9a6.23,6.23,0,0,1-1.65-4.79,6.58,6.58,0,0,1,2.17-4.79c2.71-2.41,6.92-2.16,7.1-2.15a.89.89,0,1,1-.11,1.77s-3.67-.21-5.82,1.7A4.79,4.79,0,0,0,32.05,188a4.5,4.5,0,0,0,1.16,3.49c2.09,2.24,6.25,2.34,6.3,2.34a.88.88,0,0,1,.86.9A.78.78,0,0,1,40.28,195.07Z"/><path class="cls-2" d="M260.35,72.19c11.5-2.38,25,.94,29.68,10.78a22.4,22.4,0,0,1-1.14,21.73c-4.34,7.25-12.15,12.36-19.45,12.71a16.06,16.06,0,0,1-13.85-6.58,22,22,0,0,1-3.11-20c1.93-5.85,7.71-10,15.06-10.94,7-.86,13.42,1.6,16.36,6.26,2.77,4.38,3.23,9,1.31,12.86-2.24,4.55-7.51,7.63-14.11,8.25-4,.37-7-.49-8.91-2.56-3-3.19-2.21-8-2.17-8.2a.86.86,0,0,1,1-.73.88.88,0,0,1,.73,1s-.65,4.18,1.73,6.72c1.54,1.64,4,2.32,7.45,2,6-.56,10.72-3.27,12.68-7.26,1.64-3.34,1.21-7.29-1.21-11.14-2.58-4.09-8.33-6.23-14.65-5.45-5.23.63-11.56,3.54-13.6,9.75A20.22,20.22,0,0,0,257,109.76a14.32,14.32,0,0,0,12.36,5.88c6.72-.32,14-5.08,18-11.85a20.71,20.71,0,0,0,1.07-20.06c-4.85-10.15-20.75-12.68-32-8.61C245.86,79,241.13,87.43,243.77,97.79a.88.88,0,0,1-.64,1.07h0a.88.88,0,0,1-1-.65c-2.89-11.32,2.26-20.58,13.78-24.76A33.36,33.36,0,0,1,260.35,72.19Z"/><path class="cls-2" d="M270,135a13.34,13.34,0,0,1,4.28-.19c3.82.44,6.68,2.47,7.87,5.58,1.61,4.19.79,7.17-.17,8.94a10,10,0,0,1-6.86,4.78,6.87,6.87,0,0,1-8-4.64c-.82-2.5,0-4.81,2-5.75,3.81-1.75,6.14,0,6.84,1.25a.89.89,0,0,1-.32,1.21.88.88,0,0,1-1.21-.31c-.13-.22-1.36-2-4.57-.54-1.45.67-1.49,2.35-1.09,3.59a5.08,5.08,0,0,0,6,3.46,8.27,8.27,0,0,0,5.66-3.9c1.12-2.06,1.15-4.64.07-7.46-.95-2.47-3.29-4.09-6.42-4.46a11,11,0,0,0-10.22,4.27.89.89,0,0,1-1.47-1A12.17,12.17,0,0,1,270,135Z"/><path class="cls-2" d="M276.32,126a.79.79,0,0,1,.43,0c11.11,3.4,14.61,12.32,14.18,19.53-.5,8.3-5.81,15-13,16.29-15.2,2.73-19.93-10.11-20-10.24a.86.86,0,0,1,.53-1.12.89.89,0,0,1,1.13.53c.17.48,4.3,11.55,18,9.08,6.4-1.13,11.11-7.16,11.56-14.65.39-6.53-2.8-14.63-12.92-17.73a.88.88,0,0,1,.08-1.71Z"/><path class="cls-2" d="M269.22,115.66l.08,0c.28,0,7.08-.74,9.58,4.92a6.69,6.69,0,0,1-1.73,7.69,6.93,6.93,0,0,1-8.13,1,5.17,5.17,0,0,1-3-3.69,5.63,5.63,0,0,1,1.62-4.27.87.87,0,0,1,1.24,0,.88.88,0,0,1,0,1.25,3.84,3.84,0,0,0-1.12,2.77,3.53,3.53,0,0,0,2.08,2.38,5.2,5.2,0,0,0,6.08-.78,4.88,4.88,0,0,0,1.3-5.67c-2-4.48-7.7-3.87-7.76-3.87a.88.88,0,0,1-.28-1.74Z"/><path class="cls-2" d="M267.07,89a5.89,5.89,0,1,1-4.58,7A5.89,5.89,0,0,1,267.07,89Zm2,9.8a4.12,4.12,0,1,0-4.87-3.2A4.12,4.12,0,0,0,269.09,98.76Z"/><path class="cls-2" d="M252.55,158.85a.9.9,0,0,1,.93.39c10.41,16.5,30,8.83,30.16,8.76a.89.89,0,1,1,.67,1.64c-.22.08-21.14,8.28-32.33-9.45a.88.88,0,0,1,.28-1.22A.81.81,0,0,1,252.55,158.85Z"/><path class="cls-2" d="M248,162.47a.89.89,0,0,1,1,.68c0,.09,1.78,8.07,5.5,7.31A3.64,3.64,0,0,0,257,169a4.07,4.07,0,0,0,.39-2.82.88.88,0,0,1,.64-1.07.86.86,0,0,1,1.07.63,5.8,5.8,0,0,1-.6,4.19,5.32,5.32,0,0,1-3.62,2.31c-5.5,1.14-7.51-8.28-7.6-8.68a.88.88,0,0,1,.69-1Z"/><path class="cls-2" d="M245.06,163.51a.89.89,0,0,1,.89.34c.12.16,3,4,2.34,7.74a6.23,6.23,0,0,1-2.77,4.24,6.58,6.58,0,0,1-5.12,1.22c-3.56-.66-6-4.14-6.05-4.29a.9.9,0,0,1,.24-1.23.89.89,0,0,1,1.23.24s2.09,3,4.91,3.55a4.87,4.87,0,0,0,3.78-.94,4.52,4.52,0,0,0,2-3.07c.48-3-2-6.37-2-6.4a.89.89,0,0,1,.18-1.24A1,1,0,0,1,245.06,163.51Z"/><path class="cls-2" d="M78,27.76C77.87,16,83.74,3.44,94.31.74A22.39,22.39,0,0,1,115.4,6.1c6.27,5.66,9.76,14.31,8.69,21.54A16.06,16.06,0,0,1,114.94,40a22,22,0,0,1-20.21-.84c-5.36-3-8.36-9.51-7.81-16.9.52-7,4.18-12.85,9.33-14.83,4.84-1.86,9.41-1.43,12.87,1.22,4,3.07,6,8.84,5.34,15.44-.41,4-1.83,6.76-4.24,8.24-3.7,2.29-8.28.61-8.47.54a.88.88,0,0,1-.51-1.14.89.89,0,0,1,1.14-.52s4,1.45,6.92-.38c1.91-1.19,3.06-3.52,3.4-6.92.61-6-1.12-11.16-4.65-13.86-3-2.26-6.92-2.6-11.16-1-4.52,1.74-7.74,7-8.2,13.31-.4,5.25,1.22,12,6.91,15.23a20.25,20.25,0,0,0,18.57.79,14.35,14.35,0,0,0,8.17-11c1-6.66-2.27-14.69-8.12-20A20.66,20.66,0,0,0,94.74,2.46C83.85,5.24,78.28,20.34,80.08,32.17,81.79,43.29,89.18,49.58,99.85,49a.88.88,0,0,1,.93.84v0a.88.88,0,0,1-.83.89c-11.68.63-19.76-6.22-21.61-18.33A31.54,31.54,0,0,1,78,27.76Z"/><path class="cls-2" d="M141.42,30.5a13.21,13.21,0,0,1,.64-4.25c1.17-3.65,3.73-6.06,7-6.62,4.43-.76,7.2.61,8.74,1.9a10,10,0,0,1,3.36,7.65,6.88,6.88,0,0,1-6.11,7c-2.61.32-4.72-.93-5.24-3.1-1-4.09,1.24-6,2.55-6.47a.89.89,0,0,1,.59,1.67c-.24.09-2.24.95-1.42,4.39.37,1.55,2,1.91,3.31,1.75a5.06,5.06,0,0,0,4.55-5.17,8.21,8.21,0,0,0-2.73-6.31c-1.8-1.51-4.32-2-7.3-1.52-2.6.44-4.65,2.42-5.62,5.43a11,11,0,0,0,2.2,10.86.88.88,0,0,1,0,1.25.89.89,0,0,1-1.25,0A12.11,12.11,0,0,1,141.42,30.5Z"/><path class="cls-2" d="M133.82,22.56a.8.8,0,0,1,.11-.42c5.5-10.24,14.92-11.93,21.91-10.11,8,2.1,13.62,8.62,13.45,15.93C169,43.4,155.5,45.54,155.37,45.56a.88.88,0,0,1-.26-1.75c.5-.07,12.16-2,12.41-15.88.13-6.49-4.87-12.29-12.13-14.19-6.33-1.65-14.89-.1-19.9,9.23a.89.89,0,0,1-1.2.36A.87.87,0,0,1,133.82,22.56Z"/><path class="cls-2" d="M122.33,27.52v-.08c0-.29.65-7.1,6.68-8.44a6.67,6.67,0,0,1,7.21,3.19,6.94,6.94,0,0,1-.58,8.17,5.15,5.15,0,0,1-4.2,2.2,5.69,5.69,0,0,1-3.87-2.42.89.89,0,0,1,1.48-1,3.88,3.88,0,0,0,2.5,1.63,3.55,3.55,0,0,0,2.74-1.57,5.2,5.2,0,0,0,.41-6.12,4.88,4.88,0,0,0-5.3-2.38c-4.78,1.07-5.3,6.81-5.31,6.86a.88.88,0,0,1-1.76-.06Z"/><path class="cls-2" d="M95.72,24.44a5.89,5.89,0,1,1,5.94,5.84A5.89,5.89,0,0,1,95.72,24.44Zm10-.09a4.12,4.12,0,1,0-4.09,4.16A4.12,4.12,0,0,0,105.73,24.35Z"/><path class="cls-2" d="M161.45,52.27a.89.89,0,0,1,.57-.83c18.21-7,14.49-27.68,14.45-27.89a.91.91,0,0,1,.71-1,.88.88,0,0,1,1,.7c0,.23,4,22.35-15.55,29.88a.9.9,0,0,1-1.15-.51A.85.85,0,0,1,161.45,52.27Z"/><path class="cls-2" d="M164.11,57.47a.88.88,0,0,1,.88-.89c.08,0,8.26-.18,8.23-4a3.61,3.61,0,0,0-1-2.72,4.09,4.09,0,0,0-2.68-.94.87.87,0,0,1-.93-.83.85.85,0,0,1,.83-.93,5.79,5.79,0,0,1,4,1.41,5.31,5.31,0,0,1,1.56,4c0,5.61-9.58,5.76-10,5.76a.89.89,0,0,1-.89-.88Z"/><path class="cls-2" d="M164.57,60.52a.88.88,0,0,1,.5-.8c.18-.09,4.47-2.13,8.05-.8a6.24,6.24,0,0,1,3.62,3.54,6.63,6.63,0,0,1,.21,5.26c-1.34,3.36-5.22,5-5.39,5.1a.89.89,0,0,1-1.16-.47.9.9,0,0,1,.47-1.16s3.38-1.46,4.44-4.13a4.81,4.81,0,0,0-.19-3.88,4.49,4.49,0,0,0-2.61-2.6c-2.87-1.07-6.63.71-6.67.73a.89.89,0,0,1-1.27-.79Z"/><path class="cls-3" d="M132.56,224.43s-19.44,13-33,26.15S73.28,265.52,71,254.8,86.15,229.39,132.56,224.43Z"/><path class="cls-4" d="M133.71,224h0a1.25,1.25,0,0,1-.47,1.44c-.2.13-19.51,13.09-32.88,26-9.14,8.83-18.23,13-24.33,11.11-2.26-.7-5.16-2.56-6.21-7.52-.67-3.21.24-6.64,2.62-9.92,7.77-10.69,29.63-18.68,60-21.92A1.22,1.22,0,0,1,133.71,224Zm-61,32.15a6.21,6.21,0,0,0,4.07,4.08c5.15,1.58,13.54-2.46,21.9-10.53,9.79-9.46,22.71-18.93,29.17-23.49-38.25,4.85-50,15.76-53.4,20.36-2,2.7-2.73,5.46-2.2,8A10.35,10.35,0,0,0,72.69,256.15Z"/><path class="cls-5" d="M78.72,240.63c15.91-7.7,33-9.06,28.17-6.37-6.81,3.83-10.91,8-20.94,19.48a23.38,23.38,0,0,1-10.4,7.3c5.33,2.39,14.4-1.22,24-10.46,13.61-13.15,33.05-26.15,33.05-26.15C105.09,227.37,87.79,233.71,78.72,240.63Z"/><path class="cls-3" d="M132.56,224.43s-26.68,11.79-26.09,36.71c.68,12.32,17.14,8.8,17.11-11.12,4.55,20.41,26.19,18,31.39-3C141.69,238.09,132.56,224.43,132.56,224.43Z"/><path class="cls-4" d="M156.12,246.59a1.26,1.26,0,0,1,0,.72c-3.11,12.57-11.57,18.11-18.58,18-5.69-.07-10.47-3.56-13.28-9.43-1.61,8.71-6.74,13.47-11.63,13.6-3.46.1-7.1-2.42-7.42-8.3-.6-25.48,26.55-37.78,26.82-37.9a1.22,1.22,0,0,1,1.51.44c.09.13,9.15,13.57,22.08,22.25A1.32,1.32,0,0,1,156.12,246.59Zm-30.35,6.55c2.27,6.11,6.54,9.69,11.84,9.75,5.89.07,13-4.66,16-15.34-11.17-7.73-19.19-18.43-21.41-21.56-4.59,2.33-25,13.89-24.46,35.12.21,3.73,2.08,6,4.9,6,4.06-.12,9.77-5.48,9.75-17a1.22,1.22,0,0,1,1.09-1.22,1.2,1.2,0,0,1,1.33.95A25.36,25.36,0,0,0,125.77,253.14Z"/><g class="cls-6"><path class="cls-3" d="M107.46,252.28c5.64-8.14,12.59-9.65,12.11,1.36-.3,6.84-2.17,11.25-4.29,14,4.2-1.82,8.32-7.68,8.3-17.65.1.45.22.87.33,1.3-.21-12.64,2.45-24.45,4.86-15.4,3.1,11.67,13.26,15.78,7.64,20.58a28.28,28.28,0,0,0-4.88,5.91c8.24,4.83,19.82-.77,23.44-15.39-13.28-8.93-22.41-22.59-22.41-22.59S112.23,233.42,107.46,252.28Z"/></g><path class="cls-3" d="M132.56,224.43c.38.58-21.41.3-54.07,11.56-16.42,4.8-25.08-6.08-17.12-15.74C76.31,202.13,121.13,206.86,132.56,224.43Z"/><path class="cls-4" d="M133.71,224a1.26,1.26,0,0,1,0,1c-.36.73-.67.76-3.68,1-7,.64-25.56,2.32-51.1,11.13-8.87,2.59-16.76.93-20.16-4.22-2.61-4-2-9,1.7-13.46,6.85-8.31,20.48-12.73,36.47-11.83,16.52.92,30.92,7.25,36.69,16.12h0A1.34,1.34,0,0,1,133.71,224Zm-1.15.43v0ZM60,230.14a7.5,7.5,0,0,0,.73,1.44c2.12,3.21,7.95,6,17.38,3.24,25.76-8.89,44.54-10.6,51.62-11.24l.62-.05c-6-7.41-18.88-12.62-33.63-13.45-15.21-.85-28.09,3.24-34.44,10.95C59.81,224.07,59,227.37,60,230.14Z"/><g class="cls-6"><path class="cls-3" d="M61.37,220.25c-3,3.62-3.63,7.42-2.4,10.5,1.19-1.54,3.42-2.68,7.43-2.81,14.15-.49,24.39-2,36.88-5.66s-10.35,7.36-19.15,9.38c-3.22.73-7.1,2.9-10.75,5.34a28.61,28.61,0,0,0,5.11-1c32.66-11.26,54.45-11,54.07-11.56C121.13,206.86,76.31,202.13,61.37,220.25Z"/></g><path class="cls-7" d="M75.3,255.28s.46-10.69,14.38-17.55C82.06,238.88,72.87,247.05,75.3,255.28Z"/><path class="cls-7" d="M110.82,264.66s-2.7-5.5,1.18-14.31C107.83,254.29,106.9,262.87,110.82,264.66Z"/><path class="cls-7" d="M131.21,257.73a33.54,33.54,0,0,1-4.77-17.51C123.28,245.73,127.74,257.72,131.21,257.73Z"/><path class="cls-7" d="M62.33,230.67s7.49,4,15.56,1.38C73.23,234.93,65.8,235.4,62.33,230.67Z"/><path class="cls-3" d="M234.25,191.47s13.45,13.71,26.13,22.69,16.05,18.9,7.74,22.34S245.32,228.17,234.25,191.47Z"/><path class="cls-4" d="M233.73,190.61h0a1,1,0,0,1,1.23.17c.13.13,13.53,13.75,26,22.57,8.51,6,13.25,12.74,12.67,17.94-.22,1.93-1.28,4.56-5.12,6.15a10.22,10.22,0,0,1-8.41-.6c-9.8-4.64-19.58-21.07-26.82-45.07A1,1,0,0,1,233.73,190.61ZM269,235a5.08,5.08,0,0,0,2.67-3.91c.49-4.39-4-10.55-11.83-16.07-9.12-6.46-18.73-15.44-23.39-20,9.73,30.13,20.33,38,24.55,40a8.28,8.28,0,0,0,6.78.56A8.17,8.17,0,0,0,269,235Z"/><path class="cls-5" d="M255.52,232.46c-8.64-11.67-12.33-25.22-9.43-21.77,4.13,4.92,8.08,7.6,18.91,13.93a19.29,19.29,0,0,1,7.47,7.29c1.12-4.67-3.17-11.43-12.09-17.75-12.68-9-26.13-22.69-26.13-22.69C240.8,213.2,248.56,226.19,255.52,232.46Z"/><path class="cls-3" d="M234.25,191.47s13.57,19.74,33.59,15.47c9.84-2.42,4.5-15.17-11.58-12.11,15.79-6.78,10.55-23.88-7.19-24.88C243.88,182,234.25,191.47,234.25,191.47Z"/><path class="cls-4" d="M248.55,169.09a1,1,0,0,1,.57-.14c10.62.59,16.38,6.58,17.38,12.25.81,4.6-1.28,9-5.59,12.15,7.27,0,11.89,3.39,12.75,7.31.61,2.78-.88,6.1-5.58,7.26-20.47,4.36-34.52-15.68-34.66-15.88a1,1,0,0,1,.12-1.29c.1-.09,9.56-9.45,14.6-21.2A1,1,0,0,1,248.55,169.09Zm9.9,23.5c4.59-2.76,6.83-6.76,6.07-11-.84-4.77-5.74-9.81-14.81-10.55a77.34,77.34,0,0,1-14.14,20.56c2.57,3.35,15,18,32.07,14.4,3-.74,4.55-2.61,4.06-4.87-.72-3.26-5.92-7.05-15.25-5.28a1,1,0,0,1-.58-1.91A20.73,20.73,0,0,0,258.45,192.59Z"/><g class="cls-6"><path class="cls-3" d="M260.54,207.49c-7.43-3.31-9.7-8.69-.74-10,5.56-.8,9.4,0,12,1.33-2.11-3.11-7.47-5.54-15.52-4,.35-.15.68-.31,1-.47-10.17,2.1-20.11,1.75-13.17-1.57,8.94-4.28,10.72-13.11,15.44-9.31a23,23,0,0,0,5.52,3c2.64-7.38-3.64-15.88-16-16.57-5.19,12.08-14.82,21.52-14.82,21.52S244.6,206.51,260.54,207.49Z"/></g><path class="cls-3" d="M234.25,191.47c.41-.39,3.5,17.24,17.56,41.88,6.37,12.52-1.1,21.16-10.1,16.21C224.81,240.26,221.81,203.37,234.25,191.47Z"/><path class="cls-4" d="M233.73,190.61a1.06,1.06,0,0,1,.8-.12c.65.18.72.43,1.4,2.82a170.92,170.92,0,0,0,16.75,39.54c3.45,6.76,3.3,13.38-.34,16.91-2.8,2.71-7,3-11.11.68-7.75-4.27-13.4-14.6-15.1-27.63-1.77-13.47,1.15-26.06,7.42-32.07h0A1.18,1.18,0,0,1,233.73,190.61Zm.52.86h0Zm15.65,57.65a5.65,5.65,0,0,0,1-.8c2.28-2.2,3.63-7.33,0-14.52A173,173,0,0,1,234,193.86c-.05-.17-.09-.34-.14-.5-5.07,6-7.31,17.16-5.73,29.18,1.62,12.41,6.89,22.18,14.07,26.13C245,250.24,247.82,250.38,249.9,249.12Z"/><g class="cls-6"><path class="cls-3" d="M241.71,249.56c3.38,1.86,6.54,1.8,8.84.34-1.42-.73-2.68-2.36-3.4-5.57A113.52,113.52,0,0,0,237,215.43c-4.83-9.52,7.52,7.23,10.49,14,1.08,2.48,3.41,5.29,5.94,7.86a23.15,23.15,0,0,0-1.59-4c-14.06-24.64-17.15-42.27-17.56-41.88C221.81,203.37,224.81,240.26,241.71,249.56Z"/></g><path class="cls-7" d="M267.86,233s-8.7,1.26-16.35-8.93C253.6,230,261.59,236.2,267.86,233Z"/><path class="cls-7" d="M270,202.9s-4,3-11.73,1.22C262.11,206.89,269.17,206.33,270,202.9Z"/><path class="cls-7" d="M261.33,187.49A27.59,27.59,0,0,1,247.92,194C252.85,195.72,261.85,190.3,261.33,187.49Z"/><path class="cls-7" d="M250,247.2s2.05-6.64-1.25-12.77C251.75,237.76,253.26,243.68,250,247.2Z"/><path class="cls-8" d="M76.47,83.15s-3.81-8.38-13.89-14.82-2.31-17.27,7-13.39S80.54,73.52,76.47,83.15Z"/><path class="cls-9" d="M76,83.88a.93.93,0,0,1-.31-.37A38.19,38.19,0,0,0,62.11,69.07c-5.7-3.63-5.85-8.35-4.31-11.31,1.81-3.46,6.68-5.91,12.16-3.64a14.53,14.53,0,0,1,7.71,8.27C80.18,68.52,80,77,77.29,83.49a.91.91,0,0,1-.8.54A.88.88,0,0,1,76,83.88ZM64.11,68.28A41.29,41.29,0,0,1,76.33,81c1.91-5.79,1.83-12.78-.3-18a12.74,12.74,0,0,0-6.75-7.31c-4.5-1.87-8.47.06-9.91,2.83-1.26,2.41-.9,6.08,3.69,9Z"/><path class="cls-10" d="M72.59,56.74c2.2,4.2,2.75,8.86,0,13.65-.23.39-1.19.68-1.49.22a36.46,36.46,0,0,0-6.14-6.7c-2-1.8-4.22-3.63-5.52-6-.1-.18-.19-.37-.28-.56-2.2,3-1.85,7.61,3.44,11,10.08,6.44,13.89,14.82,13.89,14.82C80.06,74.65,79.25,62.21,72.59,56.74Z"/><path class="cls-11" d="M89.55,52.49s-4-12.88,2-17.34S102.66,32.25,117,44c-4.9-14.47,7.18-20.67,11.37-10.94s4.83,14.09,7.61,5.18,8.24-13.07,14.65-8.06,5,13.87.29,17.88c11.37-2.75,17.9,6,11.65,16.11-23.69,10.75-42,17-51.8,12.6S89.55,52.49,89.55,52.49Z"/><path class="cls-12" d="M107.67,76c-9.16-6.23-18.46-22.32-18.88-23.06a.71.71,0,0,1-.08-.18c-.17-.55-4.13-13.53,2.27-18.3,6.14-4.58,11.6-3.1,24.41,7.09-1.55-7.18,1.09-12.24,4.9-13.71,2.9-1.11,6.76,0,8.86,4.83.64,1.48,1.2,2.84,1.69,4.05,1,2.38,2,4.83,2.56,5.37.25-.26.78-1.16,1.71-4.16,1.79-5.72,4.65-9.45,8-10.51,2.52-.79,5.29-.08,8,2a11.83,11.83,0,0,1,4.66,9.22,13.34,13.34,0,0,1-2.52,8c4.63-.46,8.54,1,10.77,4,2.63,3.62,2.35,8.8-.76,13.85a.91.91,0,0,1-.39.34c-28.43,12.91-43.65,16.56-52.52,12.6A17.78,17.78,0,0,1,107.67,76ZM90.37,52.13C91.2,53.56,102,71.84,111.1,75.91c10.32,4.6,31.45-3.7,50.82-12.48,2.6-4.35,2.86-8.69.7-11.66s-6.51-4.11-11.52-2.9a.88.88,0,0,1-.78-1.53A11.27,11.27,0,0,0,154,38.7a10.12,10.12,0,0,0-4-7.87c-2.26-1.76-4.41-2.35-6.38-1.74-2.83.89-5.27,4.21-6.88,9.36-1.28,4.08-2.09,5.41-3.33,5.46-1.55.07-2.4-2-4.26-6.53-.49-1.2-1.05-2.55-1.68-4-1.44-3.34-4-4.87-6.61-3.88-3.48,1.34-5.67,6.64-3.11,14.19a.88.88,0,0,1-.33,1,.9.9,0,0,1-1.07,0C101.78,32.67,97.3,31.94,92,35.86S90,51,90.37,52.13Z"/><path class="cls-13" d="M159.13,60.85c-3.92,1.18-11,1.61-12.27-3.51-1.18-4.68,2.19-8.47,6-10.55-.57.09-1.15.19-1.76.33A12,12,0,0,0,155,39.94a27,27,0,0,0-6.33,6c-2.26,3-4.35,6.13-6.69,9.07a39.25,39.25,0,0,1-3.63,4.1A9.18,9.18,0,0,1,135,61.49a3.36,3.36,0,0,1-4.48-3.22c.05-2.9,1.89-5.82,3.32-8.22s3.21-4.79,4.66-7.28c2.24-3.85,1.78-8.73,2.83-12.94.13-.5.29-1,.46-1.48-2.31,1.62-4.22,4.75-5.53,8.95-2.19,7-3.06,5.79-5.36.25a19.52,19.52,0,0,1-2,5.73c-.87,1.54-2.42,3.33-4.42,2.82-1.78-.46-2.89-2.63-3.42-4.24a22.61,22.61,0,0,1,.87-14.37c-4.14.7-7.72,6.51-4.66,15.57-2.41-2-4.55-3.64-6.5-5.06A49.73,49.73,0,0,1,116,44.8c1.77,2.77,3.37,6,3.17,9.36,0,.49-.68.81-1.11.76-2.36-.27-4.16-1.82-6.19-2.89-2.25-1.2-4.89-1.65-7.33-2.34A18.31,18.31,0,0,1,96,45a23.49,23.49,0,0,1-4.92-7.26,14.87,14.87,0,0,1-.69-2c-3.82,5.3-.56,15.85-.56,15.85S101.19,71.46,111,75.83s28.11-1.85,51.8-12.6a16.83,16.83,0,0,0,2.06-4.88A27.35,27.35,0,0,1,159.13,60.85Z"/><path class="cls-12" d="M150.89,48c-1.83,1.49-3.57,3-5.29,4.56s-3.37,3.13-4.93,4.8a57.93,57.93,0,0,0-4.41,5.24,53.51,53.51,0,0,0-3.68,5.88,22,22,0,0,1,2.52-6.63,32.17,32.17,0,0,1,4.28-5.7A35.07,35.07,0,0,1,150.89,48Z"/><path class="cls-12" d="M135.5,39.55a24.39,24.39,0,0,1-3.09,7.81c-1.41,2.45-3.08,4.65-4.34,7a19.81,19.81,0,0,0-2.54,7.5,24.09,24.09,0,0,0,.6,8.11,17,17,0,0,1-2-8.2,17.82,17.82,0,0,1,2.36-8.26,70.15,70.15,0,0,1,4.74-6.92A44.87,44.87,0,0,0,135.5,39.55Z"/><path class="cls-12" d="M125.82,56.57a15.41,15.41,0,0,0-6.08-.69A10.88,10.88,0,0,0,114.37,58l-1.15.91-1,1.1a29.15,29.15,0,0,0-1.86,2.38L108.79,65c-.47.94-.94,1.88-1.48,2.81.17-1,.42-2.09.68-3.14s.75-2,1.17-3a14.7,14.7,0,0,1,4.17-5.13,10.46,10.46,0,0,1,6.36-2A10.72,10.72,0,0,1,125.82,56.57Z"/><path class="cls-8" d="M82.09,75.1S80,61.86,72.74,54.66,69.21,30,86.82,42.62c8.12,7.81,6,16.2,18.94,23.68s9,16.61-1.2,24.4S82.09,75.1,82.09,75.1Z"/><path class="cls-9" d="M93.84,90.94C87,86.32,81.59,76,81.31,75.51a1.43,1.43,0,0,1-.09-.27c0-.13-2.18-13-9.1-20-4.22-4.2-5-11.6-1.7-15.52,1.58-1.87,6.35-5.42,16.92,2.14,3.49,3.34,5.16,6.72,6.77,10,2.38,4.8,4.62,9.34,12.09,13.66,5.45,3.14,8.35,6.81,8.61,10.89.3,4.72-3.06,9.9-9.71,15A8,8,0,0,1,98.25,93,12.85,12.85,0,0,1,93.84,90.94ZM82.94,74.81c.77,1.42,8.15,14.76,15.69,16.43A6.23,6.23,0,0,0,104,90c6.16-4.7,9.28-9.36,9-13.46-.22-3.45-2.81-6.63-7.72-9.48-7.93-4.58-10.4-9.57-12.79-14.39-1.62-3.28-3.15-6.37-6.32-9.42-6.5-4.62-11.77-5.51-14.45-2.35S69.82,50.49,73.36,54C80.37,61,82.67,73.24,82.94,74.81Z"/><path class="cls-10" d="M105.76,66.3c-.82-.48-1.58-1-2.29-1.44a5.32,5.32,0,0,1-2.12,3.19,3.31,3.31,0,0,1-2.92.32,12.78,12.78,0,0,1-4.21-2.05c-2.79-2.2-4.29-5.57-6.13-8.52a15.71,15.71,0,0,0-3.53-4.21,45.41,45.41,0,0,0-5.11-3.06c-2.93-1.7-5.42-3.89-5.93-7.4A9.58,9.58,0,0,1,74,38.45c-6,1.77-6.16,11.33-1.27,16.21C80,61.86,82.09,75.1,82.09,75.1s12.26,23.4,22.47,15.6S118.69,73.78,105.76,66.3Z"/><path class="cls-14" d="M147.15,30.21s6.66,6.2-1,16.62C153.73,38.58,152.81,34.61,147.15,30.21Z"/><path class="cls-14" d="M94.12,37.66s4.31-3.48,19,7.33C108.07,36.82,95.31,32.61,94.12,37.66Z"/><path class="cls-14" d="M150.67,51.28s7.62-1,11.93,3.38C161.57,48.38,152.49,47.78,150.67,51.28Z"/><path class="cls-3" d="M64.42,107.44S70.56,91.6,73.18,78.1s9.37-19.83,15.18-14.39S90,85.14,64.42,107.44Z"/><path class="cls-4" d="M63.91,108.18h0a.88.88,0,0,1-.32-1c.06-.16,6.15-15.93,8.71-29.19,1.76-9.06,5.44-15.32,9.84-16.75,1.63-.53,4.14-.63,6.83,1.88a9.06,9.06,0,0,1,2.58,7c-.17,9.59-9.84,23.47-26.55,38.05A.89.89,0,0,1,63.91,108.18ZM86.82,63.6a4.54,4.54,0,0,0-4.13-.73c-3.72,1.21-7,7.11-8.64,15.4a194.8,194.8,0,0,1-7.56,26.14C87.23,85.57,89.7,74.16,89.77,70a7.33,7.33,0,0,0-2-5.67A8.87,8.87,0,0,0,86.82,63.6Z"/><path class="cls-5" d="M89.7,75.35C83.44,86.56,73.87,94.48,75.59,90.88c2.46-5.12,3.18-9.28,4.33-20.32a17.09,17.09,0,0,1,3.15-8.68c-4.17.8-8,6.73-9.89,16.22-2.62,13.5-8.76,29.34-8.76,29.34C79.54,94.24,87.18,83.25,89.7,75.35Z"/><path class="cls-3" d="M64.42,107.44s11-18.14.21-32.72c-5.54-7-13.87,1.91-5.54,13.75C47.87,78.22,36,88.68,41.66,103.34,53.29,103.12,64.42,107.44,64.42,107.44Z"/><path class="cls-4" d="M41.16,104.08a.89.89,0,0,1-.33-.41c-3.38-8.78-.66-15.61,3.54-18.48,3.41-2.33,7.72-2.25,11.84.07-2.68-5.85-1.61-10.82,1.24-12.94,2-1.5,5.24-1.51,7.88,1.85,11,14.91,0,33.55-.15,33.73a.89.89,0,0,1-1.09.37c-.11,0-11.1-4.26-22.41-4A.86.86,0,0,1,41.16,104.08ZM56.49,87.52c-3.9-2.68-7.93-3-11.11-.86-3.54,2.42-5.81,8.2-3.1,15.79A68.34,68.34,0,0,1,64,106.34c1.76-3.29,9.06-18.67-.09-31.09-1.68-2.13-3.76-2.72-5.4-1.5C56.15,75.51,55,81.08,59.82,88a.89.89,0,0,1-.14,1.18.88.88,0,0,1-1.19,0A19.06,19.06,0,0,0,56.49,87.52Z"/><g class="cls-6"><path class="cls-3" d="M67.74,80.4c0,7.2-3.47,11-7.77,4.24-2.68-4.19-3.4-7.59-3.3-10.14-1.74,2.84-1.75,8,2.42,14-.24-.23-.49-.43-.74-.64,5.4,7.43,8.74,15.57,3.54,11.19C55.17,93.37,47.41,95.16,48.75,90a20.33,20.33,0,0,0,.44-5.55c-6.91.57-11.47,8.73-7.53,18.93,11.63-.22,22.76,4.1,22.76,4.1S72.77,93.62,67.74,80.4Z"/></g><path class="cls-3" d="M64.42,107.44C64,107.25,77,98.33,91.77,78c7.76-9.7,17.46-6.83,16.75,2.23C107.18,97.25,78.55,113.12,64.42,107.44Z"/><path class="cls-4" d="M63.92,108.18a.92.92,0,0,1-.39-.61c-.1-.59.08-.73,1.76-2.15A151.36,151.36,0,0,0,91.05,77.49c4.19-5.24,9.58-7.54,13.76-5.89,3.2,1.27,4.92,4.52,4.59,8.71-.61,7.8-6.87,16.12-16.76,22.25-10.21,6.34-21.42,8.58-28.56,5.71h0Zm.5-.74h0ZM105.18,73.8a5.07,5.07,0,0,0-1-.55c-2.6-1-7.23-.25-11.69,5.32a152.4,152.4,0,0,1-26,28.21l-.35.29c6.66,1.91,16.5-.37,25.62-6,9.41-5.84,15.36-13.64,15.93-20.88C107.85,77.32,107,75,105.18,73.8Z"/><g class="cls-6"><path class="cls-3" d="M108.52,80.24c.26-3.4-.94-5.93-3-7.25-.07,1.42-.92,3-3.25,4.77A100.4,100.4,0,0,0,82.74,96.51c-5.91,7.36,3.08-8.7,7.48-13.57a26,26,0,0,0,4.17-7.66A20.19,20.19,0,0,0,91.77,78C77,98.33,64,107.25,64.42,107.44,78.55,113.12,107.18,97.25,108.52,80.24Z"/></g><path class="cls-7" d="M85.62,65.21s4.19,6.55-1.24,16.43C88.44,77.78,90.5,69.09,85.62,65.21Z"/><path class="cls-7" d="M60.58,74.43s3.9,2.15,5.26,9C66.68,79.36,63.66,73.87,60.58,74.43Z"/><path class="cls-7" d="M51.33,87.06a24.41,24.41,0,0,1,10.15,8.43C61.06,90.9,53.4,85.62,51.33,87.06Z"/><path class="cls-7" d="M103.6,74.44a16.08,16.08,0,0,0-9.83,5.67C95.34,76.45,99.57,73.08,103.6,74.44Z"/><path class="cls-3" d="M201.54,91.28s3.8-43.71,66.38-27.81c2,46.18,2,70-64.56,64.56C197.4,107.67,201.54,91.28,201.54,91.28Z"/><path class="cls-4" d="M220.55,130.3c-5.25,0-11-.26-17.32-.78a1.5,1.5,0,0,1-1.31-1.07c-5.81-19.86-2.25-35.8-1.86-37.43A36.68,36.68,0,0,1,215,66.29c12.26-8.71,30.2-10.15,53.32-4.27a1.49,1.49,0,0,1,1.13,1.38c1,24,1.92,44.72-10,56.16C251.87,126.84,239.58,130.3,220.55,130.3Zm-16-3.68c27.66,2.17,44-.68,52.86-9.22,10.74-10.34,10.08-30,9.1-52.75-21.7-5.33-38.44-4-49.77,4.09A34,34,0,0,0,203,91.41a1.85,1.85,0,0,1,0,.23A75.56,75.56,0,0,0,204.51,126.62Zm-3-35.34h0Z"/><path class="cls-7" d="M221.07,70.52s20.37-7.44,38.49-5.71C241.69,58.61,226.29,64.07,221.07,70.52Z"/><g class="cls-6"><path class="cls-3" d="M262.67,98.88c-7.66,14.79-23,7.12-23.55,3.56s6.57-6.3,17-7.12c-6.85-3.83-17,2.19-13.69-6.3s21.36-22.73,21.36-22.73l-7.39,1.1c-11.23,3-23.56,10.68-35.06,7.94-4.57-1.09-5.92-4.17-5.91-7.49a35.5,35.5,0,0,0-13.87,23.44s-4.14,16.39,1.82,36.75c54.24,4.45,64.27-10.57,65.05-41.28C266.82,90.43,264.92,94.56,262.67,98.88Z"/></g><path class="cls-15" d="M266.69,65.31s-34,19.51-45.72,48C231.36,84,250.6,70.05,266.69,65.31Z"/><path class="cls-15" d="M223.21,108.62s9.92-11.72,22.36-13C236,95.1,225,103.57,223.21,108.62Z"/><path class="cls-15" d="M221.59,111.69S233,106.82,242,109C233.85,104.84,221.77,110.79,221.59,111.69Z"/><path class="cls-16" d="M136.84,95.56s-23.91-44.5-5-61.11c9.63-7,36.2,7.64,35.54,38.86C167.4,73.31,154.45,116.82,136.84,95.56Z"/><path class="cls-17" d="M146.6,102.92c-3.73,0-7.39-2.15-10.91-6.4a1.38,1.38,0,0,1-.17-.25c-1-1.86-24.25-45.75-4.65-62.95,4.14-3,10.71-2.68,17.26.75,9.86,5.17,21.21,18.55,20.77,39.27a1.39,1.39,0,0,1-.06.4c-.32,1.08-8,26.48-20.25,29A9.68,9.68,0,0,1,146.6,102.92Zm-8.5-8.2c3.35,4,6.67,5.7,9.89,5C156.6,98,163.78,80.1,165.9,73.07c.34-19.22-10.1-31.58-19.17-36.34-5.54-2.9-10.9-3.31-14-1.07C115.52,50.78,136.71,92.08,138.1,94.72Z"/><g class="cls-18"><path class="cls-16" d="M152,38.42c11.07,25.2-4.93,45.2-10,37.12-6-9-6.46-22.38-6.46-22.38s-4.48,14.67,1,27.85c-6.72-6.1-10.12-15.17-11.81-23.68,1.36,18.2,12.11,38.23,12.11,38.23,17.61,21.26,30.56-22.25,30.56-22.25C167.75,56.73,160.41,44.89,152,38.42Z"/></g><path class="cls-16" d="M85.65,165.12c-2.64.49-45.28,5.26-56.33,57.38,13.68-1.58,20,3.69,25.79,7.37s43.17,6.84,59.49-15.79S136.19,155.64,85.65,165.12Z"/><path class="cls-17" d="M71.39,234.06c-8.1,0-14.62-1.35-17.08-2.92L52.61,230c-5.29-3.47-11.3-7.4-23.12-6a1.44,1.44,0,0,1-1.28-.48,1.49,1.49,0,0,1-.36-1.32C37.92,174.71,74.1,165.42,85,163.71l.42-.07c24.87-4.67,34.94,2,39,8.34,7.25,11.43.93,29.82-8.55,43C105.11,229.81,85.75,234.06,71.39,234.06ZM34.1,220.71c9.78,0,15.47,3.73,20.15,6.81l1.67,1.08c4.8,3.06,41.36,6.94,57.47-15.4,8.89-12.33,15-29.36,8.45-39.61-5.1-8-17.52-10.44-35.92-7h0l-.5.08C75.2,168.29,41.47,177,31.23,220.81,32.22,220.74,33.18,220.71,34.1,220.71Zm51.55-55.59h0Z"/><g class="cls-19"><path class="cls-16" d="M85.65,165.12c-2.5.46-41,4.81-54.37,49.76C40,198.34,55.77,179.9,82,179.3,69,189.55,62,206.81,62,206.81s14-14.57,28.05-17.26c-5.94,16.18-24.81,22.65-31.83,23.19,16.73,4.31,34-7,34-7s4.35,20-38.37,23.34l1.24.8c5.79,3.69,43.17,6.84,59.49-15.79S136.19,155.64,85.65,165.12Z"/></g><path class="cls-16" d="M170.72,68.33s7.31-20.6,13.62-24.91,26.9,27.9,17.27,48.16c0,0-4,17.93-17.6,12.62S170.72,68.33,170.72,68.33Z"/><path class="cls-17" d="M188.82,106.69a14.86,14.86,0,0,1-5.36-1.09C169,100,169.2,69.6,169.22,68.31a1.62,1.62,0,0,1,.08-.49c.31-.86,7.55-21.1,14.19-25.64,1.33-.91,3.65-1.33,7.25,1.73,8.79,7.52,20.1,31.48,12.29,48.16-.33,1.37-2.63,9.94-8.9,13.29A11.21,11.21,0,0,1,188.82,106.69Zm-16.6-38.1c0,2.85.45,29.57,12.33,34.21,3.07,1.2,5.82,1.16,8.16-.09,5.48-2.92,7.41-11.37,7.43-11.46a1.73,1.73,0,0,1,.11-.32c7.21-15.16-3.47-37.9-11.46-44.73-1.58-1.35-3-2-3.61-1.54C180.41,47.92,174.3,62.8,172.22,68.59Z"/><g class="cls-18"><path class="cls-16" d="M201.19,63.72c-1.09,12.54-9.74,16.58-11.45,8.78A53.82,53.82,0,0,0,179,50.12a126.2,126.2,0,0,0-8.25,18.21S170.39,98.88,184,104.2s17.6-12.62,17.6-12.62C205.6,83.19,204.4,72.76,201.19,63.72Z"/></g><path class="cls-20" d="M146.09,129.3S137.63,70.4,174.6,61c8.77-1.25,18.37,29.25,10.73,58.48C185.33,119.48,151,169.68,146.09,129.3Z"/><path class="cls-21" d="M156.06,146.51a9,9,0,0,1-2.08-.24c-5-1.22-8.16-6.87-9.38-16.78-.18-1.34-8-60.39,29.63-69.94,1.63-.25,3.9.09,6.39,2.86,7.74,8.69,12.19,34.42,6.17,57.45a1.62,1.62,0,0,1-.22.46C184.65,123.13,168.3,146.51,156.06,146.51Zm19.06-84a1.67,1.67,0,0,0-.31,0c-35.07,8.92-27.31,66-27.23,66.6v0c1,8.55,3.44,13.33,7.11,14.23,8.72,2.12,23.92-16.76,29.26-24.51,6-23.16.79-47.28-5.58-54.43A5,5,0,0,0,175.12,62.47Z"/><path class="cls-22" d="M181.67,66.54c3.47,13.64,2.52,32.81.07,32.6-3.36-.28-2.24-7.28-7.28-25.47.56,6.72-1.12,31.35-7,30-5.51-1.31-3.4-20.29-3.11-22.7-1,8.38-9.22,34-10,14a61.7,61.7,0,0,1,3.82-24c-17.58,19.67-12,58.35-12,58.35,4.93,40.38,39.24-9.82,39.24-9.82C190.86,98.32,187.36,76.5,181.67,66.54Z"/><path class="cls-16" d="M127.11,259.61c12,8.16,24,10.64,31.34,7.3-1.59-1.56-2.73-4-3.65-7C142.6,264.45,133.4,262.67,127.11,259.61Z"/><path class="cls-17" d="M151.08,269.85c-7.29,0-16.15-3.13-24.81-9a1.5,1.5,0,0,1,1.5-2.59c7.81,3.8,16.73,3.88,26.51.25a1.49,1.49,0,0,1,1.19.06,1.54,1.54,0,0,1,.77.91c.92,3,2,5.11,3.25,6.36a1.49,1.49,0,0,1-.42,2.43A19.22,19.22,0,0,1,151.08,269.85Zm-12.4-5.72c6.53,2.61,12.65,3.4,17.27,2.09a20,20,0,0,1-2.1-4.37A40.85,40.85,0,0,1,138.68,264.13Z"/><path class="cls-16" d="M164.62,260.41c4.21-11.06-13.69-51.07-13.69-51.07s-10-19.48-22.11,1.58c0,0-19.48,36.32-2.11,48.43l.4.26c6.29,3.06,15.49,4.84,27.69.31.92,3,2.06,5.43,3.65,7A11.5,11.5,0,0,0,164.62,260.41Z"/><path class="cls-17" d="M158.44,268.41a1.52,1.52,0,0,1-1.05-.43,15.63,15.63,0,0,1-3.54-6.13c-10,3.38-19.22,3.09-27.4-.89l-.32-.2-.27-.17c-18.27-12.73.81-48.85,1.64-50.38,4.1-7.14,8.45-10.7,13.15-10.58,7,.17,11.43,8.66,11.62,9,.77,1.73,18.13,40.79,13.75,52.29h0a12.86,12.86,0,0,1-7,7.33A1.38,1.38,0,0,1,158.44,268.41Zm-3.64-10a1.56,1.56,0,0,1,.67.15,1.54,1.54,0,0,1,.77.91A17.78,17.78,0,0,0,158.8,265a9.88,9.88,0,0,0,4.42-5.17h0c3.27-8.59-8.75-39-13.66-49.92h0s-3.78-7.2-9-7.32c-3.5.07-7,3-10.45,9-.17.31-18.63,35.25-2.55,46.45,8,3.94,16.93,4,26.71.39A1.58,1.58,0,0,1,154.8,258.42Z"/><g class="cls-6"><path class="cls-23" d="M150.93,209.34s-10-19.48-22.11,1.58c0,0-19.48,36.32-2.11,48.43l.4.26c.16.08.35.14.51.22-2.75-9.59-3.77-23.65,6.15-37.37,8,14.95,6,25.91,6,25.91s8-3.49-.5-26.9c10.84,8.33,28.27,19.45,24.37,40.93a11.94,11.94,0,0,0,1-2C168.83,249.35,150.93,209.34,150.93,209.34Z"/></g><path class="cls-16" d="M177.7,147.71s73.07-4.65,96.31,28.56c-35.87,33.88-69.08,57.79-96.31.67C172.38,155.68,177.7,147.71,177.7,147.71Z"/><path class="cls-17" d="M216.46,212.84a30.37,30.37,0,0,1-5.62-.52c-13.25-2.47-24.54-13.83-34.5-34.74-5.51-21.93-.13-30.36.11-30.71a1.48,1.48,0,0,1,1.15-.66,220.78,220.78,0,0,1,39.75,1.84c28.52,4,48,13.23,57.89,27.36a1.5,1.5,0,0,1-.19,2C255.92,195.43,235.74,212.84,216.46,212.84Zm-37.83-63.68c-1,2.22-3.72,10.45.52,27.41,9.42,19.7,20,30.52,32.24,32.8,19.25,3.59,41.32-15.11,60.63-33.28C250.11,146.93,186.71,148.8,178.63,149.16Z"/><g class="cls-24"><path class="cls-16" d="M207.86,171.63c15.89.66,31.78,10.26,31.78,10.26S230.7,161,207.53,155.41c11.12-4,23.8-2.9,35.27,0-29.43-10-65.1-7.71-65.1-7.71s-5.32,8,0,29.23c19.15,40.17,41.26,40.24,65.17,25C215.77,210.09,205.2,191.67,207.86,171.63Z"/></g><path class="cls-16" d="M185.33,119.48s3.58-30.44,20.6-34.55c9.63-2.32,22.31-1.4,22.31-1.4s-5.07,7-5.36,18.9-10.72,31-33.28,28.77C185.09,124.71,185.33,119.48,185.33,119.48Z"/><path class="cls-17" d="M193.14,132.88a35.64,35.64,0,0,1-3.69-.19,1.47,1.47,0,0,1-1.08-.63c-4.75-6.83-4.55-12.42-4.53-12.66v-.1c.15-1.28,3.9-31.52,21.74-35.83,9.74-2.35,22.24-1.48,22.77-1.44a1.51,1.51,0,0,1,1.25.86,1.49,1.49,0,0,1-.14,1.51c0,.07-4.81,6.87-5.07,18.06a33.39,33.39,0,0,1-11.08,23A29.8,29.8,0,0,1,193.14,132.88Zm-2.7-3.11c8.1.64,15.3-1.61,20.88-6.55a30.63,30.63,0,0,0,10.06-20.83,39.84,39.84,0,0,1,4.3-17.48c-4.12-.14-12.6-.16-19.4,1.48C190.82,90.12,187,118,186.83,119.58,186.83,120.07,186.91,124.4,190.44,129.77Z"/><g class="cls-25"><path class="cls-16" d="M203,113.36a79.48,79.48,0,0,0,10.47-19.93s-6.48,1.49-15,11.46c.54-9.43,4.2-15.86,8.69-20.24l-1.3.28c-17,4.11-20.6,34.55-20.6,34.55s-.24,5.23,4.27,11.72c20.81,2.08,31.28-14.07,33-25.89A29.37,29.37,0,0,1,203,113.36Z"/></g><path class="cls-17" d="M207,103.72s-12.29,11-15.28,16.28C194.06,110.37,207,103.72,207,103.72Z"/><path class="cls-17" d="M195.57,122.51s13.92-3.08,16.69-6.19C209.15,120.92,196.85,123.3,195.57,122.51Z"/><path class="cls-16" d="M190.69,129.21s26.6-5.83,34.77,3.51-9.34,11.2-18.21,13.76-21.93,4.44-21.93,3.74S190.69,129.21,190.69,129.21Z"/><path class="cls-17" d="M186.38,151.8a3.67,3.67,0,0,1-1.93-.33,1.62,1.62,0,0,1-.63-1.25c0-.25,0-.9,5.41-21.39a1.53,1.53,0,0,1,1.13-1.08c1.12-.25,27.58-5.91,36.23,4,2.16,2.47,2.92,4.79,2.25,6.89-1.46,4.55-9,6.33-16.19,8-1.79.42-3.51.83-5,1.26C203.33,149.18,191.28,151.8,186.38,151.8Zm5.52-21.3c-1.62,6.12-3.87,14.77-4.74,18.32A122.53,122.53,0,0,0,206.84,145c1.51-.44,3.28-.86,5.12-1.29,5.52-1.31,13.08-3.11,14-6,.33-1-.23-2.38-1.65-4C217.63,126.05,196.5,129.62,191.9,130.5Z"/><path class="cls-26" d="M222.57,134.93c-4.51,1-9.77,2.28-14.38,1.17-3.88-.94-5-4.52-3.18-8a7.38,7.38,0,0,1,.46-.68,92.38,92.38,0,0,0-14.78,1.75s-5.37,20.31-5.37,21,13.07-1.17,21.93-3.74c8.45-2.44,24.67-4.27,19.15-12.5C225.13,134.32,223.85,134.64,222.57,134.93Z"/><path class="cls-20" d="M116.58,170.33S97.43,175.48,99.15,201c1.72,16,4.17,22.83,4.17,22.83s33.63-2.45,38.79-22.58c3.92-18.41,5.69-53.88,5.69-53.88Z"/><path class="cls-21" d="M103.32,225.34a1.48,1.48,0,0,1-1.41-1c-.1-.28-2.54-7.22-4.25-23.17C96,176.44,113.38,169.8,115.89,169l31-22.8a1.5,1.5,0,0,1,2.39,1.28c0,.36-1.82,35.8-5.72,54.12-5.38,21-38.73,23.66-40.15,23.77Zm42.8-74.87-28.65,21.07a1.54,1.54,0,0,1-.5.24c-.73.2-17.93,5.21-16.32,29.13,1.29,12,3,18.81,3.74,21.31,5.89-.66,32-4.56,36.26-21.34C143.82,186.05,145.59,159.57,146.12,150.47Zm-29.54,19.86h0Z"/><g class="cls-6"><path class="cls-20" d="M116.58,170.33S97.43,175.48,99.15,201c.08.73.16,1.42.24,2.11,2.6-10,8.8-22.53,23.61-28.74-.86,10.79-1.29,14.24-1.29,14.24s9.06-3.88,12.51-11.65c1.94,14.75-6,35.41-31.44,45.06.33,1.21.54,1.81.54,1.81s33.63-2.45,38.79-22.58c3.92-18.41,5.69-53.88,5.69-53.88Z"/></g><path class="cls-20" d="M147.8,147.38s-13.61,32.21-4.31,59.12,29.22,30.55,29.22,30.55,24.25-19.93,9.64-60.11C174.71,156.68,147.8,147.38,147.8,147.38Z"/><path class="cls-21" d="M172.71,238.55l-.27,0c-.85-.16-20.9-4.13-30.37-31.54-9.38-27.14,3.78-58.86,4.35-60.2a1.5,1.5,0,0,1,1.87-.83c1.13.39,27.66,9.76,35.46,30.45,14.81,40.73-9.83,61.6-10.09,61.8A1.47,1.47,0,0,1,172.71,238.55Zm-24.05-89.24C146.27,155.64,137,183,144.9,206s23.89,28.45,27.4,29.41a42.44,42.44,0,0,0,9.39-14.08c3.71-8.86,6.6-23.66-.75-43.88C174.6,160.64,154.12,151.49,148.66,149.31Z"/><g class="cls-6"><path class="cls-20" d="M182.35,176.94c-7.64-20.26-34.55-29.56-34.55-29.56s-13.61,32.21-4.31,59.12c3.81,11,9.41,18.11,14.69,22.68A96.48,96.48,0,0,1,148,171.79c8.62,14.24,14.23,46.6,14.23,46.6s4.32-15.53,1.3-40.13c12.82,20.15,16.27,43.07,9.11,58.78h0S197,217.12,182.35,176.94Z"/></g><path class="cls-20" d="M153.12,153.35s18.22,36.89,34.21,29.23-1-26.57-1-26.57Z"/><path class="cls-21" d="M182.79,185.13c-15.45,0-30.33-29.71-31-31.11a1.5,1.5,0,0,1,1.47-2.16l33.21,2.65a1.49,1.49,0,0,1,1,.5c.4.45,9.8,11.08,8,20.21-.75,3.78-3.26,6.71-7.45,8.71A11.84,11.84,0,0,1,182.79,185.13Zm-27.07-30.06c4.28,7.84,18.69,32,31,26.16,3.34-1.6,5.24-3.76,5.8-6.59,1.35-6.73-5.22-15.17-6.89-17.18Z"/><g class="cls-6"><path class="cls-20" d="M167.29,164.63s8.59,3.5,16.86-1.28c3.32-.15,7,3.84,9.91,7.9-.86-7.55-7.73-15.24-7.73-15.24l-33.21-2.66s13.06,26.43,26.76,29.9C170.88,176.86,167.29,164.63,167.29,164.63Z"/></g><path class="cls-16" d="M69.51,144.05s-18.35-6.58-16.36-30.72,23.22-18.1,31.12-12c13,10.13,19.14,23.13,19.54,28.52S69.51,144.05,69.51,144.05Z"/><path class="cls-17" d="M69.51,145.55a1.52,1.52,0,0,1-.51-.09c-.19-.07-19.41-7.26-17.34-32.25.93-11.22,5.93-15.69,10-17.46,8.31-3.65,18.86.78,23.56,4.43,13.12,10.2,19.67,23.44,20.12,29.6.43,5.78-22,12.33-35.43,15.72A1.57,1.57,0,0,1,69.51,145.55Zm-1-48.16a14,14,0,0,0-5.69,1.11c-4.79,2.1-7.54,7.13-8.19,15-1.73,20.94,12.3,27.89,15,29,17.26-4.4,32.19-10.1,32.71-12.52-.32-4.18-5.53-16.95-19-27.4A26.46,26.46,0,0,0,68.53,97.39Z"/><g class="cls-27"><path class="cls-16" d="M84.27,101.37c-3.76-2.92-10.54-5.81-16.83-5.44,8.42,2.92,17.79,7.72,23,15.43a47.92,47.92,0,0,0-15.61-8s14,9.63,17.6,20.26c-12.29-2.32-23.58-14.94-23.58-14.94s-.66,8.63,8.3,16.93c.49,5.57-12.93,10.76-23.48-2a27.22,27.22,0,0,0,15.85,20.36s34.7-8.78,34.3-14.16S97.32,111.5,84.27,101.37Z"/></g><path class="cls-17" d="M79.54,106.59s18,15.87,23,25.15C99.17,119.88,79.54,106.59,79.54,106.59Z"/><path class="cls-17" d="M73.2,116.56S85.58,128.94,98,133.17C83.16,132,73.2,116.56,73.2,116.56Z"/><path class="cls-20" d="M82,55.22S87,65.34,88.68,82.28s5,41.85,24.58,48.49c20.59,5.64,30.56,11.62,34.54,16.61,0,0,10.63-32.89-7.3-55.8S89.52,60.37,82,55.22Z"/><path class="cls-21" d="M147.8,148.88a1.51,1.51,0,0,1-1.17-.57c-3.2-4-11.65-10-33.77-16.09-21.5-7.29-24.21-34.94-25.67-49.8C85.58,66,80.67,56,80.62,55.89A1.5,1.5,0,0,1,82.81,54c1.87,1.27,5.6,2.84,10.33,4.81,13.13,5.5,35.11,14.7,48.54,31.86,18.22,23.28,8,55.81,7.55,57.19a1.51,1.51,0,0,1-1.16,1A1.24,1.24,0,0,1,147.8,148.88ZM85,58.54a95.21,95.21,0,0,1,5.21,23.59c2.06,21.08,6.35,41.38,23.56,47.22,16,4.39,27.48,9.56,33.32,15,2-8,6.66-33.48-7.75-51.89C126.36,76,105.67,67.3,92,61.56,89.29,60.44,86.92,59.45,85,58.54Z"/><path class="cls-22" d="M140.5,91.58A77.24,77.24,0,0,0,122.09,75.1,142.71,142.71,0,0,1,130.85,88c7,11.65,12.14,25.08,10.5,38.88-.08.66-1.81,2.81-2.13,1.6-5.31-20.15-15.72-28.91-21.4-38.28,2.39,4.8,7.73,20.53,8,26.05,0,.76-1.32,2.42-2.13,1.61-5.3-5.36-9.7-11.48-14.58-17.2a37.51,37.51,0,0,0,4.68,10c2.79,4.44,6.77,11.28,10.78,14.67,1.07.9-1.23.47-2.4-.29a73,73,0,0,1-13.91-11.48c-7.35-8-11-17.93-15-27.87a99.85,99.85,0,0,0-5.85-12.36c.51,2.72,1,5.71,1.27,9,1.66,16.94,5,41.85,24.58,48.49,20.59,5.64,30.56,11.62,34.54,16.61C147.8,147.38,158.43,114.49,140.5,91.58Z"/><path class="cls-20" d="M147.8,147.38s9.48-18.13,19.51-29,24.34-3.15,29.5,2.29c4.29,3.72-2,7.16-1.15,12s-.57,26.63-20.33,27.49S147.8,147.38,147.8,147.38Z"/><path class="cls-21" d="M173.53,161.72c-19.08,0-26.71-13-27-13.6a1.5,1.5,0,0,1,0-1.44c.39-.75,9.69-18.42,19.73-29.33a17.46,17.46,0,0,1,13.14-6h.12c7.3,0,14.66,4.26,18.43,8.25,3.26,2.81,1.68,5.93.52,8.2-.8,1.56-1.55,3-1.27,4.6.65,3.68.09,14.22-5.82,21.58-3.85,4.8-9.21,7.38-15.93,7.67C174.76,161.71,174.14,161.72,173.53,161.72Zm-24-14.41c1.83,2.67,9.46,12.1,25.72,11.37,5.82-.25,10.43-2.46,13.72-6.55,5.37-6.69,5.69-16.4,5.2-19.18-.45-2.56.66-4.73,1.55-6.49,1.25-2.44,1.6-3.35.09-4.66-3.47-3.66-9.89-7.46-16.46-7.42a14.57,14.57,0,0,0-11,5C159.79,128.75,151.45,143.77,149.54,147.31Z"/><path class="cls-20" d="M58.33,154.93s20.45-30,58.56-23.26c23.26,6.45,30.91,15.71,30.91,15.71a61.53,61.53,0,0,1-35.67,24.92C78,180.94,76.82,160.81,58.33,154.93Z"/><path class="cls-21" d="M97.16,175.92c-12.46,0-18.83-5.4-25.06-10.67-4.25-3.59-8.26-7-14.22-8.89a1.49,1.49,0,0,1-1-.94,1.52,1.52,0,0,1,.18-1.34c.21-.3,21.44-30.72,60.06-23.89,23.58,6.53,31.48,15.84,31.81,16.23a1.51,1.51,0,0,1,.13,1.73c-.48.79-11.9,19.36-36.59,25.61A63.22,63.22,0,0,1,97.16,175.92ZM60.77,154.2c5.48,2.16,9.43,5.51,13.27,8.76,8.15,6.9,15.85,13.41,37.72,7.88a61,61,0,0,0,34.12-23.29c-2.42-2.32-10.88-9.3-29.39-14.43C84.91,127.55,65.61,148.23,60.77,154.2Z"/><path class="cls-21" d="M146.57,149.23s14.82,37.8,16.56,62.49C166.61,193.29,157.48,162.89,146.57,149.23Z"/><path class="cls-21" d="M146.57,149.23s-38-9.49-62-2.19C99.84,138.69,135.23,141.68,146.57,149.23Z"/><path class="cls-21" d="M146.57,149.23s-22.74,10-53.69,9.28C110.62,162,137.31,158.37,146.57,149.23Z"/><path class="cls-21" d="M107.14,101.14s28.43,40.54,39.43,48.09C137.05,135.22,107.14,101.14,107.14,101.14Z"/><path class="cls-21" d="M120,97s21.48,36.37,26.56,52.27C146.57,149.23,138.79,119.57,120,97Z"/><path class="cls-21" d="M146.57,149.23s13.7-6.53,20.86-17.56C166.24,140.91,156.43,147.7,146.57,149.23Z"/><path class="cls-21" d="M147.82,150.31s18.81-2,31.8-11.95C174.38,148.73,160,152.62,147.82,150.31Z"/><path class="cls-21" d="M163.82,87.57s-6.26,40.34-15.3,58.77C156.87,138.35,163.82,103.22,163.82,87.57Z"/><path class="cls-21" d="M175.65,82s.32,21.83-9.58,38.21C175.65,110.87,177,94.53,175.65,82Z"/><path class="cls-17" d="M188.51,163s23,4.17,29.91,9C208,162.34,193,162,188.51,163Z"/><path class="cls-17" d="M99.49,188.77s-17,23.3-33,25.38C84.89,214.5,98.45,192.25,99.49,188.77Z"/><path class="cls-17" d="M66.45,203s12.18-12.87,36.87-20.52C87,183.2,68.89,197.81,66.45,203Z"/><path class="cls-17" d="M135.28,60.21s4,22.92,11.62,32.88C134.94,81.8,135.28,60.21,135.28,60.21Z"/><path class="cls-21" d="M144.5,155.25s-12.24,21-18.88,28.84C136.61,177.25,142.84,161.27,144.5,155.25Z"/><g class="cls-6"><path class="cls-20" d="M116.89,131.67a59.83,59.83,0,0,0-21.46,0c9.36,0,20.28,1.17,27,5.65-12.43-3.11-33.61,2-41.8,10.73,27.4-5.65,39.54,0,40.67,2.54s-18.92,8.19-33,5.93c13,7.06,30.22,4,30.22,4S97.29,172,82,161.59c-7.47-5.12-13.12-9.89-18.46-12.74a48.75,48.75,0,0,0-5.24,6.08c18.49,5.88,19.65,26,53.8,17.37a61.53,61.53,0,0,0,35.67-24.92S140.15,138.12,116.89,131.67Z"/></g><g class="cls-6"><path class="cls-20" d="M192.43,131.54c.68,11.68-10.75,26.45-22,18.25,10.79-6.9,13.38-21.14,13.38-21.14s-11.22,12.51-20.28,15.1c5.61-6.47,6.9-17.26,6.9-17.26s-2.59,6.9-10.79,12.51c4.38-14,12.77-21.75,20.29-26.1a16,16,0,0,0-12.65,5.47c-10,10.88-19.51,29-19.51,29s7.77,13.66,27.53,12.8,21.19-22.62,20.33-27.49c-.78-4.42,4.31-7.65,2.06-11C195,123.7,192.52,125.89,192.43,131.54Z"/></g><path class="cls-28" d="M88.88,63.31s30,6.52,42.08,30.42c-5.53-6.71-13.83-16.79-24.5-20,8.1,9.68,10.27,27.07,10.27,27.07S107.05,73.19,88.88,63.31Z"/><path class="cls-28" d="M176,63.63s6.83,9.05,6.28,23.64C180.1,76.74,177.33,66,176,63.63Z"/><path class="cls-28" d="M70.49,148.21s19.21-14.3,41.74-13.13C100.28,131.36,82.45,133.91,70.49,148.21Z"/><path class="cls-28" d="M112.3,184.24s-8.39,11.9-6.83,33.37C100.2,203.76,104.69,191.46,112.3,184.24Z"/><path class="cls-28" d="M152.21,191.82s-3,24.17,17.93,39.86C158.44,229.94,146.48,207.77,152.21,191.82Z"/><path class="cls-29" d="M65.58,185.55s-21.88,9.61-29.84,33.16C34.74,204.12,47.67,190.85,65.58,185.55Z"/><path class="cls-29" d="M223.17,157.74s24.89,1.86,40.12,18.57C258.09,163.31,244.72,155.88,223.17,157.74Z"/><path class="cls-29" d="M64.94,99.8s-9.28,8.17-4.08,24.88C51.57,115.77,57.51,102,64.94,99.8Z"/><path class="cls-29" d="M137.37,38.14s-8.54,8.17-7.05,27.11C122.52,49.65,132.17,41.11,137.37,38.14Z"/><path class="cls-29" d="M186.73,48.93s8,5.84,10.21,19.34C198.4,59.52,195.48,51.12,186.73,48.93Z"/><path class="cls-30" d="M29.31,130.19s-3.46-6.1-10.18-3.25-4.07,13.84-4.07,13.84-7.33-3.05-11,3.87,1,11.61,2.85,13c-7.74,3.87-6.72,12.83-2.85,17.1s10.18,2.65,10.18,2.65-3.05,5.9.41,9,7.13-.61,7.13-.61-.41,4.68,5.7,7.13,8.35-2.86,8.35-2.86a5.29,5.29,0,0,0,6.31,2.45c4.48-1.22,4.48-6.11,4.48-6.11s3.46,5.29,7.94,3.26,1.23-12.42,1.23-12.42,8.55,4.07,12.62-3.26-2-12.42-2-12.42,11.81-2.65,4.88-14.26c-6.05-10.14-15.07-2.24-15.07-2.24s5.3-11.2-2.24-15.68-11.81,2-11.81,2S36.44,119.61,29.31,130.19Z"/><path class="cls-31" d="M30.53,194.67a9.31,9.31,0,0,1-3.46-.73c-4.16-1.66-5.63-4.3-6.14-6.14a5.76,5.76,0,0,1-7-.57c-2.75-2.43-2.14-6.17-1.42-8.42-2.39.18-6.38-.09-9.26-3.28a13.1,13.1,0,0,1-3-10.87A10.77,10.77,0,0,1,5,157.5a10.79,10.79,0,0,1-1.95-13.36,9.32,9.32,0,0,1,10.57-4.93c-.47-3.47-.73-10.84,5-13.29a8.84,8.84,0,0,1,10.62,2.39c2-2.56,4.22-3.78,6.46-3.62,3.1.22,5.4,3.06,6.55,4.83,1.89-1.86,6.13-4.69,12.19-1.09,5.25,3.12,5.11,9.36,3.85,13.91a11,11,0,0,1,6.54-1.21c2.9.46,5.36,2.34,7.3,5.6,2.37,4,2.94,7.44,1.7,10.32a10,10,0,0,1-5.56,5,10.7,10.7,0,0,1,1,12.45c-3,5.36-8.35,5.48-12,4.49.78,3.43,1.62,9.85-2.38,11.66-3.08,1.41-5.9-.07-7.73-1.78a7,7,0,0,1-4.86,4.7,6.43,6.43,0,0,1-6.5-1.56A6.8,6.8,0,0,1,30.53,194.67Zm-8.75-10a1.28,1.28,0,0,1,.47.1,1.12,1.12,0,0,1,.63,1.11c0,.14-.2,3.91,5,6,5,2,6.85-2.08,6.92-2.26a1.09,1.09,0,0,1,1-.67,1.16,1.16,0,0,1,1,.61,4.12,4.12,0,0,0,5,1.87c3.59-1,3.66-4.88,3.67-5.05a1.11,1.11,0,0,1,2-.6c.12.18,3,4.47,6.56,2.86,2.92-1.33,1.39-8.63.62-11.08a1.11,1.11,0,0,1,1.53-1.34c.31.15,7.67,3.53,11.18-2.79a8.73,8.73,0,0,0-1.78-11,1.11,1.11,0,0,1-.36-1.11,1.13,1.13,0,0,1,.83-.82s4.35-1,5.75-4.3c.94-2.19.41-5-1.57-8.3-1.59-2.67-3.53-4.2-5.75-4.55-3.94-.62-7.6,2.54-7.64,2.57a1.09,1.09,0,0,1-1.39.05,1.1,1.1,0,0,1-.34-1.35c.05-.11,4.77-10.35-1.8-14.26S43.22,131.8,43.07,132a1.07,1.07,0,0,1-1,.49,1.1,1.1,0,0,1-.92-.62c-.65-1.33-2.9-4.81-5.53-5-1.75-.12-3.56,1.2-5.39,3.91a1.1,1.1,0,0,1-1,.49,1.09,1.09,0,0,1-.92-.56A6.84,6.84,0,0,0,19.56,128c-5.77,2.45-3.45,12.47-3.43,12.57a1.11,1.11,0,0,1-1.5,1.28c-.26-.11-6.45-2.57-9.59,3.36-3.36,6.35,1.11,10.52,2.55,11.64a1.15,1.15,0,0,1,.43,1,1.13,1.13,0,0,1-.61.88,8.81,8.81,0,0,0-5,6.39,11,11,0,0,0,2.5,9c3.36,3.71,9,2.33,9.09,2.32A1.11,1.11,0,0,1,15.23,178c0,.05-2.61,5.18.15,7.62s5.5-.45,5.62-.56A1.07,1.07,0,0,1,21.78,184.68Z"/><path class="cls-32" d="M72.06,158a11.58,11.58,0,0,1-7.78-.7,8.24,8.24,0,0,1-4.7-8.06,10.39,10.39,0,0,1,4.59-7.08c-4.26-.35-8,2.88-8,2.88A21.79,21.79,0,0,0,58,138.17l0,.05a6.2,6.2,0,0,1-7,2c-3.12-1.08-5-4.26-5.59-7.38a10.59,10.59,0,0,1,0-4.16,9.23,9.23,0,0,0-3.2,2.76,14.82,14.82,0,0,0-2-3,31.54,31.54,0,0,1-.44,3.2c-.38,1.94-1.21,5.06-3.57,5.41-3.09.46-3.68-3.85-3.73-6a27.27,27.27,0,0,1,.25-4.38,12.19,12.19,0,0,0-3.33,3.51,8.47,8.47,0,0,0-6.08-4c.3,1,.61,2,.85,3,.75,3.21,1.9,7.54.24,10.64-1.17,2.19-3.61,2.87-5.26.88-1.83-2.21-2.62-5.42-3.33-8.14-.13-.52-.24-1.05-.37-1.58-1.62,4.23-.3,9.75-.3,9.75a10.55,10.55,0,0,0-5-.58l.14.05c2.91,1,5.87,2.83,7.18,5.73,1.65,3.64-1.33,5.92-4.4,7.14a20.81,20.81,0,0,1-8.89,1.4,12.27,12.27,0,0,0,2.81,3.17,10,10,0,0,0-5.26,5.83A19.91,19.91,0,0,1,10,163c2.59.44,6.11,2,5.29,5.26-.74,2.92-3.81,5.08-6.13,6.69-.87.6-1.75,1.17-2.65,1.73a12.24,12.24,0,0,0,7.78.8,11.37,11.37,0,0,0-1.14,6.07c1.6-4.22,4.35-8,8.25-9.86.28-.13.81-.29,1,.12a7.83,7.83,0,0,1,.05,5.6c-.58,2-1.29,4-2,6-.22.58-.43,1.17-.64,1.76a7.55,7.55,0,0,0,2-1.35,6.06,6.06,0,0,0,.83,3.19c.08-1,.19-1.95.34-2.92.5-3.16,1.64-7.58,5.12-8.68,2.72-.85,4.07,1.49,4.52,3.81a36.56,36.56,0,0,1-.16,12,6.25,6.25,0,0,0,3.22-2.8,15.39,15.39,0,0,1,.06-8.38c.55-1.58,2.41-4.93,4.6-3.6,1.6,1,2.22,3.54,2.68,5.19a59.56,59.56,0,0,1,1.58,7.53,7.21,7.21,0,0,0,2-4.76,11.15,11.15,0,0,0,1.65,1.86A23,23,0,0,1,47,183.85c-.39-2.36-.21-5.95,2.32-7.15,1.7-.82,3.1.84,4,2.1A32.9,32.9,0,0,1,56.81,186c.55-3.75-1-8.78-1-8.78a12.79,12.79,0,0,0,7,.94,7.9,7.9,0,0,1-2.12-1.09c-2.26-1.66-4.13-4.5-3.71-7.4.48-3.24,3.6-5.33,6.63-5.92a15.16,15.16,0,0,1,4.56-.07,10.42,10.42,0,0,0-1.81-2.14A11,11,0,0,0,72.06,158Z"/><circle class="cls-33" cx="35.7" cy="157.51" r="15.01"/><path class="cls-34" d="M35.7,173.63a16.12,16.12,0,1,1,16.12-16.12A16.13,16.13,0,0,1,35.7,173.63Zm0-30a13.91,13.91,0,1,0,13.91,13.9A13.92,13.92,0,0,0,35.7,143.61Z"/><circle class="cls-35" cx="34.52" cy="154.44" r="9.77" transform="translate(-99.09 69.64) rotate(-45)"/><path class="cls-31" d="M28.41,170.79c-1.33,2.59-2.64,4.9-3.74,7.34-.58,1.2-1.06,2.44-1.53,3.7s-.84,2.57-1.36,4a10.2,10.2,0,0,1-.32-4.36,14.07,14.07,0,0,1,1.2-4.22A15.9,15.9,0,0,1,25,173.54,11.39,11.39,0,0,1,28.41,170.79Z"/><path class="cls-31" d="M40.07,171.48a15.36,15.36,0,0,1,2.9,3.08,22,22,0,0,1,2.16,3.58,18.28,18.28,0,0,1,1.41,4,9.1,9.1,0,0,1,.08,4.28c-1.11-2.61-2.31-4.87-3.48-7.3A49.68,49.68,0,0,1,40.07,171.48Z"/><path class="cls-31" d="M47.28,166.34a17.77,17.77,0,0,1,5.32,4.59,19.28,19.28,0,0,1,1.95,2.92,10,10,0,0,1,1.24,3.39,32.15,32.15,0,0,1-4.91-4.92A22.41,22.41,0,0,1,47.28,166.34Z"/><path class="cls-31" d="M6.91,157.69a29.33,29.33,0,0,1,7.2.59A43.1,43.1,0,0,1,21,160.16a14.43,14.43,0,0,1-7.34.3A17.11,17.11,0,0,1,6.91,157.69Z"/><path class="cls-31" d="M14.35,139.41a31,31,0,0,1,4.9,4.34c1.47,1.56,2.79,3,4.36,4.75a7.09,7.09,0,0,1-3.3-1.08,12.56,12.56,0,0,1-2.66-2.14,14.74,14.74,0,0,1-2-2.7A10.06,10.06,0,0,1,14.35,139.41Z"/><path class="cls-31" d="M42.14,131.42a12.44,12.44,0,0,1-.09,9,6.24,6.24,0,0,1-1.8,2.58,53.82,53.82,0,0,1,.39-5.84A20.14,20.14,0,0,1,42.14,131.42Z"/><path class="cls-31" d="M57.05,143.36A8.58,8.58,0,0,1,54,148.12,7.69,7.69,0,0,1,48.65,150a39.23,39.23,0,0,1,3.94-3.63A24.91,24.91,0,0,1,57.05,143.36Z"/><path class="cls-31" d="M29.27,129.12a23.56,23.56,0,0,1,1.85,6.78c.14,1.14.27,2.27.31,3.43s0,2.27.07,3.51a8.26,8.26,0,0,1-1.77-3.19,19.82,19.82,0,0,1-.8-3.45A17.69,17.69,0,0,1,29.27,129.12Z"/><path class="cls-31" d="M66.37,161.56a20.71,20.71,0,0,1-8.2.59,16.73,16.73,0,0,1-7.81-2.67,70.27,70.27,0,0,1,8.06.47A39.22,39.22,0,0,1,66.37,161.56Z"/><path class="cls-31" d="M14.24,177.44a19.05,19.05,0,0,1,4.63-5.5,16.83,16.83,0,0,1,6.29-3.51,26.93,26.93,0,0,1-4.87,5.21A23.32,23.32,0,0,1,14.24,177.44Z"/><path class="cls-36" d="M38.08,175.84a3.35,3.35,0,1,1-3.34-3.41A3.37,3.37,0,0,1,38.08,175.84Z"/><path class="cls-31" d="M34.74,180.35a4.52,4.52,0,1,1,4.45-4.51A4.49,4.49,0,0,1,34.74,180.35Zm0-6.81a2.3,2.3,0,1,0,2.24,2.3A2.27,2.27,0,0,0,34.74,173.54Z"/><path class="cls-36" d="M22.69,165.26a3.35,3.35,0,1,1-3.35-3.41A3.37,3.37,0,0,1,22.69,165.26Z"/><path class="cls-31" d="M19.34,169.77a4.51,4.51,0,1,1,4.46-4.51A4.49,4.49,0,0,1,19.34,169.77Zm0-6.81a2.3,2.3,0,1,0,2.24,2.3A2.27,2.27,0,0,0,19.34,163Z"/><path class="cls-36" d="M21.37,152.57a3.35,3.35,0,1,1-3.35-3.4A3.38,3.38,0,0,1,21.37,152.57Z"/><path class="cls-31" d="M18,157.09a4.52,4.52,0,1,1,4.45-4.52A4.49,4.49,0,0,1,18,157.09Zm0-6.81a2.3,2.3,0,1,0,2.24,2.29A2.27,2.27,0,0,0,18,150.28Z"/><path class="cls-36" d="M28.5,142.53a3.35,3.35,0,1,1-3.34-3.4A3.38,3.38,0,0,1,28.5,142.53Z"/><path class="cls-31" d="M25.16,147.05a4.52,4.52,0,1,1,4.45-4.52A4.5,4.5,0,0,1,25.16,147.05Zm0-6.81a2.3,2.3,0,1,0,2.23,2.29A2.27,2.27,0,0,0,25.16,140.24Z"/><path class="cls-36" d="M39.52,139.23a3.35,3.35,0,1,1-3.34-3.41A3.37,3.37,0,0,1,39.52,139.23Z"/><path class="cls-31" d="M36.18,143.74a4.51,4.51,0,1,1,4.45-4.51A4.48,4.48,0,0,1,36.18,143.74Zm0-6.81a2.3,2.3,0,1,0,2.24,2.3A2.27,2.27,0,0,0,36.18,136.93Z"/><path class="cls-36" d="M50.73,143.45a3.35,3.35,0,1,1-3.35-3.4A3.38,3.38,0,0,1,50.73,143.45Z"/><path class="cls-31" d="M47.38,148a4.51,4.51,0,1,1,4.45-4.51A4.49,4.49,0,0,1,47.38,148Zm0-6.81a2.3,2.3,0,1,0,2.24,2.3A2.28,2.28,0,0,0,47.38,141.15Z"/><path class="cls-36" d="M57.08,153.65a3.35,3.35,0,1,1-3.34-3.41A3.37,3.37,0,0,1,57.08,153.65Z"/><path class="cls-31" d="M53.74,158.16a4.52,4.52,0,1,1,4.45-4.51A4.49,4.49,0,0,1,53.74,158.16Zm0-6.81a2.3,2.3,0,1,0,2.23,2.3A2.27,2.27,0,0,0,53.74,151.35Z"/><ellipse class="cls-36" cx="52.68" cy="164.61" rx="3.35" ry="3.41"/><path class="cls-31" d="M52.68,169.13a4.52,4.52,0,1,1,4.46-4.52A4.49,4.49,0,0,1,52.68,169.13Zm0-6.81a2.3,2.3,0,1,0,2.24,2.29A2.26,2.26,0,0,0,52.68,162.32Z"/><path class="cls-36" d="M49.43,172.47a3.35,3.35,0,1,1-3.34-3.41A3.37,3.37,0,0,1,49.43,172.47Z"/><path class="cls-31" d="M46.09,177a4.51,4.51,0,1,1,4.45-4.51A4.49,4.49,0,0,1,46.09,177Zm0-6.81a2.3,2.3,0,1,0,2.24,2.3A2.27,2.27,0,0,0,46.09,170.17Z"/><path class="cls-30" d="M201,196.22s-3.47-6.11-10.19-3.26-4.07,13.85-4.07,13.85-7.33-3.05-11,3.87,1,11.61,2.85,13c-7.74,3.87-6.72,12.83-2.85,17.11s10.18,2.65,10.18,2.65-3.06,5.9.4,9,7.13-.61,7.13-.61-.41,4.68,5.7,7.12,8.35-2.85,8.35-2.85a5.31,5.31,0,0,0,6.32,2.45c4.48-1.23,4.48-6.11,4.48-6.11s3.46,5.29,7.94,3.26,1.22-12.43,1.22-12.43,8.55,4.08,12.62-3.25-2-12.43-2-12.43,11.81-2.64,4.89-14.25c-6.05-10.14-15.07-2.24-15.07-2.24s5.29-11.2-2.24-15.68-11.81,2-11.81,2S208.11,185.63,201,196.22Z"/><path class="cls-31" d="M202.2,260.7a9.35,9.35,0,0,1-3.46-.73c-4.16-1.66-5.63-4.3-6.14-6.14a5.78,5.78,0,0,1-7-.57c-2.75-2.43-2.14-6.17-1.42-8.42-2.39.18-6.38-.1-9.26-3.28a13.11,13.11,0,0,1-3-10.88,10.76,10.76,0,0,1,4.82-7.16,10.78,10.78,0,0,1-1.94-13.36,9.32,9.32,0,0,1,10.57-4.92c-.48-3.47-.74-10.84,5-13.3a8.86,8.86,0,0,1,10.63,2.4c2-2.56,4.21-3.78,6.46-3.62,3.1.22,5.4,3.05,6.54,4.83,1.89-1.86,6.14-4.69,12.19-1.09,5.25,3.12,5.11,9.36,3.85,13.91a11,11,0,0,1,6.54-1.21c2.9.46,5.36,2.34,7.31,5.6,2.36,4,2.93,7.44,1.69,10.32a10,10,0,0,1-5.56,5,10.7,10.7,0,0,1,1,12.45c-3,5.36-8.34,5.48-12,4.49.78,3.43,1.62,9.85-2.37,11.66-3.09,1.41-5.91-.07-7.74-1.78a7,7,0,0,1-4.85,4.69,6.45,6.45,0,0,1-6.51-1.55A6.8,6.8,0,0,1,202.2,260.7Zm-8.75-10a1.1,1.1,0,0,1,.47.1,1.12,1.12,0,0,1,.64,1.1c0,.15-.21,3.92,5,6,5.05,2,6.85-2.08,6.92-2.26a1.13,1.13,0,0,1,1-.68,1.19,1.19,0,0,1,1,.62,4.13,4.13,0,0,0,5,1.87c3.59-1,3.67-4.88,3.67-5.05a1.1,1.1,0,0,1,.79-1,1.09,1.09,0,0,1,1.24.45c.12.18,3,4.47,6.56,2.86,2.92-1.33,1.39-8.63.62-11.09a1.11,1.11,0,0,1,1.53-1.33c.31.15,7.68,3.53,11.19-2.79a8.74,8.74,0,0,0-1.78-11,1.11,1.11,0,0,1-.37-1.11,1.13,1.13,0,0,1,.83-.82s4.35-1,5.76-4.3c.93-2.19.4-5-1.58-8.3-1.59-2.67-3.52-4.2-5.75-4.55-3.94-.62-7.6,2.54-7.64,2.57a1.11,1.11,0,0,1-1.73-1.3c0-.11,4.78-10.35-1.8-14.26s-10.17,1.47-10.32,1.7a1.06,1.06,0,0,1-1,.49,1.13,1.13,0,0,1-.92-.62c-.65-1.33-2.9-4.82-5.53-5-1.74-.13-3.55,1.19-5.38,3.91a1.12,1.12,0,0,1-1,.49,1.16,1.16,0,0,1-.93-.56,6.83,6.83,0,0,0-8.78-2.79c-5.78,2.45-3.46,12.47-3.43,12.57a1.12,1.12,0,0,1-1.5,1.29c-.26-.11-6.46-2.57-9.6,3.36-3.36,6.35,1.11,10.51,2.56,11.64a1.1,1.1,0,0,1-.19,1.86,8.84,8.84,0,0,0-5,6.39,11,11,0,0,0,2.51,9c3.36,3.71,9,2.33,9.08,2.31a1.12,1.12,0,0,1,1.14.39,1.1,1.1,0,0,1,.12,1.19c0,.06-2.61,5.18.16,7.63s5.49-.45,5.61-.57A1.1,1.1,0,0,1,193.45,250.71Z"/><path class="cls-32" d="M243.74,224.05a11.61,11.61,0,0,1-7.79-.7,8.26,8.26,0,0,1-4.7-8.06,10.46,10.46,0,0,1,4.59-7.09c-4.26-.34-8,2.89-8,2.89a22.1,22.1,0,0,0,1.76-6.89l0,.05a6.22,6.22,0,0,1-7,2c-3.13-1.09-5-4.26-5.6-7.38a10.78,10.78,0,0,1,0-4.16,9.17,9.17,0,0,0-3.19,2.75,15.35,15.35,0,0,0-2-3c-.11,1.08-.24,2.15-.45,3.2-.38,2-1.21,5.07-3.57,5.42-3.09.45-3.67-3.85-3.73-6a27.42,27.42,0,0,1,.26-4.39,12.25,12.25,0,0,0-3.33,3.52,8.51,8.51,0,0,0-6.09-4c.3,1,.61,2,.85,3,.75,3.2,1.9,7.54.24,10.64-1.17,2.19-3.6,2.87-5.26.88-1.83-2.21-2.62-5.43-3.32-8.14-.14-.53-.25-1.06-.37-1.58-1.62,4.23-.31,9.75-.31,9.75a10.55,10.55,0,0,0-5-.58l.15.05c2.9,1,5.87,2.83,7.18,5.73,1.64,3.64-1.34,5.92-4.4,7.14a20.83,20.83,0,0,1-8.9,1.4,12,12,0,0,0,2.82,3.16,10.06,10.06,0,0,0-5.27,5.84,19.76,19.76,0,0,1,8.3-.56c2.6.44,6.11,2,5.3,5.26-.74,2.92-3.82,5.07-6.14,6.69-.86.6-1.75,1.17-2.64,1.72a12.2,12.2,0,0,0,7.78.81,11.3,11.3,0,0,0-1.15,6.07c1.6-4.23,4.35-8,8.25-9.86.28-.13.82-.29,1,.11a7.78,7.78,0,0,1,0,5.6c-.58,2-1.29,4-2,6-.21.58-.43,1.17-.64,1.76a7.55,7.55,0,0,0,2-1.35,6.14,6.14,0,0,0,.84,3.19c.08-1,.18-2,.34-2.92.49-3.16,1.63-7.58,5.11-8.68,2.72-.85,4.07,1.49,4.52,3.81a36.83,36.83,0,0,1-.15,12,6.22,6.22,0,0,0,3.21-2.8,15.39,15.39,0,0,1,.06-8.38c.56-1.58,2.42-4.93,4.61-3.6,1.6,1,2.21,3.54,2.68,5.19a61,61,0,0,1,1.57,7.53,7.24,7.24,0,0,0,2.06-4.76,10.62,10.62,0,0,0,1.65,1.86,23.24,23.24,0,0,1-1.29-4.41c-.39-2.36-.2-5.95,2.32-7.16,1.7-.81,3.11.85,4,2.11a32.68,32.68,0,0,1,3.53,7.22c.55-3.75-1-8.79-1-8.79a12.85,12.85,0,0,0,7,1,8.09,8.09,0,0,1-2.12-1.1c-2.25-1.65-4.13-4.49-3.71-7.39.48-3.24,3.61-5.34,6.63-5.92a15.16,15.16,0,0,1,4.56-.07,10.68,10.68,0,0,0-1.81-2.15A11,11,0,0,0,243.74,224.05Z"/><circle class="cls-33" cx="207.38" cy="223.54" r="15.01"/><path class="cls-34" d="M207.38,239.66a16.12,16.12,0,1,1,16.12-16.12A16.14,16.14,0,0,1,207.38,239.66Zm0-30a13.91,13.91,0,1,0,13.9,13.91A13.93,13.93,0,0,0,207.38,209.63Z"/><circle class="cls-35" cx="206.2" cy="220.47" r="9.77" transform="translate(-68.67 95.69) rotate(-22.5)"/><path class="cls-31" d="M200.09,236.82c-1.34,2.59-2.65,4.9-3.74,7.34-.59,1.2-1.06,2.44-1.54,3.7s-.84,2.56-1.36,4a10.52,10.52,0,0,1-.32-4.36,13.8,13.8,0,0,1,1.21-4.22,15.92,15.92,0,0,1,2.36-3.68A11.43,11.43,0,0,1,200.09,236.82Z"/><path class="cls-31" d="M211.75,237.51a15.53,15.53,0,0,1,2.89,3.07,23.7,23.7,0,0,1,2.17,3.58,18.34,18.34,0,0,1,1.4,4,9.24,9.24,0,0,1,.09,4.28c-1.12-2.61-2.31-4.87-3.49-7.31A48.16,48.16,0,0,1,211.75,237.51Z"/><path class="cls-31" d="M219,232.36a17.82,17.82,0,0,1,5.32,4.6,20.12,20.12,0,0,1,2,2.92,9.92,9.92,0,0,1,1.23,3.38,31.66,31.66,0,0,1-4.91-4.91A22.73,22.73,0,0,1,219,232.36Z"/><path class="cls-31" d="M178.59,223.71a29.7,29.7,0,0,1,7.19.6,42.83,42.83,0,0,1,6.93,1.88,14.43,14.43,0,0,1-7.34.3A17,17,0,0,1,178.59,223.71Z"/><path class="cls-31" d="M186,205.44a31.05,31.05,0,0,1,4.91,4.34c1.47,1.55,2.78,3,4.35,4.75a7.05,7.05,0,0,1-3.29-1.08,12.62,12.62,0,0,1-2.66-2.14,15.26,15.26,0,0,1-2-2.7A10.55,10.55,0,0,1,186,205.44Z"/><path class="cls-31" d="M213.82,197.44a11.79,11.79,0,0,1,.68,6.05,11.56,11.56,0,0,1-.78,3,6.09,6.09,0,0,1-1.8,2.59,56.47,56.47,0,0,1,.39-5.84A20.32,20.32,0,0,1,213.82,197.44Z"/><path class="cls-31" d="M228.72,209.38a8.64,8.64,0,0,1-3.05,4.77,7.71,7.71,0,0,1-5.35,1.92,40.24,40.24,0,0,1,3.94-3.63A25.85,25.85,0,0,1,228.72,209.38Z"/><path class="cls-31" d="M200.94,195.15a23.16,23.16,0,0,1,1.85,6.78c.14,1.14.27,2.27.31,3.42s.05,2.28.07,3.52a8.26,8.26,0,0,1-1.77-3.19,19.82,19.82,0,0,1-.8-3.45A17.88,17.88,0,0,1,200.94,195.15Z"/><path class="cls-31" d="M238.05,227.58a20.6,20.6,0,0,1-8.21.6,16.56,16.56,0,0,1-7.8-2.68,72.54,72.54,0,0,1,8.05.48A40,40,0,0,1,238.05,227.58Z"/><path class="cls-31" d="M185.92,243.47a18.9,18.9,0,0,1,4.63-5.5,16.81,16.81,0,0,1,6.28-3.52,26.6,26.6,0,0,1-4.86,5.21A23.51,23.51,0,0,1,185.92,243.47Z"/><path class="cls-36" d="M209.76,241.86a3.35,3.35,0,1,1-3.35-3.4A3.38,3.38,0,0,1,209.76,241.86Z"/><path class="cls-31" d="M206.41,246.38a4.52,4.52,0,1,1,4.45-4.52A4.49,4.49,0,0,1,206.41,246.38Zm0-6.81a2.3,2.3,0,1,0,2.24,2.29A2.27,2.27,0,0,0,206.41,239.57Z"/><ellipse class="cls-36" cx="191.02" cy="231.29" rx="3.35" ry="3.41"/><path class="cls-31" d="M191,235.8a4.52,4.52,0,1,1,4.45-4.51A4.49,4.49,0,0,1,191,235.8Zm0-6.81a2.3,2.3,0,1,0,2.24,2.3A2.27,2.27,0,0,0,191,229Z"/><path class="cls-36" d="M193,218.6a3.35,3.35,0,1,1-3.35-3.4A3.38,3.38,0,0,1,193,218.6Z"/><path class="cls-31" d="M189.69,223.11a4.51,4.51,0,1,1,4.45-4.51A4.49,4.49,0,0,1,189.69,223.11Zm0-6.81a2.3,2.3,0,1,0,2.24,2.3A2.28,2.28,0,0,0,189.69,216.3Z"/><path class="cls-36" d="M200.17,208.56a3.35,3.35,0,1,1-3.34-3.4A3.37,3.37,0,0,1,200.17,208.56Z"/><path class="cls-31" d="M196.83,213.07a4.51,4.51,0,1,1,4.45-4.51A4.48,4.48,0,0,1,196.83,213.07Zm0-6.81a2.3,2.3,0,1,0,2.24,2.3A2.27,2.27,0,0,0,196.83,206.26Z"/><path class="cls-36" d="M211.2,205.26a3.35,3.35,0,1,1-3.35-3.41A3.37,3.37,0,0,1,211.2,205.26Z"/><path class="cls-31" d="M207.85,209.77a4.52,4.52,0,1,1,4.45-4.51A4.49,4.49,0,0,1,207.85,209.77Zm0-6.81a2.3,2.3,0,1,0,2.24,2.3A2.28,2.28,0,0,0,207.85,203Z"/><path class="cls-36" d="M222.4,209.48a3.35,3.35,0,1,1-3.34-3.4A3.38,3.38,0,0,1,222.4,209.48Z"/><path class="cls-31" d="M219.06,214a4.51,4.51,0,1,1,4.45-4.51A4.49,4.49,0,0,1,219.06,214Zm0-6.81a2.3,2.3,0,1,0,2.23,2.3A2.27,2.27,0,0,0,219.06,207.18Z"/><path class="cls-36" d="M228.75,219.67a3.35,3.35,0,1,1-3.34-3.4A3.37,3.37,0,0,1,228.75,219.67Z"/><path class="cls-31" d="M225.41,224.19a4.52,4.52,0,1,1,4.45-4.52A4.49,4.49,0,0,1,225.41,224.19Zm0-6.81a2.3,2.3,0,1,0,2.24,2.29A2.27,2.27,0,0,0,225.41,217.38Z"/><path class="cls-36" d="M227.7,230.64a3.35,3.35,0,1,1-3.34-3.4A3.38,3.38,0,0,1,227.7,230.64Z"/><path class="cls-31" d="M224.36,235.15a4.51,4.51,0,1,1,4.45-4.51A4.48,4.48,0,0,1,224.36,235.15Zm0-6.81a2.3,2.3,0,1,0,2.24,2.3A2.27,2.27,0,0,0,224.36,228.34Z"/><ellipse class="cls-36" cx="217.76" cy="238.5" rx="3.35" ry="3.41"/><path class="cls-31" d="M217.76,243a4.52,4.52,0,1,1,4.45-4.51A4.49,4.49,0,0,1,217.76,243Zm0-6.81a2.3,2.3,0,1,0,2.24,2.3A2.28,2.28,0,0,0,217.76,236.2Z"/><path class="cls-30" d="M231.32,117.23a5.81,5.81,0,0,0-7.43-2.38c-4.9,2.08-3,10.1-3,10.1s-5.34-2.23-8,2.82a7.23,7.23,0,0,0,2.08,9.5c-5.64,2.82-4.9,9.36-2.08,12.48s7.43,1.93,7.43,1.93-2.23,4.3.29,6.53,5.2-.44,5.2-.44-.3,3.41,4.16,5.19,6.09-2.08,6.09-2.08a3.85,3.85,0,0,0,4.6,1.79c3.27-.9,3.27-4.46,3.27-4.46s2.52,3.86,5.79,2.38.89-9.06.89-9.06,6.24,3,9.21-2.38a7.21,7.21,0,0,0-1.49-9.06s8.61-1.93,3.56-10.39c-4.41-7.39-11-1.63-11-1.63s3.86-8.17-1.64-11.44-8.61,1.49-8.61,1.49S236.51,109.51,231.32,117.23Z"/><path class="cls-31" d="M232.2,164.24a6.83,6.83,0,0,1-2.52-.53c-3-1.21-4.11-3.13-4.48-4.48a4.2,4.2,0,0,1-5.11-.41c-2-1.78-1.56-4.5-1-6.14a8.12,8.12,0,0,1-6.76-2.39,9.58,9.58,0,0,1-2.21-7.93,7.84,7.84,0,0,1,3.52-5.23,7.86,7.86,0,0,1-1.42-9.74,6.8,6.8,0,0,1,7.71-3.59c-.35-2.53-.54-7.9,3.68-9.69a6.44,6.44,0,0,1,7.74,1.74c1.49-1.87,3.08-2.76,4.71-2.64,2.26.17,3.94,2.23,4.77,3.53,1.39-1.36,4.48-3.43,8.9-.8,3.82,2.27,3.72,6.82,2.8,10.14a8,8,0,0,1,4.77-.88c2.12.34,3.91,1.71,5.33,4.09,1.72,2.89,2.14,5.42,1.24,7.52a7.31,7.31,0,0,1-4.06,3.65,7.81,7.81,0,0,1,.75,9.08c-2.17,3.91-6.08,4-8.73,3.27.56,2.51,1.18,7.19-1.74,8.51-2.25,1-4.3,0-5.63-1.3a5.11,5.11,0,0,1-3.55,3.42,4.7,4.7,0,0,1-4.74-1.13A4.94,4.94,0,0,1,232.2,164.24ZM225.82,157a.8.8,0,0,1,.34.07.82.82,0,0,1,.47.81c0,.1-.15,2.85,3.65,4.37s5-1.51,5-1.64a.82.82,0,0,1,.72-.49.85.85,0,0,1,.75.44,3,3,0,0,0,3.67,1.37,3.87,3.87,0,0,0,2.67-3.68.8.8,0,0,1,.58-.77.78.78,0,0,1,.9.33c.09.13,2.19,3.26,4.78,2.08,2.14-1,1-6.29.46-8.08a.8.8,0,0,1,.24-.85.81.81,0,0,1,.88-.12c.22.1,5.59,2.57,8.15-2a6.37,6.37,0,0,0-1.3-8,.82.82,0,0,1-.26-.81.8.8,0,0,1,.6-.59s3.18-.75,4.2-3.14c.68-1.6.29-3.64-1.15-6.06-1.16-1.94-2.57-3.06-4.19-3.31-2.88-.45-5.55,1.85-5.57,1.87a.81.81,0,0,1-1,0,.79.79,0,0,1-.24-1c0-.07,3.47-7.54-1.32-10.39s-7.41,1.07-7.53,1.23a.76.76,0,0,1-.72.36.82.82,0,0,1-.68-.45c-.47-1-2.11-3.51-4-3.64-1.27-.1-2.59.87-3.92,2.85a.81.81,0,0,1-.7.35.82.82,0,0,1-.68-.4,5,5,0,0,0-6.4-2c-4.21,1.79-2.52,9.1-2.5,9.17a.81.81,0,0,1-.27.8.78.78,0,0,1-.83.13c-.19-.07-4.71-1.86-7,2.46a6.45,6.45,0,0,0,1.87,8.49.82.82,0,0,1,.31.71.83.83,0,0,1-.45.65,6.4,6.4,0,0,0-3.66,4.65,8,8,0,0,0,1.82,6.55c2.45,2.71,6.59,1.71,6.63,1.69a.84.84,0,0,1,.83.28.83.83,0,0,1,.09.88s-1.91,3.77.11,5.55,4-.32,4.09-.41A.83.83,0,0,1,225.82,157Z"/><path class="cls-32" d="M262.49,137.52a8.48,8.48,0,0,1-5.68-.51,6,6,0,0,1-3.43-5.88,7.67,7.67,0,0,1,3.35-5.17c-3.1-.25-5.81,2.11-5.81,2.11a16.2,16.2,0,0,0,1.28-5l0,0a4.53,4.53,0,0,1-5.09,1.45c-2.28-.8-3.64-3.12-4.08-5.39a7.73,7.73,0,0,1,0-3,6.67,6.67,0,0,0-2.33,2,11.44,11.44,0,0,0-1.46-2.18c-.08.79-.18,1.57-.33,2.34-.28,1.41-.88,3.69-2.6,4-2.25.33-2.68-2.81-2.72-4.37a20.54,20.54,0,0,1,.18-3.2,8.91,8.91,0,0,0-2.42,2.57,6.2,6.2,0,0,0-4.44-2.9c.22.73.44,1.45.62,2.2.55,2.33,1.38,5.49.17,7.75-.85,1.6-2.63,2.1-3.83.65-1.34-1.62-1.91-4-2.43-5.94-.1-.38-.17-.77-.27-1.15-1.18,3.08-.22,7.11-.22,7.11a7.74,7.74,0,0,0-3.64-.43l.11,0a8.6,8.6,0,0,1,5.23,4.18c1.2,2.65-1,4.32-3.2,5.2a15.22,15.22,0,0,1-6.49,1,8.8,8.8,0,0,0,2,2.3,7.34,7.34,0,0,0-3.84,4.26,14.45,14.45,0,0,1,6.06-.41c1.89.32,4.45,1.5,3.86,3.84-.54,2.13-2.79,3.7-4.48,4.88-.63.43-1.27.85-1.93,1.25a8.92,8.92,0,0,0,5.68.59,8.31,8.31,0,0,0-.84,4.43,12.6,12.6,0,0,1,6-7.19c.2-.1.59-.22.72.08a5.68,5.68,0,0,1,0,4.08c-.43,1.48-.94,2.94-1.47,4.39-.16.42-.31.85-.47,1.28a5.48,5.48,0,0,0,1.49-1,4.43,4.43,0,0,0,.61,2.32c.06-.71.14-1.42.25-2.12.36-2.31,1.19-5.53,3.73-6.33,2-.63,3,1.08,3.3,2.77a26.7,26.7,0,0,1-.12,8.78,4.55,4.55,0,0,0,2.34-2.05,11.28,11.28,0,0,1,0-6.1c.4-1.16,1.76-3.6,3.36-2.63,1.16.71,1.61,2.58,1.95,3.78a44.22,44.22,0,0,1,1.15,5.49,5.26,5.26,0,0,0,1.5-3.47,8.09,8.09,0,0,0,1.2,1.36,16.46,16.46,0,0,1-.93-3.22c-.29-1.72-.15-4.34,1.69-5.22,1.24-.59,2.26.62,2.89,1.54a23.54,23.54,0,0,1,2.57,5.26,17.51,17.51,0,0,0-.74-6.4,9.33,9.33,0,0,0,5.14.69,5.71,5.71,0,0,1-1.55-.8c-1.65-1.21-3-3.28-2.7-5.39.34-2.37,2.62-3.89,4.83-4.32a11.2,11.2,0,0,1,3.32-.05,7.85,7.85,0,0,0-1.32-1.57A8.05,8.05,0,0,0,262.49,137.52Z"/><circle class="cls-33" cx="235.98" cy="137.15" r="10.95"/><path class="cls-34" d="M236,148.9a11.76,11.76,0,1,1,11.75-11.75A11.76,11.76,0,0,1,236,148.9ZM236,127a10.14,10.14,0,1,0,10.14,10.14A10.15,10.15,0,0,0,236,127Z"/><circle class="cls-35" cx="235.11" cy="134.9" r="7.12"/><path class="cls-31" d="M230.66,146.83c-1,1.89-1.93,3.57-2.73,5.35-.42.88-.77,1.78-1.12,2.7s-.61,1.87-1,2.89a7.6,7.6,0,0,1-.23-3.18,9.72,9.72,0,0,1,.88-3.08,11.56,11.56,0,0,1,1.72-2.68A8.4,8.4,0,0,1,230.66,146.83Z"/><path class="cls-31" d="M239.16,147.33a11.44,11.44,0,0,1,2.11,2.24,15.86,15.86,0,0,1,1.58,2.62,13.69,13.69,0,0,1,1,2.9,6.85,6.85,0,0,1,.06,3.12c-.81-1.9-1.69-3.55-2.54-5.33A34.77,34.77,0,0,1,239.16,147.33Z"/><path class="cls-31" d="M244.41,143.58a13.14,13.14,0,0,1,3.89,3.35,14.61,14.61,0,0,1,1.42,2.13,7.31,7.31,0,0,1,.9,2.47,22.92,22.92,0,0,1-3.58-3.59A16.55,16.55,0,0,1,244.41,143.58Z"/><path class="cls-31" d="M215,137.27a21.54,21.54,0,0,1,5.25.44,30.63,30.63,0,0,1,5.05,1.37,10.47,10.47,0,0,1-5.35.22A12.44,12.44,0,0,1,215,137.27Z"/><path class="cls-31" d="M220.41,124a22.49,22.49,0,0,1,3.57,3.16c1.07,1.14,2,2.21,3.18,3.47a5.22,5.22,0,0,1-2.41-.79,9.76,9.76,0,0,1-1.94-1.56,11.22,11.22,0,0,1-1.47-2A7.1,7.1,0,0,1,220.41,124Z"/><path class="cls-31" d="M240.67,118.12a8.46,8.46,0,0,1,.5,4.4,8.28,8.28,0,0,1-.57,2.17,4.52,4.52,0,0,1-1.31,1.88c0-1.54.11-2.85.28-4.26A14.78,14.78,0,0,1,240.67,118.12Z"/><path class="cls-31" d="M251.54,126.82a6.25,6.25,0,0,1-2.23,3.48,5.59,5.59,0,0,1-3.9,1.4,28.71,28.71,0,0,1,2.88-2.65A19.48,19.48,0,0,1,251.54,126.82Z"/><path class="cls-31" d="M231.28,116.45a16.93,16.93,0,0,1,1.35,4.94c.1.83.2,1.66.23,2.5s0,1.66,0,2.56a6,6,0,0,1-1.29-2.33,14.74,14.74,0,0,1-.59-2.51A13.07,13.07,0,0,1,231.28,116.45Z"/><path class="cls-31" d="M258.34,140.09a15,15,0,0,1-6,.44,12.15,12.15,0,0,1-5.69-1.95,51,51,0,0,1,5.87.35A28.8,28.8,0,0,1,258.34,140.09Z"/><path class="cls-31" d="M220.33,151.68a13.7,13.7,0,0,1,3.37-4,12.4,12.4,0,0,1,4.59-2.57,19.55,19.55,0,0,1-3.55,3.8A17,17,0,0,1,220.33,151.68Z"/><ellipse class="cls-36" cx="235.27" cy="150.51" rx="2.44" ry="2.48"/><path class="cls-31" d="M235.27,153.8a3.29,3.29,0,1,1,3.25-3.29A3.28,3.28,0,0,1,235.27,153.8Zm0-5a1.68,1.68,0,1,0,1.63,1.68A1.65,1.65,0,0,0,235.27,148.83Z"/><path class="cls-36" d="M226.49,142.8a2.44,2.44,0,1,1-2.44-2.49A2.46,2.46,0,0,1,226.49,142.8Z"/><path class="cls-31" d="M224.05,146.09a3.29,3.29,0,1,1,3.24-3.29A3.28,3.28,0,0,1,224.05,146.09Zm0-5a1.68,1.68,0,1,0,1.63,1.68A1.66,1.66,0,0,0,224.05,141.12Z"/><path class="cls-36" d="M225.52,133.55a2.44,2.44,0,1,1-2.44-2.49A2.46,2.46,0,0,1,225.52,133.55Z"/><path class="cls-31" d="M223.08,136.84a3.3,3.3,0,1,1,3.25-3.3A3.28,3.28,0,0,1,223.08,136.84Zm0-5a1.68,1.68,0,1,0,1.63,1.67A1.65,1.65,0,0,0,223.08,131.87Z"/><path class="cls-36" d="M230.72,126.22a2.44,2.44,0,1,1-2.44-2.48A2.46,2.46,0,0,1,230.72,126.22Z"/><path class="cls-31" d="M228.28,129.52a3.3,3.3,0,1,1,3.25-3.3A3.27,3.27,0,0,1,228.28,129.52Zm0-5a1.68,1.68,0,1,0,1.64,1.67A1.65,1.65,0,0,0,228.28,124.55Z"/><ellipse class="cls-36" cx="236.32" cy="123.81" rx="2.44" ry="2.48"/><path class="cls-31" d="M236.32,127.1a3.29,3.29,0,1,1,3.25-3.29A3.27,3.27,0,0,1,236.32,127.1Zm0-5a1.68,1.68,0,1,0,1.63,1.67A1.65,1.65,0,0,0,236.32,122.14Z"/><path class="cls-36" d="M246.93,126.89a2.44,2.44,0,1,1-2.44-2.48A2.46,2.46,0,0,1,246.93,126.89Z"/><path class="cls-31" d="M244.49,130.18a3.29,3.29,0,1,1,3.25-3.29A3.27,3.27,0,0,1,244.49,130.18Zm0-5a1.68,1.68,0,1,0,1.63,1.67A1.65,1.65,0,0,0,244.49,125.22Z"/><path class="cls-36" d="M251.56,134.33a2.44,2.44,0,1,1-2.44-2.49A2.46,2.46,0,0,1,251.56,134.33Z"/><path class="cls-31" d="M249.12,137.62a3.29,3.29,0,1,1,3.25-3.29A3.27,3.27,0,0,1,249.12,137.62Zm0-5a1.68,1.68,0,1,0,1.64,1.68A1.65,1.65,0,0,0,249.12,132.65Z"/><path class="cls-36" d="M250.8,142.32a2.44,2.44,0,1,1-2.44-2.48A2.46,2.46,0,0,1,250.8,142.32Z"/><path class="cls-31" d="M248.36,145.61a3.29,3.29,0,1,1,3.25-3.29A3.27,3.27,0,0,1,248.36,145.61Zm0-5a1.68,1.68,0,1,0,1.63,1.67A1.65,1.65,0,0,0,248.36,140.65Z"/><path class="cls-36" d="M246,148.05a2.44,2.44,0,1,1-2.44-2.48A2.47,2.47,0,0,1,246,148.05Z"/><path class="cls-31" d="M243.55,151.34a3.29,3.29,0,1,1,3.24-3.29A3.27,3.27,0,0,1,243.55,151.34Zm0-5a1.68,1.68,0,1,0,1.63,1.67A1.66,1.66,0,0,0,243.55,146.38Z"/></g></g></g></svg>