<svg xmlns="http://www.w3.org/2000/svg" xmlns:xlink="http://www.w3.org/1999/xlink" viewBox="0 0 1056.69 982.01"><defs><style>.cls-1{fill:url(#radial-gradient);}.cls-2{fill:#9e9e9e;}.cls-12,.cls-13,.cls-14,.cls-15,.cls-17,.cls-18,.cls-19,.cls-2,.cls-20,.cls-26,.cls-6{fill-rule:evenodd;}.cls-3{fill:#aeba2b;}.cls-4{fill:url(#radial-gradient-2);}.cls-5{fill:#9ca729;}.cls-6{fill:#708933;}.cls-7{fill:#657c30;}.cls-8{fill:url(#radial-gradient-6);}.cls-9{fill:#8c9627;}.cls-10{fill:#dcd80d;}.cls-11{fill:#c4c10f;}.cls-12,.cls-22{fill:#536922;}.cls-13,.cls-21{fill:#94910d;}.cls-14{fill:#4d3030;}.cls-15{fill:#cfcb0c;}.cls-16{fill:#f7f30f;}.cls-17{fill:#fcaec0;}.cls-18{fill:#f091a6;}.cls-19{fill:#3f4f1a;}.cls-20{fill:#a19d0e;}.cls-23{fill:#e684bf;}.cls-24{fill:#fff;}.cls-25{fill:#b36090;}.cls-26{fill:#f082d8;}</style><radialGradient id="radial-gradient" cx="-94.46" cy="-112.12" r="1" gradientTransform="matrix(844.08, 0, 0, -783.79, 80241.66, -87482.29)" gradientUnits="userSpaceOnUse"><stop offset="0" stop-color="#f0f0e2"/><stop offset="0.49" stop-color="#f0f0e2"/><stop offset="0.64" stop-color="#efefde"/><stop offset="0.81" stop-color="#ededd1"/><stop offset="0.98" stop-color="#eae9bc"/><stop offset="1" stop-color="#e9e8b8"/></radialGradient><radialGradient id="radial-gradient-2" cx="-94.46" cy="-112.12" r="1" gradientTransform="matrix(844.08, 0, 0, -783.79, 80241.66, -87482.29)" gradientUnits="userSpaceOnUse"><stop offset="0" stop-color="#dfdfd2"/><stop offset="0.49" stop-color="#dfdfd2"/><stop offset="0.65" stop-color="#dedece"/><stop offset="0.82" stop-color="#dcdbc1"/><stop offset="1" stop-color="#d8d7ac"/><stop offset="1" stop-color="#d8d7ab"/></radialGradient><radialGradient id="radial-gradient-6" cx="-94.46" cy="-112.12" r="1" gradientTransform="matrix(844.08, 0, 0, -783.79, 80241.66, -87482.29)" gradientUnits="userSpaceOnUse"><stop offset="0" stop-color="#d6d6ca"/><stop offset="0.49" stop-color="#d6d6ca"/><stop offset="0.65" stop-color="#d5d5c6"/><stop offset="0.83" stop-color="#d3d3b9"/><stop offset="1" stop-color="#d0cfa5"/></radialGradient></defs><g id="Layer_2" data-name="Layer 2"><g id="Layer_2-2" data-name="Layer 2"><path class="cls-1" d="M876,894.27c-14.93,14.87-32.94,24.63-52.12,31.88-53.58,24.53-114.42,29.79-156.83,29.79-32,0-53.45-3-53.45-3l-43.71-7c-3.35-.15-6.85-.43-10.53-.79-18.12-1.76-42.59-4.8-60.85-10.68l-57.14-9.19L365.77,920c-12.34,2.94-23.23,4.11-29.3,4.11-.53,0-1,0-1.48,0-9.16-.35-21.34-4-32.66-8a410.5,410.5,0,0,1-57.12,4.36c-18.65,0-38.35-1.69-53.67-7.1-1-.36-2-.75-3-1.14-7.54.68-14.48,1.38-20.94,1.38-13.15,0-24.33-2.89-34.58-14.73C50.26,907.59,0,919.22,0,932c0,27.64,236.55,50,528.34,50s528.35-22.41,528.35-50c0-15-69.94-28.51-180.68-37.69"/><path class="cls-2" d="M229.81,116.13a388.78,388.78,0,0,1,107.76-14.84c39.88,0,76.18,6.71,110.52,11.54-22.54-14.22-58-17.59-93.47-19.24C313.17,91.66,271.51,98.46,239.7,109,235.94,110.23,230.61,111.83,229.81,116.13Z"/><path class="cls-2" d="M441.49,126.58c.11-.47-.21-.52-.55-.55-82.55,7.86-160.19,21.92-222.13,51.13-8.58,4.05-17.56,8.39-24.19,14.85,18.24-5.69,36.29-13.06,55-19.25,55.24-18.28,117.57-29.19,183.65-37.38C436.69,133.14,436.42,127.18,441.49,126.58Z"/><path class="cls-2" d="M432.7,141.42c-40.55,3.44-75.61,17.14-94.58,44,13.44-8.63,26.3-17.79,41.79-24.74,15.12-6.79,32.11-11.51,51.14-14.85C431.53,144.29,431.73,142.48,432.7,141.42Z"/><path class="cls-2" d="M425.55,167.27c-24.43,12.18-48.95,27.92-68.73,46.18-6.58,6.08-13.9,12.54-16.5,21.45,4.57-.64,7.47-4.93,10.45-7.7,21-19.52,46.35-36.26,72.58-51.69C424,172.63,425,170.15,425.55,167.27Z"/><path class="cls-3" d="M420.54,265.75c-13,26.24-20,54.59-42.33,74.66a417.41,417.41,0,0,1-68,49.45c-53.38,31-117.37,59.19-155.38,110.08-16.54,22.15-35.51,46.17-44.29,72.68-9,27.29-12.74,60.53-18.14,89-13,68.32-1.69,159.65,30.2,221.22,22.08,42.64,47,28.5,87,28,15.39-.19,30.79.71,46.27,1.62,18.95,1.11,38,2.22,57.27,1.31,48.91-2.3,98.33,7.15,147.3,11.92,53.38,5.2,106.42,9.14,159.67,13.57,124.23,10.33,313.84-7.64,313.84-169.9,0-36.47-1.66-67.23-21.45-98.11-14.54-22.71-39.46-39.7-60.59-56.15C808.33,581.23,748.3,585.76,701.63,611c-14.47,7.84-44.06,26.11-45.32,45.33-1.28,19.42,38.88,46.87,43.66,71,12,60.69-59,76.58-102.29,86.52-9.35,2.15-26.29,9.1-36.66,6.24-15.34-4.23-9.71-18.55-8.21-33.33,3.48-34.49,2.2-68.67-6.23-102.29-9.33-37.22-18.35-72.09-21.85-109.85-3.3-35.58-17.71-66.51-31-99.73-13.6-34.13-30.12-65.41-40.45-100.27-9-30.27-34.79-72.65-32.79-102.29v-6.6"/><path class="cls-4" d="M551.54,699.45v9.94l.42,2.93a79.71,79.71,0,0,0-.42-12.87"/><path class="cls-5" d="M515.92,825.44a75.29,75.29,0,0,0-10.1.78c1.64.23,3.36.43,5.18.61,4.68.46,8.81.73,12.45.73,1.49,0,2.89,0,4.23-.14a30.79,30.79,0,0,0-11.76-2M455.49,719.52c-1.25,10.54.64,22.09,3.56,33.5.88-7.35.32-15.57-.17-23.68a71.15,71.15,0,0,1-3.39-9.82m96-2.37c-3.57,28.74-24.93,44-46.89,44-15.58,0-31.47-7.69-41.52-23.73-1.71,20.5,10.2,45.92,20.8,62.4,10.38,16.15,32.2,19.52,52.76,19.52,2.5,0,5,0,7.42-.13,2.72-4.23,4.3-10.33,5.18-18.89,2.29-22.37,2.25-44.64,2.25-67.27V717.15m0-7.76v7.76q.29-2.35.42-4.83l-.42-2.93"/><path class="cls-6" d="M696.31,709.56C685.67,685.28,701,638.91,719,620c20.84-21.9,42.14-24.21,71.36-24.29,55.62-.14,91.76,32.75,116.68,80.94,10,19.36,14.29,38.13,20.26,58.8.13-27.25-36.5-48.52-56.46-61.78-21-13.93-51.69-19.63-77.18-14.9-24.06,4.48-48.84,27-66,44.1-8,7.94-39.92,49.86-36.71,60.71-.14-.49-1.38,3-1.4,3.1,43.74-28.16,109.88-40.1,153.6-6,35,27.28,72.74,86.51,40,125.76-33.72,40.44-87.44,48.12-133.92,60.39,42.67-34.26,52.34-106.22,1.52-141.6-50-34.82-104.67,8.11-155.08,9.9-9.52.33-18.3,1.54-27.55,2,60.54,21.07,82,65.62,46.11,110.58-15.14,19-31.42,19.64-54.86,17.37-20.25-2-48.44-5.54-67-12.88,20.71-4.68,43.92-11.5,52.17-42.85,3.56-13.52-.24-45.09-9.45-56.5-12-14.89-39.47-2.9-56.55-2.9-20.39,0-40,1.65-60.54,1.65,23.63-4.09,17.47,26.9,13.15,41.62-12,40.88-79.68,51.4-96.14,50.77-14.43-.55-36.36-9.3-50.61-14.89,68.75-6.55,81.41-54.63,65.45-74.19,1.66,4-33.68,6.68-31.63,9.68-1.56-37.94-72-40.66-97.43-31.5-34.46,12.44-67,34.06-69.17,72.83-22.62-14.14-39.81-44.71-29.45-69.16s48.82-60.6,74.24-67.65c150.06-41.61,206,35.93,220.67,58.11,8.77,13.28,6.93,14.5,23.52,16.13,11.58,1.15,24.52,4.51,36.13,3.06C464.46,771.36,408.39,721.67,363,694.72c-47.52-28.24-139-22.18-189.69-1.25-38.37,15.84-66,42.49-73.13,75-7.09-35.74-11.2-79.36-4.46-115,5.73-30.31,5.11-42.67,29.33-63.11,22.64-19.09,40.77-34.51,71.31-39.31,44.9-7.06,81.06,1.11,118.79,24.83C396.4,627,456.1,721.79,457.44,760.66c4.71-14.55-.31-35.17,1.28-51.1,1.52-15.26.5-26.51-3.34-41.24-8.25-31.66-24.36-59.16-46.1-83.78A251.72,251.72,0,0,0,234.34,500c-30.3-1.63-65.06,1-90.53,16.37,1.79-21.36,46.95-56.62,63.77-69.63,28.72-22.21,52.34-29.25,89.41-24.24,69.35,9.38,144.86,68.19,167.92,135.61,9.76,28.53,18.67,60.31,20.21,90.42.86,16.71-.35,32.2-5,47.8-3.52,11.82-13.37,23.8-16.05,35-5.08,21.33,8.18,50.32,19.85,68.47,13.17,20.5,44.76,20.4,68.84,19,18.82-1.12,36-7.06,54.53-12,16.69-4.4,33.7-4.22,49.37-10.26,31.42-12.12,55.2-58.29,41.29-90.34l-1.65,3.3"/><path class="cls-4" d="M521,551.38a181.64,181.64,0,0,1,3.75,23.26q.57,6.24,1.35,12.38c4.07,12.62,7.78,25.41,11.39,38l-9.61-40.84c.7-11.33-3-22.08-6.88-32.76M184.44,465.45a188.84,188.84,0,0,0-22.32,19.6c-15.63,16.23-27.48,35.27-36.45,56,5.67-9.26,12-18.2,18.46-26.86,3-14.22,22.63-33.61,40.31-48.75m214.17-151.7c-5.25,7.89-10.88,15.74-16.9,23.31a102.12,102.12,0,0,0,16.9-23.31m23.74-22.15c5.9,27,23.81,58.86,31,83,10.33,34.86,26.85,66.14,40.45,100.27,6.67,16.74,13.64,32.9,19.33,49.37-4.19-23.06-6.38-45-14.67-68-20-55.37-41-116.5-76.09-164.63"/><path class="cls-5" d="M252.51,808.73c-12.57,0-24.16,1.68-31.74,4.41-31.64,11.42-61.63,30.58-68,63.66,3.49-1.66,7.32-4.19,12.45-6.72a39.87,39.87,0,0,1,2.34-7.27,50.47,50.47,0,0,0,4.26,4.39l.49-.18c19.09-7.09,54.74-19.33,74.52-23.43a148,148,0,0,1,31.66-3.18c3.06,0,6,.06,8.95.12s5.86.12,8.84.12a135.58,135.58,0,0,0,21.21-1.5c-5.36-22.43-37.5-30.42-64.94-30.42M210.63,682.27a219.11,219.11,0,0,0-37.29,11.2c-38.37,15.84-66,42.49-73.13,75-.88-4.43-1.71-9-2.49-13.64-.36,41.32.4,89.83,34.36,117.44a31.8,31.8,0,0,0,9,5.52c-16.94-15.82-27.56-40.55-18.89-61,10.41-24.56,48.82-60.6,74.24-67.65,11.07-3.07,21.62-5.49,31.68-7.33-10.47-18-16.06-38.42-17.44-59.56M219,499.61c-26.21,0-54,3.93-75.21,16.79a19.45,19.45,0,0,1,.32-2.2c-6.41,8.66-12.79,17.6-18.46,26.86-9.82,22.71-16.18,47.47-20.31,72.83,3.72-7.69,9.51-14.87,19.72-23.49,22.64-19.09,40.77-34.51,71.31-39.31a192.32,192.32,0,0,1,29.87-2.45,155.52,155.52,0,0,1,24,1.81,242.86,242.86,0,0,1,33.68-42.75A252.26,252.26,0,0,0,234.34,500c-5-.27-10.13-.42-15.32-.42M416.64,284.05c-5.38,9.64-11.4,19.7-18,29.7a102.12,102.12,0,0,1-16.9,23.31c-10.69,13.45-22.62,26-35.76,36.34-24.81,19.5-55.14,33.92-85.42,48.66A108.07,108.07,0,0,1,276,421a157.9,157.9,0,0,1,21,1.53c29.86,4,60.86,17.24,88.33,36.35q5.79-.44,11.27-.43c76.71,0,108,62,129.49,128.57q-.78-6.15-1.35-12.38A181.64,181.64,0,0,0,521,551.38c-2.72-7.48-5.53-14.92-7-22.49-.3-1.54-.59-3.08-.87-4.61-5.69-16.47-12.66-32.63-19.33-49.37-13.6-34.13-30.12-65.41-40.45-100.27-7.17-24.18-25.08-56.08-31-83q-2.81-3.84-5.71-7.55"/><path class="cls-7" d="M228.07,741.83c-10.06,1.84-20.61,4.26-31.68,7.33-25.42,7.05-63.83,43.09-74.24,67.65-8.67,20.45,1.95,45.18,18.89,61a13.19,13.19,0,0,0,4.6.86,16.35,16.35,0,0,0,7.09-1.87c6.41-33.08,36.4-52.24,68-63.66,7.58-2.73,19.17-4.41,31.74-4.41,27.44,0,59.58,8,64.94,30.42,4.13-.64,8.57-1.53,13.42-2.77,26.95-6.87,59.79-14.23,90.55-17.49-49.58-.4-117.26-13.84-153.07-35.95a117.45,117.45,0,0,1-40.28-41.11m-1.81-193.19a192.32,192.32,0,0,0-29.87,2.45c-30.54,4.8-48.67,20.22-71.31,39.31-10.21,8.62-16,15.8-19.72,23.49-6.78,41.63-7.51,84.89-7.51,123.4,0,5.64-.07,11.52-.13,17.56.78,4.65,1.61,9.21,2.49,13.64,7.09-32.53,34.76-59.18,73.13-75a219.11,219.11,0,0,1,37.29-11.2c-1.62-24.86,2.59-50.7,11.54-74.64a316.74,316.74,0,0,1,28-57.18,155.52,155.52,0,0,0-24-1.81M276,421a108.07,108.07,0,0,0-15.43,1.06c-26.67,13-53.3,26.22-76.09,43.39-17.68,15.14-37.35,34.53-40.31,48.75a19.45,19.45,0,0,0-.32,2.2c21.26-12.86,49-16.79,75.21-16.79,5.19,0,10.32.15,15.32.42a252.26,252.26,0,0,1,49.55,7.67c26.17-26.16,58.64-44.65,97.43-48.48,1.35-.13,2.67-.24,4-.34-27.47-19.11-58.47-32.31-88.33-36.35A157.9,157.9,0,0,0,276,421"/><path class="cls-5" d="M451.33,817.16c-8.54,0-17.5.51-26.67,1.4l.32.33a192.84,192.84,0,0,0,26.35-1.73"/><path class="cls-7" d="M424.66,818.56l-3.24.33H425l-.32-.33"/><path class="cls-4" d="M796.71,588.4l-2.93,3.38a126.32,126.32,0,0,1,13.8,2.38c-5.48-3.68-9.43-5.68-10.87-5.76"/><path class="cls-5" d="M793.78,591.78l-3.43,3.94h.36a127.45,127.45,0,0,1,21.63,1.79q-2.54-1.85-4.76-3.35a126.32,126.32,0,0,0-13.8-2.38"/><path class="cls-7" d="M790.71,595.72h-.36a115.56,115.56,0,0,1,24.18,3.43c-.74-.57-1.48-1.11-2.19-1.64a127.45,127.45,0,0,0-21.63-1.79"/><path class="cls-4" d="M891.06,878.16q-2.58,2.51-5.26,4.89-1.24,1.74-2.65,3.42,4.15-4,7.91-8.31"/><path class="cls-8" d="M823.89,926.15c-24.28,9.17-50.45,14.32-74.66,20.71a92.37,92.37,0,0,0,12.14-11.75c-28.25,4.67-57.41,6.51-85.38,6.51-19.47,0-38.37-.89-55.94-2.35q-8.13-.69-16.24-1.34c-8.59,6.2-17.89,8.11-28.85,8.11-1.65,0-3.34,0-5.06-.12l43.71,7s21.49,3,53.45,3c42.41,0,103.25-5.26,156.83-29.79m-445-9.88c-4.45,1.46-8.86,2.68-13.11,3.69l75.61,5.3,57.14,9.19c-2.15-.69-4.22-1.43-6.17-2.2,3.47-.78,7-1.63,10.54-2.64q-21.22-1.85-42.51-3.91c-27.08-2.64-54.3-6.71-81.5-9.43m-165.13-5.45-4.21,0c-7.51.09-14.49.67-21,1.26,1,.39,2,.78,3,1.14,15.32,5.41,35,7.1,53.67,7.1A410.5,410.5,0,0,0,302.33,916c-1.73-.62-3.44-1.25-5.11-1.88-13.89,0-27.68-.84-41.41-1.64-14.07-.82-28.07-1.65-42.06-1.65"/><path class="cls-5" d="M431.05,873.52c-6.67,22.23-29.84,35.44-52.17,42.75,27.2,2.72,54.42,6.79,81.5,9.43q21.28,2.07,42.51,3.91c17.53-5,34.76-14.12,41.63-40.21a44.76,44.76,0,0,0,1.2-8.44c-26.16-1.51-54.45-3.59-85.12-6.14-9.74-.81-19.61-1.21-29.55-1.3M171.78,867.2c-2.43.93-4.61,1.9-6.6,2.88-2.47,10.89-3,31.3,23.34,42,6.53-.59,13.51-1.17,21-1.26l4.21,0c14,0,28,.83,42.06,1.65,13.73.8,27.52,1.61,41.41,1.64-4.64-1.73-9-3.46-12.84-5,33.47-3.19,53.64-16.22,63.7-31q-8.83.86-17.51,1.75c-31.29,3.2-61,6.39-86.78,6.39-30.81,0-56.09-4.55-72-19.08m612.57-7.46c-37.62,16.87-86.13,23.83-152.68,24,.13,14.07-5.46,29-17.44,44.06a54.17,54.17,0,0,1-10.42,10.17q8.12.66,16.24,1.34c17.57,1.46,36.47,2.35,55.94,2.35,28,0,57.13-1.84,85.38-6.51,17.83-20.69,26.65-48.94,23-75.37M877.45,678c12.19,30.13,14.17,65.68-8.47,103.12-.63,1-1.27,2.1-1.92,3.13,23.88,29.06,40,69,18.74,98.79q2.69-2.38,5.26-4.89c38.68-44.21,45.13-108.4,28.67-164.43-10.08-14.53-28.28-26.59-42.28-35.72"/><path class="cls-7" d="M545.72,881a44.76,44.76,0,0,1-1.2,8.44c-6.87,26.09-24.1,35.2-41.63,40.21-3.53,1-7.07,1.86-10.54,2.64,1.95.77,4,1.51,6.17,2.2l71.38,11.47c1.72.08,3.41.12,5.06.12,11,0,20.26-1.91,28.85-8.11a54.17,54.17,0,0,0,10.42-10.17c12-15,17.57-30,17.44-44.06h-1.91c-25.29,0-53.17-1-84-2.74M427,873.51c-26.3,0-53,2.12-79,4.63-10.06,14.79-30.23,27.82-63.7,31,3.82,1.5,8.2,3.23,12.84,5,1.67.63,3.38,1.26,5.11,1.88l2.12-.33,61.32,4.3c4.25-1,8.66-2.23,13.11-3.69,22.33-7.31,45.5-20.52,52.17-42.75h-4m440-89.25c-22,35.44-47.65,59.76-82.71,75.48,3.67,26.43-5.15,54.68-23,75.37a92.37,92.37,0,0,1-12.14,11.75c24.21-6.39,50.38-11.54,74.66-20.71,21.48-9.83,41.79-22.76,59.26-39.68h0q1.41-1.68,2.65-3.42c21.24-29.82,5.14-69.73-18.74-98.79M814.53,599.15C833.69,613.68,862.88,642,877.45,678c14,9.13,32.2,21.19,42.28,35.72C903.64,659,865.68,612.05,814.53,599.15"/><path class="cls-9" d="M167.52,862.81a39.87,39.87,0,0,0-2.34,7.27c2-1,4.17-2,6.6-2.88a50.47,50.47,0,0,1-4.26-4.39"/><path class="cls-10" d="M746.46,593.75c17.9.91,50.28,14.52,50.09,35.67-13.4,3.29-28.08,4.66-42.15,5.12,34,5.8,27.42,86.17-21.58,50.33,29.72,12.42-18.41,55.37-41.61,31.4-8.46-8.75,5.07-20.27-4.28-31.22-8.42-9.88-20.36-16.12-31.38-22.11,13.34-23.59,50-65.2,81.3-59.58l9.61-9.61"/><path class="cls-4" d="M655.18,658.61l1.28,1q-.08-.46-.12-.93l-1.16-.09"/><path class="cls-5" d="M741.1,690.06l-.65.59a10.75,10.75,0,0,1,.75,1.36c0-.62.06-1.25.06-1.87l-.16-.08m34.15-17.68a37.3,37.3,0,0,1-1.34,6.08,44.94,44.94,0,0,0,3.48-4.9l-2.14-1.18M656.34,658.7q0,.46.12.93l.7.56c.28-.47.57-.93.86-1.4l-1.68-.09"/><path class="cls-7" d="M739.11,689a12.73,12.73,0,0,1,1.34,1.67l.65-.59c-.65-.33-1.32-.7-2-1.08"/><path class="cls-11" d="M713.19,651.33c-9.29,0-18.29,1.87-27.11,3.74s-17.49,3.75-26.11,3.75l-2,0c-.29.47-.58.93-.86,1.4l7.1,5.63c3,3.46,16.29,11.43,22.18,17.35,7.36,7.41,11.43,28,16.84,32.56,4.29,3.63,8.71,5.19,13,5.19,12.86,0,24.1-14.33,25-28.91a10.75,10.75,0,0,0-.75-1.36,12.73,12.73,0,0,0-1.34-1.67c.67.38,1.34.75,2,1.08l.16.08a27,27,0,0,0-1.74-9.6c5.19,5.61,10.73,8.13,16.13,8.13,6.58,0,13-3.75,18.26-10.21a37.3,37.3,0,0,0,1.34-6.08c-19.62-10.83-35.91-19.85-58.82-21-1.08-.06-2.16-.08-3.24-.08"/><path class="cls-12" d="M414.3,256.85c-.47-.1-.52.21-.55.55-4.65,40.32-23.35,66.59-48.39,86.87-49.73,40.29-117.25,63-167.15,102.82-48.28,38.54-89.93,92.56-107.77,162.21C81.05,646,77.59,684.55,78.9,731.36,80.09,774.48,85.57,812.89,98,847c9.89,27.19,10.3,25.9,25.57,51.14,2.83,4.69,31-11.35,28-14C124.38,859.4,101.69,795.81,98,726.61c-7.17-134.18,40.19-213.76,112.32-270.17,24-18.75,51.44-33.69,79.72-49.48,54.06-30.19,114.14-56.88,132-127C419.56,272.11,416.59,264.82,414.3,256.85Z"/><path class="cls-12" d="M455.43,653.47s-23.1,94,24.74,176.53l21.45-1.65S455.43,757.41,455.43,653.47Z"/><path class="cls-10" d="M724.35,6.71c72.14,90.23,58.89,237.14,33,341.53-6.75,27.16-13.9,54.56-23.42,80.84C724.24,455.71,707.17,475.64,693,500,665.84,546.61,646,602,624.13,651.82c-23.78,54.11-33.39,109.85-48.55,164.7-6.4-.06-13.35,2.94-19.51,1.85-13-2.31-7,1.82-6.15-11.46.91-14,6.24-29.07,7.79-42.91,2.73-24.4-5.62-80.34-11.54-103.93-6.64-26.46-5.81-26.93-11.6-54.4-6.45-30.62-15.36-58.44-24.28-88.7-10.59-35.91-21.64-69.1-38-102.7-13.9-28.53-29.34-56.49-40.38-85.83-20.91-55.6-41-100.13-29.65-158.75,4.75-24.6,4.93-42,26.36-59.44,18-14.61,49.77-19.3,61.86-35.48,9.89-13.24,15.47-47.45,32.18-58.56,18.84-5.68,46.25,33.17,61.09,42.14,11.81,7.14,35.1,9.28,48.58,10.69,20.77,2.19,35.38,4.94,49.13-11.18Z"/><path class="cls-13" d="M527.83,292.88s-42.43,20.82-53.64-16.82C474.19,276.06,480.59,329.71,527.83,292.88Z"/><path class="cls-14" d="M575.87,158.36C569.47,219.22,546.94,255,530,271.51c-16.74,16.35-40.88,18.64-43-8.44-2-25,2.2-48.7,2.4-73.55.07-9.87-4-17.94-5.54-26.91.95.86,2.18,1.36,3.12,2.16C487,164.77,547.27,139.56,575.87,158.36Z"/><path class="cls-15" d="M400.54,226.2c3.46,1.89,16.25,53.49,21.61,67.27,7.83,20.16,14.66,37.69,26,55.31,24.32,37.87,45.5,72.41,93.56,74.41,45.8,1.91,77.53-2,111.75-33,28.46-25.73,52.17-53.1,75.62-83,30.9-39.36,49-79.57,53.45-129.67,2.54,54.11-15.23,127.53-30.7,181.25-10.7,37.12-22.54,78.33-38.37,114.78-27.49,63.32-59.69,121.61-87.74,185-6.15,13.89-14.35,28.39-16.69,43-10.19-31.45,1.57-69.41-16.87-100.77-17.12-29.09-59-47.18-54.66,1.74,1.95-48.22-36.25-102.58-53.44-145.75-7.59-19-61.57-139.51-54.66-144.19Z"/><path class="cls-16" d="M574.27,159.17c5.15-10.46,5.92-25.39-.6-35.41-7.34-11.26-17.15-10.64-29-12.82,7.34-5.19,24.81-20.32,24.76-30.24-.1-18.89-30-1.1-36.83,4.8-9.71,8.41-20.49,14.57-29.81,23-8.05,7.32-20.39,9.81-27.65,17.82-6.36,7-8.33,24.11.39,30.6,4.17,3.11,11.85,3.75,17,3,7.24-1,7.63-4.67,13.62-8.1,9.2,11.64,17.25,18.34,32,21.09,9.66,1.79,29.76,4.95,32-9Z"/><path class="cls-17" d="M551.05,55.08c-3.94-9.18-22.52-29.45-28-37.63-2.4-1.87,4.18-4-5.21,3.18-14.36,11-26,34.37-24.3,52.74,7.48,1.17,22.71-7.71,30.3-10.06a85.19,85.19,0,0,1,14.6-3.43c3.87-.51,13.64.35,13.43-2.4Z"/><path class="cls-18" d="M522,20.92c6.44,12.21,11,33.13,1.15,43.65,8.29-2.5,17.52-7.94,26.24-8-1.23-11.78-17.73-27.84-25.25-36.71Z"/><path class="cls-17" d="M721.59,15c-6.84,13.05-11.35,31.09-12,45.64-.18,3.75-1.6,11.12,0,13.83,1.35,2.35,10.29,6.65,12.86,8.43,15.23,10.59,29.55,19.32,36.88,37.51,4-18.93,2.33-32.3-.89-49.16-4.41-23.09-10.69-39.84-28-55.45Z"/><path class="cls-18" d="M730.4,17.45c-5.35,12.55-3.2,49.64,12.71,76.78-6.87-3.7-13-9.45-19.91-13.71-12.1-7.43-10.35-8.49-8-20.46,1.54-7.8-1.23-22.91.78-30.6,1.79-6.86,5.27-10.59,6.41-17.62Z"/><path class="cls-19" d="M488.8,80.35s10.43-3.69,2.53,5.48c-12,13.92.81,12.81,7.8,10.62A205.18,205.18,0,0,0,526.68,86c-6.86,8.33-17.18,10.53-24.89,16a10.67,10.67,0,0,0-2.62,2.62c-9.79,3.27-19.28,4.74-23.14,1.75C470.13,101.78,472.23,92.46,488.8,80.35Z"/><path class="cls-13" d="M469.89,124.08c-.5,3,2.05,3,3.59,4-6.19,4.17-8.19,7.71-7.69,17,.48,9,6.45,23.69,16.4,24.47,8.75.69,16.13-4.53,23-9.49,12.81,14,31.76,23,43,21.47,19-6.49,27.15-17,32.27-32.45,3.25-.16,7.26.42,9.73-.5,1.8-1.25,2.79-4.78,1.54-7.49-2.31-2.32-22.72-2.68-23.57,1.5-.6,3,2.92,4.12,6.15,5-2.56,12-16.9,21-30.22,23-6.27-.72-13.32-4-18.44-8-3-2.31-11.07-7.13-13.32-10-.51-5,.06-10.75.52-18.47-5.64-2.5-11.56,9.55-11.79,16.48-8.2,7-10.12,9.37-20,8s-9.74-13.49-10.24-22c3.81-3.9,7.89-6.15,12.8-8.49C482.81,123.57,473.23,123,469.89,124.08Z"/><path class="cls-20" d="M724.69,0c-21.35,18.36-43.45,43.74-59.94,68.1-38.84-15.81-91.81-19-137.2-8.58-44.29,10.16-106.41,44-116.86,72.52C451.93,88.86,511.3,74.9,520.39,72.53c21.36-5.56,48.11-6.83,74-5.46,26.1,1.38,51,5,71.48,11.62.52,2.11-3.91,6.63-2.75,9.41,17-26.64,49.5-60.42,62.68-68.09,5.52,6.56,8.64,13.08,12.65,19.93,11.86,20.25,21.84,42.1,26.94,70.31,6.53,36.09,8.46,78.55,6.6,122.89-3.38,80.81-23.13,151.55-50,208.7C681,528.79,625.09,605,597.66,705.9c-9.08,33.39-18.13,68.66-21.44,107.94,4.59-.18,8.11-1.43,12.64-1.66,10.1-78,33.16-143,62.69-203.16,29-59,63.89-113.82,91.27-174.38C756.24,405,766.46,370,774.16,332.79c14.9-72,18.57-170.32-.55-241.36C764.86,58.93,746.26,18.21,724.69,0Z"/><path class="cls-13" d="M583.65,60.87c-9-6-16.82-13.81-25.44-20.18A230.74,230.74,0,0,0,524.1,19.8c-7.94,8.25-14.21,19.34-20,30.79-4.3,8.51-8.94,18.18-12.19,28.13l-4.37,1.54c4.24-30.57,20.66-52.76,38.49-68.16a7.42,7.42,0,0,1,2,.55c17.56,9.19,36.08,21.28,49.7,35.19,3.89,4,8.27,8.3,10.59,13.43C586.75,61.1,585.21,61,583.65,60.87Z"/><path class="cls-13" d="M547.21,63.62c-4.07-16.36-19.35-38.33-18.73-38.33a113.47,113.47,0,0,1,27.77,36.88C553.22,62.59,550.2,63.08,547.21,63.62Z"/><path class="cls-13" d="M540.48,825.57c4.22-.19,7.94-.89,12.65-.57,16-144.19-19.6-261-59.39-359.73-20.87-51.8-44.05-98.8-62.68-150-14.76-40.58-34.94-121-20.92-182.75-5.77,4.79-13.31,29.89-14.3,43.7-3.95,55.13,5.82,96.9,19.83,137.36,18.64,53.85,41.71,102.49,62.68,151.68a884.38,884.38,0,0,1,51.68,163C542.41,685.7,549,758.38,540.48,825.57Z"/><path class="cls-12" d="M651.44,662.27c39.59-53.61,106.87-70.9,151.32-60.67,45.19,10.41,82,41.11,101.72,80.28,20.65,41.08,23.63,106.47,3.29,150.65-18.67,40.59-50.4,72.94-92.92,89.08C769,939,708.84,939,649.35,936.45c-58.81-2.48-112.78-9.88-166.6-15.39C404,913,318,904.9,233.08,905.89c-31.43.36-63.8-8.44-85.79-24.94-.71,4.19-39.49-13.93-37.4-8.8,26.4,70.39,118.91,53.93,145.18,53.89,27.46,0,124.53,6.47,150.67,8.8,77.4,6.9,127.76,11.71,207.87,18.11,51.84,4.13,108,5.86,158.35-2.2,70.43-11.28,117.61-48,145.71-103.92a170.85,170.85,0,0,0,17.6-65.43c3.79-54.66-11-98.7-35.19-130.31-22.41-29.28-57-56-103.37-62.69-35.15-5-78.31,1.38-99.08,17C674.54,622.68,663,635.05,651.44,662.27Z"/><path class="cls-12" d="M670.41,682.89C682.16,697.8,694.7,719.1,688.93,744c-5.55,23.92-21.4,40.38-41.24,50.59-20.81,10.7-47,13.44-75.88,15.94-28.21,2.45-58.81,3.3-88.52,3.3-30.47,0-60.43,2.25-88,3.85-86.06,5-159.42,20.51-220.54,45.65,47.3-12.09,115.67-18.07,136.17-21.17,35.85-5.43,74.81-8.5,114.61-10.19,30.07-1.27,62.63-1.55,94.58-2.75,31.36-1.17,62.7-1.84,90.17-7.14,51.7-10,106.67-38.48,94.57-98.42-8.06-39.95-30.93-51.62-52.6-63-.88-.46.91-.08,0,0C647,661.08,662.16,671.34,670.41,682.89Z"/><path class="cls-19" d="M693.34,105.58s7.7,3.3-7.15,12.1-50,22.24-62.69,13.2c-7.69-5.5-11.17-15.1,10.45-29.7,0,0,12.1-5.5,3.3,6.6s12.88,12.54,22,9.9C680.14,111.63,691.14,101.73,693.34,105.58Z"/><polygon class="cls-21" points="491.4 106.56 541.72 79.83 499 111.17 491.4 106.56"/><path class="cls-22" d="M694,703.27a44.07,44.07,0,0,0,7.23,8.69c3.32,3.21,6.32,6,10.68,7.59,7.4,2.66,15-2.62,19.33-8.58s4.75-14.39,2.85-21.27c-.64-2.34-2.23-4-3.68-5.8l-.51-.63a18.22,18.22,0,0,1-6.08-4.86A3.51,3.51,0,0,1,726,672.9c3.15-.65,5.75,2.29,7.7,4.43l0,0c1.75,1,3.24,2.33,4.94,3.4,4.34,2.72,8.29,5.56,13.37,6.75,6.74,1.59,15.86-.9,18.93-7.84,3.68-8.29-.4-19.36-4.54-26.61a49.85,49.85,0,0,0-9.06-11.43,40,40,0,0,0-5.38-4.18c-1.48-1-3.25-2.69-5-3.13l-.37-.08c-4-.88-3.36-6.86.78-6.65a8.82,8.82,0,0,1,3.4.94,85.07,85.07,0,0,0,27.8,2.86c4.31-.34,12.59-1.13,14.77-5.86,1.46-3.18-2.24-6.92-4-8.95a33.81,33.81,0,0,0-12.33-9,89.74,89.74,0,0,0-16.26-5.05c-5.39-1-10.82-1.23-16.23-1.93a1.07,1.07,0,0,1,0-2.09c11.89-1.53,25.32,1.28,36.18,6.52a44.07,44.07,0,0,1,13.22,10.13c2.75,3,5.27,7.1,4.08,11.43-1.89,6.84-10.83,8.89-16.61,9.81a70.28,70.28,0,0,1-13.37.4q-3-.11-5.91-.34a52.11,52.11,0,0,1,10.22,13c5.39,9.53,9.17,22.18,4.91,32.92-3.87,9.79-14.55,12.75-23.77,12.32a25.31,25.31,0,0,1-8.32-2.23c-1.24-.51-2.6-1.11-3.94-1.78a62.53,62.53,0,0,1,.45,9.13,27.13,27.13,0,0,1-4.07,14.05c-5,8.63-15.11,14.7-24.84,13.17-5.51-.86-10.18-4.11-14.17-8S691,711.79,689,706.37C687.91,703.26,692.16,700.22,694,703.27Z"/><path class="cls-13" d="M724,13.14s-14.85,15.67-18.15,56.09l-9.07,1.65s37.94,17.32,66.81,61c0,0-7.43-35.46-47-61C716.6,70.88,711.65,47.78,724,13.14Z"/><path class="cls-2" d="M722.47,166.17c23,7.79,47.21,11,70.38,16.49,69.57,16.45,130.58,43.26,186.94,72.58-12.5-14.72-31.84-23.62-50.59-32.44-18.29-8.6-37.1-18-56.63-25.84s-41.66-13.12-63.78-18.7C780.66,171.18,753.12,162.22,722.47,166.17Z"/><path class="cls-2" d="M714.22,188.71c.71,4,5.44,4.53,8.25,6,68.65,37.17,136,80.87,197.39,126.46,19,14.12,36.43,29.11,54.43,44.54,2.13,1.82,4.94,5.09,8.25,4.4-1.15-6.57-7.79-10.59-12.1-14.85a534.11,534.11,0,0,0-44.54-39C865,268.14,797.07,219.88,720.82,188.16,719.83,187.75,715.68,186.54,714.22,188.71Z"/><path class="cls-2" d="M718.07,253.59c31.18,35,65.37,67.37,90.17,109.42,6,10.25,12.51,20.14,19.24,30.24,1.95,2.91,3.31,8,7.7,8.8-1.57-15.86-10.13-30.45-18.14-44.54a322.9,322.9,0,0,0-72.58-86.87c-8-6.65-15.22-14.54-25.29-17.6C718.72,253.14,718.62,253.59,718.07,253.59Z"/><path class="cls-23" d="M492.69,110.06c3.6-1.14,13.75,9.4,23.83,8.77,13.45-.84,24.13-10.2,30-.93,1.64,5-28.71,14.14-37,12.8-4.08-.65-11.29-5.29-13.86-9.74C494.36,118.8,489.09,111.2,492.69,110.06Z"/><path class="cls-24" d="M529.22,118.36c.15,1.31,3.37,2,7.17,1.56s6.76-1.9,6.6-3.22-3.37-2-7.17-1.55S529.06,117,529.22,118.36Z"/><path class="cls-25" d="M486.64,108.67c-2.28,8.06,5.95,24.51,22.95,29.14,18.49-.1,46.26-7.34,46.26-19.75,0-6.4-5.58-9.28-8.67-10.14-7.27-2-18.36,3.13-27.51,4.35-12.12,1.61-17.29-4.58-24-6.75C493.38,104.78,487.83,104.46,486.64,108.67Zm6.05,1.39c3.6-1.14,13.75,9.4,23.83,8.77,13.45-.84,24.13-10.2,30-.93,1.64,5-28.71,14.14-37,12.8-4.08-.65-11.29-5.29-13.86-9.74C494.36,118.8,489.09,111.2,492.69,110.06Z"/><path class="cls-26" d="M487,260.85c.66-5.94,7.26-12.37,12.61-14.61,6.44-2.69,11.41-3.8,19.65-.36,4.57-7.45,8.42-9.32,14.93-10.69,7.49-1.57,12.86,0,17.66,5.64,0,0-21.62,48.85-51.24,42.44C485.4,277.67,487,260.85,487,260.85Z"/><path class="cls-12" d="M547.85,249.64s-35.23,40-60.85,11.21c0,0-2.41,20.82,19.21,23.22S547.85,249.64,547.85,249.64Z"/></g></g></svg>