<?xml version="1.0" encoding="UTF-8"?>
<svg width="24" height="24" viewBox="0 0 24 24" fill="none" xmlns="http://www.w3.org/2000/svg">
  <path d="M12 22C12 22 16 18 16 14C16 11.8 14.2 10 12 10C9.8 10 8 11.8 8 14C8 18 12 22 12 22ZM12 8C13.1 8 14 7.1 14 6C14 4.9 13.1 4 12 4C10.9 4 10 4.9 10 6C10 7.1 10.9 8 12 8ZM16 6C16 7.1 16.9 8 18 8C19.1 8 20 7.1 20 6C20 4.9 19.1 4 18 4C16.9 4 16 4.9 16 6ZM8 6C8 7.1 8.9 8 10 8C11.1 8 12 7.1 12 6C12 4.9 11.1 4 10 4C8.9 4 8 4.9 8 6ZM12 2C10.9 2 10 2.9 10 4C10 5.1 10.9 6 12 6C13.1 6 14 5.1 14 4C14 2.9 13.1 2 12 2Z" fill="currentColor"/>
</svg> 