<svg xmlns="http://www.w3.org/2000/svg" viewBox="0 0 1001.48 912.61"><defs><style>.cls-1{fill:#a3a3a3;}.cls-2{fill:#2e2e2e;}.cls-3,.cls-6{fill:#262626;}.cls-10,.cls-16,.cls-19,.cls-23,.cls-3,.cls-7{fill-rule:evenodd;}.cls-4{fill:#9a653b;}.cls-10,.cls-5{fill:#242424;}.cls-15,.cls-7{fill:#0f0f0f;}.cls-8{fill:#363636;}.cls-9{fill:#8c5c36;}.cls-11{fill:none;}.cls-12{fill:#383838;}.cls-13{fill:#784e2e;}.cls-14{fill:#595959;}.cls-16{fill:#422b19;}.cls-17{fill:#876139;}.cls-18{fill:#e4d491;}.cls-19{fill:#382630;}.cls-20,.cls-23{fill:#fff;}.cls-21{fill:#aeaeae;}.cls-22{fill:#292929;}</style></defs><g id="Layer_2" data-name="Layer 2"><g id="Layer_1-2" data-name="Layer 1"><path class="cls-1" d="M203.79,443.73,208.9,436C208.41,439.3,206.49,441.74,203.79,443.73Z"/><path class="cls-2" d="M35,280.66C51.3,290.56,65,305.54,76.85,325c12,19.68,20.53,43.34,32.26,64.48,20.28,36.57,48.34,55.1,81.05,65.11-11.39,14-21.67,29.37-31.19,43.61-34.3-16.86-63.81-46.73-81.45-94.38C63.45,365.82,56.47,314,35,280.66Z"/><path class="cls-3" d="M163.23,456.18c-10.41,2.42-31.31-5.33-40.39-10.92a80.7,80.7,0,0,1-28-30.19C81.2,389,75.34,359.55,66,331.58c-8-23.93-22-54.23-47.61-63.84,4.83,12,14.85,22.34,20.72,34.07a219.44,219.44,0,0,1,13.36,34.32c6.3,21.09,6,42.82,11.87,63.56s13.43,39.16,29.44,54.16c13.55,12.69,29.27,30.58,47,36.41,6.65,2.19,12.94,3.22,19.74-.21,11.72-5.89,8.45-26.29,6.11-37.83Z"/><path class="cls-4" d="M91.39,340c-6.57-3.24-14.92-2.55-21.74-.25-9.27,3.12-8,6.26-13.19,13.54-4.43-15.48-7.15-32-11.48-47.89-1.44-5.25-1.93-11.13-4.44-16.13-2.36-4.68-5.83-6.92-6.89-12.47C54,288.32,74.75,306.27,86,326.75Z"/><path class="cls-5" d="M96.61,464.56A196.46,196.46,0,0,1,68.7,416.82C55.77,384.32,51,351,40,317.9c-7.63-22.79-18.08-40.47-32.44-49.72-11-7.11-9.77-13.32,2.72-10.4a89.46,89.46,0,0,1,11.4,3.52c37.89,14.37,64.49,50.3,84.79,93.95C117,378,127.91,399.05,143,413.89c15.71,15.45,35,24.9,55.61,30.88-2.88,3.16-5.7,6.45-8.45,9.82-32.71-10-60.77-28.54-81-65.11C97.38,368.34,88.86,344.68,76.85,325,65,305.54,51.3,290.56,35,280.66,56.47,314,63.45,365.82,77.52,403.82c17.64,47.65,47.15,77.52,81.45,94.38l-.81,1.22q-2.81,4.18-5.58,8.41C131.16,498.82,113,485.34,96.61,464.56Z"/><path class="cls-2" d="M482.44,626.8c6,18.29,2.84,39.55-1,57.82-3.11,14.74-5.55,29-9.68,43.28-7.26,25-17.34,50.85-17.31,77.72,0,22.56,6.23,43.07,21.74,57.71,13.45,12.69,37.36,11.55,53.28,5.9a33.55,33.55,0,0,0,8.31-3.91c2.48-1.87,4.27-6,7-7.3,5.57-2.7,13,1.66,19,.7a41.34,41.34,0,0,0,15.27-5.6c5.76-3.62,5.7-1.68,12.14-.82,20.8,2.77,17.16-25,10-38.18-9.39-17.41-29.48-24-45.48-29.7-13.15-4.64-25.93-1.41-38.43,4.62-1.09.52-4.67,2.9-5.74,2-2.32-1.87,1-15.3,1.71-17.83a345.55,345.55,0,0,1,12.17-34.84c6.78-16.42,20.14-26.81,25.17-44.67,3.38-12,7.95-21.9,12-33.4C573.71,629,574.55,572.5,539,563c-13.17-3.51-27.72.69-39.44,7.89-5.5,3.38-11.87,9.21-14.75,15.73-4.53,10.27,0,22.64-3,32.92Z"/><path class="cls-6" d="M597.44,821.84c2.07,12-7.89,14-15.48,9.86-6.63-3.63-10-12.1-14.21-18.41,3.63,6.84,11,13,8.27,22.36-2.93,10.18-10.69,7.78-17.17,3.67-10.75-6.84-20.17-20.43-31.4-25.46a60.61,60.61,0,0,0,5.6,7.81c-4.35-1.15-8.83-5.1-12.71-6.51,12-1.37,23,22.54,8.5,27.39-11,3.69-31,.52-39.43-7.84-19.77-19.6-.74-72.11,5.78-94,4.47-14.93,9.18-28.81,16.3-42.4,8.11-15.49,18.64-27.64,24.84-44.41,5.46-14.76,15.89-43.63-5.73-46.09-23.94-2.73-31.55,39.3-36.93,58.95-11.59,42.38-28.17,83.59-40,125.69-5.41,19.2-7.94,41.89,4.24,58.92,10.74,15,36.42,14.88,52.06,15.78,19.69,1.12,38.19-5.45,56.59-8.87,4.94-.92,7.4-4,11.38-5.65,5.89-2.49,6.21-1.27,12.65-1.26,11.21,0,19.51-9,18-22.68Z"/><path class="cls-7" d="M588.72,847.63c0-18.7-9.11-30.16-21.11-38.72-8.55-6.09-22.87-10.52-33.15-7.23,13.74,2.69,43.44,15.12,42.26,42.66-.44,10.43-14.83,9.93-24,11.25-4.36-24.73-10.87-40.76-37.73-43.39,17.72,7.23,29.15,29.58,22.86,42.07-5.68,8-27.42,7.3-44,5.19-5.6-.71-12.17-1-16-2.63-10.49-4.37-21-22.25-21.71-34.84-.65-11.5,4.76-27.85,8-39.44,3.56-12.75,7-24.82,10.29-36.15,9.25-32.18,20.6-56.91,18.29-96.63-.52-8.86-1.93-21.57-10.29-21,4.49,47.69-14.21,95.49-26.29,136.73-3.52,12-8.39,24.4-9.72,35.5-3.35,27.94,3.36,45,16,57.84a45.3,45.3,0,0,0,23.44,12.49c20,4.23,49.7,6.05,64-5.91,11.9,4.37,29.51,2.62,36-5.19,18.08,3,32.5-10.71,26.86-32.21-7.84-29.93-54.3-66.41-96-42.74,11-28.87,32-70.68,45.13-102.61,4.23-10.32,30.75-56.46,39.87-106.67.85-4.69.16-17-3.91-18.74-4.51,1.62-30,75.72-30.62,79.44-2,12.26-11.7,36.24-17.91,48.6-18.54,36.88-37,79.08-51.44,117,38.32-32.81,74.81-3.13,86.3,7.89C593.77,819.38,611.53,845.15,588.72,847.63Z"/><path class="cls-2" d="M611.5,519.75c-1.69,30.61-48.63,126.91-63.69,153.57-15.75,27.91-36.62,47.77-63.63,63.56-20.74,12.12-55,25.55-78.78,23.47-15.41-1.35-31.52-5.71-47.59-6.52-13.89-.7-25.61,3.36-39.39,4.84-33.3,3.58-60.26,1.8-89-16.41-36.68-23.23-69.28-42.13-89.95-80.82-26.8-50.15-37.89-127-1.15-175.29,16.51-21.68,32.08-41.3,57-53.25,23-11,57-15.95,81.69-12.31,28.62,4.23,50.56,16.92,76.23,30.81,29.18,15.8,53.69-2.55,75.12-22.29,26.27-24.19,59.86-64.51,100.16-60.67,22.14,2.11,45.84,19.11,57.39,37.38,29.23,46.19,56.15,9.39,44.22,57.64Z"/><path class="cls-8" d="M220.41,463.38c-35,15.05-67.1,46.61-72.89,33.15S158,448,193,432.92s101.22-9.53,107,3.93S255.44,448.33,220.41,463.38Z"/><path class="cls-6" d="M590.15,553.48c-40.47,97.79-143.39,136.11-166.27,139.31-35.58,5-73.54-2.63-109-6.12-17.39-1.71-33.91-6.62-51-10.24-18.46-3.92-46-10.7-64.65-8.31-48.22,6.18,26.53,69.84,44,78.52C272.72,761.29,310.74,762,343,765c58.14,5.46,124.74.15,163.91-47.63,11.55-14.09,54.78-70.26,79.51-134Z"/><path class="cls-9" d="M478.18,373.15c.93,7.86,6.57,24.28,9.85,34.71,6.93,22,78,104.49,14,257.93,16-1.23,91.88-31.29,110.34-148.22,7.58-48,2.33-101.75-30.43-136.93-11.25-12.08-22.32-21.66-38.5-26.31-11.67-3.35-49.58-5.57-54.15,9Z"/><path class="cls-7" d="M485.81,368.08c-20.34,18.2-48.17,46.25-77.13,64-8,4.89-22.94,15.52-30.35,15.58-5.64,0-14.85-7-21.34-9.84-20.63-9.08-46.13-18.32-71.38-21.33-63.8-7.62-110.55,16.95-139.52,49.23-29.26,32.62-49.47,79-43.45,136.2,3.62,34.37,18.73,68.35,38.57,88.61,6.5,6.64,14.55,14.42,24.61,15.59.21-10-8.23-17.15-13.13-24.62-17.94-27.35-38.87-66.83-35.32-116.49,1.94-27,8.21-59.08,23.8-82.88C191.71,405,313.5,429.61,353.71,456.69c-27.91,5.75-54.17,11.49-76.32,36.93,36.11-18.05,51.55-12.93,72.22-18.06,50.91-12.64,85.91-37,121.43-68.1,4.9-4.29,17.88-14,18.87-18.87C491.22,382.12,485.72,374.2,485.81,368.08Z"/><path class="cls-7" d="M213.41,725c9.49,6.17,19.17,20,30.36,25.43,9.88,4.78,26.19,7.22,41,10.67a346.89,346.89,0,0,0,98.46,9c53.83-3,107.69-21.17,135.38-49.23,8-8.14,32.84-29.51,41-80.38C546.54,673.33,513,710,488.27,725c-35.36,21.55-87.14,29.46-136.2,28.72C301.26,752.93,256,736,213.41,725Z"/><path class="cls-10" d="M653.75,414.56S586.31,674.22,574.5,628.7c0,0,48.9-114.66,48.9-215.83C623.4,412.87,660.5,392.64,653.75,414.56Z"/><path class="cls-11" d="M688.57,423.45v0Z"/><path class="cls-2" d="M238.06,663.21c.21,1.1,1.45-.6,1.3-1.88-15.24,30.68-2.57,60.44,3.86,90.5,3.07,14.37-.76,24.28-5.46,38.16-4.35,12.87-8.52,24.18-14.93,36-5.68,10.46-7.88,19.39-20,23.9-11,4.09-23.07,8.68-34.59,10.41s-20.81.44-31.94-2.18c-7.65-1.8-10.91-3-17.94-2.3-6.69.69-14.92,1.71-21.41.08-13.29-3.34-33.22-10.12-40.88-21.93s-2.6-26.54,6.45-36c27.3-28.66,68.34-32,102.8-15.26,7.37,3.59,11,6.21,14.48-2.63,3.6-9.14,3.65-23.19,1.17-32.75-2.91-11.16-15-18.67-20.72-28.56-6.32-10.89-19.37-23.29-26.46-33.67-22.23-32.56-24.26-76.28-26.43-115.47-.27-4.84-1.91-14,3-16.6C110.39,553,217.31,554.22,238.06,663.21Z"/><path class="cls-3" d="M238.16,770.71c-5.67,22.7-30.77,50-52,60.34-9.93,4.84-25,8.58-37.07,7.08-10.74-1.34-24.8-14.21-13.85-25.66-9.51,12.68-13.07,27.71-32.53,26.95-15.26-.6-25.92-20.57-13-32.58-12.46,17.69-39.52,4.65-24.83-6C59.06,808.49,51.32,819.17,53,829,55,841.07,64.78,840,72.5,845c11.38,7.49,13.32,12.15,28.6,13.34,10.51.83,22,1,32,1.88,45.26,4.16,79.8-12.52,97.42-54.61a174,174,0,0,0,10.33-35.09Z"/><path class="cls-7" d="M125.16,509c-23,38.46-27.28,69.23-19.15,130.45,3.24,24.41,16.65,47.55,29.53,64.69s32.51,35.37,38.26,55c3.18,10.84-2.34,17.39-7.88,25-2.11,2.9,6.52,7.17,10.41,8,11.57-6.62,10.45-22.79,8.71-33.67-3.7-23.15-28.13-48.78-40.17-65.47-13.75-19-20.77-42.41-27.38-73.43C108.43,577,126.32,516.57,125.16,509Z"/><path class="cls-7" d="M237.81,658.54c-11,13.36-11.08,33-9,52.92,2.08,19.45,12.1,34,9.64,53.21-.78,6.12-7.06,19.7-10.45,26.52-11.81,23.78-20.83,36.31-31.48,53.48-17.19,6.42-58.64,8.08-65.35,6.41-12-8.18,3.93-48,35-49.82-.2-3.25-11.4-5-18.1-2.9-19.28,6-34,32.45-33.56,51.6-17,1.41-36.51.14-37.75-10.47,1.9-22.45,23.56-52.37,51.41-41.39-3.66-8-14.47-9.08-27.53-5.74-22,5.61-33.61,26.51-35.78,47.8,1.12,8.63,4.06,13.77,11.74,19.91,10.12,3.47,29.84,7.2,43.84.84,2.8.25,4.43,4.2,7.57,4.88,8.31,1.78,23.58-.93,35.06-2,11.76-1.07,23.2-3.1,29.5-6.31,3.19-.28,3.27,2.9,7.39,1.57,3.89-4.69,7.37-9.75,12.52-13.31,11.27-24.13,29.33-45.67,35.65-73.68,4.37-19.36-3.53-40.11-6.59-58-1.91-11.15-3.58-23.23-3.38-36.3.08-5.28,2.25-12.38,1.67-17.35C239.94,659,239.24,658.34,237.81,658.54Z"/><path class="cls-7" d="M188.92,803.31c-1.66-10.6-18.67-18-28.52-22.9-30-14.89-77.23-16.21-108.88,22.74-9.46,11.65-11.4,33.16,3.94,45.51,3.26,2.63,16.37,9.88,19.37,2.23s-8.34-7.79-11.92-11.27c-14.78-14.38,6.9-39,17.31-45.39C113.57,773.77,160.59,783.72,188.92,803.31Z"/><path class="cls-2" d="M398.58,673.75c7.79,14.59,8.83,33.07,12.86,48.92A331.94,331.94,0,0,1,418,755.94c3.24,21.68,4.25,43.87,4.06,65.89-.14,17.07-4.63,37.64-11.23,53.32-5.49,13.05-17.25,20.13-30.51,24.28-12.11,3.79-24.79,5.31-37.65,6.51-7,.65-14.5,2-21.69,1.33-8.21-.77-16.24-4.3-24.33-5.9-6.68-1.32-11.22,2.22-17.43,2-5.89-.23-11.89-4.82-17-7.68s-9.36-5.68-15-6.7c-5-.91-11.24-.49-14.4-5.68-6.18-10.15,2-28.06,7-37.35,7.21-13.36,16.44-15.17,30.2-18.88,14.26-3.85,28.09-9.14,43.06-9.8,10.15-.45,19.42-.54,28.53,4.06,5.52,2.78,15.58,9.3,21.61,8.75-6.18-25.93-18.34-53.43-32.56-76.24-11.15-17.88-18.56-37.4-29.37-55.3-5.81-9.6-16.64-21.3-9.13-32.59,11.26-16.92,33.91-17.38,52.34-18.28a82.8,82.8,0,0,1,12.9.67Z"/><path class="cls-6" d="M418.6,834c-4.08,22.57-29.49,39-48.91,45.06-18.5,5.82-32.5,4.87-37,3.64-8.51-2.34-20.45-14.94-10.89-23.9-6.08,9.57-24.37,17.58-35.31,17.27-13.37-.39-24.22-14.84-13.85-27.25-7.42,3.76-10.52,14.19-19.41,15.53-11.74,1.78-11.56-9.54-7.73-17.31-6,9.85-21.68,38.15-5,42.75,3.51,1,8-.61,11.52-.25,1.26.14,2.44-2.26,4.13-1.77,3,.85,1.78,3.39,4.11,4.71a63.44,63.44,0,0,0,21.11,8.07c9.17,1.81,18,.09,26.64.69,9.53.65,17.95,6.53,29.07,6.13,15.05-.54,30.3-6.43,44.51-10.54,15.43-4.47,34.58-14.23,35-33.48Z"/><path class="cls-7" d="M291.61,662h-1.95c-5.33,16.39,3.4,31.59,9.13,44.35,17.74,39.52,41.42,76.58,57.39,118.1-18.26-11.09-34.15-11.73-56.09-9.84-31.87,2.74-62.35,21.65-73,49-3.38,8.64-6.53,21.15.65,26.09,3.85,2.64,14.35,6.52,22.18,3.91,10.44,15,35.26,17.48,47.61,13,17,9.84,54.37,6.18,75,0,21.53-6.45,37.19-16.88,42.39-22.17,25.05-60.82,20.18-158.61-11.09-208.69-1.61-2.59-4.38-7.67-8.47-6.52,1.42,6.94,4.59,13.73,7.17,21.52,10.39,31.38,17.3,70.52,15,116.73-.53,10.55-2.63,22.26-4.57,33.26-1.85,10.57-3.35,22.36-7.17,30C399.09,884,379,890.42,364,894.14c-17.69,4.4-39.78,7.9-48.25,1.38-10.44-7.18-.66-34.57,18.25-45.07-15.35,2.34-25.82,10.49-32.6,22.24-3.16,5.47-5.87,14.42-7.18,21.52-.94,5.13-11.91,2-18.26,1.23-9.58-1.1-13.7-5.79-15.65-15.58,2.14-19,15.64-31.89,33.25-39.78-14.25-.06-25.35,7.84-33.25,16.3-5.42,5.79-9.81,17.11-12.4,25.44-.61,2-5.21,3.91-9.12,1.23,1.3-45.58,49.1-59.26,89.35-55.37,12.76,1.24,34.57,2.61,55.43,23.42.46-9-8.91-13.44-11.74-19.57-3.32-7.18-4.32-15.47-7.18-22.82-13.39-34.5-32.33-64.5-50.86-96.52-9-15.56-18.51-28.72-21.52-48.26A3.09,3.09,0,0,1,291.61,662Z"/><path class="cls-2" d="M841.81,264c-9.44-1.64-25.84,13.64-34.55,18.41-13,7.11-25.77,14.44-37.41,23.7-10.46,8.33-18.71,19.28-28,29-17.68,18.58-32.28,42.65-44.74,65.44-8.95,16.36-13,35.94-31.77,42.39-25.14,8.64-56,7.93-82,5.78-34.72-2.89-67.29-10.21-86.09-40.19-12.61-20.1-13.09-42-16.08-64.4-3.17-23.75-20.18-48.1-31.89-68.41C418.7,222.59,323.18,153.15,391.08,92.64c35.34-31.51,80.47-66.95,128.17-73.4,51.55-7,113.72-10.7,163.46,7.62C703,34.33,717.43,50,735.22,61c16.43,10.15,26,27.28,41.77,38,12.84,8.7,30.13,9.93,45.4,13.74,13,3.25,17.22,7,19.7,21.08,3.22,18.23-.68,37-2.33,55.11-2.48,27.07-1.34,55.48-14.18,80.18Z"/><path class="cls-8" d="M662.41,21.63c1.42.76,3.62.28,5.23,1,9.51,14.69,71.41,24.86,66.83,55.23-3.84,25.44-54.22,19.78-78.79,12.91-36.54-10.23-65.32-26.29-94.44-45.81C531.47,25,530.68,4.88,574.67,12.59Z"/><path class="cls-12" d="M765.59,236s1-7.74,1.24-9.93c.89-7.12,5.72,1.85,6.61-5.27,1.26-10.15,3.59,5,4.55-5.1,6-63.53-12.59-80.27-22.38-92.87-8.14,10-24.36,21-27.09,33.35Z"/><path class="cls-4" d="M581.4,191.82c-11.33,34-103.23,131.2-133,65.67,4.38,33.15,34.55,64.86,32.15,92.39,46.35-7.37,92.31-102.29,105.19-136.25Z"/><path class="cls-13" d="M512.53,329.09c-19.95-15.74-30.59-39-42.62-52.37-8.28-9.2-20.78-21.57-31.37-28.36,13.13,20.35,23.74,40.75,28.93,64.73,3,14.05,7.39,29.48,14.46,41.6,5.21-3.87,12.7-19.61,15.48-25.6Z"/><path class="cls-4" d="M784.86,294.58c-16,27-41.94,23.93-71.83,12.9-40.67-15-57.27-75.2-61.12-101.2-16.18,27.52,1.17,76.6,10.36,109.89s38.8,47.44,39.09,84c15.78-11.42,34.09-38.71,43.37-56.69Z"/><path class="cls-13" d="M768.15,305.23c-28.18,22-51.74,32.82-86.84,29.94,2.61,11.24,8.71,22.21,11.87,33.53,2.82,10.12,2.49,20.85,5.73,30.77,8,.44,17.65-20.08,23-26.46,3.48-4.16,11.74-18.39,16.49-18.55Z"/><path class="cls-7" d="M394.27,102.06c1,1.86,7-2.33,10-4.43,24-16.87,49.83-34.35,78.74-47.84,41.45-19.34,88.45-36,150.54-24.72,36.82,6.68,65,21.78,90.52,39.64,19.66,13.74,34,27.07,47.25,45.59,3.91,5.46,6.68,13.34,14.08,15.93-22-64-76.35-105.87-157.1-119.77C527.3-10.93,445.42,45,393.1,88.68,394,92.73,394,97.53,394.27,102.06Z"/><path class="cls-14" d="M548.15,35.75c11.72,14.69-34,53.1-43.58,43.72-5.43-7,7.62-28.23,13.88-35.45S540.39,24.69,548.15,35.75Z"/><path class="cls-15" d="M496.57,60.39c-6,14.15-4.87,24.53,2.61,27.52,18.81,7.51,50.08-10.78,56.76-34.28,3.47-12.19.32-22.36-11.3-26-1.77-.54-7.53-1.73-12-.33C522.41,30.53,502.27,46.93,496.57,60.39ZM518.45,44c6.29-7.28,21.94-19.33,29.7-8.27,11.72,14.69-34,53.1-43.58,43.72C499.14,72.49,512.19,51.24,518.45,44Z"/><path class="cls-16" d="M348.1,146.4c-6.2,3.72.95,11.65,2.92,14.54,9.29,13.62,22.38,26.6,32.82,40,42.1,54.09,84.72,109.54,94.65,188.55,16-16.35,11.74-32.62,5.1-56.08-15.26-53.89-46-96.16-79.51-135.62C387.74,178.56,371,159,349,146.51Z"/><path class="cls-16" d="M695.71,428.86c34-68.65,84-116.68,135.59-162.69a4.39,4.39,0,0,1-.58-2.9c-.73-.28-.81-1-1.75-1.17-24.1,10.1-54.8,38.25-74.32,57.85-11.59,11.65-20.16,22-30.93,35.84-8.62,11.09-24.6,28.28-27.68,40C693.09,407.1,698.35,418.26,695.71,428.86Z"/><path class="cls-17" d="M538.19,133.61c-21.05-12.92-44.12-4.16-54.81,8-5.62,6.37-5.68,5.91-12.56,11.3-7.68,6-11,18.8-15,26.88-4.51-24.5,16.09-48.8,33.08-63.1,16.56-14,38.95-17.53,47.27,5.77,1.08,3,2.69,6.11,2.3,9.28Z"/><path class="cls-18" d="M511.69,127.73c7.4-6.2,21.74-1.6,26.39,6.36,8.67,14.84,4.46,40.4,2.4,56.92-2.76,22.09-3.15,53.7-34.14,46.72-17-3.82-39.16-15.23-46.65-32.19-8.74-19.82,5.13-50.28,20.81-65,9.39-8.8,16.12-7,27.87-12Z"/><path class="cls-17" d="M451.69,185.87c-1.66,9.16,1.55,22.79,2.93,32.06.83,5.57,2,10.41,4.71,15.23,5,9,15.57,19,25.66,21.19,10.47,2.28,19.27,2.25,27.5-4.29,7-5.59,14-11.12,21.19-16.69-16.14,1.26-39.56,4.4-53.88-4.6-13.61-8.55-28.8-31.77-29.38-48.21Z"/><path class="cls-19" d="M534,232.8c2.21-4.43.91-2.45,2.85-7.37-8.62,8.95-35.49,9.87-44,6.75-18.45-6.81-38.37-18.92-34.86-55.81,6.17-28.83,39.65-65.18,77.9-46.91-5.55-17.41,3.58,6.18,2.54,5.47-21.78-11.08-61.13.1-78.46,41-4.62,10.91-1.68-9.44-4.13-2.16-4.08,12.07-.7,18.8,2.09,28.93C468.58,241.37,512.37,246.91,534,232.8Z"/><path class="cls-10" d="M544,210.09c-5,28.8-53,55.71-75.56,21.38C443,192.67,463.62,116,511.92,110.39c14.54-1.67,21.78,5.93,32.06,18.57,0-7.65-12.87-22.13-24.46-23.67-59.65-7.92-96.8,98.84-54.09,143.25,10.81,11.23,27.17,15.32,42.47,11.57C525.86,255.69,542.43,236.69,544,210.09Z"/><path d="M487.92,176.55c-3,24.32,8.55,45.78,25.86,47.94s33.82-15.8,36.85-40.12-8.55-45.78-25.87-47.93S491,152.24,487.92,176.55Z"/><path class="cls-20" d="M486.11,159.85c-1.14,9.2,4.25,17.45,12.06,18.42s15.06-5.69,16.21-14.89-4.25-17.45-12.06-18.42S487.26,150.65,486.11,159.85Z"/><path class="cls-20" d="M512.71,208.71c-.56,4.48,2.07,8.5,5.87,9s7.34-2.77,7.9-7.25-2.07-8.5-5.88-9S513.26,204.23,512.71,208.71Z"/><path class="cls-2" d="M529,248c7.23-22.24,12.55-51.4,12.88-72.78.24-15-.59-30.85-3.51-45.47-1.74-8.67-4.71-22.92-10-31.84,5.61-.84,21.6,12.33,24.6,14.85,16.65,14,29.29,44.48,28.83,66-.34,15.51-5.54,29.65-11.32,43.67C555.25,227.48,541.53,237.26,529,248Z"/><path class="cls-10" d="M523.65,261.1c32.07-40.42,27.69-130,4.17-165.06C534.37,136.37,541.42,207.29,523.65,261.1Z"/><path class="cls-17" d="M724.23,161.74c19.95-1.51,33.16,13.37,36.36,26.14,1.69,6.71,1.74,6.34,4.7,12.81,3.31,7.22.85,17.69.75,25.05,12.43-16.05,6.56-41.35-.38-58.05-6.78-16.29-21.33-27.13-36.06-13.39-1.91,1.78-3.89,3.55-4.83,6Z"/><path class="cls-18" d="M745,167.16c-3-7.26-15.13-9.28-21.47-5.26-11.83,7.5-18.33,27.56-23,40.29-6.27,17-17.81,40,7.22,46.57,13.72,3.58,34,3.62,45.8-5.86,13.73-11.07,15.09-38.3,9.23-54.79C759.22,178.24,753.67,177,747,169Z"/><path class="cls-17" d="M766.63,231.66c-2.22,7.25-9.64,15.92-14.1,22.1a35.22,35.22,0,0,1-9.1,9.27c-6.94,4.61-18.38,7.92-26.5,5.74-8.43-2.27-14.78-5.58-18.29-13.39-3-6.68-6-13.3-9.1-20,11.21,6.94,27,18,40.71,16.82,13-1.1,32.72-12.23,39.28-23.9Z"/><path class="cls-19" d="M689.54,234.85c.06-4,.26-2.1.7-6.39,2.88,9.7,22,20.41,29.27,21.31,15.9,2,34.84.66,46.09-27.35,6.32-23.17-4.32-62-38.83-63.06,10.53-10.53-4.9,3.13-3.88,3,19.9.13,44.2,22.93,41.43,59-.74,9.63,4.74-6.2,3.8,0-1.56,10.25-6.53,13.86-12.32,20.14C733.66,265.51,699.9,253.15,689.54,234.85Z"/><path class="cls-10" d="M690.75,214.66c-7.13,22.72,17.51,60.12,46.68,43.72,33-18.54,46.71-81.77,13.84-103.86-9.9-6.64-18-3.84-30.14,1.45,2.83-5.55,17.58-11.19,26.55-8,46.12,16.56,33.09,107.71-14.42,123.87-12,4.09-25.39.93-35-7.5C686.85,254.45,682,234.51,690.75,214.66Z"/><path d="M743.85,219.08c-6.9,18.73-24.3,29.56-38.88,24.19s-20.8-24.9-13.91-43.63,24.31-29.56,38.89-24.19S750.75,200.35,743.85,219.08Z"/><path class="cls-20" d="M706.56,238.55c-.56,4.48,2.07,8.5,5.88,9s7.34-2.77,7.89-7.26-2.07-8.5-5.87-9S707.12,234.06,706.56,238.55Z"/><path class="cls-20" d="M752.5,203.59c-2.6,7.06-10,10.83-16.57,8.42s-9.75-10.1-7.15-17.16,10-10.83,16.57-8.42S755.11,196.52,752.5,203.59Z"/><path class="cls-2" d="M688,244.63c-3.54-9.36-12.35-16.43-21.91-19.36.09-1.49.19-2.93.3-4.31,1.21-14.75,2.1-29.5,8.74-43.08,7.7-15.74,28.24-33,45.53-37,3.11-.7,19.6-4.25,23.35-1.55-7.13,4.49-14.62,13.69-19.12,19.32-7.58,9.48-14.09,20.63-19.54,31.58C698.05,205,691.35,226.44,688,244.63Z"/><path class="cls-10" d="M686.44,259.2c-8.1-41.24,28.54-104.39,58.69-121C725.31,164.93,693.69,213.61,686.44,259.2Z"/><path class="cls-21" d="M665.21,315.7c32.48,27.9,37.11,89.44,30.8,128.3-7.17,44.22-55.13,88.94-101,59.68-8.63-5.5-18.51-18.41-28.63-20.25s-25.06,7.32-35.26,9.49c-19.34,4.14-43.64,9.68-62.26-.36C426.29,469.64,461,400,475.53,370c12.55-26,43.48-65.5,67.33-85.12,22.52-18.52,30-14.69,58-9.78,34,6,42.51,24.52,66.61,45.17Z"/><path class="cls-2" d="M500,327.14c66.65-79.61,82.59-190.47,139.5-146.51,27.19,21,7.8,79.79,32.16,134,18.22,40.5,29.49,76,30.43,120.06,1,48.1-13.69,86.06-69,76.42C609.8,507,596.15,488.53,577,484.15c-21.82-5-33.83,18.38-56.77,21.2-38.48,4.74-76.13-26.31-76.68-66.14-.73-52,37.85-67,56.27-106.43l2.68-2.5Z"/><path class="cls-4" d="M563.34,224.82c.79,58.15-8.92,105.08-35.23,153.67-18.83,34.79-4.37,90.67,45.08,101,54.77,11.43,98.15-53,89.45-102.57-8.24-46.93-45.72-97-5.81-142.88,7.53,60.25,102.66,319.13-44.8,269.11-39.57-13.42-32.58-15-70.68-4.1-25.63,7.33-66.15-4.38-84-30.31-30.94-44.87,26.72-112.54,48-150,13.41-23.56,41.14-49.5,44.52-76.71Z"/><path class="cls-13" d="M692,385.54c4.26,31.89-4.43,94.95-49,89.37-35.42-4.44-64.91-28.26-102-30.68-21.25-1.38-44.41,8.37-60.16-12-14.45-18.65-15.93-40.37-5.53-61.12C457.1,393.1,441.8,445.82,458,472.7c5.84,9.69,15.21,18.08,26.47,21.26,5.78,1.63,12.89,1.74,18.83,2.51,10.45,1.36,12.64-1.12,22.37-5,9-3.6,19.5-8.73,28.76-11.26,11.93-3.26,20.14,4.14,29.9,10.82,25.3,17.28,44.94,26.46,73.2,11.49,11.49-6.08,24.33-11.61,31.55-23.47,4.58-7.54,10.76-28,5.11-35.54Z"/><path class="cls-16" d="M562.77,471.82c-15.35,8.39-31.36,21.11-52.69,20.85-35.37-.45-62-24.91-54.58-62.58,8.88-44.88,41.2-78.19,54.4-118-8.26,6.38-13.49,16.61-20.23,25.83A260.51,260.51,0,0,0,472,366c-13.28,24-32.63,47.24-32.2,83.89.68,56.35,78.2,80,121.36,42.54,19.86,10.49,29.51,22.05,50.5,27.08,25.05,6,45.69.85,58.75-8.74,53.45-39.24,37.27-156.46-3.91-196.15l-1.86-.23c14.54,36.22,33.51,79.71,23,134.25-3.78,19.51-13.06,41.76-29.07,51.2C627.84,517.91,582.33,491.65,562.77,471.82Z"/><path class="cls-8" d="M539.93,376.65c20-7,37.76-8.81,61.52-3,27.41,6.67,51.51,20.95,48.3,44.77-4.51,33.48-51.79,56.93-80.26,52.38-24.22-3.87-53.84-34-59.7-51.87C501.73,394.36,522.12,382.85,539.93,376.65Z"/><path class="cls-22" d="M650.93,396.16c14.27,19.86-8.5,38.28-25.32,43.28-17.6,5.23-38.32,7.95-55.82,2.22-33.12-10.84-51.52-63.75-8.2-72.31-22.11-4.21-45.49,10.83-53.38,31.39-8.67,22.6,10.76,53.05,28.95,66.35,20.16,14.74,45,15.84,66.18,4,22-12.37,49.75-19.15,59.29-43.65Z"/><path class="cls-23" d="M562.33,386.78c-1.78,6.16,15.09,11.05,36.65,17.26s39.66,11.37,41.43,5.21-13.44-21.33-35-27.54S564.1,380.61,562.33,386.78Z"/><path class="cls-15" d="M496.68,410.33c-.27,6.62,3.16,17.84,5.57,23.64,10.18,24.55,47.59,56.54,80.1,55,25.89-1.25,59.32-17.46,72.17-40.59,4.21-7.57,8.85-21.11,9.53-30.94,1.69-24.48-29.76-45.47-57.77-52.19-25.52-6.12-45.3-5.36-65,.9C520.45,372.73,497.85,382,496.68,410.33Zm43.25-33.68c20-7,37.76-8.81,61.52-3,27.41,6.67,51.51,20.95,48.3,44.77-4.51,33.48-51.79,56.93-80.26,52.38-24.22-3.87-53.84-34-59.7-51.87C501.73,394.36,522.12,382.85,539.93,376.65Z"/><path class="cls-2" d="M423.41,48.77c-41.27,42.39-23.91,111.55-18.63,163.61,3.79,37.24,14.79,77,1.49,113.23-8.31,22.59-19.57,55.9-45.18,63.88-36.43,11.36-32.88-37.47-41.24-58.77-9.94-25.34-32.41-53.16-48.37-75.47-16.4-22.92-42.2-42.34-43.17-72.06-.76-23.5,12.1-40.14,28.24-55.69,34.95-33.64,77.66-52.77,113.29-84.06,19-16.65,34.31-35.64,61.62-36.52,11.53-.36,30.15-3,52.11,23.58-25.2,8-56.65,29.84-81,50.44Z"/><path class="cls-6" d="M398.09,139.94c-3.44,27.6-3.51,48.59-27.21,66.18a81.21,81.21,0,0,1-60.49,15.53c-53.52-7.47-65.92-42.38-62.79-90.45-40.77,34.81-25.91,90.1,7.65,123.27,14.37,14.2,33.45,22.66,48.27,36.65C320,306.64,319.33,326.24,331,341.25c1.37-25.89-.11-60.81,28.06-70,29.9-9.75,47.42,18.73,49.13,45.21,5.76-45.79-6.88-89.18-4.06-134.18Z"/><path class="cls-7" d="M431,42.35C371,63.43,391.88,162,397.71,218.73c3.71,36.19,9.49,76.34.74,115.41a93.2,93.2,0,0,1-7.09,19c-7.09,13.06-27.69,38.44-46.53,24.45-5.67-4.21-3.44-16.5-4.08-27.93-1.55-27.68-16.29-53-31.09-69.09-8.24-9-19.83-15.9-28.28-23.37-18.65-16.51-39.09-42.81-43.3-69.68-8.2-52.33,42.54-62.21,70.48-80.06,28.57-18.27,50.64-41.78,77.1-65.06,12.6-11.08,27.23-23.88,43-26.78C452.13,11.3,469.19,24.11,485,34c-5.83-15.58-20.45-27.9-36.65-32-13.3-3.36-28.42-2.23-39,1.75-24.92,9.4-50.2,37.42-69.2,54.71C317.35,79.21,292.8,97,268.53,110c-7.33,3.94-14.9,6.08-22.21,11.41-15.53,11.31-33.44,28.2-34.56,55.53-1.44,35.18,17.9,62.11,38.07,81.32,8.13,7.74,30.61,21.9,38.76,30.35,32.64,33.85,22.53,69.45,25.51,91.09,2.32,16.87,23.9,31.18,47.65,27.21,68.06-11.37,68.55-95,59.63-171.23-5.94-50.74-21.52-98.82-15.34-144.46C409.29,67.18,420.9,53.24,431,42.35Z"/><path class="cls-2" d="M770.72,94.9C781.08,75.58,789.27,66.77,811,67.31c28.71.7,37.7,18.11,51.53,41.87,15.49,26.61,36.38,50.32,51,77.17,14.71,27,40.06,42,57.22,66.69,13.59,19.58,22.87,48.39,5.48,67.4-19.7,21.54-50,34.7-71.57,53.44-22.08,19.15-29.3,37.9-35.07,65.17-4.21,19.88-4,56.15-33.18,49.75-55.37-12.17-63.34-70-69.5-116.12-7.56-56.56,26-97.55,40.2-148.47,7-25.19,30-58.94,26.32-86.05-2.17-15.82-15.89-23-31.05-22-11,.77-8.76,5.66-18.81-2.32-5.69-4.51-11.09-14-14.1-20.54Z"/><path class="cls-6" d="M962.21,240.5c23.14,13.13,13.68,50.17-6.15,61.16-20.8,11.54-49.15,14-72.48,8.45-21.92-5.2-35.92-19.16-50.13-36.92-17.58-22-14.77-39.31-16.53-65.35-10.22,47-40.63,86.88-48.75,133.26-7.55,43.11-2.52,88.84,16.62,126.09-14.16-30.45,2.85-74.07,31.44-90.37,43.77-24.94,52.58,31.47,45.59,62.4,10.5-52.41,49.79-63.65,88.78-86.25,13.82-8,31.71-17,39.32-31.5,7-13.22,4.74-42.77-8.85-50.26Z"/><path class="cls-7" d="M769.22,104.37c5-2.11,7.57-11.28,12.56-17.34,10.12-12.28,28.32-19.18,47.12-6.41,14.18,9.62,22.8,29.8,32,46.52,22.91,41.58,34.28,72.6,82.06,115.15,30,26.73,35.79,43.81,33.58,55.5-3.66,19.45-29.72,36.85-47.51,48.63-34.38,22.75-66.61,42.35-79,102.63-2,9.74,2,23.15-4.49,29.32-5.44,6.52-27-3-36.34-10-25-18.8-36.63-56.36-35-93,1.6-37.11,13.63-71.2,25.09-102.73,11.29-31.1,27.74-60.23,34.05-91.23,5.37-26.35,5.56-51.48-11.54-66.66,14.35,52.27-16.37,99-35.08,145-12.36,30.38-29.69,71.36-33.36,111-3.55,38.17,8.57,75.37,26.21,96.86,11.66,14.2,39.45,36.11,63.19,39.07,15.61,1.94,22.34,2.78,27.14-11,2.63-7.55.13-18.31.57-27.34,3.73-75.93,69-95.53,108.94-131.61,9.65-8.74,23.63-23,21.91-44.26-2.54-31.45-33.47-52.68-54.53-73.24-13.09-12.77-25.43-26.24-36.31-42.33S892,143.5,882.55,128c-13.07-21.55-29.87-56.41-58.2-64-27.21-7.26-41.18,4.25-51.76,21C769.14,90.39,761.32,99.78,769.22,104.37Z"/><path class="cls-14" d="M723,42.07c-25,8.17,17.4,79,36.26,75.12,11.68-4,5.51-35.22.86-47S740.32,35.22,723,42.07Z"/><path class="cls-15" d="M781.56,101.9c.3,19.06-7.27,29.48-19.53,27.84-30.85-4.12-64.39-44-60.28-73.54,2.13-15.32,12.41-24.19,30.87-20.53,2.8.55,11.61,3,17.15,7.43C762.31,53.12,781.27,83.76,781.56,101.9ZM760.14,70.17c-4.69-11.88-19.82-34.95-37.12-28.1-25,8.17,17.4,79,36.26,75.12C771,113.22,764.79,82,760.14,70.17Z"/></g></g></svg>