<svg xmlns="http://www.w3.org/2000/svg" viewBox="0 0 900.76 1039.63"><defs><style>.cls-1{fill:#98a0ad;}.cls-2{fill:#797f8a;}.cls-14,.cls-3{fill:#46484f;}.cls-15,.cls-17,.cls-18,.cls-19,.cls-21,.cls-23,.cls-3,.cls-6{fill-rule:evenodd;}.cls-4{fill:#c0c9da;}.cls-5{fill:#a2a9b8;}.cls-6{fill:#585c63;}.cls-7{fill:#f4e7bb;}.cls-19,.cls-8{fill:#dbd0a8;}.cls-9{fill:#abb1c2;}.cls-10,.cls-18{fill:#4d4a3f;}.cls-11,.cls-23{fill:#fff;}.cls-12{fill:#3a3d42;}.cls-13,.cls-17{fill:#242629;}.cls-15{fill:#be4044;}.cls-16{fill:#ff3f46;}.cls-20{fill:#d6cba4;}.cls-21,.cls-26{fill:#a19a83;}.cls-22{fill:#454545;}.cls-24{fill:#3b3b3b;}.cls-25{fill:#262626;}</style></defs><g id="Layer_2" data-name="Layer 2"><g id="Layer_1-2" data-name="Layer 1"><path class="cls-1" d="M840.41,309.57c-.67-2-2.18-4.38-1.19-7.73,21.89,34.42,25.6,85.24,34.42,124.14,6.33,27.93,9.43,56.91,14.17,84.85,8.8,51.95,12.7,122.13-9,170.91-4.26,9.59-10.32,22.6-16.52,31.09-11,15-10.74,2.45-12.05-10.34-2.54-24.76-3-50-6.49-74.76-8.68-62.45-22.42-126.25-38.34-187.56a372.05,372.05,0,0,1-11.86-89.25Z"/><path class="cls-2" d="M895.08,540.38c-.31,17.68,6.58,38.22-1.23,54.92-9.05,19.35-20.49,18-28.89.87-12.69-25.81-16-68.64-17.72-98.24-2.08-36.34-11.73-74.57-21-109.49-5.52-20.82-18-100.77-44.64-104.72-45.91-6.8-23.16,190.52-21.41,213.46C765,559.6,769,624.32,799.53,680.05c8.72,15.93,15.84,35.84,33.29,43.73,21,9.48,24.94-3.82,34.62-19.87,16.95-28.11,32-81.3,27.2-115.79Z"/><path class="cls-3" d="M846.5,726.88a39.32,39.32,0,0,0,.38-10c23.7-29.23,35.59-72.1,37.58-121.23,3.79-93.13-21.09-175.95-38.92-250.15-1.83-7.6-3.69-15-5.46-22.31A169.84,169.84,0,0,0,850.92,302c12.31,51.51,26.08,100.73,36.92,154.7,16,79.81,22.07,182.61-11.3,244.78a110.93,110.93,0,0,1-32.1,37.11C845.24,734.68,845.94,730.8,846.5,726.88Z"/><path class="cls-4" d="M197.29,632.85c-31-.08-67.12-16-88.95-37.1-22.69-22-24.36-50.67-33.44-78.57-30,23.3-7,103.67,8,130.41,28.87,51.19,92.56,74.3,122.49,9.66Z"/><path class="cls-5" d="M203.7,670.27c-43.06,0-75.33-1.5-101.65-37.95-23.53-32.58-35.19-63.62-35.24-104-5.76,35.34-5.1,75.07,13.48,106.66,13.82,23.49,58.32,81.85,90.88,66.47Z"/><path class="cls-6" d="M66.93,534.62c13,73.5,79.45,109,131.39,110a57.21,57.21,0,0,0,2.12-14.89c-22,3.33-81.07-17.75-104.33-53.59-15.74-24.26-17-39.53-18.74-53.81-2.26-18.66-2.31-41.11-14.8-15.31-6.7,13.85-9.93,32.09-9.77,47.24.35,35.09,7.12,69,34.17,107.26,26.13,37,58.95,53.86,99.06,63.06.72-3.45.43-12.26,1.82-15.5-34.4-7.17-64.52-22.71-88.71-53.62C70.61,619,61.06,572.9,67,536.13c.57-.16.45-.53.29-.91Z"/><path class="cls-4" d="M809.5,461.56c10.35,20.6,12.56,54.41,15.92,77.55,2.79,19.23,5,38.46,7.42,57.64C837.21,631,844.6,666,846.08,700.46c2.57,59.69-13.27,117.32-19,175.81-1.24,12.73-4.81,25.19-5.42,38-.8,16.81,2,21.95,12.13,33.85,7.76,9.12,17.19,20.32,8.24,28.53-6.69,6.14-28.56,9.77-37.78,9.65-2.65,23.75-31.32,28.5-48.92,19.79a42.87,42.87,0,0,1-12.54-8.81c-2.09-2-7.38-11.42-9.49-12.34-9.25-4-21.88,4.8-32.22-1.82C687,974,681,937.47,679.4,922.08c-2.88-27.26-2.79-56-2.72-83.79.12-44.86,5.13-89.54,9.79-134.08,4.26-40.71,9.6-81.66,15.93-121.93,3.67-23.36,7.79-47.31,12.53-70.43,3.08-15,7.19-33.83,18.67-44.87Z"/><path class="cls-5" d="M793.15,962.73c-.75-.62-1.48-1.28-2.19-2A20.75,20.75,0,0,1,793.15,962.73Z"/><path class="cls-5" d="M672.61,887.14c.57-48.06,5.72-95.91,8.14-143.75.54-10.7-3.43-29.34,9.78-30a14.88,14.88,0,0,1,13.71,6.9c5.15-17.2,12.07-33.06,21.2-44.59,21-26.5,50.64,6.19,52.89,29.85,2.32,24.51-11.56,53-16,77.32-5.11,28.27-12.34,56.08-16.59,83.88-4.09,26.73-5.55,58.95-.3,85.82a148.35,148.35,0,0,0,7.22,24.87,32.33,32.33,0,0,0,12,6c10.44,2.3,41.09-7.35,28.41-20.64,18.08,15,46.32,5,32.61-21.41l13.55,8.14c8.09,10.76,17.42,21.83,2.75,33.61-10.14,8.14-25.33,3.24-36.36,1.8-8.76,14.1-21.92,28.37-40.63,25.57-16.37-2.44-21-10.14-22.73-23-2.23-2.54-4.27-5.39-6.51-8.1-3.89.65-10.87,4.1-14.42,4a30.13,30.13,0,0,1-14.61-4.43c-9.36-5.69-16.14-15.59-21-25.38C675.45,932.46,672.34,910.8,672.61,887.14Z"/><path class="cls-6" d="M677.24,801c.38-3.27-1-10.1,4.07-10.84,4.72,27.74,1.38,64.33,3.39,99.6a345.56,345.56,0,0,0,5.42,46.07c2.11,11.25,6.08,33.27,12.87,39.3,6.6,5.87,18.11,3.09,26.43.68.65-9.24-2.64-14.53-6.1-19.65,19.07,2.6,17,36.91,30.49,42.69,9.09,3.89,26.88,2.21,33.2-1.36,16.44-9.29,7.13-35.88-4.62-48.07,15.81,5,20.39,16.49,24.27,31.13,8.19.6,19.62,2.93,27.1,0,10.3-12.84-3.93-29.78-16.26-39.3-2.26,1.37-2.21,5-6.78,4.07,30.25-135.65,39.53-334.45,2.71-468.18a343.67,343.67,0,0,0-17.85-49.5c2.11-6.93,4.12-13.88,5.95-20.88,13,23.17,22.4,50.93,29.52,79.19,22,87.51,27.22,200.18,16.94,305.57-5,51.69-9.77,99.13-23.59,138.47,20.78,10.39,29.08,27.62,30.72,45.63,2.11,23-28.39,19.28-47,16.71.23,8.14-7.42,12.32-11,16.68-13.22,6.5-36,10.34-50.14,2.71-9.63-5.18-14.78-12.16-18.29-22.36-8.69,3.88-25.06,2.55-32.63-1.1-10.69-8.45-13.85-20.54-17.62-36.59C668.32,908.53,671.92,847.32,677.24,801Z"/><path class="cls-4" d="M813.56,453.43c7.09,34,15.05,61.72,13.56,96.23-.73,16.84-2.16,32.48-5.73,48.75-6.75,30.75-8.11,61.64-13.25,92.49-7.92,47.55-27.81,96.55-45.74,140.68-17.65,43.45-47.61,88.65-95.21,102.67-25.29,7.46-58.79,8.52-85.71,7.07-29.41-1.58-57-19.13-85.05-25.71C472.5,910,446.19,908.76,423,900.32c-31.78-11.56-62.09-30.13-93.25-41.37-48.21-17.38-101.5-26.22-146.5-51.49-22.28-12.52-41.46-35.79-52.72-58.62-14.49-29.4,10.86-57,30.12-77.21,18.61-19.55,36-46.42,58-62,23.33-16.57,49.29-30.41,71.84-47.71,32.4-24.85,52.24-46.65,93.51-56.61,40.69-9.83,80.82-23.41,122-31.2,71.94-13.6,147.48-14.79,219.48-4.38Z"/><path class="cls-7" d="M774.26,800.38C777.29,745.44,746,744,699,771.3c-44.5,25.79-55.68.89-92.83-27.17C502.33,665.7,503.08,804.39,443.57,846.45c-42.4,30-67.55,3.42-108.41-8.73C315.7,831.94,296,821.05,275.59,816c-33.66-8.38-33.64,13.89-2.78,25.26,46.26,17,94,26,141,46.63,45.45,20,95.36,32.66,143.66,39.91,73.81,11.09,170.76,10.84,211.42-119.26Z"/><path class="cls-8" d="M772.65,795.5s-8.13,113.85-225.67,63S368.07,807.7,368.07,807.7L357.9,874.79s140.29,61,237.88,56.93S727.93,915.45,772.65,795.5Z"/><path class="cls-6" d="M62.05,858c6.89-7.27,7.87-15.18,10.84-26.42,5.51-20.88,18.26-43,29.81-63,78.41-135.65,192.57-244.41,374.68-272.37.69-1.92-6.42-4.21-10.16-6.1-.86-.44-1.1-1.37-2.71-1.36-26.95.14-54.36,8.14-78.59,15.59-48.37,14.85-89.22,34.59-126.7,61-55.7,39.21-99.62,87-137.55,143.64-11.77,17.59-25,36.55-36.58,57.6-10.57,19.24-25.39,44.33-27.78,65.72C56.24,841.7,58,851.58,62.05,858Z"/><path class="cls-6" d="M809.39,396.53c-3.58,5.61-10.07,10.88-10.84,17.62-.65,5.7,3.5,16.74,5.42,25.07,12.88,55.94,20.43,126.62,8.81,191.74-10.93,61.29-27.68,119.27-46.65,181.61,29.81-46.07,52.56-131.42,61.56-184.32C841.25,548.52,828.84,465.15,809.39,396.53Z"/><path class="cls-6" d="M757.22,836.26c-14.13,22.39-39.09,56.64-60.3,69.11-60.4,35.53-173.87,14.91-233.75-4.07-73.76-23.37-138.79-48.09-203.94-70.46a9.57,9.57,0,0,1-2-.68h-1.35c5.65,5.76-20.81-3.83-13.37,1.11,5.36,3.56,46.8,28.19,56.06,31.41C359.6,883.92,418.21,908.74,482.82,925,556.1,943.48,664.09,954.56,716,908.8,736.44,890.76,748,864.13,757.22,836.26Z"/><path class="cls-4" d="M756.39,136.78c.3-8.9,9-17.89,14.48-24.87C728.49,56.12,655.8,19.43,585.61,43.82,528.06,63.82,478.3,114,439.22,161.13c-67,80.82-86.56,176.33-75.78,280,6.94,66.7,15,165.72,100.09,173.55,150.54,13.86,274.22-126.19,299-264.44Z"/><path class="cls-9" d="M628.3,177.44C579,235.15,436.88,162,509.72,92.41c-16.42,1-39.87,21.24-52.09,32.08-25.95,23-45.35,52.93-67.6,79.38-44.76,53.22-53.24,123.87-56.57,191.67-1.88,38.22,3.63,74.08,31,102.68,21.52,22.47,75.54,49.36,107,36.69,2.85-30.79-8.36-61.7-3.81-93.16,4.18-28.87,18-58.12,28.11-85.4,12.43-33.4,26.41-64.34,49.7-91.59,18.46-21.6,40.73-41.09,56.47-64.95Z"/><path class="cls-9" d="M589.06,131c11.2,8,35.41,3.52,46.54-3.31,15.32-9.4,31.23-23.26,27.66-43.45-6.76-38.14-66.72-16-78.24,7.15-3.64,7.32-7.55,17.87-6.14,26.4,1.38,8.34,8.25,11.71,13.23,17.27Z"/><path class="cls-9" d="M677.1,689.78c-8.09,28.54-65.69-1.68-79.85-11.64-14.42-10.14-22.47-17.92-38-23-15.19-4.93-30.44-7.72-44.78-16.77-41.56-26.24-98.22-126.49-46.75-166.66,35.66-27.83,86.45,22.36,111.86,43.64,18.76,15.71,35.69,32.46,49.19,52.87,14.67,22.18,21.08,52.43,36.15,72.74Z"/><path class="cls-6" d="M425.92,200.1c9.46-1.66,11-12.45,14.6-19,31.87-57.81,79.84-94.82,148-119.24,13.27-4.76,53-17.51,89.76-12,7.55,2.59,80,46.31,83.75,58.28,2.2,4.63-1.41,12.36-5.22,17.28-3.17,4.11-10.75,8.23-8.45,13.66,8,3.38,16.2-7.49,21-13s6.83-8.85,6.83-16.84c0-8.16-12.71-17.57-19.46-23a530.77,530.77,0,0,0-76.44-51.5c-5.75-3.16-30.53-.8-40.91.56C608.44,39.4,583.23,48,561.44,57.13,538,67,514.13,79.56,496.11,93c-27.34,20.46-49.27,48.42-63.93,82.66C429,183.18,421.41,191.86,425.92,200.1Z"/><path class="cls-7" d="M732.94,52.07c18.56-.52,26.71,26,22.42,38.75C733.08,76.73,720.59,56.79,732.94,52.07Z"/><path class="cls-10" d="M721,48.27c-12.61,38.78,40.53,41.41,35.63,68.17,12.65-24.79,10.22-56.79-10.86-71.18C742.35,43,725.32,37.22,721,48.27Zm12,3.8c18.56-.52,26.71,26,22.42,38.75C733.08,76.73,720.59,56.79,732.94,52.07Z"/><path class="cls-11" d="M725.9,94.1C731,93,735.4,95,740,100.9c10.27,13.23,2.07,34-9.7,35.76C711.27,139.53,699.61,99.57,725.9,94.1Z"/><path d="M713.2,119.73c1.64,7,7.41,11.64,12.88,10.35s8.57-8,6.93-15-7.41-11.64-12.88-10.35S711.56,112.72,713.2,119.73Z"/><path class="cls-11" d="M723.44,108.52c0,3,1.82,5.42,4.06,5.42s4.07-2.43,4.07-5.42-1.82-5.42-4.07-5.42S723.44,105.52,723.44,108.52Z"/><path class="cls-12" d="M705.25,131.4c10.59,21.19,45.71,16.34,44.8-14.77-.62-21.34-21.26-37.47-37.38-23.25-11.81,9-7.48,36.2,5.18,44.37C717.83,139.81,709.26,134.54,705.25,131.4ZM725.9,94.1C731,93,735.4,95,740,100.9c10.27,13.23,2.07,34-9.7,35.76C711.27,139.53,699.61,99.57,725.9,94.1Z"/><path class="cls-4" d="M706.93,83.44c-1-1.11.63,5.88,1.14,8,.74,3,1.57,6.36,2.45,9.11a75.73,75.73,0,0,0,6.38,13.93c5.61,10.1,13.5,21.15-4.28,21.15-16.84,0-21.51-15.58-21.48-29.7,0-10.33-.21-30.35,15.79-23.15Z"/><path class="cls-13" d="M706.5,85.48s10.84,40.66,33.2,53.53C739.7,139,703.11,129.52,706.5,85.48Z"/><path class="cls-1" d="M469.61,123.52c0-.38.55-.77.67,0-33.38,52.16-58.56,114.06-67.75,191.06-4.59,38.5-5.49,78.64-4.06,119.93,1.77,51.42,2.83,117.15-9.44,160.55-12.83,45.37-56.71,69.15-94.87,62.34-27.76-4.95-55.48-19.72-69.15-42-14.61-23.8-23.33-57.24-20.32-93.5,3.92-47.36,20.47-89.88,37.26-128,24.28-55.19,61.08-108.95,98.29-152.53C378.68,196.31,422.09,158.27,469.61,123.52Z"/><path class="cls-2" d="M402.63,476.31c0,38.1-4.87,79.4-32.53,107.74-32.45,33.26-52.4,4.49-61.09-30.49-17.43-70.16-.76-156.31,18.85-221.6,12-39.83,34.09-77.14,52.41-113.86,8.74-17.51,18-35.12,30.39-50.78,13.3-16.82,33.27-27,46.74-40.5-48.17,23.5-70.08,54.19-101.08,95.35-21.13,28.06-45.81,53.92-69.58,80.82-22.15,25.07-49.36,50.48-63.53,79.29-15,30.41-27,69.22-33.59,102.16-13.11,65.43,8.41,151.12,78.83,168.63,38,9.46,72.52,12.31,105.82-14.06,30.79-24.38,30.77-58.78,38.53-93.58Z"/><path class="cls-14" d="M269.77,302.32c-26.8,38-85.39,128.75-85.39,226.33,0,101.72,43.47,134.07,86.74,147.72,49.62,15.66,88.6-6.75,99.42-13.82,32.82-21.43,46.55-57.33,49.8-108.75,1.83-28.82-2.64-61.39-3.58-89.48-.93-27.77-2.45-55.9-1.36-83.34,2.27-56.59,8.32-108.62,21.68-153.12,6.76-22.48,17.82-96.88,91.47-148.38-10.1-3-26.82,7-37.94,12.87a268.92,268.92,0,0,0-29.81,19C403.73,151.77,328,219.65,269.77,302.32ZM242,393.86c24.28-55.19,61.08-108.95,98.29-152.53,38.44-45,81.85-83.06,129.37-117.81,0-.38.55-.77.67,0-33.38,52.16-58.56,114.06-67.75,191.06-4.59,38.5-5.49,78.64-4.06,119.93,1.77,51.42,2.83,117.15-9.44,160.55-12.83,45.37-56.71,69.15-94.87,62.34-27.76-4.95-55.48-19.72-69.15-42-14.61-23.8-23.33-57.24-20.32-93.5C208.61,474.55,225.16,432,242,393.86Z"/><path class="cls-11" d="M607.9,87.85c6.28.13,10.84,3.05,14.57,9.83,8.38,15.23-6.88,33.56-21.1,32.61C578.39,128.74,575.71,87.17,607.9,87.85Z"/><path d="M587.23,117.33c0,9,5.47,16.26,12.2,16.26s12.2-7.28,12.2-16.26-5.46-16.27-12.2-16.27S587.23,108.34,587.23,117.33Z"/><path class="cls-11" d="M601.46,108.52c0,3.74,2.28,6.77,5.09,6.77s5.08-3,5.08-6.77-2.28-6.78-5.08-6.78S601.46,104.77,601.46,108.52Z"/><path class="cls-13" d="M573.59,119.45c6.56,23,48.88,26.34,56.33-4.16C635,94.37,615.36,74,592.65,84.12c-16.26,6.1-18.63,33.55-6.09,44.39C586,130.51,577.41,123.43,573.59,119.45Zm34.31-31.6c6.28.13,10.84,3.05,14.57,9.83,8.38,15.23-6.88,33.56-21.1,32.61C578.39,128.74,575.71,87.17,607.9,87.85Z"/><path class="cls-7" d="M576.39,622.84c14.68,18.24,35.74,31,53.92,46.07,14.36,11.94,39.9,28.48,57.59,11.25,8.53-8.32,4.07-20.74,5-31.57,1.18-13.13,7.47-22.51,10.54-35.2,9.47-39.13-42.78-45.11-71.22-44.76-16.65.21-35.27,5.58-46.38,19Z"/><path class="cls-15" d="M675.33,587.6c7.56,5-.24,28.54-5.05,36.59-6.6,11-15.4,16.35-28.84,12.2-11.76-3.64-23.57-16.33-26.79-28.46-5.08-19.11,12.22-54.85,34.93-51.5Z"/><path class="cls-16" d="M673,630.82c-4.73-10.31-50.27-29.67-56.51-13.78-6.06,15.46,30,27.51,40.25,26Z"/><path class="cls-17" d="M610.23,615.48c3.3-1.55,6.51-3.24,9.73-5,8.85,13.51,21.84,24.73,30.88,24,15.91-7.36,20.2-25.28,20.85-48l.92,0a25,25,0,0,0,6.86-1c1.08,24.08-3.45,49.5-21.08,55a61.7,61.7,0,0,0,16.94,7.45c-15.59,2.71-28.14-1.13-35.92-5.42-14.16-7.8-23.75-17-30-26.58C609.68,615.77,610,615.63,610.23,615.48Z"/><path class="cls-18" d="M583.28,624a163.56,163.56,0,0,0,44.61,40.81c10,6.16,26.5,12,37.18,12.91,22.45,2,20.84-15,21.68-37.27.42-11.25,1.57-24.55,4.06-31.16.24-.63.51-1.31.8-2a25.45,25.45,0,0,0,7.73,4.21,23.31,23.31,0,0,0-.4,2.52c-2.37,25.45,10.38,58.36-5.41,72.5C681,697.78,663.1,697.81,648.9,692c-19.15-7.91-29.85-14.87-42.69-26.43-11.51-10.35-23.63-23.9-32.15-39.44A28.26,28.26,0,0,0,583.28,624Z"/><path class="cls-4" d="M266.87,806.88c4.36,37.32-50.83,70.31-80.3,80.58-12.55,4.37-37.25,4.78-46.55,16.23-10.7,13.17,8.13,31.75-15.48,40.38a31.17,31.17,0,0,1-26.39-2.13c-7.94,14-33.36,10.06-44.68,4.19C45.32,941.9,42.1,939.41,33.1,939c-8.13-.36-17.56-.33-21.6-8.89-8.35-17.73,17.31-27.39,26.65-36.57,9.18-30.77,16.61-33.25,20.58-49.85,8.81-36.85,29.88-71.72,48.31-105,16-28.83,47.81-59,84.62-62,11.57-.94,14.08-5.55,24.44-.79,22.07,10.14,28.33,41.59,36.54,62.79Z"/><path class="cls-5" d="M111.76,763c-7.1,12.82-8.67,25.53-3.49,28.4s15.12-5.2,22.22-18S139.16,747.86,134,745,118.86,750.2,111.76,763Z"/><path class="cls-5" d="M124.46,814.79c-5.29,9.56-6.46,19-2.6,21.18s11.27-3.88,16.57-13.44,6.46-19,2.6-21.17S129.76,805.23,124.46,814.79Z"/><path class="cls-5" d="M149.36,745.29c-3.55,6.41-4.34,12.78-1.75,14.21s7.57-2.6,11.12-9,4.34-12.77,1.75-14.21S152.91,738.87,149.36,745.29Z"/><path class="cls-5" d="M138.64,915.57c3.41,25.25-37.55,25.12-39.23,3.19-8.5,12.49-51,33.42-47.44,2.64-4.12,9.76-17.31,3.85-21.44-3.11-6.09-10.28.55-14.85,7.69-21.42-15.11-2.6-31.58,9.7-32.46,25.48-1.37,24.47,20.3,10.53,33.71,11,3.14,24.66,33.9,14.09,49.1,12,19.81-2.74,33.61,4.15,51.43-8.13Z"/><path class="cls-6" d="M34,888.61c-13,2.78-20.11,6.87-28.32,18.89C.76,914.67-4.51,935.39,6.48,942c7.41,4.45,19,2,29.81,2,5,11.27,29.38,15.9,48.78,11.52,5-1.13,9.33-5.07,14.23-5.42,3.45-.24,7.25,1.74,10.84,2,12.37,1,30.8-3.08,35.91-10.16,5.3-7.35.36-20.87.68-29.81,20.49-15.54,53.39-22.48,80.5-39.22,34.56-21.35,45.49-51.73,39.64-62-11.18,48.78-97.33,69.6-124.21,88.34-2.41,1-6.08.7-7.45,2.71-2,7.6,0,20-.68,30.49-2,6.8-22.31,10.87-35.19,6.8-6-4-.63-25.73,10.17-31.17-16.94,5.42-22.37,16.94-23,33.88-10.89,4.43-35.24,4.74-36.63-2.73-.64-18.27,7.49-23.7,17.61-29.14-16.75.86-25,6.8-29.81,23-11.48.7-23.68,2.06-22.36-3.39,1.39-33.18,23.92-28.61,28-32.44-1.36.23,26.43-125,126-223.61,9.38-9.28-44.59,28.3-57.93,45.74C81.94,757.92,47.33,819.08,34,888.61Z"/><path class="cls-4" d="M491,795C457,835.55,438.75,887.9,434.12,940c-1.08,12.21-4,22.31,5.66,32.18,9.46,9.69,19.77,11.45,24.16,26.09,2.69,9,3.8,22.8-4.41,28.16-11.41,7.46-22.42-5.43-32.52-4.81-9.56.58-19.59,9-30.57,10.53-10,1.39-24.67,4.14-34.21,1.69-11.79-3-13.39-17.85-21.62-20.79-3.09-1.1-8.47,4.43-12.23,4.22-6.4-.34-12.26-4.64-17.61-7.81-17.52-10.38-36.77-28.47-22-49.17,6.81-9.55,14.74-10.85,18-23,3.83-14.19,1.43-32.58,1.28-47.47-.39-38.49-17.79-70.34-21.38-107-1.75-17.92-1.66-35.47,14.57-45.7,14.18-8.94,36.51-13.43,52.8-15.69,44.43-6.17,121.17,13.94,142.39,57.32Z"/><path class="cls-5" d="M458.48,984.69c5.86,16.33-9.42,22.92-24.42,19-11.8-3.08-19.6-14.49-25.78-24,16.13,34-51.65,43.47-50.36,5.16-25.14,17.76-34.59-1.07-30.86-25.85,3.19-21.11,5.39-41,5.39-63.74,0-47-19.47-86.81-25.75-132.81-2.44-17.87,1.17-37,2.74-53.8-19,21.27-15.95,37.86-20.29,59.22-5.56,27.32-1.94,55.78,2.34,82.64,4.23,26.59,10.91,52.34,9.79,80-.53,12.89-2.37,20.52-9.86,30.87-8.11,11.19-12.39,12.43-3.73,26,7.84,12.33,19.41,19.61,32.56,23,4.48,1.15,15.45.76,19,2.69,4.1,2.2,6.32,9.32,10.41,12.62,19.68,15.93,53.92,10.64,69.82-8.25,9.46,7.82,57.47,9.52,49.81-11Z"/><path class="cls-6" d="M421.2,1011.12c-3-10.91-2.48-21.08-8.79-29.82-3.63-5-13.64-13.48-20.35-10.16,17.64,10.84,17.42,41.11,11.31,47-18.86,7.83-41.56,1.36-52-3.62-2-11,7.47-25.94,2.71-35.23-5,5-8.75,17.44-12.87,26.43-24.88,0-40.72-9-52.17-22.36-3.17-8.59,2.4-22,13.55-23,12.79-25.63,9.43-60.91,5.42-91.47-5.09-38.79-21-105-15.59-128.05-5.42,1.32-9.07,15.73-9.48,21-4.6,59.14,14.23,98,14.23,157.22,0,9.38-.36,18.95-2.71,25.06-1.5,3.89-8,8.07-10.84,11.3-5.33,6-10.86,14.38-8.81,28.68,3.48,24.39,42,44.73,64.37,37.27,2,9.5,21.42,17.59,40.66,18.3,14.92.55,37.95-3.39,42.69-11.52,25.75,9.49,52.2-5,51.5-18.3,1.07-25.46-12.88-35.23-35.24-48.11-7.87-46.81,9.2-75.37,23-107a477.53,477.53,0,0,1,25.07-48.78c2.69-4.66,7.11-10.36,5.42-16.26-12.17,5.4-34.45,42.85-43.36,61-15.46,31.45-27.49,62.89-25.73,109.08.69,18.29,18.95,22.36,18.95,21.68,11.54,5.42,16.24,12.38,14.91,21.69C455.62,1013.43,433.41,1013.15,421.2,1011.12Z"/><path class="cls-7" d="M599.09,6.2c14.71-.26,20.88,7,25.32,17-2.06-1-5.23-.47-7.7-.09-13.89,5.08-13.21,38.62-39.06,45.49-10.07,1.6-14.72-23.57-1.26-47.53C581.84,11.4,591.06,5.76,599.09,6.2Z"/><path class="cls-19" d="M625.18,25.17c-23-8.13-18.26,15.74-33.92,21.34-18.52,6.63-16.72-25.69-9.58-35.77C572.15,19.93,554,65.38,575,71.31c19.86,5.6,25.91-24.85,35.23-33.94Z"/><path class="cls-10" d="M558.1,61.76c1,9.49,8.9,19.22,15.58,19.65,21,.54,27.86-13.25,36.5-27.69,5.68-9.49,10.6-32.49,24.39-21-4-16.07-21-37.91-43.27-31.61C567.7,7.81,554.71,34,558.1,61.76ZM576.39,21.1c5.45-9.7,14.67-15.34,22.7-14.9,14.71-.26,20.88,7,25.32,17-2.06-1-5.23-.47-7.7-.09-13.89,5.08-13.21,38.62-39.06,45.49C567.58,70.23,562.93,45.06,576.39,21.1Z"/><path class="cls-7" d="M838,182.38c21-11.75,37.89,37.05,37.94,51.5.11,24.59-11.65,48.08-21.34,70.81-10.09,23.65-23.66,41.17-36.89,62.07s-17.59,45.91-26.85,69.05c-19.27,48.21-22.61,94.39-30.08,145-2.84,19.23-12.46,40.15-33.92,42.29-10.58,1.06-19.84-2.6-28.15-8.81-8-6-10.82-18-18.91-23-3.06-1.9-11.51-1.94-15.35-2.34-8.61-.92-4.11-4-11.78.07-9.35,5-14.93,17.7-24.41,23.3-16.17,9.55-44.32,23.84-64,19.69-26.56-5.58-69.47-39.15-82.67-60.68-23.43-38.22-24.06-63-21.68-107.07,2.29-42.36,27.2-106.93,43.37-146.36,13.53-33,27.48-47.1,48.79-75.9,30.47-41.18,107.78-101.22,158.56-100.29Z"/><path class="cls-20" d="M788.92,244.53c1.47,62.49-12.28,108.62-32.53,166.72-9.11,26.12-34.56,79.29-67.09,101.65,0,0,71.15-166.71,63-266.33Z"/><path class="cls-20" d="M766.55,571.86c6.15,40.15-51.93,45.87-63.42,10.47-25.91,6.65-48.63,4.43-64.61-18.85-24.7,22.94-57.19,2.86-71.71-21.62-15.08-25.41-12.25-66.74-13.73-96.05-3.87-76.45,21.95-164.66,66.64-226.17,22.86-31.48,45.12-65.45,80.76-84.08C654,153,626.85,174.77,594.19,210.42c-23.35,25.49-54.27,47.89-73.58,76.66-50.42,75.13-88.95,183.75-45.35,270.55,12.62,25.13,44.93,62.07,73.75,69.22,30.66,7.62,65.06-4.16,97.59-32.62,25.39-14.2,18.49-6.63,45.18,7.57,10.6,5.63,19.81,17,32,18.85,16.88,2.65,18.57-9.92,32.64-14.23Z"/><path class="cls-21" d="M750.53,259.66c-3,81-31.16,208.68-72.49,267.63,16.26-10.84,36.41-42.72,46.75-69.12,22.08-56.38,36.53-122.12,36.59-197.83C760.5,256.93,753.68,259.05,750.53,259.66Z"/><path class="cls-18" d="M657.61,591.7c5,1.32,10.24,2.4,15.58,3.38,11.25,16.25,35.31,39.08,66.51,35.21,39.14-4.85,43.44-52.38,46.08-96.22,1.62-26.88,7.08-63,13.55-82.67,10.7-32.51,25.92-66,41.89-100.23,7.65-16.42,16-32.44,23-49.46,7.07-17.19,14.65-36.37,16.26-56.24,3.19-39.42-17.88-60.71-43.37-72.5,3.48,3.6,2.16,11.77,4.75,17.62,2.33,5.28,11.75,9.71,16.26,16.94,14.54,23.29,1.3,61.28-7.45,83.34-17.32,43.63-38.45,77.42-56.24,123.31-10.58,27.29-21.64,58.52-25.75,94.18-4,34.74-2.66,83.11-21.68,98.24-18.07,14.39-52.79.58-61.66-13.55,6.21-3.42,12.31-5.45,16.37-11.55-19.65,7.46-56.92-3.39-64.37-16.94,3.39,10.84,4.74,13.55,12.1,20.36-8.17,9.63-17.79,16.66-29,23.69a76.73,76.73,0,0,1-46.08,11.52c-19.92-1.53-40.17-13.89-54.21-25.08-38.42-30.62-56-73.34-50.9-144.28,2.82-39.45,18.07-75.41,32.52-106.38,42.77-91.64,120.7-185,209.36-207.32h.68c-5.33,0-14.31-.09-23,.67-19.52,1.71-49.67,15.91-64.27,25.67-22.26,14.88-37.88,29.07-57.59,48.78-37.11,37.11-66.24,89.3-88.85,141.69-17.12,39.65-31.35,87.41-25.75,143.64,3.08,31,10.62,61.41,26.5,83.31C494,601.7,520.15,627.58,567.58,635,611.73,642,640.09,610.64,657.61,591.7Z"/><path class="cls-22" d="M691,140.46c18.87-6.46,44.31-12.09,67.67-10.94,41.27,2,106,15.25,93.47,66.49-3,12.13-13.15,22.27-21.17,29.14-18.87,16.18-40.12,26.27-61.37,25.67-20.48-5.42-94.87-91.86-92.93-100.88C677.51,145.77,685.84,142.21,691,140.46Z"/><path class="cls-23" d="M752.86,144c-1,5.16,17.34,8.65,40.74,13.07s43,8.1,44,2.93-17.08-17.2-40.48-21.62S753.84,138.81,752.86,144Z"/><path class="cls-24" d="M836.6,148.5c29.17,8,7.31,40.6-10.84,46.41-19.27,6.17-43.7,4.88-63.7,0-17.2-4.23-34.22-12.49-46.41-25.72-13.73-14.88-18.58-39.77,1.89-45-19.77,2-46.31.68-49,27.1-2.61,25.38,42.08,57.74,57,74.54,17.39,19.66,36.49,33.45,63.7,25.71,22.29-6.35,46.73-21.35,58.31-41.94,4.21-7.49,16.69-27.42,9.45-33.92Z"/><path class="cls-25" d="M658.32,159.43c5.49,21.59,81.46,99.45,104.42,108.33,31.92-1.43,98.88-26.09,103.59-88-3.11-23.95-26.27-39-47.43-46.75-35.57-13.09-86.13-17.65-126-6.77C675.13,131.06,652.49,136.47,658.32,159.43Zm18.3-9.49c.89-4.17,9.22-7.73,14.33-9.48,18.87-6.46,44.31-12.09,67.67-10.94,41.27,2,106,15.25,93.47,66.49-3,12.13-13.15,22.27-21.17,29.14-18.87,16.18-40.12,26.27-61.37,25.67C749.07,245.4,674.68,159,676.62,149.94Z"/><path class="cls-26" d="M568.48,312.36c-6.44,16.77-6,32.54,1,35.23s17.87-8.73,24.32-25.5,6-32.54-1-35.22S574.93,295.6,568.48,312.36Z"/><path class="cls-26" d="M594.05,373.59c-4.81,12.5-4.48,24.26.73,26.27s13.33-6.51,18.13-19,4.48-24.26-.73-26.27S598.85,361.09,594.05,373.59Z"/><path class="cls-26" d="M612,284.8c-3.22,8.39-3,16.29.49,17.63s9-4.37,12.18-12.76,3-16.29-.49-17.63S615.25,276.41,612,284.8Z"/></g></g></svg>